<svg id="Layer_1" data-name="Layer 1" xmlns="http://www.w3.org/2000/svg" viewBox="0 0 113.39 113.39"><defs><style>.cls-1{fill:#cb5050;}</style></defs><title>Artboard 1</title><path class="cls-1" d="M58.44,89.64A31.52,31.52,0,1,1,90,58.12,31.55,31.55,0,0,1,58.44,89.64Zm0-57.72a26.2,26.2,0,1,0,26.2,26.2A26.23,26.23,0,0,0,58.44,31.92Z"/><path class="cls-1" d="M21.05,89.59a2.66,2.66,0,0,1-1.72-4.69L76,37.12a2.66,2.66,0,1,1,3.43,4.07L22.77,89A2.65,2.65,0,0,1,21.05,89.59Z"/><path class="cls-1" d="M100.45,90.82a2.65,2.65,0,0,1-1.63-.56L37.55,42.48a2.66,2.66,0,1,1,3.27-4.2l61.27,47.78a2.66,2.66,0,0,1-1.64,4.76Z"/></svg>