<svg id="Layer_1" data-name="Layer 1" xmlns="http://www.w3.org/2000/svg" viewBox="0 0 652.9 909.94"><defs><style>.cls-1{fill:#f5de70;}.cls-2{fill:#ca4743;}.cls-3,.cls-6{fill:#1a4955;}.cls-32,.cls-33,.cls-34,.cls-35,.cls-36,.cls-4,.cls-5{fill:none;stroke-miterlimit:10;}.cls-4,.cls-5{stroke:#1a4955;}.cls-4{stroke-width:1.04px;}.cls-5{stroke-width:1.07px;}.cls-13,.cls-6{font-size:10px;}.cls-13,.cls-16,.cls-31,.cls-6{font-family:Dosis-Regular, Dosis;}.cls-7{letter-spacing:-0.02em;}.cls-8{letter-spacing:-0.04em;}.cls-9{letter-spacing:-0.01em;}.cls-10{letter-spacing:-0.03em;}.cls-11{letter-spacing:-0.01em;}.cls-12{letter-spacing:-0.01em;}.cls-13,.cls-16,.cls-31{fill:#222221;}.cls-14{letter-spacing:0em;}.cls-15{letter-spacing:-0.02em;}.cls-16{font-size:11px;}.cls-17{letter-spacing:-0.01em;}.cls-18{letter-spacing:-0.02em;}.cls-19{letter-spacing:-0.02em;}.cls-20{letter-spacing:-0.01em;}.cls-21{letter-spacing:-0.02em;}.cls-22{letter-spacing:0em;}.cls-23{letter-spacing:-0.01em;}.cls-24{letter-spacing:-0.02em;}.cls-25{letter-spacing:-0.02em;}.cls-26{letter-spacing:0em;}.cls-27{letter-spacing:-0.01em;}.cls-28{letter-spacing:-0.03em;}.cls-29{letter-spacing:-0.01em;}.cls-30{letter-spacing:-0.01em;}.cls-31{font-size:12px;}.cls-32,.cls-33,.cls-34,.cls-35,.cls-36{stroke:#222221;}.cls-32,.cls-33,.cls-34,.cls-36{stroke-width:0.75px;}.cls-33{stroke-dasharray:5.01 5.01;}.cls-34{stroke-dasharray:4.96 4.96;}.cls-36{stroke-dasharray:5;}</style></defs><title>Artboard 1 copy</title><rect class="cls-1" x="32.25" y="29.5" width="595.28" height="280.66"/><circle class="cls-2" cx="52.48" cy="82.03" r="0.52"/><circle class="cls-3" cx="67.58" cy="78.73" r="0.78"/><path class="cls-3" d="M109.6,140.23a.52.52,0,0,1-.51-.41C104,115,93,79,87.45,79c-5.59.39-12.95,29.29-16.52,48.63a.52.52,0,0,1-1-.19c.93-5,9.28-48.91,17.51-49.47,7,0,18.25,40.17,22.7,61.68a.52.52,0,0,1-.4.61Z"/><path class="cls-3" d="M123.35,74.5a.52.52,0,0,1-.49-.34c-1.86-5.24-5-8.93-9.28-11a14.89,14.89,0,0,0-5.94-1.5h0a.52.52,0,0,1,0-1c.14,0,11.52,0,16.21,13.15a.52.52,0,0,1-.49.69Z"/><path class="cls-3" d="M116,74.28a.52.52,0,0,1-.49-.34c-1.89-5.3-6.25-5.3-6.44-5.31h0a.52.52,0,0,1,0-1c.06,0,5.29,0,7.43,6a.52.52,0,0,1-.49.69Z"/><path class="cls-3" d="M87.54,71.93A6.89,6.89,0,1,1,94.43,65,6.9,6.9,0,0,1,87.54,71.93Zm0-12.74A5.85,5.85,0,1,0,93.4,65,5.86,5.86,0,0,0,87.54,59.19Z"/><path class="cls-3" d="M109.6,140.23a.52.52,0,0,1-.43-.23L71.11,82.91a.54.54,0,0,1,.13-.74.51.51,0,0,1,.72.14L110,139.39a.54.54,0,0,1-.14.74A.51.51,0,0,1,109.6,140.23Z"/><path class="cls-3" d="M66.59,138.4V135.8a1.72,1.72,0,0,1,.49-1.35,2.12,2.12,0,0,1,2.54,0,1.27,1.27,0,0,1,.47,1,.41.41,0,0,1-.06.27.28.28,0,0,1-.21.07q-.26,0-.28-.21a1.72,1.72,0,0,0,0-.24,1.11,1.11,0,0,0-.1-.26.88.88,0,0,0-.2-.26,1,1,0,0,0-.34-.18,1.63,1.63,0,0,0-.5-.07q-1.21,0-1.21,1.28v2.61a1.12,1.12,0,0,0,1.24,1.29,1.56,1.56,0,0,0,.59-.1.69.69,0,0,0,.34-.28,1.43,1.43,0,0,0,.15-.32,2.22,2.22,0,0,0,.06-.34c0-.15.11-.22.28-.22a.28.28,0,0,1,.21.07.43.43,0,0,1,.06.27,1.29,1.29,0,0,1-.47,1,1.89,1.89,0,0,1-1.28.41,1.8,1.8,0,0,1-1.26-.44A1.75,1.75,0,0,1,66.59,138.4Z"/><path class="cls-3" d="M75.8,140v-5.72q0-.18.21-.2h1.49a2.09,2.09,0,0,1,1.32.39,1.51,1.51,0,0,1,.5,1.27A1.46,1.46,0,0,1,78,137.34l1.29,2.49a.17.17,0,0,1,0,.11.26.26,0,0,1-.1.2.33.33,0,0,1-.22.09q-.15,0-.29-.29l-1.29-2.52H76.35V140a.18.18,0,0,1-.08.16.33.33,0,0,1-.19.06.32.32,0,0,1-.2-.06A.19.19,0,0,1,75.8,140Zm.55-3.06h1.14q1.26,0,1.26-1.19t-1.26-1.17H76.35Z"/><path class="cls-3" d="M66.54,166.11a.62.62,0,0,1,.11-.42.48.48,0,0,1,.36-.11q.52,0,.52.42a1.64,1.64,0,0,0,.51,1.15,2.17,2.17,0,0,0,1.63.53q2.18,0,2.18-2.27v-.29a1.92,1.92,0,0,0-.57-1.52,2.32,2.32,0,0,0-1.58-.5q-.39,0-.39-.42t.38-.44a2,2,0,0,0,1.43-.43,2,2,0,0,0,.47-1.5,2.11,2.11,0,0,0-.44-1.47,1.82,1.82,0,0,0-1.4-.48,1.94,1.94,0,0,0-1.5.49A1.64,1.64,0,0,0,67.8,160a.43.43,0,0,1-.49.48.54.54,0,0,1-.4-.12.67.67,0,0,1-.11-.45,2.2,2.2,0,0,1,.14-.75,3,3,0,0,1,.44-.78,2.16,2.16,0,0,1,.93-.66,3.81,3.81,0,0,1,1.47-.26q2.77,0,2.77,2.68a3.49,3.49,0,0,1-.34,1.63,2,2,0,0,1-.9.92,2.4,2.4,0,0,1,1.55,2.46v.29a3.08,3.08,0,0,1-.87,2.43,3.33,3.33,0,0,1-2.3.77,3.25,3.25,0,0,1-2.32-.77A2.33,2.33,0,0,1,66.54,166.11Z"/><path class="cls-3" d="M74.38,165.36v-4.7a3.16,3.16,0,0,1,.86-2.45,3.63,3.63,0,0,1,4.5,0,3.16,3.16,0,0,1,.86,2.45v4.7a3.18,3.18,0,0,1-.86,2.46,3.63,3.63,0,0,1-4.5,0A3.18,3.18,0,0,1,74.38,165.36Zm1,0q0,2.32,2.11,2.32t2.11-2.32v-4.7q0-2.3-2.11-2.3t-2.11,2.3Z"/><path class="cls-3" d="M82.44,165.36v-4.7a3.16,3.16,0,0,1,.86-2.45,3.63,3.63,0,0,1,4.5,0,3.16,3.16,0,0,1,.86,2.45v4.7a3.18,3.18,0,0,1-.86,2.46,3.63,3.63,0,0,1-4.5,0A3.18,3.18,0,0,1,82.44,165.36Zm1,0q0,2.32,2.11,2.32t2.11-2.32v-4.7q0-2.3-2.11-2.3t-2.11,2.3Z"/><path class="cls-3" d="M90.51,165.36v-4.7a3.16,3.16,0,0,1,.86-2.45,3.63,3.63,0,0,1,4.5,0,3.16,3.16,0,0,1,.86,2.45v4.7a3.18,3.18,0,0,1-.86,2.46,3.63,3.63,0,0,1-4.5,0A3.18,3.18,0,0,1,90.51,165.36Zm1,0q0,2.32,2.11,2.32t2.11-2.32v-4.7q0-2.3-2.11-2.3t-2.11,2.3Z"/><path class="cls-3" d="M109.92,157.82a.19.19,0,0,1,.1-.16.37.37,0,0,1,.21-.06q.18,0,.21.14l1.48,4.93,1.48-4.93a.19.19,0,0,1,.2-.14.39.39,0,0,1,.22.07.19.19,0,0,1,.1.16v0l-1.66,5.44q-.06.19-.32.19t-.31-.19l-1.67-5.44A.14.14,0,0,1,109.92,157.82Z"/><path class="cls-3" d="M114.27,163.28a.41.41,0,0,1,0-.18l2.67-5h-2.42a.17.17,0,0,1-.14-.07.3.3,0,0,1,0-.34.17.17,0,0,1,.15-.07h2.91q.2,0,.2.17a.43.43,0,0,1-.06.21l-2.66,5h2.62a.17.17,0,0,1,.15.07.28.28,0,0,1,.05.17.3.3,0,0,1-.05.17.17.17,0,0,1-.15.08h-3.11Q114.27,163.46,114.27,163.28Z"/><path class="cls-3" d="M118.13,157.81a.19.19,0,0,1,.09-.15.3.3,0,0,1,.19-.06.17.17,0,0,1,.18.15l1.39,4.93.81-3q0-.17.27-.17a.25.25,0,0,1,.26.2l.8,3,1.4-5q0-.12.21-.12a.39.39,0,0,1,.21.06.17.17,0,0,1,.1.14.19.19,0,0,1,0,.06l-1.57,5.44a.29.29,0,0,1-.32.21q-.26,0-.31-.18l-.78-2.86-.77,2.83a.25.25,0,0,1-.28.21.26.26,0,0,1-.29-.19l-1.58-5.44A.2.2,0,0,1,118.13,157.81Z"/><path class="cls-3" d="M76.18,154V143.5q0-.39.51-.39t.8.71L81.66,152v-8.56q0-.37.51-.37t.51.37V154a.34.34,0,0,1-.15.29.6.6,0,0,1-.35.11q-.39,0-.68-.59l-4.29-8.36V154a.34.34,0,0,1-.15.29.61.61,0,0,1-.36.11.59.59,0,0,1-.36-.11A.35.35,0,0,1,76.18,154Z"/><path class="cls-3" d="M84.09,143.58a.56.56,0,0,1,.1-.33.33.33,0,0,1,.29-.14h6.19a.33.33,0,0,1,.29.14.52.52,0,0,1,.1.32.58.58,0,0,1-.1.34.33.33,0,0,1-.29.14H88.09V154a.34.34,0,0,1-.15.29.6.6,0,0,1-.35.11.6.6,0,0,1-.36-.11.35.35,0,0,1-.15-.29v-9.95h-2.6a.34.34,0,0,1-.28-.14A.52.52,0,0,1,84.09,143.58Z"/><path class="cls-3" d="M92.46,154V143.5a.33.33,0,0,1,.14-.29.54.54,0,0,1,.32-.1h5.5q.39,0,.39.45a.6.6,0,0,1-.1.35.33.33,0,0,1-.29.15H93.48v4.25H95.9a.34.34,0,0,1,.29.13.53.53,0,0,1,.1.33q0,.42-.39.42H93.48v4.28h4.94a.34.34,0,0,1,.28.14.54.54,0,0,1,.11.34q0,.46-.39.46h-5.5a.51.51,0,0,1-.32-.11A.35.35,0,0,1,92.46,154Z"/><path class="cls-3" d="M100.3,154V143.5q0-.39.51-.39t.8.71l4.17,8.22v-8.56q0-.37.51-.37t.51.37V154a.34.34,0,0,1-.15.29.6.6,0,0,1-.35.11q-.39,0-.68-.59l-4.29-8.36V154a.34.34,0,0,1-.15.29.61.61,0,0,1-.36.11.59.59,0,0,1-.36-.11A.35.35,0,0,1,100.3,154Z"/><path class="cls-3" d="M109.16,154V143.5q0-.39.51-.39t.8.71l4.17,8.22v-8.56q0-.37.51-.37t.51.37V154a.34.34,0,0,1-.15.29.6.6,0,0,1-.35.11q-.39,0-.68-.59l-4.29-8.36V154a.34.34,0,0,1-.15.29.61.61,0,0,1-.36.11.59.59,0,0,1-.36-.11A.35.35,0,0,1,109.16,154Z"/><path class="cls-3" d="M118,154V143.5a.33.33,0,0,1,.14-.29.54.54,0,0,1,.32-.1H124q.39,0,.39.45a.6.6,0,0,1-.1.35.33.33,0,0,1-.29.15H119v4.25h2.43a.34.34,0,0,1,.29.13.53.53,0,0,1,.1.33q0,.42-.39.42H119v4.28H124a.34.34,0,0,1,.28.14.54.54,0,0,1,.11.34q0,.46-.39.46h-5.5a.51.51,0,0,1-.32-.11A.35.35,0,0,1,118,154Z"/><path class="cls-3" d="M70,144.18l-2.41,10c0,.17-.18.26-.4.26a.72.72,0,0,1-.4-.12.36.36,0,0,1-.19-.31.27.27,0,0,1,0-.11l.2-.82,2.28-9.67q.11-.36.6-.36m1.36.36"/><path class="cls-3" d="M69.69,143.07h2.2q.49,0,.6.36l2.28,9.67.2.82a.27.27,0,0,1,0,.11.36.36,0,0,1-.19.31.72.72,0,0,1-.4.12c-.23,0-.36-.09-.4-.26l-2.39-10H70m.52-.75"/><path class="cls-3" d="M68,150.86h5.06a1.13,1.13,0,0,1,.6.13.39.39,0,0,1,.21.33q0,.42-.81.42H68"/><path class="cls-3" d="M72.32,134.6,71,140.08c0,.1-.1.14-.22.14a.39.39,0,0,1-.22-.07.2.2,0,0,1-.1-.17.15.15,0,0,1,0-.06l.11-.45,1.25-5.29q.06-.2.33-.2m.74.2"/><path class="cls-3" d="M72.15,134h1.2q.27,0,.33.2l1.25,5.29.11.45a.15.15,0,0,1,0,.06.2.2,0,0,1-.1.17.39.39,0,0,1-.22.07c-.12,0-.2,0-.22-.14l-1.31-5.48h-.88m.29-.41"/><path class="cls-3" d="M71.23,138.25H74a.62.62,0,0,1,.33.07.21.21,0,0,1,.11.18q0,.23-.44.23H71.23"/><path class="cls-3" d="M111.39,77.18a.52.52,0,0,1-.49-.34,3.45,3.45,0,0,0-3.07-2.56.54.54,0,0,1-.52-.51.52.52,0,0,1,.51-.52,4.45,4.45,0,0,1,4.06,3.25.52.52,0,0,1-.49.69Z"/><path class="cls-3" d="M70.41,128a.52.52,0,0,1-.41-.83l36.46-48.6a.52.52,0,1,1,.83.62l-36.46,48.6A.52.52,0,0,1,70.41,128Z"/><line class="cls-4" x1="78.81" y1="93.07" x2="91.21" y2="81.75"/><line class="cls-5" x1="96.48" y1="93.39" x2="83.34" y2="82.07"/><text class="cls-6" transform="translate(63.43 240.34)">+32 <tspan class="cls-7" x="15.93" y="0">(0</tspan><tspan x="23.78" y="0">)16 31 99 70</tspan><tspan x="0" y="14">Sin</tspan><tspan class="cls-8" x="11.81" y="14">t</tspan><tspan x="14.36" y="14">-Geertruiabdij 6, 3000 </tspan><tspan class="cls-9" x="101.11" y="14">L</tspan><tspan x="105.59" y="14">euven</tspan><tspan x="0" y="28">ww</tspan><tspan class="cls-10" x="13.34" y="28">w</tspan><tspan x="19.75" y="28">.an</tspan><tspan class="cls-11" x="30.8" y="28">t</tspan><tspan x="33.68" y="28">enne300</tspan><tspan class="cls-12" x="68.27" y="28">0</tspan><tspan x="73.49" y="28">.be</tspan></text><text class="cls-13" transform="translate(63.43 344.77)">S<tspan class="cls-11" x="4.94" y="0">t</tspan><tspan x="7.82" y="0">ephanie </tspan><tspan class="cls-14" x="40.03" y="0">M</tspan><tspan x="46.66" y="0">esens</tspan><tspan x="0" y="14">Ellestraat 4A</tspan><tspan x="0" y="28">3020 </tspan><tspan class="cls-14" x="22.26" y="28">H</tspan><tspan x="27.94" y="28">e</tspan><tspan class="cls-15" x="32.52" y="28">r</tspan><tspan x="35.65" y="28">ent</tspan></text><text class="cls-16" transform="translate(204.95 404.11)">Bes<tspan class="cls-17" x="15.19" y="0">t</tspan><tspan x="18.36" y="0">e</tspan><tspan class="cls-18" x="0" y="42">L</tspan><tspan x="4.93" y="42">o</tspan><tspan class="cls-19" x="10.08" y="42">r</tspan><tspan x="13.52" y="42">em ipsum dolor sit amet, </tspan><tspan class="cls-20" x="118.56" y="42">c</tspan><tspan x="123.02" y="42">onsec</tspan><tspan class="cls-17" x="147.42" y="42">t</tspan><tspan x="150.59" y="42">etuer adipiscing elit, sed diam nonum</tspan><tspan class="cls-17" x="305.06" y="42">m</tspan><tspan x="313.55" y="42">y nibh </tspan><tspan x="0" y="56">euismod tincidunt ut lao</tspan><tspan class="cls-19" x="100.4" y="56">r</tspan><tspan x="103.84" y="56">eet dolo</tspan><tspan class="cls-21" x="137.28" y="56">r</tspan><tspan x="140.72" y="56">e magna aliquam erat volutpat. Ut wisi enim ad minim </tspan><tspan x="0" y="70">veniam, quis nostrud e</tspan><tspan class="cls-17" x="93.78" y="70">x</tspan><tspan x="98.19" y="70">e</tspan><tspan class="cls-21" x="103.22" y="70">r</tspan><tspan x="106.67" y="70">ci tation ullam</tspan><tspan class="cls-22" x="165.15" y="70">c</tspan><tspan x="169.62" y="70">orper suscipit lobortis nisl.</tspan><tspan x="0" y="88">Ut aliquip ex ea </tspan><tspan class="cls-22" x="65.1" y="88">c</tspan><tspan x="69.56" y="88">ommodo </tspan><tspan class="cls-20" x="109.69" y="88">c</tspan><tspan x="114.16" y="88">onsequat. </tspan><tspan class="cls-23" x="156.98" y="88">D</tspan><tspan x="163.08" y="88">uis au</tspan><tspan class="cls-17" x="187.34" y="88">t</tspan><tspan x="190.51" y="88">em vel eum iriu</tspan><tspan class="cls-21" x="255.04" y="88">r</tspan><tspan x="258.48" y="88">e dolor in hend</tspan><tspan class="cls-24" x="320.49" y="88">r</tspan><tspan x="323.93" y="88">erit in </tspan><tspan x="0" y="102">vulputa</tspan><tspan class="cls-17" x="31.22" y="102">t</tspan><tspan x="34.39" y="102">e velit esse molestie </tspan><tspan class="cls-20" x="119.76" y="102">c</tspan><tspan x="124.22" y="102">onsequat, vel illum dolo</tspan><tspan class="cls-19" x="221.97" y="102">r</tspan><tspan x="225.41" y="102">e eu </tspan><tspan class="cls-25" x="245.35" y="102">f</tspan><tspan class="cls-26" x="248.51" y="102">eugiat nulla facilisis at ve</tspan><tspan class="cls-24" x="350.73" y="102">r</tspan><tspan x="354.18" y="102">o </tspan><tspan x="0" y="116">e</tspan><tspan class="cls-19" x="5.04" y="116">r</tspan><tspan x="8.48" y="116">os et a</tspan><tspan class="cls-20" x="35.39" y="116">c</tspan><tspan x="39.85" y="116">cumsan et ius</tspan><tspan class="cls-17" x="97.42" y="116">t</tspan><tspan x="100.59" y="116">o odio dignissim qui blandit praesent luptatum zzril delenit </tspan><tspan x="0" y="130">augue duis dolo</tspan><tspan class="cls-19" x="65.15" y="130">r</tspan><tspan x="68.6" y="130">e </tspan><tspan class="cls-27" x="75.83" y="130">t</tspan><tspan x="79" y="130">e </tspan><tspan class="cls-25" x="86.24" y="130">f</tspan><tspan x="89.41" y="130">eugait nulla facilisi.</tspan><tspan class="cls-18" x="0" y="148">L</tspan><tspan x="4.93" y="148">o</tspan><tspan class="cls-19" x="10.08" y="148">r</tspan><tspan x="13.52" y="148">em ipsum dolor sit amet, </tspan><tspan class="cls-20" x="118.56" y="148">c</tspan><tspan x="123.02" y="148">ons ec</tspan><tspan class="cls-17" x="149.62" y="148">t</tspan><tspan x="152.79" y="148">etuer adipiscing elit, sed diam nonum</tspan><tspan class="cls-17" x="307.26" y="148">m</tspan><tspan x="315.75" y="148">y nibh </tspan><tspan x="0" y="162">euismod tincidunt ut lao</tspan><tspan class="cls-19" x="100.4" y="162">r</tspan><tspan x="103.84" y="162">eet dolo</tspan><tspan class="cls-21" x="137.28" y="162">r</tspan><tspan x="140.72" y="162">e magna aliquam erat volutpat. Ut wisi enim ad minim </tspan><tspan x="0" y="176">veniam, quis nostrud e</tspan><tspan class="cls-17" x="93.78" y="176">x</tspan><tspan x="98.19" y="176">e</tspan><tspan class="cls-21" x="103.22" y="176">r</tspan><tspan x="106.67" y="176">ci tation ullam</tspan><tspan class="cls-22" x="165.15" y="176">c</tspan><tspan x="169.62" y="176">orper suscipit lobortis nisl ut aliquip ex ea </tspan><tspan class="cls-22" x="0" y="190">c</tspan><tspan x="4.47" y="190">ommodo </tspan><tspan class="cls-20" x="44.59" y="190">c</tspan><tspan x="49.06" y="190">onsequat. E</tspan><tspan class="cls-17" x="97.47" y="190">x</tspan><tspan x="101.88" y="190">e</tspan><tspan class="cls-21" x="106.92" y="190">r</tspan><tspan x="110.36" y="190">ci tation ullam</tspan><tspan class="cls-22" x="168.85" y="190">c</tspan><tspan x="173.32" y="190">orper suscipit lobortis nisl ut aliquip ex ea </tspan><tspan class="cls-22" x="0" y="204">c</tspan><tspan x="4.47" y="204">ommodo </tspan><tspan class="cls-20" x="44.59" y="204">c</tspan><tspan x="49.06" y="204">onsequat.</tspan><tspan class="cls-18" x="0" y="222">L</tspan><tspan x="4.93" y="222">o</tspan><tspan class="cls-19" x="10.08" y="222">r</tspan><tspan x="13.52" y="222">em ipsum dolor sit amet, </tspan><tspan class="cls-20" x="118.56" y="222">c</tspan><tspan x="123.02" y="222">onsec</tspan><tspan class="cls-17" x="147.42" y="222">t</tspan><tspan x="150.59" y="222">etuer adipiscing elit, sed diam nonum</tspan><tspan class="cls-17" x="305.06" y="222">m</tspan><tspan x="313.55" y="222">y nibh </tspan><tspan x="0" y="236">euismod tincidunt ut lao</tspan><tspan class="cls-19" x="100.4" y="236">r</tspan><tspan x="103.84" y="236">eet dolo</tspan><tspan class="cls-21" x="137.28" y="236">r</tspan><tspan x="140.72" y="236">e magna aliquam erat volutpat. </tspan><tspan x="0" y="254">Ut wisi enim ad minim veniam, quis nostrud e</tspan><tspan class="cls-17" x="188.18" y="254">x</tspan><tspan x="192.59" y="254">e</tspan><tspan class="cls-21" x="197.63" y="254">r</tspan><tspan x="201.07" y="254">ci tation ullam</tspan><tspan class="cls-22" x="259.56" y="254">c</tspan><tspan x="264.02" y="254">orper suscipit lobortis </tspan><tspan x="0" y="268">nisl ut aliquip ex ea </tspan><tspan class="cls-22" x="80.6" y="268">c</tspan><tspan x="85.06" y="268">ommodo </tspan><tspan class="cls-20" x="125.19" y="268">c</tspan><tspan x="129.66" y="268">onsequat. </tspan><tspan class="cls-23" x="172.48" y="268">D</tspan><tspan x="178.57" y="268">uis au</tspan><tspan class="cls-17" x="202.84" y="268">t</tspan><tspan x="206.01" y="268">em vel eum iriu</tspan><tspan class="cls-21" x="270.53" y="268">r</tspan><tspan x="273.98" y="268">e dolor in hend</tspan><tspan class="cls-24" x="335.98" y="268">r</tspan><tspan x="339.43" y="268">erit in </tspan><tspan x="0" y="282">vulputa</tspan><tspan class="cls-17" x="31.22" y="282">t</tspan><tspan x="34.39" y="282">e velit esse molestie </tspan><tspan class="cls-20" x="119.76" y="282">c</tspan><tspan x="124.22" y="282">onsequat, vel illum dolo</tspan><tspan class="cls-19" x="221.97" y="282">r</tspan><tspan x="225.41" y="282">e eu </tspan><tspan class="cls-25" x="245.35" y="282">f</tspan><tspan class="cls-26" x="248.51" y="282">eugiat nulla facilisis at ve</tspan><tspan class="cls-24" x="350.73" y="282">r</tspan><tspan x="354.18" y="282">o </tspan><tspan x="0" y="296">e</tspan><tspan class="cls-19" x="5.04" y="296">r</tspan><tspan x="8.48" y="296">os et a</tspan><tspan class="cls-20" x="35.39" y="296">c</tspan><tspan x="39.85" y="296">cumsan et ius</tspan><tspan class="cls-17" x="97.42" y="296">t</tspan><tspan x="100.59" y="296">o odio dignissim qui blandit praesent luptatum zzril delenit </tspan><tspan x="0" y="310">augue duis dolo</tspan><tspan class="cls-19" x="65.15" y="310">r</tspan><tspan x="68.6" y="310">e </tspan><tspan class="cls-27" x="75.83" y="310">t</tspan><tspan x="79" y="310">e </tspan><tspan class="cls-25" x="86.24" y="310">f</tspan><tspan x="89.41" y="310">eugait nulla facilisi</tspan><tspan class="cls-28" x="165.25" y="310">.</tspan><tspan x="166.83" y="310">volutpat.</tspan><tspan class="cls-22" x="0" y="351">M</tspan><tspan x="7.29" y="351">et vriendelij</tspan><tspan class="cls-29" x="55.5" y="351">k</tspan><tspan x="60.36" y="351">e g</tspan><tspan class="cls-19" x="72.57" y="351">r</tspan><tspan x="76.01" y="351">oe</tspan><tspan class="cls-17" x="86.2" y="351">t</tspan><tspan x="89.37" y="351">en,</tspan><tspan x="0" y="374">Anneleen </tspan><tspan class="cls-30" x="41.9" y="374">K</tspan><tspan x="47.55" y="374">er</tspan><tspan class="cls-19" x="56.23" y="374">r</tspan><tspan x="59.68" y="374">emans</tspan></text><text class="cls-31" transform="translate(34.2 13.5)">11 mm</text><line class="cls-32" x1="32.5" y1="18.64" x2="62.3" y2="18.64"/><line class="cls-32" x1="62.3" y1="29.5" x2="62.3" y2="32"/><line class="cls-33" x1="62.3" y1="37.01" x2="62.3" y2="866.38"/><line class="cls-32" x1="62.3" y1="868.89" x2="62.3" y2="871.39"/><line class="cls-32" x1="627.53" y1="58.15" x2="625.03" y2="58.15"/><line class="cls-34" x1="620.07" y1="58.15" x2="37.23" y2="58.15"/><line class="cls-32" x1="34.75" y1="58.15" x2="32.25" y2="58.15"/><rect class="cls-35" x="32.25" y="29.5" width="595.28" height="841.89"/><line class="cls-32" x1="32.25" y1="14.75" x2="32.25" y2="22.54"/><line class="cls-32" x1="62.3" y1="14.75" x2="62.3" y2="22.54"/><text class="cls-31" transform="translate(14.06 59.12) rotate(-90)">10 mm</text><line class="cls-32" x1="21.46" y1="58.15" x2="21.46" y2="29.23"/><line class="cls-32" x1="17.57" y1="58.15" x2="25.36" y2="58.15"/><line class="cls-32" x1="17.57" y1="29.23" x2="25.36" y2="29.23"/><line class="cls-32" x1="627.53" y1="168.61" x2="625.03" y2="168.61"/><line class="cls-34" x1="620.07" y1="168.61" x2="37.23" y2="168.61"/><line class="cls-32" x1="34.75" y1="168.61" x2="32.25" y2="168.61"/><text class="cls-31" transform="translate(14.06 127.57) rotate(-90)">40 mm</text><line class="cls-32" x1="21.46" y1="310.15" x2="21.46" y2="58.5"/><line class="cls-32" x1="17.57" y1="168.61" x2="25.36" y2="168.61"/><line class="cls-32" x1="17.57" y1="58.5" x2="25.36" y2="58.5"/><line class="cls-32" x1="17.57" y1="309.84" x2="25.36" y2="309.84"/><text class="cls-31" transform="translate(14.06 260.62) rotate(-90)">50 mm</text><line class="cls-32" x1="21.46" y1="395.73" x2="21.46" y2="148.25"/><line class="cls-32" x1="17.57" y1="395.73" x2="25.36" y2="395.73"/><text class="cls-31" transform="translate(14.06 367.41) rotate(-90)">30 mm</text><line class="cls-36" x1="32.25" y1="401.85" x2="204.95" y2="401.85"/><text class="cls-31" transform="translate(113.31 394.86)">60 mm</text></svg>