<svg id="Layer_1" data-name="Layer 1" xmlns="http://www.w3.org/2000/svg" viewBox="0 0 113.39 165.55"><defs><style>.cls-1{fill:#1a4955;}.cls-2,.cls-3{fill:none;stroke:#1a4955;stroke-miterlimit:10;}.cls-2{stroke-width:1.8px;}.cls-3{stroke-width:1.85px;}</style></defs><title>Artboard 1</title><circle class="cls-1" cx="7.46" cy="53.15" r="1.35"/><path class="cls-1" d="M80.46,160a.9.9,0,0,1-.88-.72C70.68,116.17,51.6,53.56,42,53.56c-9.71.67-22.5,50.89-28.71,84.49a.9.9,0,0,1-1.77-.33c1.61-8.69,16.12-85,30.42-86,12.24,0,31.71,69.79,39.44,107.16a.9.9,0,0,1-.7,1.06Z"/><path class="cls-1" d="M104.35,45.81a.9.9,0,0,1-.85-.6c-3.24-9.11-8.66-15.52-16.12-19.05a25.88,25.88,0,0,0-10.32-2.6h0a.9.9,0,0,1,0-1.8c.24,0,20-.08,28.16,22.85a.9.9,0,0,1-.85,1.2Z"/><path class="cls-1" d="M91.58,45.42a.9.9,0,0,1-.85-.6c-3.28-9.21-10.86-9.21-11.18-9.22h0a.9.9,0,0,1,0-1.8c.1,0,9.18-.05,12.91,10.42a.9.9,0,0,1-.85,1.2Z"/><path class="cls-1" d="M42.14,41.34a12,12,0,1,1,12-12A12,12,0,0,1,42.14,41.34Zm0-22.14A10.17,10.17,0,1,0,52.31,29.37,10.18,10.18,0,0,0,42.14,19.2Z"/><path class="cls-1" d="M80.47,160a.89.89,0,0,1-.74-.4L13.59,60.41a.94.94,0,0,1,.23-1.28.88.88,0,0,1,1.25.24l66.13,99.19a.94.94,0,0,1-.24,1.28A.88.88,0,0,1,80.47,160Z"/><path class="cls-1" d="M83.56,50.47a.9.9,0,0,1-.85-.6c-1.58-4.43-5.22-4.45-5.34-4.45a.93.93,0,0,1-.91-.89.9.9,0,0,1,.88-.91c.21,0,5,0,7.06,5.65a.9.9,0,0,1-.85,1.2Z"/><path class="cls-1" d="M12.38,138.78a.9.9,0,0,1-.72-1.44L75,52.9A.9.9,0,1,1,76.44,54L13.1,138.42A.9.9,0,0,1,12.38,138.78Z"/><line class="cls-2" x1="26.96" y1="78.07" x2="48.51" y2="58.4"/><line class="cls-3" x1="57.66" y1="78.63" x2="34.84" y2="58.96"/></svg>