<svg id="Layer_1" data-name="Layer 1" xmlns="http://www.w3.org/2000/svg" viewBox="0 0 235.28 311.34"><defs><style>.cls-1{fill:#1a4955;}.cls-2,.cls-3{fill:none;stroke:#1a4955;stroke-miterlimit:10;}.cls-2{stroke-width:2.7px;}.cls-3{stroke-width:2.78px;}</style></defs><title>Artboard 2</title><circle class="cls-1" cx="44.09" cy="65.86" r="2.02"/><path class="cls-1" d="M153.61,226.15a1.35,1.35,0,0,1-1.32-1.08c-13.36-64.67-42-158.6-56.42-158.6-14.57,1-33.75,76.35-43.07,126.74a1.35,1.35,0,0,1-2.66-.49c2.41-13,24.18-127.47,45.63-128.95,18.36,0,47.58,104.7,59.16,160.75a1.35,1.35,0,0,1-1,1.6Z"/><path class="cls-1" d="M189.45,54.85a1.35,1.35,0,0,1-1.27-.9c-4.86-13.66-13-23.28-24.18-28.58a38.82,38.82,0,0,0-15.47-3.91h0a1.35,1.35,0,0,1,0-2.7c.35,0,30-.12,42.25,34.28a1.35,1.35,0,0,1-1.27,1.8Z"/><path class="cls-1" d="M170.29,54.26a1.35,1.35,0,0,1-1.27-.9c-4.91-13.82-16.29-13.81-16.77-13.83h0a1.35,1.35,0,0,1,0-2.7c.15,0,13.78-.08,19.36,15.63a1.35,1.35,0,0,1-1.27,1.8Z"/><path class="cls-1" d="M96.12,48.14a18,18,0,1,1,18-18A18,18,0,0,1,96.12,48.14Zm0-33.22a15.26,15.26,0,1,0,15.26,15.26A15.28,15.28,0,0,0,96.12,14.93Z"/><path class="cls-1" d="M153.61,226.15a1.34,1.34,0,0,1-1.12-.6L53.29,76.75a1.41,1.41,0,0,1,.35-1.93,1.33,1.33,0,0,1,1.88.36L154.73,224a1.41,1.41,0,0,1-.35,1.93A1.32,1.32,0,0,1,153.61,226.15Z"/><path class="cls-1" d="M41.52,221.39V214.6a4.48,4.48,0,0,1,1.28-3.53,4.81,4.81,0,0,1,3.32-1.14,4.84,4.84,0,0,1,3.3,1.06,3.32,3.32,0,0,1,1.22,2.6,1.07,1.07,0,0,1-.16.7.74.74,0,0,1-.56.17q-.68,0-.72-.55a4.49,4.49,0,0,0-.09-.64,2.89,2.89,0,0,0-.26-.69,2.31,2.31,0,0,0-.51-.67,2.46,2.46,0,0,0-.89-.47,4.24,4.24,0,0,0-1.31-.19q-3.15,0-3.15,3.33v6.79q0,3.35,3.24,3.35a4.06,4.06,0,0,0,1.53-.25,1.79,1.79,0,0,0,.9-.73,3.72,3.72,0,0,0,.38-.82,5.8,5.8,0,0,0,.16-.89c0-.38.28-.57.72-.57a.72.72,0,0,1,.56.19,1.12,1.12,0,0,1,.16.71A3.35,3.35,0,0,1,49.4,225a4.93,4.93,0,0,1-3.34,1.07,4.69,4.69,0,0,1-3.27-1.14A4.55,4.55,0,0,1,41.52,221.39Z"/><path class="cls-1" d="M65.51,225.51V210.6q0-.48.55-.53h3.88a5.46,5.46,0,0,1,3.43,1,3.93,3.93,0,0,1,1.3,3.31q0,3.64-3.42,4.23l3.37,6.48a.45.45,0,0,1,.09.29.67.67,0,0,1-.26.51.85.85,0,0,1-.57.23q-.39,0-.77-.77l-3.37-6.57H67v6.73a.48.48,0,0,1-.22.42.86.86,0,0,1-.5.15.84.84,0,0,1-.51-.15A.49.49,0,0,1,65.51,225.51Zm1.45-8h3q3.29,0,3.29-3.09t-3.29-3H67Z"/><path class="cls-1" d="M41.37,293.6a1.61,1.61,0,0,1,.28-1.09,1.25,1.25,0,0,1,.95-.3q1.34,0,1.34,1.11a4.27,4.27,0,0,0,1.32,3,5.66,5.66,0,0,0,4.25,1.38q5.69,0,5.69-5.93V291a5,5,0,0,0-1.48-4,6,6,0,0,0-4.13-1.3q-1,0-1-1.11t1-1.15a5.34,5.34,0,0,0,3.71-1.12q1.23-1.12,1.23-3.92a5.51,5.51,0,0,0-1.15-3.84,4.74,4.74,0,0,0-3.64-1.24q-2.77,0-3.91,1.28a4.27,4.27,0,0,0-1.15,2.93,1.12,1.12,0,0,1-1.27,1.26,1.4,1.4,0,0,1-1-.32,1.75,1.75,0,0,1-.3-1.18,5.73,5.73,0,0,1,.36-1.94,7.85,7.85,0,0,1,1.15-2A5.63,5.63,0,0,1,46,271.67a9.93,9.93,0,0,1,3.83-.67Q57,271,57,278a9.1,9.1,0,0,1-.89,4.26,5.27,5.27,0,0,1-2.35,2.4q4,1.62,4,6.4v.75q0,4.31-2.27,6.32a8.69,8.69,0,0,1-6,2,8.47,8.47,0,0,1-6-2A6.09,6.09,0,0,1,41.37,293.6Z"/><path class="cls-1" d="M61.8,291.67V279.41q0-4.35,2.23-6.38a8.36,8.36,0,0,1,5.86-2,8.4,8.4,0,0,1,5.87,2q2.24,2,2.24,6.38v12.25q0,4.39-2.24,6.42a8.39,8.39,0,0,1-5.87,2,8.36,8.36,0,0,1-5.86-2Q61.8,296.05,61.8,291.67Zm2.61,0q0,6,5.49,6t5.49-6V279.41q0-6-5.49-6t-5.49,6Z"/><path class="cls-1" d="M82.83,291.67V279.41q0-4.35,2.23-6.38a9.47,9.47,0,0,1,11.73,0q2.24,2,2.24,6.38v12.25q0,4.39-2.24,6.42a9.47,9.47,0,0,1-11.73,0Q82.83,296.05,82.83,291.67Zm2.61,0q0,6,5.49,6t5.49-6V279.41q0-6-5.49-6t-5.49,6Z"/><path class="cls-1" d="M103.85,291.67V279.41q0-4.35,2.23-6.38a9.47,9.47,0,0,1,11.73,0q2.24,2,2.24,6.38v12.25q0,4.39-2.24,6.42a9.47,9.47,0,0,1-11.73,0Q103.85,296.05,103.85,291.67Zm2.61,0q0,6,5.49,6t5.49-6V279.41q0-6-5.49-6t-5.49,6Z"/><path class="cls-1" d="M154.43,272a.49.49,0,0,1,.25-.42,1,1,0,0,1,.54-.17q.46,0,.54.36l3.87,12.84,3.85-12.84a.5.5,0,0,1,.52-.36,1,1,0,0,1,.56.18.5.5,0,0,1,.27.42.14.14,0,0,1,0,.06.14.14,0,0,0,0,.06l-4.34,14.18q-.15.51-.83.51t-.81-.5l-4.36-14.18A.36.36,0,0,1,154.43,272Z"/><path class="cls-1" d="M165.77,286.22a1.08,1.08,0,0,1,.12-.48l7-13h-6.31a.46.46,0,0,1-.38-.19.79.79,0,0,1,0-.9.45.45,0,0,1,.39-.19h7.59q.52,0,.52.44a1.11,1.11,0,0,1-.17.54l-6.94,13h6.84a.45.45,0,0,1,.39.19.73.73,0,0,1,.14.44.78.78,0,0,1-.14.45.44.44,0,0,1-.39.2h-8.11Q165.77,286.7,165.77,286.22Z"/><path class="cls-1" d="M175.84,272a.49.49,0,0,1,.22-.4.79.79,0,0,1,.48-.17.46.46,0,0,1,.48.4l3.62,12.84,2.11-7.88q.1-.45.71-.45a.65.65,0,0,1,.69.53l2.09,7.8,3.64-12.93q.11-.31.55-.31a1,1,0,0,1,.55.16.45.45,0,0,1,.25.38.49.49,0,0,1,0,.16l-4.1,14.17a.76.76,0,0,1-.82.54q-.68,0-.8-.47l-2-7.45-2,7.38a.65.65,0,0,1-.73.55.67.67,0,0,1-.75-.5l-4.12-14.17A.53.53,0,0,1,175.84,272Z"/><path class="cls-1" d="M66.5,262.05V234.67q0-1,1.33-1,1.13,0,2.09,1.85l10.87,21.42v-22.3q0-1,1.33-1t1.33,1v27.42a.89.89,0,0,1-.4.76,1.57,1.57,0,0,1-.93.28q-1,0-1.77-1.53L69.15,239.79v22.26a.89.89,0,0,1-.4.76,1.58,1.58,0,0,1-.93.28,1.55,1.55,0,0,1-.95-.28A.9.9,0,0,1,66.5,262.05Z"/><path class="cls-1" d="M87.11,234.9a1.45,1.45,0,0,1,.26-.85.85.85,0,0,1,.74-.38h16.14a.87.87,0,0,1,.74.36,1.37,1.37,0,0,1,.26.83,1.52,1.52,0,0,1-.26.89.85.85,0,0,1-.74.38H97.54V262a.89.89,0,0,1-.4.77,1.57,1.57,0,0,1-.93.28,1.55,1.55,0,0,1-.95-.28.9.9,0,0,1-.38-.77V236.12H88.12a.88.88,0,0,1-.73-.36A1.36,1.36,0,0,1,87.11,234.9Z"/><path class="cls-1" d="M108.93,262.05V234.67a.86.86,0,0,1,.36-.74,1.41,1.41,0,0,1,.85-.26h14.33q1,0,1,1.17a1.56,1.56,0,0,1-.26.91.85.85,0,0,1-.74.38H111.59v11.07h6.32a.88.88,0,0,1,.74.34,1.38,1.38,0,0,1,.26.87q0,1.09-1,1.09h-6.32v11.15h12.88a.88.88,0,0,1,.73.36,1.4,1.4,0,0,1,.28.89q0,1.21-1,1.21H110.14a1.34,1.34,0,0,1-.85-.28A.92.92,0,0,1,108.93,262.05Z"/><path class="cls-1" d="M129.38,262.05V234.67q0-1,1.33-1,1.13,0,2.09,1.85l10.87,21.42v-22.3q0-1,1.33-1t1.33,1v27.42a.89.89,0,0,1-.4.76,1.57,1.57,0,0,1-.93.28q-1,0-1.77-1.53L132,239.79v22.26a.89.89,0,0,1-.4.76,1.58,1.58,0,0,1-.93.28,1.55,1.55,0,0,1-.95-.28A.9.9,0,0,1,129.38,262.05Z"/><path class="cls-1" d="M152.45,262.05V234.67q0-1,1.33-1,1.13,0,2.09,1.85l10.87,21.42v-22.3q0-1,1.33-1t1.33,1v27.42a.89.89,0,0,1-.4.76,1.57,1.57,0,0,1-.93.28q-1,0-1.77-1.53l-11.19-21.78v22.26a.89.89,0,0,1-.4.76,1.58,1.58,0,0,1-.93.28,1.55,1.55,0,0,1-.95-.28A.9.9,0,0,1,152.45,262.05Z"/><path class="cls-1" d="M175.52,262.05V234.67a.86.86,0,0,1,.36-.74,1.41,1.41,0,0,1,.85-.26h14.33q1,0,1,1.17a1.56,1.56,0,0,1-.26.91.85.85,0,0,1-.74.38H178.18v11.07h6.32a.88.88,0,0,1,.74.34,1.38,1.38,0,0,1,.26.87q0,1.09-1,1.09h-6.32v11.15h12.88a.88.88,0,0,1,.73.36,1.4,1.4,0,0,1,.28.89q0,1.21-1,1.21H176.73a1.34,1.34,0,0,1-.85-.28A.92.92,0,0,1,175.52,262.05Z"/><path class="cls-1" d="M50.41,236.44l-6.29,26.1c-.11.45-.46.68-1.05.68A1.87,1.87,0,0,1,42,262.9a.94.94,0,0,1-.49-.81.7.7,0,0,1,0-.28l.53-2.14L48,234.48q.28-.93,1.57-.93m3.55.93"/><path class="cls-1" d="M49.59,233.55h5.73q1.29,0,1.57.93l5.93,25.19.53,2.14a.7.7,0,0,1,0,.28.94.94,0,0,1-.49.81,1.87,1.87,0,0,1-1.05.32c-.59,0-.95-.23-1.05-.68l-6.22-26.11H50.41m1.37-2"/><path class="cls-1" d="M45.23,253.85H58.42a2.93,2.93,0,0,1,1.55.34,1,1,0,0,1,.55.87q0,1.09-2.1,1.09H45.23"/><path class="cls-1" d="M56.43,211.47,53,225.75c-.06.25-.25.37-.58.37a1,1,0,0,1-.58-.18.52.52,0,0,1-.27-.44.38.38,0,0,1,0-.15l.29-1.17,3.25-13.78q.15-.51.86-.51m1.94.51"/><path class="cls-1" d="M56,209.89h3.13q.7,0,.86.51l3.25,13.78.29,1.17a.38.38,0,0,1,0,.15.52.52,0,0,1-.27.44,1,1,0,0,1-.58.18c-.33,0-.52-.12-.58-.37l-3.4-14.29H56.43m.75-1.07"/><path class="cls-1" d="M53.6,221h7.21a1.61,1.61,0,0,1,.85.19.55.55,0,0,1,.3.47q0,.6-1.15.59H53.6"/><path class="cls-1" d="M158.26,61.84a1.35,1.35,0,0,1-1.27-.9c-2.36-6.64-7.83-6.68-8-6.68a1.4,1.4,0,0,1-1.36-1.33,1.35,1.35,0,0,1,1.32-1.37c.31,0,7.56,0,10.59,8.48a1.35,1.35,0,0,1-1.27,1.8Z"/><path class="cls-1" d="M51.47,194.31a1.35,1.35,0,0,1-1.08-2.16l95-126.68a1.35,1.35,0,1,1,2.16,1.62l-95,126.68A1.35,1.35,0,0,1,51.47,194.31Z"/><line class="cls-2" x1="73.35" y1="103.24" x2="105.68" y2="73.73"/><line class="cls-3" x1="119.41" y1="104.09" x2="85.17" y2="74.58"/></svg>