<svg id="Layer_1" data-name="Layer 1" xmlns="http://www.w3.org/2000/svg" viewBox="0 0 378.71 299.11"><defs><style>.cls-1{fill:#f5de70;}.cls-2,.cls-5{fill:#1a4955;}.cls-3,.cls-4{fill:none;stroke:#1a4955;stroke-miterlimit:10;}.cls-3{stroke-width:1.04px;}.cls-4{stroke-width:1.07px;}.cls-5{font-size:10px;font-family:Dosis-Regular, Dosis;}.cls-6{letter-spacing:-0.02em;}.cls-7{letter-spacing:-0.04em;}.cls-8{letter-spacing:-0.01em;}.cls-9{letter-spacing:-0.03em;}.cls-10{letter-spacing:-0.01em;}.cls-11{letter-spacing:-0.01em;}.cls-12{opacity:0.51;}</style></defs><title>Artboard 1</title><rect class="cls-1" width="595.28" height="280.66"/><circle class="cls-2" cx="35.05" cy="49.31" r="0.78"/><path class="cls-2" d="M77.35,111.94a.52.52,0,0,1-.51-.41C71.72,86.72,60.73,50.68,55.2,50.68,49.61,51.06,42.25,80,38.67,99.31a.52.52,0,0,1-1-.19c.93-5,9.28-48.91,17.51-49.47,7,0,18.25,40.17,22.7,61.68a.52.52,0,0,1-.4.61Z"/><path class="cls-2" d="M91.1,46.22a.52.52,0,0,1-.49-.34c-1.86-5.24-5-8.93-9.28-11a14.89,14.89,0,0,0-5.94-1.5h0a.52.52,0,0,1,0-1c.14,0,11.52,0,16.21,13.15a.52.52,0,0,1-.49.69Z"/><path class="cls-2" d="M83.75,46a.52.52,0,0,1-.49-.34c-1.89-5.3-6.25-5.3-6.44-5.31h0a.52.52,0,0,1,0-1c.06,0,5.29,0,7.43,6a.52.52,0,0,1-.49.69Z"/><path class="cls-2" d="M55.29,43.65a6.89,6.89,0,1,1,6.89-6.89A6.9,6.9,0,0,1,55.29,43.65Zm0-12.74a5.85,5.85,0,1,0,5.85,5.85A5.86,5.86,0,0,0,55.29,30.9Z"/><path class="cls-2" d="M77.35,111.94a.52.52,0,0,1-.43-.23L38.86,54.62a.54.54,0,0,1,.13-.74.51.51,0,0,1,.72.14l38.06,57.09a.54.54,0,0,1-.14.74A.51.51,0,0,1,77.35,111.94Z"/><path class="cls-2" d="M34.34,110.12v-2.61a1.72,1.72,0,0,1,.49-1.35,2.12,2.12,0,0,1,2.54,0,1.27,1.27,0,0,1,.47,1,.41.41,0,0,1-.06.27.28.28,0,0,1-.21.07q-.26,0-.28-.21a1.72,1.72,0,0,0,0-.24,1.11,1.11,0,0,0-.1-.26.88.88,0,0,0-.2-.26,1,1,0,0,0-.34-.18,1.63,1.63,0,0,0-.5-.07q-1.21,0-1.21,1.28v2.61a1.12,1.12,0,0,0,1.24,1.29,1.56,1.56,0,0,0,.59-.1.69.69,0,0,0,.34-.28,1.43,1.43,0,0,0,.15-.32,2.22,2.22,0,0,0,.06-.34c0-.15.11-.22.28-.22a.28.28,0,0,1,.21.07.43.43,0,0,1,.06.27,1.29,1.29,0,0,1-.47,1,1.89,1.89,0,0,1-1.28.41,1.8,1.8,0,0,1-1.26-.44A1.75,1.75,0,0,1,34.34,110.12Z"/><path class="cls-2" d="M43.55,111.7V106q0-.18.21-.2h1.49a2.09,2.09,0,0,1,1.32.39,1.51,1.51,0,0,1,.5,1.27,1.46,1.46,0,0,1-1.31,1.62L47,111.54a.17.17,0,0,1,0,.11.26.26,0,0,1-.1.2.33.33,0,0,1-.22.09q-.15,0-.29-.29l-1.29-2.52H44.1v2.58a.18.18,0,0,1-.08.16.33.33,0,0,1-.19.06.32.32,0,0,1-.2-.06A.19.19,0,0,1,43.55,111.7Zm.55-3.06h1.14q1.26,0,1.26-1.19t-1.26-1.17H44.1Z"/><path class="cls-2" d="M34.29,137.83a.62.62,0,0,1,.11-.42.48.48,0,0,1,.36-.11q.52,0,.52.42a1.64,1.64,0,0,0,.51,1.15,2.17,2.17,0,0,0,1.63.53q2.18,0,2.18-2.27v-.29a1.92,1.92,0,0,0-.57-1.52,2.32,2.32,0,0,0-1.58-.5q-.39,0-.39-.42t.38-.44a2,2,0,0,0,1.43-.43,2,2,0,0,0,.47-1.5,2.11,2.11,0,0,0-.44-1.47,1.82,1.82,0,0,0-1.4-.48,1.94,1.94,0,0,0-1.5.49,1.64,1.64,0,0,0-.44,1.13.43.43,0,0,1-.49.48.54.54,0,0,1-.4-.12.67.67,0,0,1-.11-.45,2.2,2.2,0,0,1,.14-.75,3,3,0,0,1,.44-.78,2.16,2.16,0,0,1,.93-.66,3.81,3.81,0,0,1,1.47-.26q2.77,0,2.77,2.68a3.49,3.49,0,0,1-.34,1.63,2,2,0,0,1-.9.92,2.4,2.4,0,0,1,1.55,2.46v.29a3.08,3.08,0,0,1-.87,2.43,3.33,3.33,0,0,1-2.3.77,3.25,3.25,0,0,1-2.32-.77A2.33,2.33,0,0,1,34.29,137.83Z"/><path class="cls-2" d="M42.13,137.08v-4.7a3.16,3.16,0,0,1,.86-2.45,3.63,3.63,0,0,1,4.5,0,3.16,3.16,0,0,1,.86,2.45v4.7a3.18,3.18,0,0,1-.86,2.46,3.63,3.63,0,0,1-4.5,0A3.18,3.18,0,0,1,42.13,137.08Zm1,0q0,2.32,2.11,2.32t2.11-2.32v-4.7q0-2.3-2.11-2.3t-2.11,2.3Z"/><path class="cls-2" d="M50.19,137.08v-4.7a3.16,3.16,0,0,1,.86-2.45,3.63,3.63,0,0,1,4.5,0,3.16,3.16,0,0,1,.86,2.45v4.7a3.18,3.18,0,0,1-.86,2.46,3.63,3.63,0,0,1-4.5,0A3.18,3.18,0,0,1,50.19,137.08Zm1,0q0,2.32,2.11,2.32t2.11-2.32v-4.7q0-2.3-2.11-2.3t-2.11,2.3Z"/><path class="cls-2" d="M58.26,137.08v-4.7a3.16,3.16,0,0,1,.86-2.45,3.63,3.63,0,0,1,4.5,0,3.16,3.16,0,0,1,.86,2.45v4.7a3.18,3.18,0,0,1-.86,2.46,3.63,3.63,0,0,1-4.5,0A3.18,3.18,0,0,1,58.26,137.08Zm1,0q0,2.32,2.11,2.32t2.11-2.32v-4.7q0-2.3-2.11-2.3t-2.11,2.3Z"/><path class="cls-2" d="M77.67,129.54a.19.19,0,0,1,.1-.16.37.37,0,0,1,.21-.06q.18,0,.21.14l1.48,4.93,1.48-4.93a.19.19,0,0,1,.2-.14.39.39,0,0,1,.22.07.19.19,0,0,1,.1.16v0L80,135q-.06.19-.32.19t-.31-.19l-1.67-5.44A.14.14,0,0,1,77.67,129.54Z"/><path class="cls-2" d="M82,135a.41.41,0,0,1,0-.18l2.67-5H82.31a.17.17,0,0,1-.14-.07.3.3,0,0,1,0-.34.17.17,0,0,1,.15-.07h2.91q.2,0,.2.17a.43.43,0,0,1-.06.21l-2.66,5h2.62a.17.17,0,0,1,.15.07.28.28,0,0,1,.05.17.3.3,0,0,1-.05.17.17.17,0,0,1-.15.08H82.21Q82,135.18,82,135Z"/><path class="cls-2" d="M85.88,129.53a.19.19,0,0,1,.09-.15.3.3,0,0,1,.19-.06.17.17,0,0,1,.18.15l1.39,4.93.81-3q0-.17.27-.17a.25.25,0,0,1,.26.2l.8,3,1.4-5q0-.12.21-.12a.39.39,0,0,1,.21.06.17.17,0,0,1,.1.14.19.19,0,0,1,0,.06L90.2,135a.29.29,0,0,1-.32.21q-.26,0-.31-.18l-.78-2.86L88,135a.25.25,0,0,1-.28.21.26.26,0,0,1-.29-.19l-1.58-5.44A.2.2,0,0,1,85.88,129.53Z"/><path class="cls-2" d="M43.93,125.72v-10.5q0-.39.51-.39t.8.71l4.17,8.22V115.2q0-.37.51-.37t.51.37v10.52a.34.34,0,0,1-.15.29.6.6,0,0,1-.35.11q-.39,0-.68-.59l-4.29-8.36v8.54a.34.34,0,0,1-.15.29.61.61,0,0,1-.36.11.59.59,0,0,1-.36-.11A.35.35,0,0,1,43.93,125.72Z"/><path class="cls-2" d="M51.84,115.3a.56.56,0,0,1,.1-.33.33.33,0,0,1,.29-.14h6.19a.33.33,0,0,1,.29.14.52.52,0,0,1,.1.32.58.58,0,0,1-.1.34.33.33,0,0,1-.29.14H55.84v9.95a.34.34,0,0,1-.15.29.6.6,0,0,1-.35.11A.6.6,0,0,1,55,126a.35.35,0,0,1-.15-.29v-9.95h-2.6a.34.34,0,0,1-.28-.14A.52.52,0,0,1,51.84,115.3Z"/><path class="cls-2" d="M60.21,125.72v-10.5a.33.33,0,0,1,.14-.29.54.54,0,0,1,.32-.1h5.5q.39,0,.39.45a.6.6,0,0,1-.1.35.33.33,0,0,1-.29.15H61.23V120h2.43a.34.34,0,0,1,.29.13.53.53,0,0,1,.1.33q0,.42-.39.42H61.23v4.28h4.94a.34.34,0,0,1,.28.14.54.54,0,0,1,.11.34q0,.46-.39.46h-5.5a.51.51,0,0,1-.32-.11A.35.35,0,0,1,60.21,125.72Z"/><path class="cls-2" d="M68.05,125.72v-10.5q0-.39.51-.39t.8.71l4.17,8.22V115.2q0-.37.51-.37t.51.37v10.52a.34.34,0,0,1-.15.29.6.6,0,0,1-.35.11q-.39,0-.68-.59l-4.29-8.36v8.54a.34.34,0,0,1-.15.29.61.61,0,0,1-.36.11.59.59,0,0,1-.36-.11A.35.35,0,0,1,68.05,125.72Z"/><path class="cls-2" d="M76.91,125.72v-10.5q0-.39.51-.39t.8.71l4.17,8.22V115.2q0-.37.51-.37t.51.37v10.52a.34.34,0,0,1-.15.29.6.6,0,0,1-.35.11q-.39,0-.68-.59l-4.29-8.36v8.54a.34.34,0,0,1-.15.29.61.61,0,0,1-.36.11.59.59,0,0,1-.36-.11A.35.35,0,0,1,76.91,125.72Z"/><path class="cls-2" d="M85.76,125.72v-10.5a.33.33,0,0,1,.14-.29.54.54,0,0,1,.32-.1h5.5q.39,0,.39.45a.6.6,0,0,1-.1.35.33.33,0,0,1-.29.15H86.78V120H89.2a.34.34,0,0,1,.29.13.53.53,0,0,1,.1.33q0,.42-.39.42H86.78v4.28h4.94a.34.34,0,0,1,.28.14.54.54,0,0,1,.11.34q0,.46-.39.46h-5.5a.51.51,0,0,1-.32-.11A.35.35,0,0,1,85.76,125.72Z"/><path class="cls-2" d="M37.75,115.89l-2.41,10c0,.17-.18.26-.4.26a.72.72,0,0,1-.4-.12.36.36,0,0,1-.19-.31.27.27,0,0,1,0-.11l.2-.82,2.28-9.67q.11-.36.6-.36m1.36.36"/><path class="cls-2" d="M37.44,114.78h2.2q.49,0,.6.36l2.28,9.67.2.82a.27.27,0,0,1,0,.11.36.36,0,0,1-.19.31.72.72,0,0,1-.4.12c-.23,0-.36-.09-.4-.26l-2.39-10h-1.6m.52-.75"/><path class="cls-2" d="M35.77,122.57h5.06a1.13,1.13,0,0,1,.6.13.39.39,0,0,1,.21.33q0,.42-.81.42H35.77"/><path class="cls-2" d="M40.07,106.32l-1.32,5.48c0,.1-.1.14-.22.14a.39.39,0,0,1-.22-.07.2.2,0,0,1-.1-.17.15.15,0,0,1,0-.06l.11-.45,1.25-5.29q.06-.2.33-.2m.74.2"/><path class="cls-2" d="M39.9,105.71h1.2q.27,0,.33.2l1.25,5.29.11.45a.15.15,0,0,1,0,.06.2.2,0,0,1-.1.17.39.39,0,0,1-.22.07c-.12,0-.2,0-.22-.14l-1.31-5.48h-.88m.29-.41"/><path class="cls-2" d="M39,110h2.77a.62.62,0,0,1,.33.07.21.21,0,0,1,.11.18q0,.23-.44.23H39"/><path class="cls-2" d="M79.14,48.9a.52.52,0,0,1-.49-.34A3.45,3.45,0,0,0,75.58,46a.54.54,0,0,1-.52-.51.52.52,0,0,1,.51-.52,4.45,4.45,0,0,1,4.06,3.25.52.52,0,0,1-.49.69Z"/><path class="cls-2" d="M38.16,99.73a.52.52,0,0,1-.41-.83L74.21,50.3a.52.52,0,1,1,.83.62L38.58,99.52A.52.52,0,0,1,38.16,99.73Z"/><line class="cls-3" x1="46.56" y1="64.79" x2="58.96" y2="53.46"/><line class="cls-4" x1="64.23" y1="65.11" x2="51.09" y2="53.79"/><text class="cls-5" transform="translate(33.25 212.06)">+32 <tspan class="cls-6" x="15.93" y="0">(0</tspan><tspan x="23.78" y="0">)16 31 99 70</tspan><tspan x="0" y="14">Sin</tspan><tspan class="cls-7" x="11.81" y="14">t</tspan><tspan x="14.36" y="14">-Geertruiabdij 6, 3000 </tspan><tspan class="cls-8" x="101.11" y="14">L</tspan><tspan x="105.59" y="14">euven</tspan><tspan x="0" y="28">ww</tspan><tspan class="cls-9" x="13.34" y="28">w</tspan><tspan x="19.75" y="28">.an</tspan><tspan class="cls-10" x="30.8" y="28">t</tspan><tspan x="33.68" y="28">enne300</tspan><tspan class="cls-11" x="68.27" y="28">0</tspan><tspan x="73.49" y="28">.be</tspan></text><g class="cls-12"><path class="cls-2" d="M92.11,29.87V140.33H34.29V29.87H92.11m.47-.47H33.82V140.79H92.57V29.4Z"/></g><g class="cls-12"><path class="cls-2" d="M26.81,89.76a6.89,6.89,0,1,1,6.89-6.89A6.9,6.9,0,0,1,26.81,89.76Zm0-12.74a5.85,5.85,0,1,0,5.85,5.85A5.86,5.86,0,0,0,26.81,77Z"/></g><g class="cls-12"><path class="cls-2" d="M99.37,89.35a6.89,6.89,0,1,1,6.89-6.89A6.9,6.9,0,0,1,99.37,89.35Zm0-12.74a5.85,5.85,0,1,0,5.85,5.85A5.86,5.86,0,0,0,99.37,76.6Z"/></g><g class="cls-12"><path class="cls-2" d="M63.2,29.58a6.89,6.89,0,1,1,6.89-6.89A6.9,6.9,0,0,1,63.2,29.58Zm0-12.74a5.85,5.85,0,1,0,5.85,5.85A5.86,5.86,0,0,0,63.2,16.84Z"/></g><g class="cls-12"><path class="cls-2" d="M63.38,154.72a6.89,6.89,0,1,1,6.89-6.89A6.9,6.9,0,0,1,63.38,154.72Zm0-12.74a5.85,5.85,0,1,0,5.85,5.85A5.86,5.86,0,0,0,63.38,142Z"/></g><g class="cls-12"><path class="cls-2" d="M106.26,15.84V154.72H19.92V15.84h86.34m.64-.64H19.28V155.36H106.9V15.2Z"/></g></svg>