<svg id="Layer_1" data-name="Layer 1" xmlns="http://www.w3.org/2000/svg" viewBox="0 0 374.58 165.55"><defs><style>.cls-1{fill:#1a4955;}.cls-2,.cls-3{fill:none;stroke:#1a4955;stroke-miterlimit:10;}.cls-2{stroke-width:1.8px;}.cls-3{stroke-width:1.85px;}</style></defs><title>Artboard 1</title><circle class="cls-1" cx="7.46" cy="53.15" r="1.35"/><path class="cls-1" d="M80.46,160a.9.9,0,0,1-.88-.72C70.68,116.17,51.6,53.56,42,53.56c-9.71.67-22.5,50.89-28.71,84.49a.9.9,0,0,1-1.77-.33c1.61-8.69,16.12-85,30.42-86,12.24,0,31.71,69.79,39.44,107.16a.9.9,0,0,1-.7,1.06Z"/><path class="cls-1" d="M104.35,45.81a.9.9,0,0,1-.85-.6c-3.24-9.11-8.66-15.52-16.12-19.05a25.88,25.88,0,0,0-10.32-2.6h0a.9.9,0,0,1,0-1.8c.24,0,20-.08,28.16,22.85a.9.9,0,0,1-.85,1.2Z"/><path class="cls-1" d="M91.58,45.42a.9.9,0,0,1-.85-.6c-3.28-9.21-10.86-9.21-11.18-9.22h0a.9.9,0,0,1,0-1.8c.1,0,9.18-.05,12.91,10.42a.9.9,0,0,1-.85,1.2Z"/><path class="cls-1" d="M42.14,41.34a12,12,0,1,1,12-12A12,12,0,0,1,42.14,41.34Zm0-22.14A10.17,10.17,0,1,0,52.31,29.37,10.18,10.18,0,0,0,42.14,19.2Z"/><path class="cls-1" d="M80.47,160a.89.89,0,0,1-.74-.4L13.59,60.41a.94.94,0,0,1,.23-1.28.88.88,0,0,1,1.25.24l66.13,99.19a.94.94,0,0,1-.24,1.28A.88.88,0,0,1,80.47,160Z"/><path class="cls-1" d="M83.56,50.47a.9.9,0,0,1-.85-.6c-1.58-4.43-5.22-4.45-5.34-4.45a.93.93,0,0,1-.91-.89.9.9,0,0,1,.88-.91c.21,0,5,0,7.06,5.65a.9.9,0,0,1-.85,1.2Z"/><path class="cls-1" d="M12.38,138.78a.9.9,0,0,1-.72-1.44L75,52.9A.9.9,0,1,1,76.44,54L13.1,138.42A.9.9,0,0,1,12.38,138.78Z"/><line class="cls-2" x1="26.96" y1="78.07" x2="48.51" y2="58.4"/><line class="cls-3" x1="57.66" y1="78.63" x2="34.84" y2="58.96"/><path class="cls-1" d="M123.7,65.06v-8a5.28,5.28,0,0,1,1.51-4.16,6.51,6.51,0,0,1,7.79-.09,3.91,3.91,0,0,1,1.43,3.06,1.26,1.26,0,0,1-.19.83.87.87,0,0,1-.66.21q-.8,0-.85-.65a5.29,5.29,0,0,0-.1-.75,3.4,3.4,0,0,0-.31-.81,2.72,2.72,0,0,0-.61-.79,2.9,2.9,0,0,0-1-.56,5,5,0,0,0-1.55-.22q-3.72,0-3.72,3.92v8q0,4,3.82,3.95a4.79,4.79,0,0,0,1.81-.3,2.11,2.11,0,0,0,1.06-.87,4.39,4.39,0,0,0,.45-1,6.83,6.83,0,0,0,.19-1c.05-.45.34-.67.85-.67a.85.85,0,0,1,.66.22,1.32,1.32,0,0,1,.19.84,4,4,0,0,1-1.46,3.1A5.8,5.8,0,0,1,129,70.58a5.53,5.53,0,0,1-3.86-1.34A5.36,5.36,0,0,1,123.7,65.06Z"/><path class="cls-1" d="M152,69.91V52.34q0-.57.65-.62h4.57a6.43,6.43,0,0,1,4,1.19,4.63,4.63,0,0,1,1.54,3.9q0,4.28-4,5l4,7.64a.53.53,0,0,1,.1.34.79.79,0,0,1-.31.61,1,1,0,0,1-.67.27q-.46,0-.9-.9l-4-7.74h-3.28v7.92a.57.57,0,0,1-.26.49,1,1,0,0,1-.59.18,1,1,0,0,1-.61-.18A.58.58,0,0,1,152,69.91Zm1.7-9.4h3.51q3.87,0,3.87-3.64t-3.87-3.59h-3.51Z"/><path class="cls-1" d="M123.52,150.15a1.89,1.89,0,0,1,.33-1.28,1.48,1.48,0,0,1,1.12-.35q1.58,0,1.58,1.3a5,5,0,0,0,1.56,3.54q1.56,1.63,5,1.63,6.71,0,6.71-7v-.88a5.88,5.88,0,0,0-1.75-4.66,7.12,7.12,0,0,0-4.87-1.54q-1.21,0-1.21-1.3t1.17-1.35a6.29,6.29,0,0,0,4.38-1.32q1.44-1.32,1.44-4.62a6.49,6.49,0,0,0-1.35-4.52,5.59,5.59,0,0,0-4.28-1.46q-3.26,0-4.61,1.51a5,5,0,0,0-1.35,3.46,1.32,1.32,0,0,1-1.49,1.48,1.65,1.65,0,0,1-1.23-.37,2.06,2.06,0,0,1-.35-1.39,6.76,6.76,0,0,1,.42-2.29,9.25,9.25,0,0,1,1.35-2.41,6.63,6.63,0,0,1,2.84-2,11.7,11.7,0,0,1,4.52-.79q8.52,0,8.52,8.22a10.72,10.72,0,0,1-1,5,6.21,6.21,0,0,1-2.77,2.83q4.75,1.91,4.75,7.54V148q0,5.08-2.68,7.45a10.24,10.24,0,0,1-7.05,2.37q-4.61,0-7.13-2.37A7.17,7.17,0,0,1,123.52,150.15Z"/><path class="cls-1" d="M147.6,147.87V133.43q0-5.12,2.63-7.52a11.16,11.16,0,0,1,13.82,0q2.64,2.4,2.64,7.52v14.44q0,5.17-2.64,7.57a11.16,11.16,0,0,1-13.82,0Q147.6,153,147.6,147.87Zm3.07,0q0,7.12,6.47,7.12t6.47-7.12V133.43q0-7.08-6.47-7.08t-6.47,7.08Z"/><path class="cls-1" d="M172.37,147.87V133.43q0-5.12,2.63-7.52a11.16,11.16,0,0,1,13.82,0q2.64,2.4,2.64,7.52v14.44q0,5.17-2.64,7.57a11.16,11.16,0,0,1-13.82,0Q172.37,153,172.37,147.87Zm3.07,0q0,7.12,6.47,7.12t6.47-7.12V133.43q0-7.08-6.47-7.08t-6.47,7.08Z"/><path class="cls-1" d="M197.15,147.87V133.43q0-5.12,2.63-7.52a11.16,11.16,0,0,1,13.82,0q2.64,2.4,2.64,7.52v14.44q0,5.17-2.64,7.57a11.16,11.16,0,0,1-13.82,0Q197.15,153,197.15,147.87Zm3.07,0q0,7.12,6.47,7.12t6.47-7.12V133.43q0-7.08-6.47-7.08t-6.47,7.08Z"/><path class="cls-1" d="M256.75,124.7a.58.58,0,0,1,.3-.49,1.13,1.13,0,0,1,.64-.2q.54,0,.64.42l4.56,15.13,4.53-15.13A.59.59,0,0,1,268,124a1.21,1.21,0,0,1,.67.21.59.59,0,0,1,.32.5.16.16,0,0,1,0,.07.16.16,0,0,0,0,.07l-5.11,16.71q-.17.6-1,.6t-1-.59l-5.13-16.7A.42.42,0,0,1,256.75,124.7Z"/><path class="cls-1" d="M270.1,141.45a1.27,1.27,0,0,1,.15-.57l8.2-15.37H271a.54.54,0,0,1-.44-.22.93.93,0,0,1,0-1.06A.53.53,0,0,1,271,124H280q.62,0,.62.52a1.31,1.31,0,0,1-.2.64l-8.18,15.35h8.06a.53.53,0,0,1,.46.22.86.86,0,0,1,.16.52.91.91,0,0,1-.16.53.52.52,0,0,1-.46.23H270.7Q270.1,142,270.1,141.45Z"/><path class="cls-1" d="M282,124.68a.57.57,0,0,1,.26-.47.93.93,0,0,1,.57-.2.54.54,0,0,1,.57.47l4.26,15.13,2.49-9.28q.12-.53.83-.53a.76.76,0,0,1,.81.62l2.46,9.19,4.29-15.24q.12-.37.65-.37a1.2,1.2,0,0,1,.65.19.53.53,0,0,1,.3.44.57.57,0,0,1,0,.19l-4.83,16.7a.89.89,0,0,1-1,.64q-.8,0-.94-.55L291,132.83l-2.36,8.69a.77.77,0,0,1-.86.64.79.79,0,0,1-.88-.59L282,124.87A.62.62,0,0,1,282,124.68Z"/><path class="cls-1" d="M153.13,113V80.71q0-1.19,1.57-1.19,1.33,0,2.47,2.18L170,106.94V80.66q0-1.14,1.57-1.14t1.57,1.14V113a1,1,0,0,1-.48.9,1.85,1.85,0,0,1-1.09.33q-1.19,0-2.09-1.8L156.26,86.73V113a1,1,0,0,1-.47.9,1.86,1.86,0,0,1-1.09.33,1.83,1.83,0,0,1-1.11-.33A1.06,1.06,0,0,1,153.13,113Z"/><path class="cls-1" d="M177.42,81a1.7,1.7,0,0,1,.31-1,1,1,0,0,1,.88-.44h19a1,1,0,0,1,.88.42,1.61,1.61,0,0,1,.31,1,1.79,1.79,0,0,1-.31,1.05,1,1,0,0,1-.88.44h-7.92V113a1,1,0,0,1-.48.9,1.85,1.85,0,0,1-1.09.33,1.83,1.83,0,0,1-1.12-.33,1.06,1.06,0,0,1-.45-.9V82.42h-8a1,1,0,0,1-.85-.42A1.6,1.6,0,0,1,177.42,81Z"/><path class="cls-1" d="M203.13,113V80.71a1,1,0,0,1,.43-.88,1.66,1.66,0,0,1,1-.31h16.89q1.19,0,1.19,1.38a1.84,1.84,0,0,1-.31,1.07,1,1,0,0,1-.88.45H206.26v13h7.45a1,1,0,0,1,.88.4,1.63,1.63,0,0,1,.31,1q0,1.28-1.19,1.28h-7.45v13.14h15.18a1,1,0,0,1,.85.43,1.65,1.65,0,0,1,.33,1q0,1.42-1.19,1.42H204.55a1.58,1.58,0,0,1-1-.33A1.08,1.08,0,0,1,203.13,113Z"/><path class="cls-1" d="M227.23,113V80.71q0-1.19,1.57-1.19,1.33,0,2.47,2.18l12.81,25.24V80.66q0-1.14,1.57-1.14t1.57,1.14V113a1,1,0,0,1-.48.9,1.85,1.85,0,0,1-1.09.33q-1.19,0-2.09-1.8L230.36,86.73V113a1,1,0,0,1-.47.9,1.86,1.86,0,0,1-1.09.33,1.83,1.83,0,0,1-1.11-.33A1.06,1.06,0,0,1,227.23,113Z"/><path class="cls-1" d="M254.41,113V80.71q0-1.19,1.57-1.19,1.33,0,2.47,2.18l12.81,25.24V80.66q0-1.14,1.57-1.14t1.57,1.14V113a1,1,0,0,1-.48.9,1.85,1.85,0,0,1-1.09.33q-1.19,0-2.09-1.8L257.54,86.73V113a1,1,0,0,1-.47.9,1.86,1.86,0,0,1-1.09.33,1.83,1.83,0,0,1-1.11-.33A1.06,1.06,0,0,1,254.41,113Z"/><path class="cls-1" d="M281.6,113V80.71a1,1,0,0,1,.43-.88,1.66,1.66,0,0,1,1-.31h16.89q1.19,0,1.19,1.38a1.84,1.84,0,0,1-.31,1.07,1,1,0,0,1-.88.45H284.73v13h7.45a1,1,0,0,1,.88.4,1.63,1.63,0,0,1,.31,1q0,1.28-1.19,1.28h-7.45v13.14h15.18a1,1,0,0,1,.85.43,1.65,1.65,0,0,1,.33,1q0,1.42-1.19,1.42H283a1.58,1.58,0,0,1-1-.33A1.08,1.08,0,0,1,281.6,113Z"/><path class="cls-1" d="M134.17,82.79l-7.41,30.75c-.13.53-.54.8-1.24.8a2.2,2.2,0,0,1-1.24-.38,1.11,1.11,0,0,1-.57-.95.82.82,0,0,1,0-.33l.62-2.52,7-29.69q.33-1.1,1.85-1.1m4.18,1.1"/><path class="cls-1" d="M133.21,79.38H140q1.52,0,1.85,1.1l7,29.69.62,2.52a.82.82,0,0,1,0,.33,1.11,1.11,0,0,1-.57.95,2.2,2.2,0,0,1-1.24.38c-.7,0-1.12-.27-1.24-.8l-7.33-30.77h-4.91m1.61-2.31"/><path class="cls-1" d="M128.07,103.3h15.54a3.46,3.46,0,0,1,1.83.4,1.18,1.18,0,0,1,.64,1q0,1.28-2.47,1.28H128.07"/><path class="cls-1" d="M141.27,53.37,137.22,70.2c-.07.29-.3.44-.68.44a1.2,1.2,0,0,1-.68-.21.61.61,0,0,1-.31-.52.45.45,0,0,1,0-.18l.34-1.38,3.82-16.24q.18-.6,1-.6m2.29.6"/><path class="cls-1" d="M140.75,51.51h3.69q.83,0,1,.6l3.82,16.24.34,1.38a.45.45,0,0,1,0,.18.61.61,0,0,1-.31.52,1.2,1.2,0,0,1-.68.21c-.38,0-.61-.15-.68-.44l-4-16.84h-2.69m.88-1.26"/><path class="cls-1" d="M137.93,64.6h8.5a1.89,1.89,0,0,1,1,.22.65.65,0,0,1,.35.56q0,.7-1.35.7h-8.5"/></svg>