<?xml version="1.0" encoding="utf-8"?>
<!-- Generator: Adobe Illustrator 21.0.0, SVG Export Plug-In . SVG Version: 6.00 Build 0)  -->
<svg version="1.1" id="Layer_1" xmlns="http://www.w3.org/2000/svg" xmlns:xlink="http://www.w3.org/1999/xlink" x="0px" y="0px"
	 viewBox="0 0 113.4 204.5" style="enable-background:new 0 0 113.4 204.5;" xml:space="preserve">
<style type="text/css">
	.st0{fill:#1A4955;}
	.st1{fill:none;stroke:#000000;stroke-width:3;stroke-linecap:round;stroke-miterlimit:10;}
	.st2{fill:#E0D35B;stroke:#000000;stroke-width:3;stroke-linecap:round;stroke-miterlimit:10;}
	.st3{fill:none;stroke:#1A4955;stroke-width:1.8;stroke-miterlimit:10;}
	.st4{fill:none;stroke:#1A4955;stroke-width:1.8524;stroke-miterlimit:10;}
</style>
<g>
	<circle class="st0" cx="7.5" cy="38.4" r="1.3"/>
	<g>
		<path class="st0" d="M24.3,104.6"/>
		<path class="st0" d="M23.4,104.6"/>
		<path class="st0" d="M80.5,147.5c-0.4,0-0.8-0.3-0.9-0.7C70.7,103.7,51.6,41,42,41c-9.7,0.7-22.5,50.9-28.7,84.5
			c-0.1,0.5-0.6,0.8-1,0.7c-0.5-0.1-0.8-0.6-0.7-1c1.6-8.7,16.1-85,30.4-86c12.2,0,31.7,69.8,39.4,107.2c0.1,0.5-0.2,1-0.7,1.1
			C80.6,147.5,80.5,147.5,80.5,147.5z"/>
		<path class="st0" d="M104.4,33.3c-0.4,0-0.7-0.2-0.8-0.6c-3.2-9.1-8.7-15.5-16.1-19.1C81.8,11,77.1,11,77.1,11c0,0,0,0,0,0
			c-0.5,0-0.9-0.4-0.9-0.9c0-0.5,0.4-0.9,0.9-0.9c0.2,0,20-0.1,28.2,22.9c0.2,0.5-0.1,1-0.5,1.1C104.6,33.3,104.5,33.3,104.4,33.3z"
			/>
		<path class="st0" d="M91.6,32.9c-0.4,0-0.7-0.2-0.8-0.6c-3.3-9.2-10.9-9.2-11.2-9.2c0,0,0,0,0,0c-0.5,0-0.9-0.4-0.9-0.9
			c0-0.5,0.4-0.9,0.9-0.9c0.1,0,9.2-0.1,12.9,10.4c0.2,0.5-0.1,1-0.5,1.1C91.8,32.9,91.7,32.9,91.6,32.9z"/>
		<path class="st0" d="M42.1,28.8c-6.6,0-12-5.4-12-12c0-6.6,5.4-12,12-12c6.6,0,12,5.4,12,12C54.1,23.5,48.7,28.8,42.1,28.8z
			 M42.1,6.7C36.5,6.7,32,11.2,32,16.9S36.5,27,42.1,27s10.2-4.6,10.2-10.2S47.8,6.7,42.1,6.7z"/>
		<path class="st0" d="M80.5,147.5c-0.3,0-0.6-0.1-0.7-0.4L13.6,47.9c-0.3-0.4-0.2-1,0.2-1.3c0.4-0.3,1-0.2,1.3,0.2L81.2,146
			c0.3,0.4,0.2,1-0.2,1.3C80.8,147.4,80.6,147.5,80.5,147.5z"/>
		<path class="st0" d="M75.7,40.9"/>
		<path class="st1" d="M12.4,125.4"/>
		<path class="st0" d="M5.7,144.3v-4.5c0-1.1,0.3-1.8,0.9-2.4s1.3-0.8,2.2-0.8c0.9,0,1.7,0.2,2.2,0.7c0.5,0.5,0.8,1,0.8,1.7
			c0,0.2,0,0.4-0.1,0.5c-0.1,0.1-0.2,0.1-0.4,0.1c-0.3,0-0.5-0.1-0.5-0.4c0-0.1,0-0.3-0.1-0.4c0-0.1-0.1-0.3-0.2-0.5
			c-0.1-0.2-0.2-0.3-0.3-0.4c-0.1-0.1-0.3-0.2-0.6-0.3c-0.3-0.1-0.5-0.1-0.9-0.1c-1.4,0-2.1,0.7-2.1,2.2v4.5c0,1.5,0.7,2.2,2.2,2.2
			c0.4,0,0.7-0.1,1-0.2c0.3-0.1,0.5-0.3,0.6-0.5c0.1-0.2,0.2-0.4,0.3-0.5s0.1-0.3,0.1-0.6c0-0.3,0.2-0.4,0.5-0.4
			c0.2,0,0.3,0,0.4,0.1c0.1,0.1,0.1,0.2,0.1,0.5c0,0.7-0.3,1.3-0.8,1.8c-0.6,0.5-1.3,0.7-2.2,0.7c-0.9,0-1.6-0.3-2.2-0.8
			C6,146.2,5.7,145.4,5.7,144.3z"/>
		<path class="st0" d="M21.7,147.1v-9.9c0-0.2,0.1-0.3,0.4-0.4h2.6c0.9,0,1.7,0.2,2.3,0.7c0.6,0.4,0.9,1.2,0.9,2.2
			c0,1.6-0.8,2.6-2.3,2.8l2.2,4.3c0,0,0.1,0.1,0.1,0.2c0,0.1-0.1,0.2-0.2,0.3c-0.1,0.1-0.2,0.2-0.4,0.2c-0.2,0-0.3-0.2-0.5-0.5
			l-2.2-4.4h-1.9v4.5c0,0.1,0,0.2-0.1,0.3c-0.1,0.1-0.2,0.1-0.3,0.1c-0.1,0-0.2,0-0.3-0.1C21.8,147.3,21.7,147.2,21.7,147.1z
			 M22.7,141.7h2c1.5,0,2.2-0.7,2.2-2.1c0-1.4-0.7-2-2.2-2h-2V141.7z"/>
		<g>
			<g>
				<path class="st0" d="M5.6,192.4c0-0.4,0.1-0.6,0.2-0.7c0.1-0.1,0.3-0.2,0.6-0.2c0.6,0,0.9,0.2,0.9,0.7c0,0.7,0.3,1.4,0.9,2
					c0.6,0.6,1.5,0.9,2.8,0.9c2.5,0,3.8-1.3,3.8-4v-0.5c0-1.2-0.3-2.1-1-2.6c-0.7-0.6-1.6-0.9-2.8-0.9c-0.5,0-0.7-0.2-0.7-0.7
					c0-0.5,0.2-0.8,0.7-0.8c1.1,0,1.9-0.2,2.5-0.7c0.5-0.5,0.8-1.4,0.8-2.6c0-1.2-0.3-2-0.8-2.6c-0.5-0.6-1.3-0.8-2.4-0.8
					c-1.2,0-2.1,0.3-2.6,0.9c-0.5,0.6-0.8,1.2-0.8,2c0,0.6-0.3,0.8-0.8,0.8c-0.3,0-0.6-0.1-0.7-0.2c-0.1-0.1-0.2-0.4-0.2-0.8
					c0-0.4,0.1-0.9,0.2-1.3c0.2-0.4,0.4-0.9,0.8-1.4c0.4-0.5,0.9-0.9,1.6-1.2c0.7-0.3,1.6-0.4,2.6-0.4c3.2,0,4.8,1.6,4.8,4.7
					c0,1.1-0.2,2.1-0.6,2.8c-0.4,0.8-0.9,1.3-1.6,1.6c1.8,0.7,2.7,2.1,2.7,4.3v0.5c0,1.9-0.5,3.3-1.5,4.2c-1,0.9-2.3,1.3-4,1.3
					c-1.7,0-3.1-0.4-4-1.3C6.1,194.6,5.6,193.6,5.6,192.4z"/>
				<path class="st0" d="M19.3,191.2V183c0-1.9,0.5-3.4,1.5-4.3c1-0.9,2.3-1.4,3.9-1.4c1.6,0,2.9,0.5,3.9,1.4c1,0.9,1.5,2.3,1.5,4.3
					v8.2c0,1.9-0.5,3.4-1.5,4.3c-1,0.9-2.3,1.4-3.9,1.4c-1.6,0-2.9-0.5-3.9-1.4C19.8,194.5,19.3,193.1,19.3,191.2z M21,191.2
					c0,2.7,1.2,4,3.7,4c2.4,0,3.7-1.3,3.7-4V183c0-2.7-1.2-4-3.7-4c-2.4,0-3.7,1.3-3.7,4V191.2z"/>
				<path class="st0" d="M33.3,191.2V183c0-1.9,0.5-3.4,1.5-4.3c1-0.9,2.3-1.4,3.9-1.4c1.6,0,2.9,0.5,3.9,1.4c1,0.9,1.5,2.3,1.5,4.3
					v8.2c0,1.9-0.5,3.4-1.5,4.3c-1,0.9-2.3,1.4-3.9,1.4c-1.6,0-2.9-0.5-3.9-1.4C33.8,194.5,33.3,193.1,33.3,191.2z M35,191.2
					c0,2.7,1.2,4,3.7,4c2.4,0,3.7-1.3,3.7-4V183c0-2.7-1.2-4-3.7-4c-2.4,0-3.7,1.3-3.7,4V191.2z"/>
				<path class="st0" d="M47.3,191.2V183c0-1.9,0.5-3.4,1.5-4.3c1-0.9,2.3-1.4,3.9-1.4c1.6,0,2.9,0.5,3.9,1.4c1,0.9,1.5,2.3,1.5,4.3
					v8.2c0,1.9-0.5,3.4-1.5,4.3c-1,0.9-2.3,1.4-3.9,1.4c-1.6,0-2.9-0.5-3.9-1.4C47.8,194.5,47.3,193.1,47.3,191.2z M49,191.2
					c0,2.7,1.2,4,3.7,4c2.4,0,3.7-1.3,3.7-4V183c0-2.7-1.2-4-3.7-4c-2.4,0-3.7,1.3-3.7,4V191.2z"/>
			</g>
		</g>
		<g>
			<g>
				<path class="st0" d="M81,178c0-0.1,0.1-0.2,0.2-0.3c0.1-0.1,0.2-0.1,0.4-0.1c0.2,0,0.3,0.1,0.4,0.2l2.6,8.6l2.6-8.6
					c0.1-0.2,0.2-0.2,0.3-0.2c0.1,0,0.3,0,0.4,0.1c0.1,0.1,0.2,0.2,0.2,0.3c0,0,0,0,0,0c0,0,0,0,0,0l-2.9,9.5
					c-0.1,0.2-0.3,0.3-0.6,0.3c-0.3,0-0.5-0.1-0.5-0.3L81,178C81,178.1,81,178.1,81,178z"/>
				<path class="st0" d="M88.6,187.5c0-0.1,0-0.2,0.1-0.3l4.6-8.7h-4.2c-0.1,0-0.2,0-0.3-0.1c-0.1-0.1-0.1-0.2-0.1-0.3
					c0-0.1,0-0.2,0.1-0.3c0.1-0.1,0.1-0.1,0.3-0.1h5.1c0.2,0,0.3,0.1,0.3,0.3c0,0.1,0,0.2-0.1,0.4l-4.6,8.7h4.6c0.1,0,0.2,0,0.3,0.1
					c0.1,0.1,0.1,0.2,0.1,0.3s0,0.2-0.1,0.3c-0.1,0.1-0.1,0.1-0.3,0.1h-5.4C88.7,187.8,88.6,187.7,88.6,187.5z"/>
				<path class="st0" d="M95.3,178c0-0.1,0-0.2,0.1-0.3c0.1-0.1,0.2-0.1,0.3-0.1c0.2,0,0.3,0.1,0.3,0.3l2.4,8.6l1.4-5.3
					c0-0.2,0.2-0.3,0.5-0.3c0.2,0,0.4,0.1,0.5,0.4l1.4,5.2l2.4-8.6c0-0.1,0.2-0.2,0.4-0.2c0.1,0,0.3,0,0.4,0.1
					c0.1,0.1,0.2,0.2,0.2,0.2c0,0,0,0.1,0,0.1l-2.7,9.4c-0.1,0.2-0.3,0.4-0.5,0.4c-0.3,0-0.5-0.1-0.5-0.3l-1.3-5l-1.3,4.9
					c-0.1,0.2-0.2,0.4-0.5,0.4c-0.3,0-0.4-0.1-0.5-0.3l-2.7-9.4C95.3,178.1,95.3,178.1,95.3,178z"/>
			</g>
		</g>
		<g>
			<g>
				<path class="st0" d="M22.4,171.4v-18.2c0-0.4,0.3-0.7,0.9-0.7c0.5,0,1,0.4,1.4,1.2l7.2,14.3v-14.9c0-0.4,0.3-0.6,0.9-0.6
					s0.9,0.2,0.9,0.6v18.3c0,0.2-0.1,0.4-0.3,0.5s-0.4,0.2-0.6,0.2c-0.4,0-0.8-0.3-1.2-1l-7.5-14.5v14.8c0,0.2-0.1,0.4-0.3,0.5
					c-0.2,0.1-0.4,0.2-0.6,0.2c-0.3,0-0.5-0.1-0.6-0.2C22.5,171.8,22.4,171.6,22.4,171.4z"/>
				<path class="st0" d="M36.1,153.3c0-0.2,0.1-0.4,0.2-0.6c0.1-0.2,0.3-0.3,0.5-0.3h10.8c0.2,0,0.4,0.1,0.5,0.2
					c0.1,0.2,0.2,0.3,0.2,0.6c0,0.2-0.1,0.4-0.2,0.6c-0.1,0.2-0.3,0.3-0.5,0.3h-4.5v17.3c0,0.2-0.1,0.4-0.3,0.5
					c-0.2,0.1-0.4,0.2-0.6,0.2c-0.3,0-0.5-0.1-0.6-0.2c-0.2-0.1-0.3-0.3-0.3-0.5v-17.3h-4.5c-0.2,0-0.4-0.1-0.5-0.2
					C36.2,153.7,36.1,153.5,36.1,153.3z"/>
				<path class="st0" d="M50.7,171.4v-18.2c0-0.2,0.1-0.4,0.2-0.5c0.2-0.1,0.3-0.2,0.6-0.2H61c0.4,0,0.7,0.3,0.7,0.8
					c0,0.2-0.1,0.4-0.2,0.6c-0.1,0.2-0.3,0.3-0.5,0.3h-8.6v7.4h4.2c0.2,0,0.4,0.1,0.5,0.2c0.1,0.2,0.2,0.3,0.2,0.6
					c0,0.5-0.2,0.7-0.7,0.7h-4.2v7.4H61c0.2,0,0.4,0.1,0.5,0.2c0.1,0.2,0.2,0.4,0.2,0.6c0,0.5-0.2,0.8-0.7,0.8h-9.6
					c-0.2,0-0.4-0.1-0.6-0.2C50.8,171.8,50.7,171.6,50.7,171.4z"/>
				<path class="st0" d="M64.3,171.4v-18.2c0-0.4,0.3-0.7,0.9-0.7c0.5,0,1,0.4,1.4,1.2l7.2,14.3v-14.9c0-0.4,0.3-0.6,0.9-0.6
					c0.6,0,0.9,0.2,0.9,0.6v18.3c0,0.2-0.1,0.4-0.3,0.5c-0.2,0.1-0.4,0.2-0.6,0.2c-0.4,0-0.8-0.3-1.2-1l-7.5-14.5v14.8
					c0,0.2-0.1,0.4-0.3,0.5c-0.2,0.1-0.4,0.2-0.6,0.2c-0.3,0-0.5-0.1-0.6-0.2C64.4,171.8,64.3,171.6,64.3,171.4z"/>
				<path class="st0" d="M79.7,171.4v-18.2c0-0.4,0.3-0.7,0.9-0.7c0.5,0,1,0.4,1.4,1.2l7.2,14.3v-14.9c0-0.4,0.3-0.6,0.9-0.6
					c0.6,0,0.9,0.2,0.9,0.6v18.3c0,0.2-0.1,0.4-0.3,0.5c-0.2,0.1-0.4,0.2-0.6,0.2c-0.4,0-0.8-0.3-1.2-1l-7.5-14.5v14.8
					c0,0.2-0.1,0.4-0.3,0.5c-0.2,0.1-0.4,0.2-0.6,0.2c-0.3,0-0.5-0.1-0.6-0.2C79.8,171.8,79.7,171.6,79.7,171.4z"/>
				<path class="st0" d="M95.1,171.4v-18.2c0-0.2,0.1-0.4,0.2-0.5c0.2-0.1,0.3-0.2,0.6-0.2h9.6c0.4,0,0.7,0.3,0.7,0.8
					c0,0.2-0.1,0.4-0.2,0.6c-0.1,0.2-0.3,0.3-0.5,0.3h-8.6v7.4h4.2c0.2,0,0.4,0.1,0.5,0.2c0.1,0.2,0.2,0.3,0.2,0.6
					c0,0.5-0.2,0.7-0.7,0.7h-4.2v7.4h8.6c0.2,0,0.4,0.1,0.5,0.2c0.1,0.2,0.2,0.4,0.2,0.6c0,0.5-0.2,0.8-0.7,0.8h-9.6
					c-0.2,0-0.4-0.1-0.6-0.2C95.1,171.8,95.1,171.6,95.1,171.4z"/>
				<g>
					<path class="st0" d="M11.7,154.3l-4.2,17.4c-0.1,0.3-0.3,0.5-0.7,0.5c-0.3,0-0.5-0.1-0.7-0.2c-0.2-0.1-0.3-0.3-0.3-0.5
						c0-0.1,0-0.2,0-0.2l0.4-1.4l4-16.8c0.1-0.4,0.5-0.6,1-0.6 M13.5,153"/>
					<path class="st0" d="M11.1,152.4h3.8c0.6,0,0.9,0.2,1,0.6l4,16.8l0.4,1.4c0,0,0,0.1,0,0.2c0,0.2-0.1,0.4-0.3,0.5
						c-0.2,0.1-0.5,0.2-0.7,0.2c-0.4,0-0.6-0.2-0.7-0.5l-4.1-17.4l-2.8,0 M12.6,153"/>
					<path class="st0" d="M8.2,165.9H17c0.4,0,0.8,0.1,1,0.2c0.2,0.2,0.4,0.3,0.4,0.6c0,0.5-0.5,0.7-1.4,0.7H8.2"/>
				</g>
			</g>
		</g>
		<g>
			<g>
				<path class="st0" d="M15.7,137.7l-2.3,9.5c0,0.2-0.2,0.2-0.4,0.2c-0.1,0-0.3,0-0.4-0.1c-0.1-0.1-0.2-0.2-0.2-0.3
					c0,0,0-0.1,0-0.1l0.2-0.8l2.2-9.2c0.1-0.2,0.3-0.3,0.6-0.3 M16.7,137"/>
				<path class="st0" d="M15.4,136.6h2.1c0.3,0,0.5,0.1,0.6,0.3l2.2,9.2l0.2,0.8c0,0,0,0.1,0,0.1c0,0.1-0.1,0.2-0.2,0.3
					c-0.1,0.1-0.2,0.1-0.4,0.1c-0.2,0-0.3-0.1-0.4-0.2l-2.3-9.5l-1.5,0 M16.2,137"/>
				<path class="st0" d="M13.8,144h4.8c0.2,0,0.4,0,0.6,0.1c0.1,0.1,0.2,0.2,0.2,0.3c0,0.3-0.3,0.4-0.8,0.4h-4.8"/>
			</g>
		</g>
		<path class="st0" d="M83.6,38c-0.4,0-0.7-0.2-0.8-0.6c-1.6-4.4-5.2-4.5-5.3-4.5c-0.5,0-0.9-0.4-0.9-0.9c0-0.5,0.4-0.9,0.9-0.9
			c0.2,0,5,0,7.1,5.6c0.2,0.5-0.1,1-0.5,1.1C83.8,37.9,83.7,38,83.6,38z"/>
		<path class="st2" d="M12.4,125.4"/>
		<path class="st0" d="M75.7,40.9"/>
		<path class="st0" d="M12.4,126.3c-0.2,0-0.4-0.1-0.5-0.2c-0.4-0.3-0.5-0.9-0.2-1.3L75,40.4c0.3-0.4,0.9-0.5,1.3-0.2
			c0.4,0.3,0.5,0.9,0.2,1.3l-63.3,84.4C12.9,126.1,12.7,126.3,12.4,126.3z"/>
		<line class="st3" x1="27" y1="65.5" x2="48.5" y2="45.9"/>
		<line class="st4" x1="57.7" y1="66.1" x2="34.8" y2="46.4"/>
	</g>
</g>
</svg>
