<svg id="Layer_1" data-name="Layer 1" xmlns="http://www.w3.org/2000/svg" viewBox="0 0 951.37 1269.59"><defs><style>.cls-1{fill:#fff;}.cls-1,.cls-3{stroke:#222221;}.cls-1,.cls-10,.cls-11,.cls-12,.cls-13,.cls-14,.cls-15,.cls-3,.cls-5,.cls-6{stroke-miterlimit:10;}.cls-2{font-size:26px;}.cls-10,.cls-11,.cls-12,.cls-13,.cls-14,.cls-15,.cls-2,.cls-4,.cls-7{fill:#1a4955;}.cls-2,.cls-7{font-family:Dosis-Regular, Dosis;}.cls-3,.cls-5,.cls-6{fill:none;}.cls-10,.cls-11,.cls-12,.cls-13,.cls-14,.cls-15,.cls-5,.cls-6{stroke:#1a4955;}.cls-5{stroke-width:0.75px;}.cls-6{stroke-width:0.77px;}.cls-7{font-size:15px;}.cls-8{letter-spacing:-0.07em;}.cls-9{letter-spacing:-0.02em;}.cls-10{stroke-width:0.86px;}.cls-11{stroke-width:0.89px;}.cls-12{stroke-width:1.01px;}.cls-13{stroke-width:1.04px;}.cls-14{stroke-width:1.25px;}.cls-15{stroke-width:1.28px;}.cls-16{letter-spacing:-0.03em;}</style></defs><title>Artboard 1</title><rect class="cls-1" x="54.74" y="39.52" width="841.89" height="1190.55"/><text class="cls-2" transform="translate(734.2 1109.53)">A3</text><text class="cls-2" transform="translate(734.2 709.85)">A4</text><rect class="cls-3" x="203.56" y="137.32" width="790.87" height="595.28" transform="translate(1033.95 -164.04) rotate(90)"/><rect class="cls-3" x="389.23" y="127.39" width="595.28" height="419.53" transform="translate(1024.03 -349.71) rotate(90)"/><text class="cls-2" transform="translate(734.2 514.26)">A5</text><rect class="cls-3" x="538.05" y="100.47" width="419.53" height="297.64" transform="translate(997.1 -498.53) rotate(90)"/><text class="cls-2" transform="translate(734.2 338.51)">A6</text><circle class="cls-4" cx="611.02" cy="68.55" r="0.56"/><path class="cls-4" d="M641.51,113.17a.38.38,0,0,1-.37-.3c-3.72-18-11.69-44.15-15.71-44.15C621.37,69,616,90,613.44,104a.38.38,0,0,1-.74-.14c.67-3.63,6.73-35.49,12.7-35.9,5.11,0,13.24,29.15,16.47,44.75a.38.38,0,0,1-.29.44Z"/><path class="cls-4" d="M651.48,65.48a.38.38,0,0,1-.35-.25,13.23,13.23,0,0,0-6.73-8,10.81,10.81,0,0,0-4.31-1.09h0a.38.38,0,0,1,0-.75c.1,0,8.36,0,11.76,9.54a.38.38,0,0,1-.23.48Z"/><path class="cls-4" d="M646.15,65.32a.38.38,0,0,1-.35-.25c-1.37-3.85-4.54-3.85-4.67-3.85h0a.38.38,0,0,1,0-.75,6,6,0,0,1,5.39,4.35.38.38,0,0,1-.23.48Z"/><path class="cls-4" d="M625.5,63.61a5,5,0,1,1,5-5A5,5,0,0,1,625.5,63.61Zm0-9.25a4.25,4.25,0,1,0,4.25,4.25A4.25,4.25,0,0,0,625.5,54.37Z"/><path class="cls-4" d="M641.51,113.17a.37.37,0,0,1-.31-.17L613.58,71.58a.39.39,0,0,1,.1-.54.37.37,0,0,1,.52.1l27.62,41.42a.39.39,0,0,1-.1.54A.37.37,0,0,1,641.51,113.17Z"/><path class="cls-4" d="M610.3,111.85V110a1.25,1.25,0,0,1,.36-1,1.54,1.54,0,0,1,1.84,0,.92.92,0,0,1,.34.72.3.3,0,0,1,0,.2.21.21,0,0,1-.16,0q-.19,0-.2-.15a1.25,1.25,0,0,0,0-.18.8.8,0,0,0-.07-.19.64.64,0,0,0-.14-.19.69.69,0,0,0-.25-.13,1.18,1.18,0,0,0-.37-.05q-.88,0-.88.93v1.89a.81.81,0,0,0,.9.93,1.13,1.13,0,0,0,.43-.07.5.5,0,0,0,.25-.2,1,1,0,0,0,.11-.23,1.61,1.61,0,0,0,0-.25c0-.11.08-.16.2-.16a.2.2,0,0,1,.16.05.31.31,0,0,1,0,.2.93.93,0,0,1-.34.73,1.37,1.37,0,0,1-.93.3,1.31,1.31,0,0,1-.91-.32A1.27,1.27,0,0,1,610.3,111.85Z"/><path class="cls-4" d="M617,113v-4.15q0-.13.15-.15h1.08a1.52,1.52,0,0,1,1,.28,1.09,1.09,0,0,1,.36.92,1.06,1.06,0,0,1-1,1.18l.94,1.8a.12.12,0,0,1,0,.08.19.19,0,0,1-.07.14.24.24,0,0,1-.16.06q-.11,0-.21-.21l-.94-1.83h-.77V113a.13.13,0,0,1-.06.12.24.24,0,0,1-.14,0,.24.24,0,0,1-.14,0A.14.14,0,0,1,617,113Zm.4-2.22h.83q.91,0,.92-.86t-.92-.85h-.83Z"/><path class="cls-4" d="M610.26,131.95a.45.45,0,0,1,.08-.3.35.35,0,0,1,.26-.08q.37,0,.37.31a1.19,1.19,0,0,0,.37.84,1.58,1.58,0,0,0,1.18.39q1.58,0,1.58-1.65v-.21a1.39,1.39,0,0,0-.41-1.1,1.68,1.68,0,0,0-1.15-.36q-.29,0-.29-.31t.28-.32a1.49,1.49,0,0,0,1-.31,1.43,1.43,0,0,0,.34-1.09,1.53,1.53,0,0,0-.32-1.07,1.32,1.32,0,0,0-1-.35,1.41,1.41,0,0,0-1.09.36,1.19,1.19,0,0,0-.32.82.31.31,0,0,1-.35.35.39.39,0,0,1-.29-.09.49.49,0,0,1-.08-.33,1.6,1.6,0,0,1,.1-.54,2.18,2.18,0,0,1,.32-.57,1.57,1.57,0,0,1,.67-.48,2.77,2.77,0,0,1,1.07-.19q2,0,2,1.94a2.53,2.53,0,0,1-.25,1.18,1.47,1.47,0,0,1-.65.67,1.74,1.74,0,0,1,1.12,1.78v.21a2.24,2.24,0,0,1-.63,1.76,2.42,2.42,0,0,1-1.67.56,2.36,2.36,0,0,1-1.68-.56A1.69,1.69,0,0,1,610.26,131.95Z"/><path class="cls-4" d="M615.95,131.41V128a2.29,2.29,0,0,1,.62-1.78,2.64,2.64,0,0,1,3.27,0,2.29,2.29,0,0,1,.62,1.78v3.41a2.3,2.3,0,0,1-.62,1.79,2.64,2.64,0,0,1-3.27,0A2.31,2.31,0,0,1,615.95,131.41Zm.73,0q0,1.68,1.53,1.68t1.53-1.68V128q0-1.67-1.53-1.67T616.67,128Z"/><path class="cls-4" d="M621.8,131.41V128a2.29,2.29,0,0,1,.62-1.78,2.64,2.64,0,0,1,3.27,0,2.29,2.29,0,0,1,.62,1.78v3.41a2.3,2.3,0,0,1-.62,1.79,2.64,2.64,0,0,1-3.27,0A2.31,2.31,0,0,1,621.8,131.41Zm.73,0q0,1.68,1.53,1.68t1.53-1.68V128q0-1.67-1.53-1.67T622.53,128Z"/><path class="cls-4" d="M627.65,131.41V128a2.29,2.29,0,0,1,.62-1.78,2.64,2.64,0,0,1,3.27,0,2.29,2.29,0,0,1,.62,1.78v3.41a2.3,2.3,0,0,1-.62,1.79,2.64,2.64,0,0,1-3.27,0A2.31,2.31,0,0,1,627.65,131.41Zm.73,0q0,1.68,1.53,1.68t1.53-1.68V128q0-1.67-1.53-1.67T628.38,128Z"/><path class="cls-4" d="M641.74,125.94a.14.14,0,0,1,.07-.12.27.27,0,0,1,.15,0q.13,0,.15.1l1.08,3.57,1.07-3.57a.14.14,0,0,1,.15-.1.29.29,0,0,1,.16,0,.14.14,0,0,1,.08.12v0l-1.21,3.95q0,.14-.23.14t-.23-.14L641.74,126A.1.1,0,0,1,641.74,125.94Z"/><path class="cls-4" d="M644.89,129.89a.3.3,0,0,1,0-.13l1.94-3.63h-1.76a.13.13,0,0,1-.1-.05.22.22,0,0,1,0-.25.12.12,0,0,1,.11-.05h2.11q.15,0,.15.12a.31.31,0,0,1,0,.15l-1.93,3.63h1.9a.12.12,0,0,1,.11.05.2.2,0,0,1,0,.12.22.22,0,0,1,0,.13.12.12,0,0,1-.11.06H645Q644.89,130,644.89,129.89Z"/><path class="cls-4" d="M647.7,125.93a.14.14,0,0,1,.06-.11.22.22,0,0,1,.13,0,.13.13,0,0,1,.13.11l1,3.57.59-2.19q0-.12.2-.12a.18.18,0,0,1,.19.15l.58,2.17,1-3.6q0-.09.15-.09a.28.28,0,0,1,.15,0,.12.12,0,0,1,.07.1.14.14,0,0,1,0,0l-1.14,3.95a.21.21,0,0,1-.23.15q-.19,0-.22-.13l-.56-2.08-.56,2.05a.18.18,0,0,1-.2.15.19.19,0,0,1-.21-.14L647.7,126A.15.15,0,0,1,647.7,125.93Z"/><path class="cls-4" d="M617.25,123.16v-7.62q0-.28.37-.28t.58.52l3,6v-6.21q0-.27.37-.27t.37.27v7.63a.25.25,0,0,1-.11.21.44.44,0,0,1-.26.08q-.28,0-.49-.43L618,117v6.2a.25.25,0,0,1-.11.21.44.44,0,0,1-.26.08.43.43,0,0,1-.26-.08A.25.25,0,0,1,617.25,123.16Z"/><path class="cls-4" d="M623,115.61a.4.4,0,0,1,.07-.24.24.24,0,0,1,.21-.1h4.49a.24.24,0,0,1,.21.1.38.38,0,0,1,.07.23.42.42,0,0,1-.07.25.24.24,0,0,1-.21.1H625.9v7.22a.25.25,0,0,1-.11.21.44.44,0,0,1-.26.08.43.43,0,0,1-.26-.08.25.25,0,0,1-.11-.21v-7.22h-1.88a.25.25,0,0,1-.2-.1A.38.38,0,0,1,623,115.61Z"/><path class="cls-4" d="M629.07,123.16v-7.62a.24.24,0,0,1,.1-.21.39.39,0,0,1,.24-.07h4q.28,0,.28.32a.44.44,0,0,1-.07.25.24.24,0,0,1-.21.11h-3.59V119h1.76a.25.25,0,0,1,.21.1.39.39,0,0,1,.07.24q0,.3-.28.3h-1.76v3.1h3.59a.24.24,0,0,1,.2.1.39.39,0,0,1,.08.25q0,.34-.28.34h-4a.37.37,0,0,1-.24-.08A.26.26,0,0,1,629.07,123.16Z"/><path class="cls-4" d="M634.76,123.16v-7.62q0-.28.37-.28t.58.52l3,6v-6.21q0-.27.37-.27t.37.27v7.63a.25.25,0,0,1-.11.21.44.44,0,0,1-.26.08q-.28,0-.49-.43L635.5,117v6.2a.25.25,0,0,1-.11.21.44.44,0,0,1-.26.08.43.43,0,0,1-.26-.08A.25.25,0,0,1,634.76,123.16Z"/><path class="cls-4" d="M641.18,123.16v-7.62q0-.28.37-.28t.58.52l3,6v-6.21q0-.27.37-.27t.37.27v7.63a.25.25,0,0,1-.11.21.44.44,0,0,1-.26.08q-.28,0-.49-.43L641.92,117v6.2a.25.25,0,0,1-.11.21.44.44,0,0,1-.26.08.43.43,0,0,1-.26-.08A.25.25,0,0,1,641.18,123.16Z"/><path class="cls-4" d="M647.6,123.16v-7.62a.24.24,0,0,1,.1-.21.39.39,0,0,1,.24-.07h4q.28,0,.28.32a.44.44,0,0,1-.07.25.24.24,0,0,1-.21.11h-3.59V119h1.76a.25.25,0,0,1,.21.1.39.39,0,0,1,.07.24q0,.3-.28.3h-1.76v3.1h3.59a.24.24,0,0,1,.2.1.39.39,0,0,1,.08.25q0,.34-.28.34h-4a.37.37,0,0,1-.24-.08A.26.26,0,0,1,647.6,123.16Z"/><path class="cls-4" d="M612.77,116,611,123.3c0,.13-.13.19-.29.19a.52.52,0,0,1-.29-.09.26.26,0,0,1-.14-.22.19.19,0,0,1,0-.08l.15-.59,1.65-7q.08-.26.44-.26m1,.26"/><path class="cls-4" d="M612.55,115.23h1.59q.36,0,.44.26l1.65,7,.15.59a.19.19,0,0,1,0,.08.26.26,0,0,1-.14.22.52.52,0,0,1-.29.09c-.17,0-.26-.06-.29-.19L613.94,116h-1.16m.38-.55"/><path class="cls-4" d="M611.33,120.88H615a.82.82,0,0,1,.43.1.28.28,0,0,1,.15.24q0,.3-.58.3h-3.67"/><path class="cls-4" d="M614.45,109.08l-1,4c0,.07-.07.1-.16.1a.28.28,0,0,1-.16,0,.14.14,0,0,1-.07-.12.11.11,0,0,1,0,0l.08-.33.9-3.84q0-.14.24-.14m.54.14"/><path class="cls-4" d="M614.33,108.64h.87q.2,0,.24.14l.9,3.84.08.33a.11.11,0,0,1,0,0,.14.14,0,0,1-.07.12.28.28,0,0,1-.16,0c-.09,0-.14,0-.16-.1l-.95-4h-.64m.21-.3"/><path class="cls-4" d="M613.66,111.74h2a.45.45,0,0,1,.24.05.15.15,0,0,1,.08.13q0,.17-.32.17h-2"/><path class="cls-4" d="M642.8,67.43a.38.38,0,0,1-.35-.25,2.5,2.5,0,0,0-2.23-1.86.39.39,0,0,1-.38-.37.38.38,0,0,1,.37-.38,3.23,3.23,0,0,1,2.95,2.36.38.38,0,0,1-.23.48Z"/><path class="cls-4" d="M613.07,104.31a.38.38,0,0,1-.3-.6l26.45-35.27a.38.38,0,1,1,.6.45l-26.45,35.27A.38.38,0,0,1,613.07,104.31Z"/><line class="cls-5" x1="619.16" y1="78.95" x2="628.16" y2="70.74"/><line class="cls-6" x1="631.98" y1="79.19" x2="622.45" y2="70.97"/><text class="cls-7" transform="translate(734.2 358.25)">14,8 mm x 2<tspan class="cls-8" x="65.92" y="0">7</tspan><tspan class="cls-9" x="71.74" y="0">,</tspan><tspan x="74.01" y="0">4 mm</tspan></text><circle class="cls-4" cx="491.12" cy="70.38" r="0.65"/><path class="cls-4" d="M526.15,121.63a.43.43,0,0,1-.42-.34c-4.27-20.68-13.43-50.72-18-50.72C503,70.89,496.89,95,493.91,111.1a.43.43,0,0,1-.85-.16c.77-4.17,7.73-40.76,14.59-41.23,5.87,0,15.21,33.48,18.92,51.4a.43.43,0,0,1-.34.51Z"/><path class="cls-4" d="M537.61,66.85a.43.43,0,0,1-.41-.29c-1.55-4.37-4.15-7.44-7.73-9.14a12.41,12.41,0,0,0-4.95-1.25h0a.43.43,0,0,1,0-.86c.11,0,9.6,0,13.51,11a.43.43,0,0,1-.26.55Z"/><path class="cls-4" d="M531.48,66.67a.43.43,0,0,1-.41-.29C529.5,62,525.86,62,525.71,62h0a.43.43,0,0,1,0-.86s4.41,0,6.19,5a.43.43,0,0,1-.26.55Z"/><path class="cls-4" d="M507.76,64.71A5.74,5.74,0,1,1,513.51,59,5.75,5.75,0,0,1,507.76,64.71Zm0-10.62A4.88,4.88,0,1,0,512.64,59,4.88,4.88,0,0,0,507.76,54.09Z"/><path class="cls-4" d="M526.15,121.63a.43.43,0,0,1-.36-.19L494.07,73.86a.45.45,0,0,1,.11-.62.42.42,0,0,1,.6.12l31.72,47.58a.45.45,0,0,1-.11.62A.42.42,0,0,1,526.15,121.63Z"/><path class="cls-4" d="M490.3,120.11v-2.17a1.43,1.43,0,0,1,.41-1.13,1.77,1.77,0,0,1,2.12,0,1.06,1.06,0,0,1,.39.83.34.34,0,0,1-.05.22.24.24,0,0,1-.18.06q-.22,0-.23-.18a1.44,1.44,0,0,0,0-.2.92.92,0,0,0-.08-.22.74.74,0,0,0-.16-.21.79.79,0,0,0-.28-.15,1.36,1.36,0,0,0-.42-.06q-1,0-1,1.06v2.17a.93.93,0,0,0,1,1.07,1.3,1.3,0,0,0,.49-.08.57.57,0,0,0,.29-.23,1.19,1.19,0,0,0,.12-.26,1.85,1.85,0,0,0,.05-.28c0-.12.09-.18.23-.18a.23.23,0,0,1,.18.06.36.36,0,0,1,.05.23,1.07,1.07,0,0,1-.4.84,1.58,1.58,0,0,1-1.07.34,1.5,1.5,0,0,1-1-.36A1.46,1.46,0,0,1,490.3,120.11Z"/><path class="cls-4" d="M498,121.43v-4.77q0-.15.18-.17h1.24a1.75,1.75,0,0,1,1.1.32,1.26,1.26,0,0,1,.42,1.06,1.22,1.22,0,0,1-1.09,1.35l1.08,2.07a.14.14,0,0,1,0,.09.21.21,0,0,1-.08.16.27.27,0,0,1-.18.07q-.13,0-.25-.25l-1.08-2.1h-.89v2.15a.15.15,0,0,1-.07.13.27.27,0,0,1-.16,0,.27.27,0,0,1-.16,0A.16.16,0,0,1,498,121.43Zm.46-2.55h1q1.05,0,1.05-1t-1.05-1h-1Z"/><path class="cls-4" d="M490.25,143.2a.51.51,0,0,1,.09-.35.4.4,0,0,1,.3-.09q.43,0,.43.35a1.37,1.37,0,0,0,.42,1,1.81,1.81,0,0,0,1.36.44q1.82,0,1.82-1.9v-.24a1.6,1.6,0,0,0-.47-1.26,1.93,1.93,0,0,0-1.32-.42q-.33,0-.33-.35t.32-.37a1.71,1.71,0,0,0,1.19-.36,1.65,1.65,0,0,0,.39-1.25,1.76,1.76,0,0,0-.37-1.23,1.52,1.52,0,0,0-1.16-.4,1.62,1.62,0,0,0-1.25.41,1.37,1.37,0,0,0-.37.94.36.36,0,0,1-.4.4.45.45,0,0,1-.33-.1.56.56,0,0,1-.09-.38,1.83,1.83,0,0,1,.11-.62,2.51,2.51,0,0,1,.37-.65,1.8,1.8,0,0,1,.77-.55,3.18,3.18,0,0,1,1.23-.22q2.31,0,2.31,2.23a2.91,2.91,0,0,1-.28,1.36,1.69,1.69,0,0,1-.75.77,2,2,0,0,1,1.29,2v.24a2.57,2.57,0,0,1-.73,2,2.78,2.78,0,0,1-1.91.64,2.71,2.71,0,0,1-1.93-.64A2,2,0,0,1,490.25,143.2Z"/><path class="cls-4" d="M496.79,142.58v-3.92a2.64,2.64,0,0,1,.71-2,3,3,0,0,1,3.75,0,2.63,2.63,0,0,1,.72,2v3.92a2.65,2.65,0,0,1-.72,2.05,3,3,0,0,1-3.75,0A2.65,2.65,0,0,1,496.79,142.58Zm.83,0q0,1.93,1.76,1.93t1.76-1.93v-3.92q0-1.92-1.76-1.92t-1.76,1.92Z"/><path class="cls-4" d="M503.51,142.58v-3.92a2.64,2.64,0,0,1,.71-2,3,3,0,0,1,3.75,0,2.63,2.63,0,0,1,.72,2v3.92a2.65,2.65,0,0,1-.72,2.05,3,3,0,0,1-3.75,0A2.65,2.65,0,0,1,503.51,142.58Zm.83,0q0,1.93,1.76,1.93t1.76-1.93v-3.92q0-1.92-1.76-1.92t-1.76,1.92Z"/><path class="cls-4" d="M510.24,142.58v-3.92a2.64,2.64,0,0,1,.71-2,3,3,0,0,1,3.75,0,2.63,2.63,0,0,1,.72,2v3.92a2.65,2.65,0,0,1-.72,2.05,3,3,0,0,1-3.75,0A2.65,2.65,0,0,1,510.24,142.58Zm.83,0q0,1.93,1.76,1.93t1.76-1.93v-3.92q0-1.92-1.76-1.92t-1.76,1.92Z"/><path class="cls-4" d="M526.41,136.3a.16.16,0,0,1,.08-.13.31.31,0,0,1,.17-.05q.15,0,.17.11l1.24,4.11,1.23-4.11a.16.16,0,0,1,.17-.11.33.33,0,0,1,.18.06.16.16,0,0,1,.09.14v0l-1.39,4.53q0,.16-.27.16t-.26-.16l-1.39-4.53A.11.11,0,0,1,526.41,136.3Z"/><path class="cls-4" d="M530,140.84a.34.34,0,0,1,0-.15l2.23-4.17h-2a.15.15,0,0,1-.12-.06.25.25,0,0,1,0-.29.14.14,0,0,1,.12-.06h2.43q.17,0,.17.14a.36.36,0,0,1-.05.17l-2.22,4.17h2.19a.14.14,0,0,1,.12.06.23.23,0,0,1,0,.14.25.25,0,0,1,0,.14.14.14,0,0,1-.12.06h-2.59Q530,141,530,140.84Z"/><path class="cls-4" d="M533.26,136.29a.16.16,0,0,1,.07-.13.25.25,0,0,1,.15-.05.15.15,0,0,1,.15.13l1.16,4.11.68-2.52q0-.14.23-.14a.21.21,0,0,1,.22.17l.67,2.49,1.16-4.13q0-.1.18-.1a.32.32,0,0,1,.18.05.14.14,0,0,1,.08.12.16.16,0,0,1,0,.05l-1.31,4.53a.24.24,0,0,1-.26.17q-.22,0-.26-.15l-.65-2.38-.64,2.36a.21.21,0,0,1-.23.17.22.22,0,0,1-.24-.16l-1.32-4.53A.17.17,0,0,1,533.26,136.29Z"/><path class="cls-4" d="M498.29,133.11v-8.75q0-.32.42-.32t.67.59l3.48,6.85v-7.13q0-.31.42-.31t.42.31v8.77a.28.28,0,0,1-.13.24.5.5,0,0,1-.3.09q-.32,0-.57-.49l-3.58-7v7.12a.28.28,0,0,1-.13.24.5.5,0,0,1-.3.09.5.5,0,0,1-.3-.09A.29.29,0,0,1,498.29,133.11Z"/><path class="cls-4" d="M504.88,124.43a.46.46,0,0,1,.08-.27.27.27,0,0,1,.24-.12h5.16a.28.28,0,0,1,.24.11.44.44,0,0,1,.08.27.49.49,0,0,1-.08.29.27.27,0,0,1-.24.12h-2.15v8.29a.28.28,0,0,1-.13.25.5.5,0,0,1-.3.09.5.5,0,0,1-.3-.09.29.29,0,0,1-.12-.25v-8.29H505.2a.28.28,0,0,1-.23-.11A.44.44,0,0,1,504.88,124.43Z"/><path class="cls-4" d="M511.86,133.11v-8.75a.28.28,0,0,1,.12-.24.45.45,0,0,1,.27-.08h4.58q.32,0,.32.37a.5.5,0,0,1-.08.29.27.27,0,0,1-.24.12h-4.12v3.54h2a.28.28,0,0,1,.24.11.44.44,0,0,1,.08.28q0,.35-.32.35h-2v3.57h4.12a.28.28,0,0,1,.23.12.45.45,0,0,1,.09.28q0,.39-.32.39h-4.58a.43.43,0,0,1-.27-.09A.29.29,0,0,1,511.86,133.11Z"/><path class="cls-4" d="M518.4,133.11v-8.75q0-.32.42-.32t.67.59l3.48,6.85v-7.13q0-.31.42-.31t.42.31v8.77a.28.28,0,0,1-.13.24.5.5,0,0,1-.3.09q-.32,0-.57-.49l-3.58-7v7.12a.28.28,0,0,1-.13.24.5.5,0,0,1-.3.09.5.5,0,0,1-.3-.09A.29.29,0,0,1,518.4,133.11Z"/><path class="cls-4" d="M525.78,133.11v-8.75q0-.32.42-.32t.67.59l3.48,6.85v-7.13q0-.31.42-.31t.42.31v8.77a.28.28,0,0,1-.13.24.5.5,0,0,1-.3.09q-.32,0-.57-.49l-3.58-7v7.12a.28.28,0,0,1-.13.24.5.5,0,0,1-.3.09.5.5,0,0,1-.3-.09A.29.29,0,0,1,525.78,133.11Z"/><path class="cls-4" d="M533.15,133.11v-8.75a.28.28,0,0,1,.12-.24.45.45,0,0,1,.27-.08h4.58q.32,0,.32.37a.5.5,0,0,1-.08.29.27.27,0,0,1-.24.12H534v3.54h2a.28.28,0,0,1,.24.11.44.44,0,0,1,.08.28q0,.35-.32.35h-2v3.57h4.12a.28.28,0,0,1,.23.12.45.45,0,0,1,.09.28q0,.39-.32.39h-4.58a.43.43,0,0,1-.27-.09A.29.29,0,0,1,533.15,133.11Z"/><path class="cls-4" d="M493.15,124.92l-2,8.35c0,.14-.15.22-.34.22a.6.6,0,0,1-.34-.1.3.3,0,0,1-.16-.26.22.22,0,0,1,0-.09l.17-.68,1.9-8.06q.09-.3.5-.3m1.13.3"/><path class="cls-4" d="M492.88,124h1.83q.41,0,.5.3l1.9,8.06.17.68a.22.22,0,0,1,0,.09.3.3,0,0,1-.16.26.6.6,0,0,1-.34.1c-.19,0-.3-.07-.34-.22l-2-8.35h-1.33m.44-.63"/><path class="cls-4" d="M491.49,130.49h4.22a.94.94,0,0,1,.5.11.32.32,0,0,1,.17.28q0,.35-.67.35h-4.22"/><path class="cls-4" d="M495.07,116.94l-1.1,4.57c0,.08-.08.12-.18.12a.33.33,0,0,1-.18-.06.17.17,0,0,1-.09-.14.12.12,0,0,1,0,0l.09-.37,1-4.41q0-.16.27-.16m.62.16"/><path class="cls-4" d="M494.93,116.43h1q.23,0,.27.16l1,4.41.09.37a.12.12,0,0,1,0,0,.17.17,0,0,1-.09.14.33.33,0,0,1-.18.06c-.1,0-.17,0-.18-.12l-1.09-4.57h-.73m.24-.34"/><path class="cls-4" d="M494.17,120h2.31a.51.51,0,0,1,.27.06.18.18,0,0,1,.1.15q0,.19-.37.19h-2.31"/><path class="cls-4" d="M527.63,69.09a.43.43,0,0,1-.41-.29,2.87,2.87,0,0,0-2.56-2.14.45.45,0,0,1-.44-.43.43.43,0,0,1,.42-.44A3.71,3.71,0,0,1,528,68.51a.43.43,0,0,1-.26.55Z"/><path class="cls-4" d="M493.49,111.45a.43.43,0,0,1-.35-.69l30.39-40.51a.43.43,0,0,1,.69.52l-30.39,40.51A.43.43,0,0,1,493.49,111.45Z"/><line class="cls-10" x1="500.48" y1="82.33" x2="510.82" y2="72.89"/><line class="cls-11" x1="515.21" y1="82.6" x2="504.26" y2="73.16"/><text class="cls-7" transform="translate(734.2 539.72)">17 mm x 32,5 mm</text><circle class="cls-4" cx="313.89" cy="73.38" r="0.76"/><path class="cls-4" d="M354.8,133.25a.5.5,0,0,1-.49-.4c-5-24.15-15.68-59.24-21.07-59.24-5.44.38-12.61,28.52-16.09,47.34a.5.5,0,0,1-1-.18c.9-4.87,9-47.61,17-48.16,6.86,0,17.77,39.1,22.1,60a.5.5,0,0,1-.39.6Z"/><path class="cls-4" d="M368.18,69.27a.5.5,0,0,1-.47-.34c-1.81-5.1-4.85-8.69-9-10.68a14.5,14.5,0,0,0-5.78-1.46h0a.5.5,0,0,1,0-1c.13,0,11.21,0,15.78,12.8a.5.5,0,0,1-.47.67Z"/><path class="cls-4" d="M361,69a.5.5,0,0,1-.47-.34c-1.84-5.16-6.09-5.16-6.26-5.17h0a.5.5,0,0,1,0-1c.06,0,5.15,0,7.23,5.84A.5.5,0,0,1,361,69Z"/><path class="cls-4" d="M333.32,66.76A6.71,6.71,0,1,1,340,60.06,6.71,6.71,0,0,1,333.32,66.76Zm0-12.41a5.7,5.7,0,1,0,5.7,5.7A5.71,5.71,0,0,0,333.32,54.36Z"/><path class="cls-4" d="M354.8,133.25a.5.5,0,0,1-.42-.23L317.33,77.45a.53.53,0,0,1,.13-.72.5.5,0,0,1,.7.13l37.05,55.57a.53.53,0,0,1-.13.72A.49.49,0,0,1,354.8,133.25Z"/><path class="cls-4" d="M312.93,131.47v-2.54a1.67,1.67,0,0,1,.48-1.32,2.06,2.06,0,0,1,2.47,0,1.24,1.24,0,0,1,.45,1,.4.4,0,0,1-.06.26.28.28,0,0,1-.21.07q-.25,0-.27-.2a1.68,1.68,0,0,0,0-.24,1.08,1.08,0,0,0-.1-.26.86.86,0,0,0-.19-.25.92.92,0,0,0-.33-.18,1.58,1.58,0,0,0-.49-.07q-1.18,0-1.18,1.24v2.54a1.09,1.09,0,0,0,1.21,1.25,1.52,1.52,0,0,0,.57-.09.67.67,0,0,0,.34-.27,1.39,1.39,0,0,0,.14-.31,2.17,2.17,0,0,0,.06-.33c0-.14.11-.21.27-.21a.27.27,0,0,1,.21.07.42.42,0,0,1,.06.27,1.25,1.25,0,0,1-.46,1,1.84,1.84,0,0,1-1.25.4,1.75,1.75,0,0,1-1.22-.43A1.7,1.7,0,0,1,312.93,131.47Z"/><path class="cls-4" d="M321.89,133v-5.57q0-.18.2-.2h1.45a2,2,0,0,1,1.28.38,1.47,1.47,0,0,1,.49,1.24,1.42,1.42,0,0,1-1.28,1.58l1.26,2.42a.17.17,0,0,1,0,.11.25.25,0,0,1-.1.19.32.32,0,0,1-.21.09q-.15,0-.29-.29l-1.26-2.45h-1V133a.18.18,0,0,1-.08.16.32.32,0,0,1-.19.06.32.32,0,0,1-.19-.06A.18.18,0,0,1,321.89,133Zm.54-3h1.11q1.23,0,1.23-1.15t-1.23-1.14h-1.11Z"/><path class="cls-4" d="M312.87,158.44a.6.6,0,0,1,.1-.41.47.47,0,0,1,.35-.11q.5,0,.5.41a1.6,1.6,0,0,0,.49,1.12,2.11,2.11,0,0,0,1.59.52q2.13,0,2.13-2.21v-.28a1.86,1.86,0,0,0-.55-1.48,2.26,2.26,0,0,0-1.54-.49q-.38,0-.38-.41t.37-.43a2,2,0,0,0,1.39-.42,1.92,1.92,0,0,0,.46-1.46,2.06,2.06,0,0,0-.43-1.43,1.77,1.77,0,0,0-1.36-.46,1.89,1.89,0,0,0-1.46.48,1.6,1.6,0,0,0-.43,1.1.42.42,0,0,1-.47.47.52.52,0,0,1-.39-.12.65.65,0,0,1-.11-.44,2.14,2.14,0,0,1,.13-.73,2.93,2.93,0,0,1,.43-.76,2.1,2.1,0,0,1,.9-.64A3.71,3.71,0,0,1,316,150q2.7,0,2.7,2.61a3.4,3.4,0,0,1-.33,1.59,2,2,0,0,1-.88.9,2.33,2.33,0,0,1,1.51,2.39v.28a3,3,0,0,1-.85,2.36,3.25,3.25,0,0,1-2.24.75,3.16,3.16,0,0,1-2.26-.75A2.27,2.27,0,0,1,312.87,158.44Z"/><path class="cls-4" d="M320.51,157.72v-4.58a3.08,3.08,0,0,1,.83-2.38,3.54,3.54,0,0,1,4.38,0,3.07,3.07,0,0,1,.84,2.38v4.58a3.09,3.09,0,0,1-.84,2.4,3.54,3.54,0,0,1-4.38,0A3.1,3.1,0,0,1,320.51,157.72Zm1,0q0,2.26,2.05,2.26t2.05-2.26v-4.58q0-2.24-2.05-2.24t-2.05,2.24Z"/><path class="cls-4" d="M328.36,157.72v-4.58a3.08,3.08,0,0,1,.83-2.38,3.54,3.54,0,0,1,4.38,0,3.07,3.07,0,0,1,.84,2.38v4.58a3.09,3.09,0,0,1-.84,2.4,3.54,3.54,0,0,1-4.38,0A3.1,3.1,0,0,1,328.36,157.72Zm1,0q0,2.26,2.05,2.26t2.05-2.26v-4.58q0-2.24-2.05-2.24t-2.05,2.24Z"/><path class="cls-4" d="M336.21,157.72v-4.58a3.08,3.08,0,0,1,.83-2.38,3.54,3.54,0,0,1,4.38,0,3.07,3.07,0,0,1,.84,2.38v4.58a3.09,3.09,0,0,1-.84,2.4,3.54,3.54,0,0,1-4.38,0A3.1,3.1,0,0,1,336.21,157.72Zm1,0q0,2.26,2.05,2.26t2.05-2.26v-4.58q0-2.24-2.05-2.24t-2.05,2.24Z"/><path class="cls-4" d="M355.1,150.38a.18.18,0,0,1,.09-.16.36.36,0,0,1,.2-.06q.17,0,.2.13l1.44,4.79,1.44-4.79a.19.19,0,0,1,.2-.13.38.38,0,0,1,.21.07.19.19,0,0,1,.1.16v0l-1.62,5.3q-.05.19-.31.19t-.3-.19l-1.63-5.29A.13.13,0,0,1,355.1,150.38Z"/><path class="cls-4" d="M359.34,155.69a.4.4,0,0,1,0-.18l2.6-4.87h-2.36a.17.17,0,0,1-.14-.07.29.29,0,0,1,0-.34.17.17,0,0,1,.14-.07h2.83q.2,0,.2.16a.42.42,0,0,1-.06.2L360,155.39h2.55a.17.17,0,0,1,.14.07.27.27,0,0,1,.05.16.29.29,0,0,1-.05.17.16.16,0,0,1-.14.07h-3Q359.34,155.86,359.34,155.69Z"/><path class="cls-4" d="M363.1,150.37a.18.18,0,0,1,.08-.15.29.29,0,0,1,.18-.06.17.17,0,0,1,.18.15l1.35,4.79.79-2.94q0-.17.26-.17a.24.24,0,0,1,.26.2l.78,2.91,1.36-4.83q0-.12.2-.12a.38.38,0,0,1,.2.06.17.17,0,0,1,.09.14.18.18,0,0,1,0,.06l-1.53,5.29a.28.28,0,0,1-.31.2q-.25,0-.3-.18l-.75-2.78-.75,2.76a.24.24,0,0,1-.27.2.25.25,0,0,1-.28-.19l-1.54-5.29A.2.2,0,0,1,363.1,150.37Z"/><path class="cls-4" d="M322.26,146.66V136.43q0-.38.5-.38t.78.69l4.06,8v-8.33q0-.36.5-.36t.5.36v10.24a.33.33,0,0,1-.15.29.59.59,0,0,1-.35.11q-.38,0-.66-.57l-4.18-8.13v8.32a.33.33,0,0,1-.15.29.59.59,0,0,1-.35.11.58.58,0,0,1-.35-.11A.34.34,0,0,1,322.26,146.66Z"/><path class="cls-4" d="M330,136.51a.54.54,0,0,1,.1-.32.32.32,0,0,1,.28-.14h6a.32.32,0,0,1,.28.13.51.51,0,0,1,.1.31.57.57,0,0,1-.1.33.32.32,0,0,1-.28.14h-2.51v9.68a.33.33,0,0,1-.15.29.59.59,0,0,1-.35.11.58.58,0,0,1-.35-.11.34.34,0,0,1-.14-.29V137h-2.53a.33.33,0,0,1-.27-.13A.51.51,0,0,1,330,136.51Z"/><path class="cls-4" d="M338.11,146.66V136.43a.32.32,0,0,1,.14-.28.53.53,0,0,1,.32-.1h5.35q.38,0,.38.44a.58.58,0,0,1-.1.34.32.32,0,0,1-.28.14H339.1v4.13h2.36a.33.33,0,0,1,.28.13.52.52,0,0,1,.1.32q0,.41-.38.41H339.1v4.17h4.81a.33.33,0,0,1,.27.14.52.52,0,0,1,.1.33q0,.45-.38.45h-5.35a.5.5,0,0,1-.32-.11A.34.34,0,0,1,338.11,146.66Z"/><path class="cls-4" d="M345.75,146.66V136.43q0-.38.5-.38t.78.69l4.06,8v-8.33q0-.36.5-.36t.5.36v10.24a.33.33,0,0,1-.15.29.59.59,0,0,1-.35.11q-.38,0-.66-.57l-4.18-8.13v8.32a.33.33,0,0,1-.15.29.59.59,0,0,1-.35.11.58.58,0,0,1-.35-.11A.34.34,0,0,1,345.75,146.66Z"/><path class="cls-4" d="M354.36,146.66V136.43q0-.38.5-.38t.78.69l4.06,8v-8.33q0-.36.5-.36t.5.36v10.24a.33.33,0,0,1-.15.29.59.59,0,0,1-.35.11q-.38,0-.66-.57l-4.18-8.13v8.32a.33.33,0,0,1-.15.29.59.59,0,0,1-.35.11.58.58,0,0,1-.35-.11A.34.34,0,0,1,354.36,146.66Z"/><path class="cls-4" d="M363,146.66V136.43a.32.32,0,0,1,.14-.28.53.53,0,0,1,.32-.1h5.35q.38,0,.38.44a.58.58,0,0,1-.1.34.32.32,0,0,1-.28.14H364v4.13h2.36a.33.33,0,0,1,.28.13.52.52,0,0,1,.1.32q0,.41-.38.41H364v4.17h4.81a.33.33,0,0,1,.27.14.52.52,0,0,1,.1.33q0,.45-.38.45h-5.35a.5.5,0,0,1-.32-.11A.34.34,0,0,1,363,146.66Z"/><path class="cls-4" d="M316.25,137.09l-2.35,9.75c0,.17-.17.25-.39.25a.7.7,0,0,1-.39-.12.35.35,0,0,1-.18-.3.26.26,0,0,1,0-.11l.2-.8,2.22-9.41q.1-.35.59-.35m1.32.35"/><path class="cls-4" d="M315.95,136h2.14q.48,0,.59.35l2.22,9.41.2.8a.26.26,0,0,1,0,.11.35.35,0,0,1-.18.3.7.7,0,0,1-.39.12c-.22,0-.35-.08-.39-.25l-2.32-9.75h-1.56m.51-.73"/><path class="cls-4" d="M314.32,143.59h4.92a1.1,1.1,0,0,1,.58.13.37.37,0,0,1,.2.32q0,.41-.78.41h-4.92"/><path class="cls-4" d="M318.5,127.77l-1.29,5.33c0,.09-.09.14-.22.14a.38.38,0,0,1-.22-.07.19.19,0,0,1-.1-.16.14.14,0,0,1,0-.06l.11-.44,1.21-5.15q.06-.19.32-.19m.72.19"/><path class="cls-4" d="M318.33,127.18h1.17q.26,0,.32.19l1.21,5.15.11.44a.14.14,0,0,1,0,.06.19.19,0,0,1-.1.16.38.38,0,0,1-.22.07c-.12,0-.19,0-.22-.14l-1.27-5.34h-.85m.28-.4"/><path class="cls-4" d="M317.44,131.32h2.69a.6.6,0,0,1,.32.07.21.21,0,0,1,.11.18q0,.22-.43.22h-2.69"/><path class="cls-4" d="M356.53,71.88a.5.5,0,0,1-.47-.34,3.35,3.35,0,0,0-3-2.5.52.52,0,0,1-.51-.5.5.5,0,0,1,.49-.51,4.33,4.33,0,0,1,4,3.17.5.5,0,0,1-.47.67Z"/><path class="cls-4" d="M316.65,121.36a.5.5,0,0,1-.4-.81l35.49-47.31a.5.5,0,0,1,.81.61l-35.49,47.31A.5.5,0,0,1,316.65,121.36Z"/><line class="cls-12" x1="324.82" y1="87.34" x2="336.89" y2="76.32"/><line class="cls-13" x1="342.02" y1="87.66" x2="329.23" y2="76.64"/><text class="cls-7" transform="translate(734.2 735.95)">20 mm x 37 mm</text><circle class="cls-4" cx="77.98" cy="78.55" r="0.93"/><path class="cls-4" d="M128.53,152.54a.62.62,0,0,1-.61-.5c-6.17-29.85-19.38-73.21-26-73.21-6.73.47-15.58,35.24-19.88,58.5a.62.62,0,0,1-1.23-.23c1.11-6,11.16-58.84,21.06-59.52,8.47,0,22,48.33,27.31,74.2a.62.62,0,0,1-.48.74Z"/><path class="cls-4" d="M145.07,73.47a.62.62,0,0,1-.59-.41c-2.24-6.31-6-10.74-11.16-13.19a17.92,17.92,0,0,0-7.14-1.8h0a.62.62,0,0,1,0-1.25c.16,0,13.85-.06,19.5,15.82a.62.62,0,0,1-.59.83Z"/><path class="cls-4" d="M136.23,73.2a.62.62,0,0,1-.59-.41c-2.27-6.38-7.52-6.38-7.74-6.38h0a.62.62,0,0,1,0-1.25c.07,0,6.36,0,8.94,7.21a.62.62,0,0,1-.59.83Z"/><path class="cls-4" d="M102,70.37a8.29,8.29,0,1,1,8.29-8.29A8.3,8.3,0,0,1,102,70.37ZM102,55a7,7,0,1,0,7,7A7.05,7.05,0,0,0,102,55Z"/><path class="cls-4" d="M128.53,152.54a.62.62,0,0,1-.52-.28L82.22,83.58a.65.65,0,0,1,.16-.89.61.61,0,0,1,.87.17L129,151.54a.65.65,0,0,1-.16.89A.61.61,0,0,1,128.53,152.54Z"/><path class="cls-4" d="M76.79,150.34v-3.13a2.07,2.07,0,0,1,.59-1.63,2.55,2.55,0,0,1,3.05,0,1.53,1.53,0,0,1,.56,1.2.49.49,0,0,1-.08.32.34.34,0,0,1-.26.08q-.31,0-.33-.25a2.07,2.07,0,0,0,0-.29,1.33,1.33,0,0,0-.12-.32,1.06,1.06,0,0,0-.24-.31,1.14,1.14,0,0,0-.41-.22,2,2,0,0,0-.61-.09q-1.46,0-1.46,1.54v3.13a1.35,1.35,0,0,0,1.5,1.55,1.87,1.87,0,0,0,.71-.12.83.83,0,0,0,.41-.34,1.72,1.72,0,0,0,.18-.38,2.68,2.68,0,0,0,.08-.41c0-.18.13-.26.33-.26a.33.33,0,0,1,.26.09.52.52,0,0,1,.08.33,1.55,1.55,0,0,1-.57,1.21,2.27,2.27,0,0,1-1.54.5,2.16,2.16,0,0,1-1.51-.53A2.1,2.1,0,0,1,76.79,150.34Z"/><path class="cls-4" d="M87.86,152.25v-6.89q0-.22.25-.24H89.9a2.52,2.52,0,0,1,1.58.46,1.81,1.81,0,0,1,.6,1.53,1.76,1.76,0,0,1-1.58,2l1.56,3a.21.21,0,0,1,0,.13.31.31,0,0,1-.12.24.39.39,0,0,1-.26.11q-.18,0-.35-.35l-1.56-3H88.53v3.1a.22.22,0,0,1-.1.19.4.4,0,0,1-.23.07.39.39,0,0,1-.24-.07A.23.23,0,0,1,87.86,152.25Zm.67-3.68H89.9q1.52,0,1.52-1.43t-1.52-1.41H88.53Z"/><path class="cls-4" d="M76.72,183.68a.74.74,0,0,1,.13-.5.58.58,0,0,1,.44-.14q.62,0,.62.51a2,2,0,0,0,.61,1.39,2.61,2.61,0,0,0,2,.64q2.63,0,2.63-2.74v-.35a2.3,2.3,0,0,0-.68-1.82,2.79,2.79,0,0,0-1.91-.6q-.47,0-.47-.51t.46-.53a2.47,2.47,0,0,0,1.71-.52,2.38,2.38,0,0,0,.57-1.81,2.54,2.54,0,0,0-.53-1.77,2.19,2.19,0,0,0-1.68-.57,2.33,2.33,0,0,0-1.81.59,2,2,0,0,0-.53,1.35.52.52,0,0,1-.58.58.65.65,0,0,1-.48-.15.81.81,0,0,1-.14-.54,2.65,2.65,0,0,1,.16-.9,3.62,3.62,0,0,1,.53-.94,2.6,2.6,0,0,1,1.11-.8,4.58,4.58,0,0,1,1.77-.31q3.34,0,3.34,3.22a4.2,4.2,0,0,1-.41,2,2.43,2.43,0,0,1-1.09,1.11,2.88,2.88,0,0,1,1.86,3v.35a3.71,3.71,0,0,1-1,2.92,4,4,0,0,1-2.76.93,3.91,3.91,0,0,1-2.79-.93A2.81,2.81,0,0,1,76.72,183.68Z"/><path class="cls-4" d="M86.15,182.78v-5.66a3.8,3.8,0,0,1,1-2.95,4.37,4.37,0,0,1,5.41,0,3.8,3.8,0,0,1,1,2.95v5.66a3.82,3.82,0,0,1-1,3,4.37,4.37,0,0,1-5.41,0A3.83,3.83,0,0,1,86.15,182.78Zm1.2,0q0,2.79,2.54,2.79t2.54-2.79v-5.66q0-2.77-2.54-2.77t-2.54,2.77Z"/><path class="cls-4" d="M95.86,182.78v-5.66a3.8,3.8,0,0,1,1-2.95,4.37,4.37,0,0,1,5.41,0,3.8,3.8,0,0,1,1,2.95v5.66a3.82,3.82,0,0,1-1,3,4.37,4.37,0,0,1-5.41,0A3.83,3.83,0,0,1,95.86,182.78Zm1.2,0q0,2.79,2.54,2.79t2.54-2.79v-5.66q0-2.77-2.54-2.77t-2.54,2.77Z"/><path class="cls-4" d="M105.56,182.78v-5.66a3.8,3.8,0,0,1,1-2.95,4.37,4.37,0,0,1,5.41,0,3.8,3.8,0,0,1,1,2.95v5.66a3.82,3.82,0,0,1-1,3,4.37,4.37,0,0,1-5.41,0A3.83,3.83,0,0,1,105.56,182.78Zm1.2,0q0,2.79,2.54,2.79t2.54-2.79v-5.66q0-2.77-2.54-2.77t-2.54,2.77Z"/><path class="cls-4" d="M128.91,173.71a.23.23,0,0,1,.12-.19.44.44,0,0,1,.25-.08q.21,0,.25.16l1.79,5.93,1.78-5.93a.23.23,0,0,1,.24-.16.47.47,0,0,1,.26.08.23.23,0,0,1,.13.2v.06l-2,6.54q-.07.23-.39.23t-.38-.23l-2-6.54A.17.17,0,0,1,128.91,173.71Z"/><path class="cls-4" d="M134.14,180.27a.5.5,0,0,1,.06-.22l3.21-6H134.5a.21.21,0,0,1-.17-.09.36.36,0,0,1,0-.41.21.21,0,0,1,.18-.09H138q.24,0,.24.2a.51.51,0,0,1-.08.25l-3.2,6h3.16a.21.21,0,0,1,.18.09.34.34,0,0,1,.06.2.36.36,0,0,1-.06.21.2.2,0,0,1-.18.09h-3.74Q134.14,180.49,134.14,180.27Z"/><path class="cls-4" d="M138.79,173.7a.22.22,0,0,1,.1-.18.36.36,0,0,1,.22-.08.21.21,0,0,1,.22.18l1.67,5.93,1-3.64q0-.21.33-.21a.3.3,0,0,1,.32.24l1,3.6,1.68-6q0-.14.25-.14a.47.47,0,0,1,.25.07.21.21,0,0,1,.12.17.22.22,0,0,1,0,.07L144,180.3a.35.35,0,0,1-.38.25q-.31,0-.37-.22l-.93-3.44-.92,3.41a.3.3,0,0,1-.34.25.31.31,0,0,1-.35-.23l-1.9-6.54A.24.24,0,0,1,138.79,173.7Z"/><path class="cls-4" d="M88.32,169.11V156.47q0-.46.61-.46t1,.85l5,9.89v-10.3q0-.45.61-.45t.61.45v12.66a.41.41,0,0,1-.19.35.73.73,0,0,1-.43.13q-.47,0-.82-.71l-5.17-10.05v10.28a.41.41,0,0,1-.19.35.73.73,0,0,1-.43.13.71.71,0,0,1-.44-.13A.42.42,0,0,1,88.32,169.11Z"/><path class="cls-4" d="M97.83,156.58a.67.67,0,0,1,.12-.39.39.39,0,0,1,.34-.17h7.45a.4.4,0,0,1,.34.16.63.63,0,0,1,.12.38.7.7,0,0,1-.12.41.39.39,0,0,1-.34.17h-3.1v12a.41.41,0,0,1-.19.35.73.73,0,0,1-.43.13.72.72,0,0,1-.44-.13.42.42,0,0,1-.18-.35v-12H98.3A.41.41,0,0,1,98,157,.63.63,0,0,1,97.83,156.58Z"/><path class="cls-4" d="M107.9,169.11V156.47a.4.4,0,0,1,.17-.34.65.65,0,0,1,.39-.12h6.62q.46,0,.46.54a.72.72,0,0,1-.12.42.39.39,0,0,1-.34.18h-5.95v5.11H112a.41.41,0,0,1,.34.16.64.64,0,0,1,.12.4q0,.5-.46.5h-2.92v5.15h5.95a.41.41,0,0,1,.33.17.65.65,0,0,1,.13.41q0,.56-.46.56h-6.62a.62.62,0,0,1-.39-.13A.42.42,0,0,1,107.9,169.11Z"/><path class="cls-4" d="M117.34,169.11V156.47q0-.46.61-.46t1,.85l5,9.89v-10.3q0-.45.61-.45t.61.45v12.66a.41.41,0,0,1-.19.35.73.73,0,0,1-.43.13q-.47,0-.82-.71l-5.17-10.05v10.28a.41.41,0,0,1-.19.35.73.73,0,0,1-.43.13.71.71,0,0,1-.44-.13A.42.42,0,0,1,117.34,169.11Z"/><path class="cls-4" d="M128,169.11V156.47q0-.46.61-.46t1,.85l5,9.89v-10.3q0-.45.61-.45t.61.45v12.66a.41.41,0,0,1-.19.35.73.73,0,0,1-.43.13q-.47,0-.82-.71l-5.17-10.05v10.28a.41.41,0,0,1-.19.35.73.73,0,0,1-.43.13.71.71,0,0,1-.44-.13A.42.42,0,0,1,128,169.11Z"/><path class="cls-4" d="M138.64,169.11V156.47a.4.4,0,0,1,.17-.34.65.65,0,0,1,.39-.12h6.62q.46,0,.46.54a.72.72,0,0,1-.12.42.39.39,0,0,1-.34.18h-5.95v5.11h2.92a.41.41,0,0,1,.34.16.64.64,0,0,1,.12.4q0,.5-.46.5h-2.92v5.15h5.95a.41.41,0,0,1,.33.17.65.65,0,0,1,.13.41q0,.56-.46.56H139.2a.62.62,0,0,1-.39-.13A.42.42,0,0,1,138.64,169.11Z"/><path class="cls-4" d="M80.89,157.29l-2.9,12c0,.21-.21.31-.49.31a.86.86,0,0,1-.49-.15.44.44,0,0,1-.22-.37.32.32,0,0,1,0-.13l.24-1,2.74-11.63q.13-.43.72-.43m1.64.43"/><path class="cls-4" d="M80.52,156h2.64q.59,0,.72.43L86.62,168l.24,1a.32.32,0,0,1,0,.13.44.44,0,0,1-.22.37.86.86,0,0,1-.49.15c-.27,0-.44-.1-.49-.31l-2.87-12.05H80.89m.63-.91"/><path class="cls-4" d="M78.5,165.33h6.09a1.35,1.35,0,0,1,.72.16.46.46,0,0,1,.25.4q0,.5-1,.5H78.5"/><path class="cls-4" d="M83.67,145.77l-1.59,6.59c0,.11-.12.17-.27.17a.47.47,0,0,1-.27-.08.24.24,0,0,1-.12-.2.18.18,0,0,1,0-.07l.13-.54,1.5-6.36q.07-.24.4-.24m.9.24"/><path class="cls-4" d="M83.47,145h1.45q.33,0,.4.24l1.5,6.36.13.54a.18.18,0,0,1,0,.07.24.24,0,0,1-.12.2.47.47,0,0,1-.27.08c-.15,0-.24-.06-.27-.17l-1.57-6.59H83.67m.35-.5"/><path class="cls-4" d="M82.37,150.16H85.7a.74.74,0,0,1,.39.09.25.25,0,0,1,.14.22q0,.27-.53.27H82.37"/><path class="cls-4" d="M130.68,76.7a.62.62,0,0,1-.59-.41,4.15,4.15,0,0,0-3.7-3.08.64.64,0,0,1-.63-.62.62.62,0,0,1,.61-.63,5.35,5.35,0,0,1,4.89,3.91.62.62,0,0,1-.59.83Z"/><path class="cls-4" d="M81.38,137.84a.62.62,0,0,1-.5-1l43.86-58.47a.62.62,0,0,1,1,.75L81.88,137.59A.62.62,0,0,1,81.38,137.84Z"/><line class="cls-14" x1="91.48" y1="95.8" x2="106.4" y2="82.18"/><line class="cls-15" x1="112.74" y1="96.2" x2="96.94" y2="82.58"/><text class="cls-7" transform="translate(734.2 1129.27)"><tspan class="cls-16">2</tspan><tspan x="6.63" y="0">4,5 mm x 46,8 mm</tspan></text></svg>