<svg id="Layer_1" data-name="Layer 1" xmlns="http://www.w3.org/2000/svg" viewBox="0 0 841.89 286.76"><defs><style>.cls-1{font-size:10px;fill:#1a4955;font-family:Lato-Bold, Lato;}.cls-13,.cls-17,.cls-2,.cls-20,.cls-4{font-weight:700;}.cls-3{letter-spacing:-0.02em;}.cls-4{fill:#cb5050;}.cls-5{letter-spacing:-0.02em;}.cls-6{font-size:8px;font-family:Lato-Regular, Lato;}.cls-7{letter-spacing:-0.03em;}.cls-8{letter-spacing:-0.02em;}.cls-9{letter-spacing:-0.01em;}.cls-10{letter-spacing:-0.1em;}.cls-11,.cls-12,.cls-14,.cls-19,.cls-24{fill:none;stroke-miterlimit:10;}.cls-11{stroke:#222221;stroke-width:0.25px;}.cls-12{stroke:#cb5050;}.cls-12,.cls-14,.cls-19,.cls-24{stroke-linecap:round;}.cls-13{fill:#506aae;}.cls-14{stroke:#506aae;}.cls-15{letter-spacing:-0.02em;}.cls-16{letter-spacing:-0.06em;}.cls-17{fill:#68ad7f;}.cls-18{letter-spacing:-0.07em;}.cls-19{stroke:#68ad7f;stroke-width:1.15px;}.cls-20{fill:#3f3f8d;}.cls-21{letter-spacing:-0.01em;}.cls-22{letter-spacing:-0.03em;}.cls-23{letter-spacing:-0.01em;}.cls-24{stroke:#3f3f8d;}</style></defs><title>Artboard 1</title><text class="cls-1" transform="translate(500.89 197.3)"><tspan class="cls-2">Anneleen <tspan class="cls-3" x="44.83" y="0">K</tspan><tspan x="51.59" y="0">erremans</tspan></tspan><tspan class="cls-4"><tspan x="43.92" y="12">ps</tspan><tspan class="cls-5" x="53.94" y="12">y</tspan><tspan x="59.11" y="12">chologe</tspan></tspan><tspan class="cls-6"><tspan x="-41.15" y="28.6">anneleen.</tspan><tspan class="cls-7" x="-7.42" y="28.6">k</tspan><tspan x="-3.47" y="28.6">erremans@antenne3000.be</tspan><tspan x="-24.36" y="38.2">Sint-Geertruiabdij 6, 3000 </tspan><tspan class="cls-8" x="68.92" y="38.2">L</tspan><tspan x="72.89" y="38.2">eu</tspan><tspan class="cls-9" x="81.53" y="38.2">v</tspan><tspan x="85.52" y="38.2">en</tspan><tspan class="cls-10" x="32.97" y="54.8">T</tspan><tspan x="36.85" y="54.8">el. 016/31 99 70</tspan></tspan></text><rect class="cls-11" x="402.39" y="69.57" width="240.94" height="155.91" transform="translate(670.39 -375.34) rotate(90)"/><circle class="cls-12" cx="585.5" cy="39.23" r="7.46"/><line class="cls-12" x1="575.84" y1="46.68" x2="590.48" y2="34.33"/><line class="cls-12" x1="596.36" y1="47" x2="580.52" y2="34.64"/><text class="cls-1" transform="translate(347.02 197.3)"><tspan class="cls-2">Alain Simoens</tspan><tspan class="cls-13"><tspan x="-5.71" y="12">orthopedagoog</tspan></tspan><tspan class="cls-6"><tspan x="-48.31" y="28.6">alain.simoens@antenne3000.be</tspan><tspan x="-55.58" y="38.2">Sint-Geertruiabdij 6, 3000 </tspan><tspan class="cls-8" x="37.71" y="38.2">L</tspan><tspan x="41.68" y="38.2">eu</tspan><tspan class="cls-9" x="50.32" y="38.2">v</tspan><tspan x="54.31" y="38.2">en</tspan><tspan class="cls-10" x="1.76" y="54.8">T</tspan><tspan x="5.64" y="54.8">el. 016/31 99 70</tspan></tspan></text><rect class="cls-11" x="218.45" y="69.57" width="240.94" height="155.91" transform="translate(486.44 -191.39) rotate(90)"/><path class="cls-14" d="M394.74,32.55s9.44-.17,13.38,10.91"/><path class="cls-14" d="M396,38.45s4.16-.07,5.9,4.81"/><path class="cls-14" d="M394.89,43.26a3.36,3.36,0,0,1,3,2.48"/><text class="cls-1" transform="translate(165.41 196.73)"><tspan class="cls-2"><tspan class="cls-15">L</tspan><tspan x="4.98" y="0">ea </tspan><tspan class="cls-16" x="17.49" y="0">V</tspan><tspan x="23.97" y="0">an </tspan><tspan class="cls-15" x="36.82" y="0">L</tspan><tspan x="41.8" y="0">oock</tspan></tspan><tspan class="cls-17"><tspan x="16.56" y="12">logopedist</tspan></tspan><tspan class="cls-6"><tspan x="-43.74" y="28.6">lea</tspan><tspan class="cls-18" x="-33.44" y="28.6">.</tspan><tspan x="-32.27" y="28.6">vanloock@antenne3000.be</tspan><tspan x="-55.07" y="38.2">Sint-Geertruiabdij 6, 3000 </tspan><tspan class="cls-8" x="38.22" y="38.2">L</tspan><tspan x="42.19" y="38.2">eu</tspan><tspan class="cls-9" x="50.83" y="38.2">v</tspan><tspan x="54.82" y="38.2">en</tspan><tspan class="cls-10" x="2.27" y="54.8">T</tspan><tspan x="6.15" y="54.8">el. 016/31 99 70</tspan></tspan></text><rect class="cls-11" x="37.06" y="67.58" width="240.94" height="155.91" transform="translate(303.07 -12) rotate(90)"/><circle class="cls-19" cx="219.06" cy="32.49" r="0.58"/><line class="cls-19" x1="210.32" y1="46.87" x2="222.57" y2="36.54"/><line class="cls-19" x1="227.8" y1="46.87" x2="214.55" y2="36.54"/><text class="cls-1" transform="translate(707.91 197.43)"><tspan class="cls-2">Annemie Pinn<tspan class="cls-5" x="62.55" y="0">o</tspan><tspan x="68.07" y="0">y</tspan></tspan><tspan class="cls-20"><tspan x="-48.62" y="12">administ</tspan><tspan class="cls-21" x="-9.92" y="12">r</tspan><tspan x="-5.98" y="12">atief medewer</tspan><tspan class="cls-22" x="58.76" y="12">k</tspan><tspan x="63.97" y="12">er</tspan></tspan><tspan class="cls-6"><tspan x="-46.31" y="28.6">annemie.pinn</tspan><tspan class="cls-23" x="0.7" y="28.6">o</tspan><tspan x="5.05" y="28.6">y@antenne3000.be</tspan><tspan x="-45.12" y="38.2">Sint-Geertruiabdij 6, 3000 </tspan><tspan class="cls-8" x="48.16" y="38.2">L</tspan><tspan x="52.13" y="38.2">eu</tspan><tspan class="cls-9" x="60.77" y="38.2">v</tspan><tspan x="64.76" y="38.2">en</tspan><tspan class="cls-10" x="12.21" y="54.8">T</tspan><tspan x="16.09" y="54.8">el. 016/31 99 70</tspan></tspan></text><rect class="cls-11" x="588.94" y="69.7" width="240.94" height="155.91" transform="translate(857.07 -561.75) rotate(90)"/><path class="cls-24" d="M776,47.34a8,8,0,1,1,0-16.06"/><circle class="cls-24" cx="781.61" cy="39.31" r="0.75"/></svg>