<svg id="Layer_1" data-name="Layer 1" xmlns="http://www.w3.org/2000/svg" viewBox="0 0 816.18 281.98"><defs><style>.cls-1{font-size:10px;font-family:Dosis-Regular, Dosis;}.cls-1,.cls-16{fill:#1a4955;}.cls-2{letter-spacing:-0.01em;}.cls-3{letter-spacing:-0.02em;}.cls-4{fill:#cb5050;}.cls-5{font-size:8px;font-family:Dosis-Light, Dosis;}.cls-6{letter-spacing:-0.01em;}.cls-7{letter-spacing:-0.02em;}.cls-8{letter-spacing:-0.01em;}.cls-9{letter-spacing:-0.01em;}.cls-10{letter-spacing:-0.04em;}.cls-11{letter-spacing:-0.02em;}.cls-12{letter-spacing:-0.09em;}.cls-13{fill:#d8852d;}.cls-14{fill:#f5de70;}.cls-15,.cls-18,.cls-23,.cls-28,.cls-29{fill:none;stroke-miterlimit:10;}.cls-15{stroke:#222221;stroke-width:0.25px;}.cls-17{fill:#506aae;}.cls-18{stroke:#506aae;}.cls-18,.cls-23,.cls-28,.cls-29{stroke-linecap:round;}.cls-19{letter-spacing:-0.02em;}.cls-20{letter-spacing:-0.05em;}.cls-21{fill:#68ad7f;}.cls-22{letter-spacing:-0.03em;}.cls-23{stroke:#68ad7f;}.cls-24{letter-spacing:0em;}.cls-25{fill:#3f3f8d;}.cls-26{letter-spacing:-0.01em;}.cls-27{letter-spacing:0em;}.cls-28{stroke:#3f3f8d;}.cls-29{stroke:#cb4f51;stroke-width:0.95px;}</style></defs><title>Artboard 1</title><text class="cls-1" transform="translate(235.66 193.28)">Anneleen <tspan class="cls-2" x="38.09" y="0">K</tspan><tspan x="43.23" y="0">er</tspan><tspan class="cls-3" x="51.12" y="0">r</tspan><tspan x="54.25" y="0">emans</tspan><tspan class="cls-4"><tspan x="37.33" y="12">psychologe</tspan></tspan><tspan class="cls-5"><tspan x="-36.6" y="28.6">anneleen.</tspan><tspan class="cls-6" x="-7.72" y="28.6">k</tspan><tspan x="-4.27" y="28.6">er</tspan><tspan class="cls-7" x="1.89" y="28.6">r</tspan><tspan x="4.27" y="28.6">emans@an</tspan><tspan class="cls-8" x="37.48" y="28.6">t</tspan><tspan x="39.68" y="28.6">enne300</tspan><tspan class="cls-9" x="66.97" y="28.6">0</tspan><tspan x="71.09" y="28.6">.be</tspan><tspan x="-21.25" y="38.2">Sin</tspan><tspan class="cls-10" x="-12" y="38.2">t</tspan><tspan x="-10.05" y="38.2">-Geertruiabdij 6, 3000 </tspan><tspan class="cls-11" x="58.03" y="38.2">L</tspan><tspan x="61.54" y="38.2">euven</tspan><tspan class="cls-12" x="30.08" y="54.8">T</tspan><tspan x="33.12" y="54.8">el. 016/31 99 70</tspan></tspan></text><circle class="cls-13" cx="80.7" cy="150.91" r="0.37"/><rect class="cls-14" x="-35.32" y="64.45" width="240.94" height="155.91" transform="translate(227.56 57.25) rotate(90)"/><rect class="cls-15" x="125.56" y="64.23" width="240.94" height="155.91" transform="translate(388.22 -103.84) rotate(90)"/><circle class="cls-16" cx="60.65" cy="147.34" r="0.79"/><path class="cls-16" d="M103.28,209.73a.53.53,0,0,1-.51-.42c-5.2-25.17-16.34-61.74-22-61.74C75.13,148,67.67,177.29,64,196.91a.53.53,0,0,1-1-.19c.94-5.08,9.41-49.62,17.76-50.19,7.15,0,18.52,40.75,23,62.57a.53.53,0,0,1-.41.62Z"/><path class="cls-16" d="M117.23,143.05a.53.53,0,0,1-.49-.35c-1.89-5.32-5.06-9.06-9.41-11.13a15.11,15.11,0,0,0-6-1.52h0a.53.53,0,0,1,0-1.05c.14,0,11.68,0,16.44,13.34a.53.53,0,0,1-.49.7Z"/><path class="cls-16" d="M109.77,142.82a.53.53,0,0,1-.49-.35c-1.91-5.38-6.34-5.38-6.53-5.38h0a.53.53,0,0,1,0-1.05c.06,0,5.36,0,7.54,6.08a.53.53,0,0,1-.49.7Z"/><path class="cls-16" d="M80.9,140.44a7,7,0,1,1,7-7A7,7,0,0,1,80.9,140.44Zm0-12.93a5.94,5.94,0,1,0,5.94,5.94A5.95,5.95,0,0,0,80.9,127.51Z"/><path class="cls-16" d="M103.28,209.73a.52.52,0,0,1-.43-.24L64.23,151.57a.55.55,0,0,1,.14-.75.52.52,0,0,1,.73.14l38.62,57.92a.55.55,0,0,1-.14.75A.51.51,0,0,1,103.28,209.73Z"/><path class="cls-16" d="M59.65,207.88v-2.64a1.74,1.74,0,0,1,.5-1.37,2.15,2.15,0,0,1,2.57,0,1.29,1.29,0,0,1,.47,1,.41.41,0,0,1-.06.27.29.29,0,0,1-.22.07q-.26,0-.28-.21a1.75,1.75,0,0,0,0-.25,1.12,1.12,0,0,0-.1-.27.9.9,0,0,0-.2-.26A1,1,0,0,0,62,204a1.65,1.65,0,0,0-.51-.07q-1.23,0-1.23,1.3v2.64a1.13,1.13,0,0,0,1.26,1.3,1.58,1.58,0,0,0,.6-.1.7.7,0,0,0,.35-.29,1.45,1.45,0,0,0,.15-.32,2.26,2.26,0,0,0,.06-.35c0-.15.11-.22.28-.22a.28.28,0,0,1,.22.07.44.44,0,0,1,.06.28,1.3,1.3,0,0,1-.48,1,1.92,1.92,0,0,1-1.3.42,1.83,1.83,0,0,1-1.27-.44A1.77,1.77,0,0,1,59.65,207.88Z"/><path class="cls-16" d="M69,209.48v-5.81q0-.19.21-.2h1.51a2.12,2.12,0,0,1,1.33.39,1.53,1.53,0,0,1,.51,1.29,1.48,1.48,0,0,1-1.33,1.65l1.31,2.52a.17.17,0,0,1,0,.11.26.26,0,0,1-.1.2.33.33,0,0,1-.22.09q-.15,0-.3-.3l-1.31-2.56H69.55v2.62a.19.19,0,0,1-.09.16.33.33,0,0,1-.2.06.33.33,0,0,1-.2-.06A.19.19,0,0,1,69,209.48Zm.56-3.1h1.16q1.28,0,1.28-1.2T70.71,204H69.55Z"/><path class="cls-16" d="M59.59,236a.63.63,0,0,1,.11-.42.49.49,0,0,1,.37-.12q.52,0,.52.43A1.66,1.66,0,0,0,61.1,237a2.2,2.2,0,0,0,1.65.54q2.22,0,2.22-2.31V235a1.94,1.94,0,0,0-.58-1.54,2.35,2.35,0,0,0-1.61-.51q-.4,0-.4-.43t.38-.45a2.08,2.08,0,0,0,1.45-.44,2,2,0,0,0,.48-1.52,2.14,2.14,0,0,0-.45-1.49,1.85,1.85,0,0,0-1.42-.48,2,2,0,0,0-1.52.5,1.66,1.66,0,0,0-.45,1.14.43.43,0,0,1-.49.49.55.55,0,0,1-.41-.12.68.68,0,0,1-.12-.46,2.23,2.23,0,0,1,.14-.76,3.05,3.05,0,0,1,.45-.8,2.19,2.19,0,0,1,.94-.67,3.87,3.87,0,0,1,1.49-.26q2.81,0,2.82,2.72a3.54,3.54,0,0,1-.35,1.66,2.05,2.05,0,0,1-.92.94A2.43,2.43,0,0,1,66,235v.29a3.13,3.13,0,0,1-.88,2.46,3.38,3.38,0,0,1-2.33.78,3.3,3.3,0,0,1-2.35-.78A2.37,2.37,0,0,1,59.59,236Z"/><path class="cls-16" d="M67.54,235.23v-4.77a3.21,3.21,0,0,1,.87-2.48A3.69,3.69,0,0,1,73,228a3.2,3.2,0,0,1,.87,2.48v4.77a3.22,3.22,0,0,1-.87,2.5,3.69,3.69,0,0,1-4.57,0A3.23,3.23,0,0,1,67.54,235.23Zm1,0q0,2.35,2.14,2.35t2.14-2.35v-4.77q0-2.34-2.14-2.34t-2.14,2.34Z"/><path class="cls-16" d="M75.73,235.23v-4.77A3.21,3.21,0,0,1,76.6,228a3.69,3.69,0,0,1,4.57,0,3.2,3.2,0,0,1,.87,2.48v4.77a3.22,3.22,0,0,1-.87,2.5,3.69,3.69,0,0,1-4.57,0A3.23,3.23,0,0,1,75.73,235.23Zm1,0q0,2.35,2.14,2.35T81,235.23v-4.77q0-2.34-2.14-2.34t-2.14,2.34Z"/><path class="cls-16" d="M83.91,235.23v-4.77a3.21,3.21,0,0,1,.87-2.48,3.69,3.69,0,0,1,4.57,0,3.2,3.2,0,0,1,.87,2.48v4.77a3.22,3.22,0,0,1-.87,2.5,3.69,3.69,0,0,1-4.57,0A3.23,3.23,0,0,1,83.91,235.23Zm1,0q0,2.35,2.14,2.35t2.14-2.35v-4.77q0-2.34-2.14-2.34t-2.14,2.34Z"/><path class="cls-16" d="M103.6,227.58a.19.19,0,0,1,.1-.16.37.37,0,0,1,.21-.07q.18,0,.21.14l1.51,5,1.5-5a.2.2,0,0,1,.2-.14.4.4,0,0,1,.22.07.2.2,0,0,1,.11.16v0l-1.69,5.52q-.06.2-.32.2t-.32-.2l-1.7-5.52A.14.14,0,0,1,103.6,227.58Z"/><path class="cls-16" d="M108,233.11a.42.42,0,0,1,0-.19l2.71-5.08h-2.46a.18.18,0,0,1-.15-.07.31.31,0,0,1,0-.35.17.17,0,0,1,.15-.07h3q.2,0,.2.17a.43.43,0,0,1-.06.21l-2.7,5.07h2.66a.17.17,0,0,1,.15.07.28.28,0,0,1,.05.17.3.3,0,0,1-.05.17.17.17,0,0,1-.15.08H108.2Q108,233.3,108,233.11Z"/><path class="cls-16" d="M111.93,227.57a.19.19,0,0,1,.09-.15.31.31,0,0,1,.19-.07.18.18,0,0,1,.19.15l1.41,5,.82-3.07q0-.17.28-.17a.25.25,0,0,1,.27.21l.81,3,1.42-5q0-.12.21-.12a.4.4,0,0,1,.21.06.17.17,0,0,1,.1.15.19.19,0,0,1,0,.06l-1.6,5.52a.29.29,0,0,1-.32.21q-.26,0-.31-.18l-.79-2.9-.78,2.87a.25.25,0,0,1-.28.21.26.26,0,0,1-.29-.2l-1.6-5.52A.21.21,0,0,1,111.93,227.57Z"/><path class="cls-16" d="M69.37,223.7V213q0-.39.52-.39t.81.72l4.23,8.34V213q0-.38.52-.38T76,213V223.7a.35.35,0,0,1-.16.3.61.61,0,0,1-.36.11q-.39,0-.69-.6L70.4,215v8.67a.35.35,0,0,1-.16.3.61.61,0,0,1-.36.11.6.6,0,0,1-.37-.11A.35.35,0,0,1,69.37,223.7Z"/><path class="cls-16" d="M77.39,213.13a.56.56,0,0,1,.1-.33.33.33,0,0,1,.29-.15h6.28a.34.34,0,0,1,.29.14.53.53,0,0,1,.1.32.59.59,0,0,1-.1.35.33.33,0,0,1-.29.15H81.45V223.7a.35.35,0,0,1-.16.3.61.61,0,0,1-.36.11.6.6,0,0,1-.37-.11.35.35,0,0,1-.15-.3V213.61H77.78a.34.34,0,0,1-.28-.14A.53.53,0,0,1,77.39,213.13Z"/><path class="cls-16" d="M85.89,223.7V213a.34.34,0,0,1,.14-.29.55.55,0,0,1,.33-.1h5.58q.39,0,.39.45a.61.61,0,0,1-.1.35.33.33,0,0,1-.29.15h-5v4.31h2.46a.34.34,0,0,1,.29.13.54.54,0,0,1,.1.34q0,.42-.39.42H86.92v4.34h5a.34.34,0,0,1,.28.14.55.55,0,0,1,.11.34q0,.47-.39.47H86.36A.52.52,0,0,1,86,224,.36.36,0,0,1,85.89,223.7Z"/><path class="cls-16" d="M93.85,223.7V213q0-.39.52-.39t.81.72l4.23,8.34V213q0-.38.52-.38t.52.38V223.7a.35.35,0,0,1-.16.3.61.61,0,0,1-.36.11q-.39,0-.69-.6L94.88,215v8.67a.35.35,0,0,1-.16.3.61.61,0,0,1-.36.11A.6.6,0,0,1,94,224,.35.35,0,0,1,93.85,223.7Z"/><path class="cls-16" d="M102.83,223.7V213q0-.39.52-.39t.81.72l4.23,8.34V213q0-.38.52-.38t.52.38V223.7a.35.35,0,0,1-.16.3.61.61,0,0,1-.36.11q-.39,0-.69-.6L103.86,215v8.67a.35.35,0,0,1-.16.3.61.61,0,0,1-.36.11A.6.6,0,0,1,103,224,.35.35,0,0,1,102.83,223.7Z"/><path class="cls-16" d="M111.81,223.7V213a.34.34,0,0,1,.14-.29.55.55,0,0,1,.33-.1h5.58q.39,0,.39.45a.61.61,0,0,1-.1.35.33.33,0,0,1-.29.15h-5v4.31h2.46a.34.34,0,0,1,.29.13.54.54,0,0,1,.1.34q0,.42-.39.42h-2.46v4.34h5a.34.34,0,0,1,.28.14.55.55,0,0,1,.11.34q0,.47-.39.47h-5.58a.52.52,0,0,1-.33-.11A.36.36,0,0,1,111.81,223.7Z"/><path class="cls-16" d="M63.11,213.73l-2.45,10.16c0,.18-.18.26-.41.26a.73.73,0,0,1-.41-.13.37.37,0,0,1-.19-.31.27.27,0,0,1,0-.11l.21-.83L62.18,213q.11-.36.61-.36m1.38.36"/><path class="cls-16" d="M62.79,212.61H65q.5,0,.61.36l2.31,9.81.21.83a.27.27,0,0,1,0,.11A.37.37,0,0,1,68,224a.73.73,0,0,1-.41.13c-.23,0-.37-.09-.41-.26l-2.42-10.16H63.11m.53-.76"/><path class="cls-16" d="M61.09,220.51h5.13a1.14,1.14,0,0,1,.6.13A.39.39,0,0,1,67,221q0,.42-.82.42H61.09"/><path class="cls-16" d="M65.45,204l-1.34,5.56c0,.1-.1.14-.22.14a.4.4,0,0,1-.22-.07.2.2,0,0,1-.1-.17.15.15,0,0,1,0-.06l.11-.46,1.26-5.37q.06-.2.33-.2m.75.2"/><path class="cls-16" d="M65.28,203.4H66.5q.27,0,.33.2L68.1,209l.11.46a.15.15,0,0,1,0,.06.2.2,0,0,1-.1.17.4.4,0,0,1-.22.07c-.13,0-.2,0-.22-.14L66.34,204h-.89m.29-.42"/><path class="cls-16" d="M64.35,207.72h2.81a.62.62,0,0,1,.33.07.21.21,0,0,1,.12.18q0,.23-.45.23H64.35"/><path class="cls-16" d="M105.09,145.77a.53.53,0,0,1-.49-.35,3.5,3.5,0,0,0-3.12-2.6.54.54,0,0,1-.53-.52.52.52,0,0,1,.51-.53,4.51,4.51,0,0,1,4.12,3.3.53.53,0,0,1-.49.7Z"/><path class="cls-16" d="M63.52,197.34a.53.53,0,0,1-.42-.84l37-49.31a.53.53,0,1,1,.84.63l-37,49.31A.53.53,0,0,1,63.52,197.34Z"/><line class="cls-16" x1="72.04" y1="161.89" x2="84.62" y2="150.4"/><line class="cls-16" x1="89.96" y1="162.22" x2="76.64" y2="150.73"/><text class="cls-1" transform="translate(744.67 193.28)">Alain Simoens<tspan class="cls-17"><tspan x="-4.2" y="12">orthopedagoog</tspan></tspan><tspan class="cls-5"><tspan x="-41.98" y="28.6">alain.simoens@an</tspan><tspan class="cls-8" x="11.11" y="28.6">t</tspan><tspan x="13.3" y="28.6">enne300</tspan><tspan class="cls-9" x="40.59" y="28.6">0</tspan><tspan x="44.71" y="28.6">.be</tspan><tspan x="-47.63" y="38.2">Sin</tspan><tspan class="cls-10" x="-38.38" y="38.2">t</tspan><tspan x="-36.43" y="38.2">-Geertruiabdij 6, 3000 </tspan><tspan class="cls-11" x="31.65" y="38.2">L</tspan><tspan x="35.16" y="38.2">euven</tspan><tspan class="cls-12" x="3.7" y="54.8">T</tspan><tspan x="6.74" y="54.8">el. 016/31 99 70</tspan></tspan></text><path class="cls-18" d="M784.05,27.84s9.44-.17,13.38,10.91"/><path class="cls-18" d="M785.27,33.74s4.16-.07,5.9,4.81"/><path class="cls-18" d="M784.21,38.55a3.36,3.36,0,0,1,3,2.48"/><text class="cls-1" transform="translate(583.07 192.71)"><tspan class="cls-19">L</tspan><tspan x="4.48" y="0">ea </tspan><tspan class="cls-20" x="15.44" y="0">V</tspan><tspan x="20.32" y="0">an </tspan><tspan class="cls-19" x="31.66" y="0">L</tspan><tspan x="36.14" y="0">oock</tspan><tspan class="cls-21"><tspan x="15.23" y="12">logopedist</tspan></tspan><tspan class="cls-5"><tspan x="-37.29" y="28.6">lea</tspan><tspan class="cls-22" x="-28.66" y="28.6">.</tspan><tspan x="-27.56" y="28.6">vanloock@an</tspan><tspan class="cls-8" x="11.83" y="28.6">t</tspan><tspan x="14.03" y="28.6">enne300</tspan><tspan class="cls-9" x="41.32" y="28.6">0</tspan><tspan x="45.44" y="28.6">.be</tspan><tspan x="-46.9" y="38.2">Sin</tspan><tspan class="cls-10" x="-37.65" y="38.2">t</tspan><tspan x="-35.7" y="38.2">-Geertruiabdij 6, 3000 </tspan><tspan class="cls-11" x="32.38" y="38.2">L</tspan><tspan x="35.89" y="38.2">euven</tspan><tspan class="cls-12" x="4.43" y="54.8">T</tspan><tspan x="7.47" y="54.8">el. 016/31 99 70</tspan></tspan></text><circle class="cls-23" cx="629.63" cy="26.37" r="0.5"/><line class="cls-23" x1="622.03" y1="38.87" x2="632.68" y2="29.89"/><line class="cls-23" x1="637.24" y1="38.87" x2="625.72" y2="29.89"/><text class="cls-1" transform="translate(414.23 193.28)">Annemie Pinn<tspan class="cls-24" x="53.29" y="0">o</tspan><tspan x="57.93" y="0">y</tspan><tspan class="cls-25"><tspan x="-41.36" y="12">administratief medewer</tspan><tspan class="cls-26" x="49.82" y="12">k</tspan><tspan x="54.24" y="12">er</tspan></tspan><tspan class="cls-5"><tspan x="-40.65" y="28.6">annemie.pinn</tspan><tspan class="cls-27" x="-0.16" y="28.6">o</tspan><tspan x="3.5" y="28.6">y@an</tspan><tspan class="cls-8" x="19.8" y="28.6">t</tspan><tspan x="21.99" y="28.6">enne300</tspan><tspan class="cls-9" x="49.28" y="28.6">0</tspan><tspan x="53.4" y="28.6">.be</tspan><tspan x="-38.94" y="38.2">Sin</tspan><tspan class="cls-10" x="-29.69" y="38.2">t</tspan><tspan x="-27.74" y="38.2">-Geertruiabdij 6, 3000 </tspan><tspan class="cls-11" x="40.34" y="38.2">L</tspan><tspan x="43.85" y="38.2">euven</tspan><tspan class="cls-12" x="12.39" y="54.8">T</tspan><tspan x="15.43" y="54.8">el. 016/31 99 70</tspan></tspan></text><rect class="cls-15" x="286.44" y="63.95" width="240.94" height="155.91" transform="translate(548.81 -265.01) rotate(90)"/><path class="cls-28" d="M473,38.25a5.42,5.42,0,0,1,0-10.85"/><circle class="cls-28" cx="476.81" cy="32.83" r="0.5"/><line class="cls-29" x1="306.5" y1="34.63" x2="314.32" y2="40.07"/><line class="cls-29" x1="312.26" y1="34.63" x2="304.44" y2="40.07"/><path class="cls-29" d="M303.09,33.15a6,6,0,0,1,12,0"/><rect class="cls-15" x="447.31" y="64.02" width="240.94" height="155.91" transform="translate(709.76 -425.81) rotate(90)"/><rect class="cls-15" x="608.19" y="64.59" width="240.94" height="155.91" transform="translate(871.2 -586.12) rotate(90)"/></svg>