<svg id="Layer_1" data-name="Layer 1" xmlns="http://www.w3.org/2000/svg" viewBox="0 0 221.77 276.96"><defs><style>.cls-1{font-size:10px;fill:#1a4955;}.cls-1,.cls-11{font-family:Dosis-Regular, Dosis;}.cls-2{fill:#506aae;}.cls-3{font-size:8px;font-family:Dosis-Light, Dosis;}.cls-4{letter-spacing:-0.01em;}.cls-5{letter-spacing:-0.01em;}.cls-6{letter-spacing:-0.04em;}.cls-7{letter-spacing:-0.02em;}.cls-8{letter-spacing:-0.09em;}.cls-10,.cls-12,.cls-13,.cls-14,.cls-9{fill:none;stroke-miterlimit:10;}.cls-9{stroke:#506aae;stroke-linecap:round;}.cls-10,.cls-12,.cls-13,.cls-14{stroke:#222221;}.cls-10{stroke-width:0.25px;}.cls-11{font-size:12px;fill:#222221;}.cls-12,.cls-13,.cls-14{stroke-width:0.75px;}.cls-13{stroke-dasharray:5.02 5.02;}.cls-14{stroke-dasharray:4.87 4.87;}</style></defs><title>Artboard 2</title><text class="cls-1" transform="translate(124.68 192.08)">Alain Simoens<tspan class="cls-2"><tspan x="-4.2" y="12">orthopedagoog</tspan></tspan><tspan class="cls-3"><tspan x="-41.98" y="28.6">alain.simoens@an</tspan><tspan class="cls-4" x="11.11" y="28.6">t</tspan><tspan x="13.3" y="28.6">enne300</tspan><tspan class="cls-5" x="40.59" y="28.6">0</tspan><tspan x="44.71" y="28.6">.be</tspan><tspan x="-47.63" y="38.2">Sin</tspan><tspan class="cls-6" x="-38.38" y="38.2">t</tspan><tspan x="-36.43" y="38.2">-Geertruiabdij 6, 3000 </tspan><tspan class="cls-7" x="31.65" y="38.2">L</tspan><tspan x="35.16" y="38.2">euven</tspan><tspan class="cls-8" x="3.7" y="54.8">T</tspan><tspan x="6.74" y="54.8">el. 016/31 99 70</tspan></tspan></text><path class="cls-9" d="M164.06,26.64s9.44-.17,13.38,10.91"/><path class="cls-9" d="M165.28,32.54s4.16-.07,5.9,4.81"/><path class="cls-9" d="M164.21,37.35a3.36,3.36,0,0,1,3,2.48"/><rect class="cls-10" x="-11.81" y="63.39" width="240.94" height="155.91" transform="translate(250 32.67) rotate(90)"/><text class="cls-11" transform="translate(170.05 11.88)">3 mm</text><line class="cls-12" x1="186.62" y1="15.38" x2="186.62" y2="19.28"/><line class="cls-12" x1="178.11" y1="261.81" x2="178.11" y2="259.31"/><line class="cls-13" x1="178.11" y1="254.29" x2="178.11" y2="25.88"/><line class="cls-12" x1="178.11" y1="23.37" x2="178.11" y2="20.87"/><line class="cls-12" x1="178.11" y1="15.38" x2="178.11" y2="19.28"/><line class="cls-12" x1="186.62" y1="17.33" x2="178.11" y2="17.33"/><line class="cls-12" x1="136.44" y1="20.87" x2="136.44" y2="182.18"/><text class="cls-11" transform="translate(129.66 110.23) rotate(-90)">58 mm</text><line class="cls-12" x1="138.39" y1="182.18" x2="134.5" y2="182.18"/><line class="cls-12" x1="30.71" y1="40.68" x2="33.21" y2="40.68"/><line class="cls-14" x1="38.08" y1="40.68" x2="181.68" y2="40.68"/><line class="cls-12" x1="184.12" y1="40.68" x2="186.62" y2="40.68"/><line class="cls-12" x1="30.71" y1="25.79" x2="33.21" y2="25.79"/><line class="cls-14" x1="38.08" y1="25.79" x2="181.68" y2="25.79"/><line class="cls-12" x1="184.12" y1="25.79" x2="186.62" y2="25.79"/><text class="cls-11" transform="translate(202.94 48.35) rotate(-90)">5 mm</text><line class="cls-12" x1="192.7" y1="40.68" x2="188.8" y2="40.68"/><line class="cls-12" x1="192.7" y1="25.79" x2="188.8" y2="25.79"/><line class="cls-12" x1="190.75" y1="40.68" x2="190.75" y2="25.79"/></svg>