<svg id="Layer_1" data-name="Layer 1" xmlns="http://www.w3.org/2000/svg" viewBox="0 0 841.89 286.76"><defs><style>.cls-1{fill:#d8852d;}.cls-2{fill:#f5de70;}.cls-3{fill:#1a4955;}</style></defs><title>Artboard 1</title><circle class="cls-1" cx="397.03" cy="151.88" r="0.37"/><rect class="cls-2" x="281.01" y="65.43" width="240.94" height="155.91" transform="translate(544.86 -258.11) rotate(90)"/><circle class="cls-3" cx="369.78" cy="150.57" r="0.79"/><path class="cls-3" d="M412.41,213a.53.53,0,0,1-.51-.42c-5.2-25.17-16.34-61.74-22-61.74-5.67.39-13.14,29.72-16.76,49.33a.53.53,0,0,1-1-.19c.94-5.08,9.41-49.62,17.76-50.19,7.15,0,18.52,40.75,23,62.57a.53.53,0,0,1-.41.62Z"/><path class="cls-3" d="M426.36,146.29a.53.53,0,0,1-.49-.35c-1.89-5.32-5.06-9.06-9.41-11.13a15.11,15.11,0,0,0-6-1.52h0a.53.53,0,0,1,0-1.05c.14,0,11.68,0,16.44,13.34a.53.53,0,0,1-.49.7Z"/><path class="cls-3" d="M418.91,146.06a.53.53,0,0,1-.49-.35c-1.91-5.38-6.34-5.38-6.53-5.38h0a.53.53,0,0,1,0-1.05c.06,0,5.36,0,7.54,6.08a.53.53,0,0,1-.49.7Z"/><path class="cls-3" d="M390,143.67a7,7,0,1,1,7-7A7,7,0,0,1,390,143.67Zm0-12.93a5.94,5.94,0,1,0,5.94,5.94A5.95,5.95,0,0,0,390,130.75Z"/><path class="cls-3" d="M412.41,213a.52.52,0,0,1-.43-.24l-38.61-57.92a.55.55,0,0,1,.14-.75.52.52,0,0,1,.73.14l38.62,57.92a.55.55,0,0,1-.14.75A.51.51,0,0,1,412.41,213Z"/><path class="cls-3" d="M368.78,211.11v-2.64a1.74,1.74,0,0,1,.5-1.37,2.15,2.15,0,0,1,2.57,0,1.29,1.29,0,0,1,.47,1,.41.41,0,0,1-.06.27.29.29,0,0,1-.22.07q-.26,0-.28-.21a1.75,1.75,0,0,0,0-.25,1.12,1.12,0,0,0-.1-.27.9.9,0,0,0-.2-.26,1,1,0,0,0-.35-.18,1.65,1.65,0,0,0-.51-.07q-1.23,0-1.23,1.3v2.64a1.13,1.13,0,0,0,1.26,1.3,1.58,1.58,0,0,0,.6-.1.7.7,0,0,0,.35-.29,1.45,1.45,0,0,0,.15-.32,2.26,2.26,0,0,0,.06-.35c0-.15.11-.22.28-.22a.28.28,0,0,1,.22.07.44.44,0,0,1,.06.28,1.3,1.3,0,0,1-.48,1,1.92,1.92,0,0,1-1.3.42,1.83,1.83,0,0,1-1.27-.44A1.77,1.77,0,0,1,368.78,211.11Z"/><path class="cls-3" d="M378.12,212.71v-5.81q0-.19.21-.2h1.51a2.12,2.12,0,0,1,1.33.39,1.53,1.53,0,0,1,.51,1.29,1.48,1.48,0,0,1-1.33,1.65l1.31,2.52a.17.17,0,0,1,0,.11.26.26,0,0,1-.1.2.33.33,0,0,1-.22.09q-.15,0-.3-.3l-1.31-2.56h-1.08v2.62a.19.19,0,0,1-.09.16.33.33,0,0,1-.2.06.33.33,0,0,1-.2-.06A.19.19,0,0,1,378.12,212.71Zm.56-3.1h1.16q1.28,0,1.28-1.2t-1.28-1.19h-1.16Z"/><path class="cls-3" d="M368.72,239.22a.63.63,0,0,1,.11-.42.49.49,0,0,1,.37-.12q.52,0,.52.43a1.66,1.66,0,0,0,.52,1.17,2.2,2.2,0,0,0,1.65.54q2.22,0,2.22-2.31v-.29a1.94,1.94,0,0,0-.58-1.54,2.35,2.35,0,0,0-1.61-.51q-.4,0-.4-.43t.38-.45a2.08,2.08,0,0,0,1.45-.44,2,2,0,0,0,.48-1.52,2.14,2.14,0,0,0-.45-1.49,1.85,1.85,0,0,0-1.42-.48,2,2,0,0,0-1.52.5A1.66,1.66,0,0,0,370,233a.43.43,0,0,1-.49.49.55.55,0,0,1-.41-.12.68.68,0,0,1-.12-.46,2.23,2.23,0,0,1,.14-.76,3.05,3.05,0,0,1,.45-.8,2.19,2.19,0,0,1,.94-.67,3.87,3.87,0,0,1,1.49-.26q2.81,0,2.82,2.72a3.54,3.54,0,0,1-.35,1.66,2.05,2.05,0,0,1-.92.94,2.43,2.43,0,0,1,1.57,2.49v.29a3.13,3.13,0,0,1-.88,2.46,3.38,3.38,0,0,1-2.33.78,3.3,3.3,0,0,1-2.35-.78A2.37,2.37,0,0,1,368.72,239.22Z"/><path class="cls-3" d="M376.68,238.46v-4.77a3.21,3.21,0,0,1,.87-2.48,3.69,3.69,0,0,1,4.57,0,3.2,3.2,0,0,1,.87,2.48v4.77a3.22,3.22,0,0,1-.87,2.5,3.69,3.69,0,0,1-4.57,0A3.23,3.23,0,0,1,376.68,238.46Zm1,0q0,2.35,2.14,2.35t2.14-2.35v-4.77q0-2.34-2.14-2.34t-2.14,2.34Z"/><path class="cls-3" d="M384.86,238.46v-4.77a3.21,3.21,0,0,1,.87-2.48,3.69,3.69,0,0,1,4.57,0,3.2,3.2,0,0,1,.87,2.48v4.77a3.22,3.22,0,0,1-.87,2.5,3.69,3.69,0,0,1-4.57,0A3.23,3.23,0,0,1,384.86,238.46Zm1,0q0,2.35,2.14,2.35t2.14-2.35v-4.77q0-2.34-2.14-2.34t-2.14,2.34Z"/><path class="cls-3" d="M393,238.46v-4.77a3.21,3.21,0,0,1,.87-2.48,3.69,3.69,0,0,1,4.57,0,3.2,3.2,0,0,1,.87,2.48v4.77a3.22,3.22,0,0,1-.87,2.5,3.69,3.69,0,0,1-4.57,0A3.23,3.23,0,0,1,393,238.46Zm1,0q0,2.35,2.14,2.35t2.14-2.35v-4.77q0-2.34-2.14-2.34t-2.14,2.34Z"/><path class="cls-3" d="M412.73,230.81a.19.19,0,0,1,.1-.16.37.37,0,0,1,.21-.07q.18,0,.21.14l1.51,5,1.5-5a.2.2,0,0,1,.2-.14.4.4,0,0,1,.22.07.2.2,0,0,1,.11.16v0l-1.69,5.52q-.06.2-.32.2t-.32-.2l-1.7-5.52A.14.14,0,0,1,412.73,230.81Z"/><path class="cls-3" d="M417.14,236.35a.42.42,0,0,1,0-.19l2.71-5.08h-2.46a.18.18,0,0,1-.15-.07.31.31,0,0,1,0-.35.17.17,0,0,1,.15-.07h3q.2,0,.2.17a.43.43,0,0,1-.06.21l-2.7,5.07h2.66a.17.17,0,0,1,.15.07.28.28,0,0,1,.05.17.3.3,0,0,1-.05.17.17.17,0,0,1-.15.08h-3.16Q417.14,236.53,417.14,236.35Z"/><path class="cls-3" d="M421.07,230.8a.19.19,0,0,1,.09-.15.31.31,0,0,1,.19-.07.18.18,0,0,1,.19.15l1.41,5,.82-3.07q0-.17.28-.17a.25.25,0,0,1,.27.21l.81,3,1.42-5q0-.12.21-.12a.4.4,0,0,1,.21.06.17.17,0,0,1,.1.15.19.19,0,0,1,0,.06l-1.6,5.52a.29.29,0,0,1-.32.21q-.26,0-.31-.18l-.79-2.9-.78,2.87a.25.25,0,0,1-.28.21.26.26,0,0,1-.29-.2l-1.6-5.52A.21.21,0,0,1,421.07,230.8Z"/><path class="cls-3" d="M378.5,226.94V216.28q0-.39.52-.39t.81.72l4.23,8.34v-8.68q0-.38.52-.38t.52.38v10.67a.35.35,0,0,1-.16.3.61.61,0,0,1-.36.11q-.39,0-.69-.6l-4.36-8.48v8.67a.35.35,0,0,1-.16.3.61.61,0,0,1-.36.11.6.6,0,0,1-.37-.11A.35.35,0,0,1,378.5,226.94Z"/><path class="cls-3" d="M386.53,216.37a.56.56,0,0,1,.1-.33.33.33,0,0,1,.29-.15h6.28a.34.34,0,0,1,.29.14.53.53,0,0,1,.1.32.59.59,0,0,1-.1.35.33.33,0,0,1-.29.15h-2.62v10.09a.35.35,0,0,1-.16.3.61.61,0,0,1-.36.11.6.6,0,0,1-.37-.11.35.35,0,0,1-.15-.3V216.84h-2.63a.34.34,0,0,1-.28-.14A.53.53,0,0,1,386.53,216.37Z"/><path class="cls-3" d="M395,226.94V216.28a.34.34,0,0,1,.14-.29.55.55,0,0,1,.33-.1h5.58q.39,0,.39.45a.61.61,0,0,1-.1.35.33.33,0,0,1-.29.15h-5v4.31h2.46a.34.34,0,0,1,.29.13.54.54,0,0,1,.1.34q0,.42-.39.42h-2.46v4.34h5a.34.34,0,0,1,.28.14.55.55,0,0,1,.11.34q0,.47-.39.47h-5.58a.52.52,0,0,1-.33-.11A.36.36,0,0,1,395,226.94Z"/><path class="cls-3" d="M403,226.94V216.28q0-.39.52-.39t.81.72l4.23,8.34v-8.68q0-.38.52-.38t.52.38v10.67a.35.35,0,0,1-.16.3.61.61,0,0,1-.36.11q-.39,0-.69-.6L404,218.27v8.67a.35.35,0,0,1-.16.3.61.61,0,0,1-.36.11.6.6,0,0,1-.37-.11A.35.35,0,0,1,403,226.94Z"/><path class="cls-3" d="M412,226.94V216.28q0-.39.52-.39t.81.72l4.23,8.34v-8.68q0-.38.52-.38t.52.38v10.67a.35.35,0,0,1-.16.3.61.61,0,0,1-.36.11q-.39,0-.69-.6L413,218.27v8.67a.35.35,0,0,1-.16.3.61.61,0,0,1-.36.11.6.6,0,0,1-.37-.11A.35.35,0,0,1,412,226.94Z"/><path class="cls-3" d="M420.94,226.94V216.28a.34.34,0,0,1,.14-.29.55.55,0,0,1,.33-.1H427q.39,0,.39.45a.61.61,0,0,1-.1.35.33.33,0,0,1-.29.15h-5v4.31h2.46a.34.34,0,0,1,.29.13.54.54,0,0,1,.1.34q0,.42-.39.42H422v4.34h5a.34.34,0,0,1,.28.14.55.55,0,0,1,.11.34q0,.47-.39.47h-5.58a.52.52,0,0,1-.33-.11A.36.36,0,0,1,420.94,226.94Z"/><path class="cls-3" d="M372.24,217l-2.45,10.16c0,.18-.18.26-.41.26a.73.73,0,0,1-.41-.13.37.37,0,0,1-.19-.31.27.27,0,0,1,0-.11L369,226l2.31-9.81q.11-.36.61-.36m1.38.36"/><path class="cls-3" d="M371.92,215.84h2.23q.5,0,.61.36l2.31,9.81.21.83a.27.27,0,0,1,0,.11.37.37,0,0,1-.19.31.73.73,0,0,1-.41.13c-.23,0-.37-.09-.41-.26L373.86,217h-1.62m.53-.76"/><path class="cls-3" d="M370.23,223.74h5.13a1.14,1.14,0,0,1,.6.13.39.39,0,0,1,.21.34q0,.42-.82.42h-5.13"/><path class="cls-3" d="M374.59,207.25l-1.34,5.56c0,.1-.1.14-.22.14a.4.4,0,0,1-.22-.07.2.2,0,0,1-.1-.17.15.15,0,0,1,0-.06l.11-.46,1.26-5.37q.06-.2.33-.2m.75.2"/><path class="cls-3" d="M374.41,206.63h1.22q.27,0,.33.2l1.26,5.37.11.46a.15.15,0,0,1,0,.06.2.2,0,0,1-.1.17.4.4,0,0,1-.22.07c-.13,0-.2,0-.22-.14l-1.32-5.56h-.89m.29-.42"/><path class="cls-3" d="M373.48,211h2.81a.62.62,0,0,1,.33.07.21.21,0,0,1,.12.18q0,.23-.45.23h-2.81"/><path class="cls-3" d="M414.22,149a.53.53,0,0,1-.49-.35,3.5,3.5,0,0,0-3.12-2.6.54.54,0,0,1-.53-.52.52.52,0,0,1,.51-.53,4.51,4.51,0,0,1,4.12,3.3.53.53,0,0,1-.49.7Z"/><path class="cls-3" d="M372.66,200.57a.53.53,0,0,1-.42-.84l37-49.31a.53.53,0,0,1,.84.63l-37,49.31A.53.53,0,0,1,372.66,200.57Z"/><line class="cls-3" x1="381.17" y1="165.12" x2="393.76" y2="153.63"/><line class="cls-3" x1="399.1" y1="165.45" x2="385.77" y2="153.96"/></svg>