<svg id="Layer_1" data-name="Layer 1" xmlns="http://www.w3.org/2000/svg" viewBox="0 0 201.08 242.23"><defs><style>.cls-1{fill:#1a4955;}.cls-2{fill:#f4dd6f;}.cls-3,.cls-4{fill:none;stroke-miterlimit:10;}.cls-3{stroke:#1a4955;stroke-width:1.7px;}.cls-4{stroke:#fff;stroke-linecap:round;stroke-width:5.26px;}</style></defs><title>Artboard 1 copy 4</title><rect class="cls-1" x="69.35" y="110.5" width="217.85" height="45.62" transform="translate(311.58 -44.96) rotate(90)"/><circle class="cls-1" cx="56.76" cy="60.92" r="1.35"/><path class="cls-1" d="M129.82,167.73a.9.9,0,0,1-.88-.72C120,123.91,100.9,61.3,91.28,61.31c-9.71.68-22.47,50.9-28.67,84.5a.9.9,0,0,1-1.77-.33c1.6-8.69,16.08-85,30.38-86,12.24,0,31.75,69.78,39.49,107.14a.9.9,0,0,1-.7,1.06Z"/><path class="cls-1" d="M153.65,53.54a.9.9,0,0,1-.85-.6c-3.24-9.1-8.67-15.51-16.13-19a25.88,25.88,0,0,0-10.32-2.6h0a.9.9,0,0,1,0-1.8c.24,0,20-.09,28.17,22.84a.9.9,0,0,1-.85,1.2Z"/><path class="cls-1" d="M140.88,53.15a.9.9,0,0,1-.85-.6c-3.28-9.21-10.86-9.2-11.18-9.21h0a.9.9,0,0,1,0-1.8c.1,0,9.18-.05,12.91,10.41a.9.9,0,0,1-.85,1.2Z"/><path class="cls-1" d="M91.44,49.1a12,12,0,1,1,12-12A12,12,0,0,1,91.44,49.1Zm0-22.14a10.17,10.17,0,1,0,10.18,10.17A10.18,10.18,0,0,0,91.43,27Z"/><path class="cls-1" d="M129.82,167.73a.89.89,0,0,1-.74-.4L62.9,68.18a.94.94,0,0,1,.23-1.28.88.88,0,0,1,1.25.24l66.18,99.15a.94.94,0,0,1-.23,1.28A.88.88,0,0,1,129.82,167.73Z"/><path class="cls-1" d="M55.1,164.6v-4.53a3,3,0,0,1,.85-2.35,3.68,3.68,0,0,1,4.41-.05,2.21,2.21,0,0,1,.81,1.73.71.71,0,0,1-.11.47.49.49,0,0,1-.37.12q-.45,0-.48-.36a3,3,0,0,0-.06-.42,1.92,1.92,0,0,0-.18-.46,1.54,1.54,0,0,0-.34-.45A1.64,1.64,0,0,0,59,158a2.83,2.83,0,0,0-.88-.12q-2.1,0-2.1,2.22v4.53a1.94,1.94,0,0,0,2.16,2.23,2.71,2.71,0,0,0,1-.17,1.19,1.19,0,0,0,.6-.49,2.48,2.48,0,0,0,.26-.55,3.86,3.86,0,0,0,.11-.59c0-.25.19-.38.48-.38a.48.48,0,0,1,.37.12.75.75,0,0,1,.11.47,2.23,2.23,0,0,1-.82,1.75,3.28,3.28,0,0,1-2.23.72,3.13,3.13,0,0,1-2.18-.76A3,3,0,0,1,55.1,164.6Z"/><path class="cls-1" d="M71.09,167.34v-9.94q0-.32.36-.35H74a3.64,3.64,0,0,1,2.29.67,2.62,2.62,0,0,1,.87,2.2,2.54,2.54,0,0,1-2.28,2.82l2.25,4.32a.3.3,0,0,1,.06.19.45.45,0,0,1-.18.34.56.56,0,0,1-.38.15q-.26,0-.51-.51l-2.25-4.38H72v4.48a.32.32,0,0,1-.15.28.57.57,0,0,1-.34.1.56.56,0,0,1-.34-.1A.33.33,0,0,1,71.09,167.34ZM72,162h2q2.19,0,2.19-2.06t-2.19-2H72Z"/><path class="cls-1" d="M55,212.73a1.07,1.07,0,0,1,.18-.72.84.84,0,0,1,.63-.2q.9,0,.9.74a2.85,2.85,0,0,0,.88,2,3.77,3.77,0,0,0,2.83.92q3.79,0,3.79-4V211a3.33,3.33,0,0,0-1-2.63,4,4,0,0,0-2.75-.87q-.69,0-.69-.74t.66-.76a3.56,3.56,0,0,0,2.48-.75,3.43,3.43,0,0,0,.82-2.61,3.67,3.67,0,0,0-.77-2.56,3.16,3.16,0,0,0-2.42-.83,3.37,3.37,0,0,0-2.61.85,2.85,2.85,0,0,0-.76,2,.74.74,0,0,1-.84.84.94.94,0,0,1-.7-.21,1.17,1.17,0,0,1-.2-.79,3.82,3.82,0,0,1,.24-1.3,5.23,5.23,0,0,1,.76-1.36,3.75,3.75,0,0,1,1.61-1.15,6.62,6.62,0,0,1,2.56-.45q4.82,0,4.82,4.65a6.06,6.06,0,0,1-.59,2.84,3.51,3.51,0,0,1-1.57,1.6A4.16,4.16,0,0,1,66,211v.5a5.36,5.36,0,0,1-1.51,4.22,5.79,5.79,0,0,1-4,1.35,5.64,5.64,0,0,1-4-1.34A4.06,4.06,0,0,1,55,212.73Z"/><path class="cls-1" d="M68.64,211.44v-8.17A5.49,5.49,0,0,1,70.12,199a6.31,6.31,0,0,1,7.82,0,5.48,5.48,0,0,1,1.5,4.25v8.17a5.52,5.52,0,0,1-1.49,4.28,6.31,6.31,0,0,1-7.82,0A5.53,5.53,0,0,1,68.64,211.44Zm1.74,0q0,4,3.66,4t3.66-4v-8.17q0-4-3.66-4t-3.66,4Z"/><path class="cls-1" d="M82.65,211.43v-8.17A5.49,5.49,0,0,1,84.14,199,6.31,6.31,0,0,1,92,199a5.48,5.48,0,0,1,1.5,4.25v8.17A5.52,5.52,0,0,1,92,215.71a6.31,6.31,0,0,1-7.82,0A5.53,5.53,0,0,1,82.65,211.43Zm1.74,0q0,4,3.66,4t3.66-4v-8.17q0-4-3.66-4t-3.66,4Z"/><path class="cls-1" d="M96.67,211.42v-8.17A5.49,5.49,0,0,1,98.15,199a6.31,6.31,0,0,1,7.82,0,5.48,5.48,0,0,1,1.5,4.25v8.17A5.52,5.52,0,0,1,106,215.7a6.31,6.31,0,0,1-7.82,0A5.53,5.53,0,0,1,96.67,211.42Zm1.74,0q0,4,3.66,4t3.66-4v-8.17q0-4-3.66-4t-3.66,4Z"/><path class="cls-1" d="M130.38,198.3a.33.33,0,0,1,.17-.28.64.64,0,0,1,.36-.11q.31,0,.36.24l2.58,8.56,2.56-8.56a.34.34,0,0,1,.35-.24.69.69,0,0,1,.38.12.34.34,0,0,1,.18.28l0,0,0,0-2.89,9.45q-.1.34-.56.34t-.54-.33l-2.91-9.45A.24.24,0,0,1,130.38,198.3Z"/><path class="cls-1" d="M137.94,207.77a.72.72,0,0,1,.08-.32l4.64-8.7h-4.21a.3.3,0,0,1-.25-.13.52.52,0,0,1,0-.6.3.3,0,0,1,.26-.13h5.06q.35,0,.35.29a.74.74,0,0,1-.11.36l-4.62,8.68h4.56a.3.3,0,0,1,.26.13.49.49,0,0,1,.09.29.52.52,0,0,1-.09.3.29.29,0,0,1-.26.13h-5.41Q137.94,208.1,137.94,207.77Z"/><path class="cls-1" d="M144.65,198.28a.32.32,0,0,1,.15-.26.53.53,0,0,1,.32-.11.3.3,0,0,1,.32.27l2.42,8.56,1.4-5.25q.07-.3.47-.3a.43.43,0,0,1,.46.35l1.4,5.2,2.42-8.62q.07-.21.36-.21a.68.68,0,0,1,.37.11.3.3,0,0,1,.17.25.32.32,0,0,1,0,.11l-2.73,9.45a.51.51,0,0,1-.55.36q-.45,0-.53-.31l-1.35-5-1.33,4.92a.44.44,0,0,1-.49.36.45.45,0,0,1-.5-.34l-2.75-9.45A.35.35,0,0,1,144.65,198.28Z"/><path class="cls-1" d="M71.76,191.69V173.44q0-.67.89-.67T74,174l7.25,14.27V173.41q0-.64.89-.64t.89.64v18.28a.59.59,0,0,1-.27.51,1,1,0,0,1-.62.19q-.67,0-1.18-1l-7.47-14.52v14.84a.59.59,0,0,1-.27.51,1.05,1.05,0,0,1-.62.19,1,1,0,0,1-.63-.19A.6.6,0,0,1,71.76,191.69Z"/><path class="cls-1" d="M85.49,173.59a1,1,0,0,1,.17-.57.57.57,0,0,1,.5-.25H96.92a.58.58,0,0,1,.5.24.91.91,0,0,1,.17.55,1,1,0,0,1-.17.59.57.57,0,0,1-.5.25H92.44v17.28a.59.59,0,0,1-.27.51,1,1,0,0,1-.62.19,1,1,0,0,1-.63-.19.6.6,0,0,1-.25-.51V174.4H86.16a.59.59,0,0,1-.48-.24A.91.91,0,0,1,85.49,173.59Z"/><path class="cls-1" d="M100,191.68V173.43a.58.58,0,0,1,.24-.5.94.94,0,0,1,.56-.17h9.55q.67,0,.67.78a1,1,0,0,1-.17.6.56.56,0,0,1-.5.26h-8.59v7.38H106a.59.59,0,0,1,.5.23.92.92,0,0,1,.17.58q0,.72-.67.72h-4.21v7.43h8.59a.59.59,0,0,1,.48.24.93.93,0,0,1,.19.59q0,.81-.67.81h-9.55a.89.89,0,0,1-.56-.19A.61.61,0,0,1,100,191.68Z"/><path class="cls-1" d="M113.68,191.67V173.42q0-.67.89-.67t1.4,1.23l7.25,14.27V173.39q0-.64.89-.64t.89.64v18.28a.59.59,0,0,1-.27.51,1,1,0,0,1-.62.19q-.67,0-1.18-1l-7.47-14.52v14.84a.59.59,0,0,1-.27.51,1.05,1.05,0,0,1-.62.19,1,1,0,0,1-.63-.19A.6.6,0,0,1,113.68,191.67Z"/><path class="cls-1" d="M129.05,191.67V173.42q0-.67.89-.67t1.4,1.23l7.25,14.27V173.39q0-.64.89-.64t.89.64v18.28a.59.59,0,0,1-.27.51,1,1,0,0,1-.62.19q-.67,0-1.18-1l-7.47-14.52v14.84a.59.59,0,0,1-.27.51,1.05,1.05,0,0,1-.62.19,1,1,0,0,1-.63-.19A.6.6,0,0,1,129.05,191.67Z"/><path class="cls-1" d="M144.43,191.66V173.41a.58.58,0,0,1,.24-.5.94.94,0,0,1,.56-.17h9.55q.67,0,.67.78a1,1,0,0,1-.17.6.56.56,0,0,1-.5.26h-8.59v7.38h4.21a.59.59,0,0,1,.5.23.92.92,0,0,1,.17.58q0,.72-.67.72H146.2v7.43h8.59a.59.59,0,0,1,.48.24.93.93,0,0,1,.19.59q0,.81-.67.81h-9.55a.89.89,0,0,1-.56-.19A.61.61,0,0,1,144.43,191.66Z"/><path class="cls-1" d="M61,174.63,56.84,192c-.07.3-.31.45-.7.45a1.24,1.24,0,0,1-.7-.21.63.63,0,0,1-.32-.54.46.46,0,0,1,0-.19l.35-1.42,3.95-16.8q.19-.62,1-.62m2.36.62"/><path class="cls-1" d="M60.48,172.7H64.3q.86,0,1,.62l4,16.79.35,1.42a.46.46,0,0,1,0,.19.63.63,0,0,1-.32.54,1.24,1.24,0,0,1-.7.22c-.4,0-.63-.15-.7-.45l-4.15-17.4H61m.91-1.31"/><path class="cls-1" d="M57.58,186.23h8.79a2,2,0,0,1,1,.23.67.67,0,0,1,.36.58q0,.72-1.4.73H57.58"/><path class="cls-1" d="M65,158l-2.29,9.52c0,.17-.17.25-.38.25a.68.68,0,0,1-.38-.12.34.34,0,0,1-.18-.29.25.25,0,0,1,0-.1l.19-.78,2.16-9.19q.1-.34.57-.34m1.29.34"/><path class="cls-1" d="M64.74,156.93h2.09q.47,0,.57.34l2.17,9.19.19.78a.25.25,0,0,1,0,.1.34.34,0,0,1-.18.29.68.68,0,0,1-.38.12c-.22,0-.35-.08-.38-.25L66.56,158H65m.5-.72"/><path class="cls-1" d="M63.15,164.33H68a1.07,1.07,0,0,1,.57.12.37.37,0,0,1,.2.32q0,.4-.77.4H63.15"/><path class="cls-1" d="M132.87,58.2a.9.9,0,0,1-.85-.6c-1.58-4.43-5.22-4.45-5.34-4.45a.93.93,0,0,1-.91-.89.9.9,0,0,1,.88-.91c.21,0,5,0,7.06,5.65a.9.9,0,0,1-.85,1.2Z"/><path class="cls-1" d="M61.72,146.54A.9.9,0,0,1,61,145.1l63.3-84.47a.9.9,0,1,1,1.44,1.08l-63.3,84.47A.9.9,0,0,1,61.72,146.54Z"/><line class="cls-2" x1="76.28" y1="85.83" x2="97.82" y2="66.15"/><line class="cls-3" x1="76.28" y1="85.83" x2="97.82" y2="66.15"/><line class="cls-2" x1="106.98" y1="86.38" x2="84.14" y2="66.72"/><line class="cls-3" x1="106.98" y1="86.38" x2="84.14" y2="66.72"/><rect class="cls-1" width="201.08" height="25.15"/><circle class="cls-2" cx="171.98" cy="24.87" r="17.83"/><line class="cls-4" x1="163.04" y1="15.93" x2="180.92" y2="33.81"/><line class="cls-4" x1="180.92" y1="15.93" x2="163.04" y2="33.81"/><rect class="cls-1" x="-81.41" y="105.8" width="217.85" height="55.02" transform="translate(160.82 105.8) rotate(90)"/><rect class="cls-1" x="25.77" y="217.06" width="175.3" height="25.17" transform="translate(226.85 459.29) rotate(180)"/></svg>