<svg id="Layer_1" data-name="Layer 1" xmlns="http://www.w3.org/2000/svg" viewBox="0 0 201.08 242.23"><defs><style>.cls-1{fill:#f4dd6f;}.cls-2,.cls-3{fill:none;stroke-miterlimit:10;}.cls-2{stroke:#f4dd6f;stroke-width:1.7px;}.cls-3{stroke:#fff;stroke-linecap:round;stroke-width:5.26px;}</style></defs><title>Artboard 1 copy 5</title><circle class="cls-1" cx="54.25" cy="55.85" r="1.35"/><path class="cls-1" d="M127.31,162.66a.9.9,0,0,1-.88-.72c-8.93-43.1-28-105.71-37.66-105.71-9.71.68-22.47,50.9-28.67,84.5a.9.9,0,0,1-1.77-.33c1.6-8.69,16.08-85,30.38-86,12.24,0,31.75,69.78,39.49,107.14a.9.9,0,0,1-.7,1.06Z"/><path class="cls-1" d="M151.14,48.47a.9.9,0,0,1-.85-.6c-3.24-9.1-8.67-15.51-16.13-19a25.88,25.88,0,0,0-10.32-2.6h0a.9.9,0,0,1,0-1.8c.24,0,20-.09,28.17,22.84a.9.9,0,0,1-.85,1.2Z"/><path class="cls-1" d="M138.37,48.08a.9.9,0,0,1-.85-.6c-3.28-9.21-10.86-9.2-11.18-9.21h0a.9.9,0,0,1,0-1.8c.1,0,9.18-.05,12.91,10.41a.9.9,0,0,1-.85,1.2Z"/><path class="cls-1" d="M88.93,44a12,12,0,1,1,12-12A12,12,0,0,1,88.93,44Zm0-22.14A10.17,10.17,0,1,0,99.09,32,10.18,10.18,0,0,0,88.92,21.88Z"/><path class="cls-1" d="M127.31,162.66a.89.89,0,0,1-.74-.4L60.39,63.11a.94.94,0,0,1,.23-1.28.88.88,0,0,1,1.25.24L128,161.22a.94.94,0,0,1-.23,1.28A.88.88,0,0,1,127.31,162.66Z"/><path class="cls-1" d="M52.59,159.53V155a3,3,0,0,1,.85-2.35,3.68,3.68,0,0,1,4.41-.05,2.21,2.21,0,0,1,.81,1.73.71.71,0,0,1-.11.47.49.49,0,0,1-.37.12q-.45,0-.48-.36a3,3,0,0,0-.06-.42,1.92,1.92,0,0,0-.18-.46,1.54,1.54,0,0,0-.34-.45,1.64,1.64,0,0,0-.59-.31,2.83,2.83,0,0,0-.88-.12q-2.1,0-2.1,2.22v4.53a1.94,1.94,0,0,0,2.16,2.23,2.71,2.71,0,0,0,1-.17,1.19,1.19,0,0,0,.6-.49,2.48,2.48,0,0,0,.26-.55,3.86,3.86,0,0,0,.11-.59c0-.25.19-.38.48-.38a.48.48,0,0,1,.37.12.75.75,0,0,1,.11.47,2.23,2.23,0,0,1-.82,1.75,3.28,3.28,0,0,1-2.23.72,3.13,3.13,0,0,1-2.18-.76A3,3,0,0,1,52.59,159.53Z"/><path class="cls-1" d="M68.58,162.27v-9.94q0-.32.36-.35h2.58a3.64,3.64,0,0,1,2.29.67,2.62,2.62,0,0,1,.87,2.2,2.54,2.54,0,0,1-2.28,2.82L74.65,162a.3.3,0,0,1,.06.19.45.45,0,0,1-.18.34.56.56,0,0,1-.38.15q-.26,0-.51-.51l-2.25-4.38H69.54v4.48a.32.32,0,0,1-.15.28.57.57,0,0,1-.34.1.56.56,0,0,1-.34-.1A.33.33,0,0,1,68.58,162.27Zm1-5.32h2q2.19,0,2.19-2.06t-2.19-2h-2Z"/><path class="cls-1" d="M52.51,207.66a1.07,1.07,0,0,1,.18-.72.84.84,0,0,1,.63-.2q.9,0,.9.74a2.85,2.85,0,0,0,.88,2,3.77,3.77,0,0,0,2.83.92q3.79,0,3.79-4v-.5a3.33,3.33,0,0,0-1-2.63,4,4,0,0,0-2.75-.87q-.69,0-.69-.74t.66-.76a3.56,3.56,0,0,0,2.48-.75,3.43,3.43,0,0,0,.82-2.61,3.67,3.67,0,0,0-.77-2.56,3.16,3.16,0,0,0-2.42-.83,3.37,3.37,0,0,0-2.61.85,2.85,2.85,0,0,0-.76,2,.74.74,0,0,1-.84.84.94.94,0,0,1-.7-.21,1.17,1.17,0,0,1-.2-.79,3.82,3.82,0,0,1,.24-1.3,5.23,5.23,0,0,1,.76-1.36A3.75,3.75,0,0,1,55.56,193a6.62,6.62,0,0,1,2.56-.45q4.82,0,4.82,4.65a6.06,6.06,0,0,1-.59,2.84,3.51,3.51,0,0,1-1.57,1.6,4.16,4.16,0,0,1,2.69,4.27v.5A5.36,5.36,0,0,1,62,210.66,5.79,5.79,0,0,1,58,212a5.64,5.64,0,0,1-4-1.34A4.06,4.06,0,0,1,52.51,207.66Z"/><path class="cls-1" d="M66.13,206.37V198.2a5.49,5.49,0,0,1,1.49-4.26,6.31,6.31,0,0,1,7.82,0,5.48,5.48,0,0,1,1.5,4.25v8.17a5.52,5.52,0,0,1-1.49,4.28,6.31,6.31,0,0,1-7.82,0A5.53,5.53,0,0,1,66.13,206.37Zm1.74,0q0,4,3.66,4t3.66-4v-8.17q0-4-3.66-4t-3.66,4Z"/><path class="cls-1" d="M80.14,206.36v-8.17a5.49,5.49,0,0,1,1.49-4.26,6.31,6.31,0,0,1,7.82,0,5.48,5.48,0,0,1,1.5,4.25v8.17a5.52,5.52,0,0,1-1.49,4.28,6.31,6.31,0,0,1-7.82,0A5.53,5.53,0,0,1,80.14,206.36Zm1.74,0q0,4,3.66,4t3.66-4v-8.17q0-4-3.66-4t-3.66,4Z"/><path class="cls-1" d="M94.16,206.35v-8.17a5.49,5.49,0,0,1,1.49-4.26,6.31,6.31,0,0,1,7.82,0,5.48,5.48,0,0,1,1.5,4.25v8.17a5.52,5.52,0,0,1-1.49,4.28,6.31,6.31,0,0,1-7.82,0A5.53,5.53,0,0,1,94.16,206.35Zm1.74,0q0,4,3.66,4t3.66-4v-8.17q0-4-3.66-4t-3.66,4Z"/><path class="cls-1" d="M127.87,193.23A.33.33,0,0,1,128,193a.64.64,0,0,1,.36-.11q.31,0,.36.24l2.58,8.56,2.56-8.56a.34.34,0,0,1,.35-.24.69.69,0,0,1,.38.12.34.34,0,0,1,.18.28l0,0,0,0-2.89,9.45q-.1.34-.56.34t-.54-.33l-2.91-9.45A.24.24,0,0,1,127.87,193.23Z"/><path class="cls-1" d="M135.43,202.71a.72.72,0,0,1,.08-.32l4.64-8.7h-4.21a.3.3,0,0,1-.25-.13.52.52,0,0,1,0-.6.3.3,0,0,1,.26-.13H141q.35,0,.35.29a.74.74,0,0,1-.11.36l-4.62,8.68h4.56a.3.3,0,0,1,.26.13.49.49,0,0,1,.09.29.52.52,0,0,1-.09.3.29.29,0,0,1-.26.13h-5.41Q135.43,203,135.43,202.71Z"/><path class="cls-1" d="M142.14,193.21a.32.32,0,0,1,.15-.26.53.53,0,0,1,.32-.11.3.3,0,0,1,.32.27l2.42,8.56,1.4-5.25q.07-.3.47-.3a.43.43,0,0,1,.46.35l1.4,5.2L151.5,193q.07-.21.36-.21a.68.68,0,0,1,.37.11.3.3,0,0,1,.17.25.32.32,0,0,1,0,.11l-2.73,9.45a.51.51,0,0,1-.55.36q-.45,0-.53-.31l-1.35-5-1.33,4.92a.44.44,0,0,1-.49.36.45.45,0,0,1-.5-.34l-2.75-9.45A.35.35,0,0,1,142.14,193.21Z"/><path class="cls-1" d="M69.25,186.62V168.37q0-.67.89-.67t1.4,1.23l7.25,14.27V168.34q0-.64.89-.64t.89.64v18.28a.59.59,0,0,1-.27.51,1,1,0,0,1-.62.19q-.67,0-1.18-1L71,171.78v14.84a.59.59,0,0,1-.27.51,1.05,1.05,0,0,1-.62.19,1,1,0,0,1-.63-.19A.6.6,0,0,1,69.25,186.62Z"/><path class="cls-1" d="M83,168.52a1,1,0,0,1,.17-.57.57.57,0,0,1,.5-.25H94.41a.58.58,0,0,1,.5.24.91.91,0,0,1,.17.55,1,1,0,0,1-.17.59.57.57,0,0,1-.5.25H89.93v17.28a.59.59,0,0,1-.27.51,1,1,0,0,1-.62.19,1,1,0,0,1-.63-.19.6.6,0,0,1-.25-.51V169.33H83.65a.59.59,0,0,1-.48-.24A.91.91,0,0,1,83,168.52Z"/><path class="cls-1" d="M97.53,186.61V168.36a.58.58,0,0,1,.24-.5.94.94,0,0,1,.56-.17h9.55q.67,0,.67.78a1,1,0,0,1-.17.6.56.56,0,0,1-.5.26H99.3v7.38h4.21a.59.59,0,0,1,.5.23.92.92,0,0,1,.17.58q0,.72-.67.72H99.3v7.43h8.59a.59.59,0,0,1,.48.24.93.93,0,0,1,.19.59q0,.81-.67.81H98.34a.89.89,0,0,1-.56-.19A.61.61,0,0,1,97.53,186.61Z"/><path class="cls-1" d="M111.17,186.6V168.35q0-.67.89-.67t1.4,1.23l7.25,14.27V168.32q0-.64.89-.64t.89.64V186.6a.59.59,0,0,1-.27.51,1,1,0,0,1-.62.19q-.67,0-1.18-1l-7.47-14.52V186.6a.59.59,0,0,1-.27.51,1.05,1.05,0,0,1-.62.19,1,1,0,0,1-.63-.19A.6.6,0,0,1,111.17,186.6Z"/><path class="cls-1" d="M126.54,186.6V168.35q0-.67.89-.67t1.4,1.23l7.25,14.27V168.32q0-.64.89-.64t.89.64v18.28a.59.59,0,0,1-.27.51,1,1,0,0,1-.62.19q-.67,0-1.18-1l-7.47-14.52V186.6a.59.59,0,0,1-.27.51,1.05,1.05,0,0,1-.62.19,1,1,0,0,1-.63-.19A.6.6,0,0,1,126.54,186.6Z"/><path class="cls-1" d="M141.92,186.59V168.34a.58.58,0,0,1,.24-.5.94.94,0,0,1,.56-.17h9.55q.67,0,.67.78a1,1,0,0,1-.17.6.56.56,0,0,1-.5.26h-8.59v7.38h4.21a.59.59,0,0,1,.5.23.92.92,0,0,1,.17.58q0,.72-.67.72h-4.21v7.43h8.59a.59.59,0,0,1,.48.24.93.93,0,0,1,.19.59q0,.81-.67.81h-9.55a.89.89,0,0,1-.56-.19A.61.61,0,0,1,141.92,186.59Z"/><path class="cls-1" d="M58.52,169.56,54.33,187c-.07.3-.31.45-.7.45a1.24,1.24,0,0,1-.7-.21.63.63,0,0,1-.32-.54.46.46,0,0,1,0-.19L53,185l3.95-16.8q.19-.62,1-.62m2.36.62"/><path class="cls-1" d="M58,167.63h3.82q.86,0,1,.62l4,16.79.35,1.42a.46.46,0,0,1,0,.19.63.63,0,0,1-.32.54,1.24,1.24,0,0,1-.7.22c-.4,0-.63-.15-.7-.45l-4.15-17.4H58.52m.91-1.31"/><path class="cls-1" d="M55.07,181.16h8.79a2,2,0,0,1,1,.23.67.67,0,0,1,.36.58q0,.72-1.4.73H55.07"/><path class="cls-1" d="M62.52,152.91l-2.29,9.52c0,.17-.17.25-.38.25a.68.68,0,0,1-.38-.12.34.34,0,0,1-.18-.29.25.25,0,0,1,0-.1l.19-.78,2.16-9.19q.1-.34.57-.34m1.29.34"/><path class="cls-1" d="M62.23,151.86h2.09q.47,0,.57.34l2.17,9.19.19.78a.25.25,0,0,1,0,.1.34.34,0,0,1-.18.29.68.68,0,0,1-.38.12c-.22,0-.35-.08-.38-.25L64,152.91H62.52m.5-.72"/><path class="cls-1" d="M60.64,159.26h4.81a1.07,1.07,0,0,1,.57.12.37.37,0,0,1,.2.32q0,.4-.77.4H60.64"/><path class="cls-1" d="M130.35,53.13a.9.9,0,0,1-.85-.6c-1.58-4.43-5.22-4.45-5.34-4.45a.93.93,0,0,1-.91-.89.9.9,0,0,1,.88-.91c.21,0,5,0,7.06,5.65a.9.9,0,0,1-.85,1.2Z"/><path class="cls-1" d="M59.21,141.47a.9.9,0,0,1-.72-1.44l63.3-84.47a.9.9,0,1,1,1.44,1.08l-63.3,84.47A.9.9,0,0,1,59.21,141.47Z"/><line class="cls-2" x1="73.77" y1="80.76" x2="95.31" y2="61.08"/><line class="cls-2" x1="104.47" y1="81.31" x2="81.63" y2="61.65"/><circle class="cls-1" cx="171.98" cy="24.44" r="17.83"/><line class="cls-3" x1="163.04" y1="15.5" x2="180.92" y2="33.38"/><line class="cls-3" x1="180.92" y1="15.5" x2="163.04" y2="33.38"/></svg>