<svg id="Layer_1" data-name="Layer 1" xmlns="http://www.w3.org/2000/svg" viewBox="0 0 201.08 242.23"><defs><style>.cls-1{fill:#1a4955;}.cls-2,.cls-3,.cls-5{fill:none;stroke-miterlimit:10;}.cls-2,.cls-3{stroke:#1a4955;}.cls-2{stroke-width:1.8px;}.cls-3{stroke-width:1.85px;}.cls-4{fill:#f4dd6f;}.cls-5{stroke:#fff;stroke-linecap:round;stroke-width:5.26px;}</style></defs><title>Artboard 1 copy 2</title><path class="cls-1" d="M61.21,59.26a1.5,1.5,0,0,1-1.47,1.35,1.22,1.22,0,0,1-1.23-1.35A1.5,1.5,0,0,1,60,57.92,1.22,1.22,0,0,1,61.21,59.26Z"/><path class="cls-1" d="M123.57,166.07a.81.81,0,0,1-.82-.72C117.59,122.25,104,59.65,94.34,59.65c-9.77.68-26.93,50.9-36.06,84.5a1,1,0,0,1-1.11.72.82.82,0,0,1-.63-1c2.36-8.69,23.51-85,37.9-86,12.24,0,25.64,69.78,30.11,107.14a1,1,0,0,1-.79,1.06Z"/><path class="cls-1" d="M157.39,51.88a.81.81,0,0,1-.8-.6c-2.45-9.1-7.31-15.51-14.46-19A24.49,24.49,0,0,0,132,29.64h0a.81.81,0,0,1-.82-.88,1,1,0,0,1,1-.92c.24,0,20-.09,26.17,22.84a1,1,0,0,1-.65,1.15A1,1,0,0,1,157.39,51.88Z"/><path class="cls-1" d="M144.66,51.49a.81.81,0,0,1-.8-.6c-2.47-9.21-10.06-9.2-10.38-9.21h0a.81.81,0,0,1-.82-.89,1,1,0,0,1,1-.91c.1,0,9.19-.05,12,10.41a1,1,0,0,1-.65,1.15A1,1,0,0,1,144.66,51.49Z"/><path class="cls-1" d="M95.57,47.44a10.81,10.81,0,0,1-10.93-12,13.34,13.34,0,0,1,13-12,10.81,10.81,0,0,1,10.93,12A13.34,13.34,0,0,1,95.57,47.44ZM97.5,25.3A11.34,11.34,0,0,0,86.44,35.47a9.18,9.18,0,0,0,9.29,10.17,11.34,11.34,0,0,0,11.06-10.18A9.18,9.18,0,0,0,97.5,25.3Z"/><path class="cls-1" d="M123.57,166.07a.81.81,0,0,1-.71-.4L65.36,66.52a1,1,0,0,1,.35-1.28.85.85,0,0,1,1.23.24l57.5,99.15a1,1,0,0,1-.35,1.28A.94.94,0,0,1,123.57,166.07Z"/><path class="cls-1" d="M49.12,162.94l.39-4.53a3.26,3.26,0,0,1,1.06-2.35,3.46,3.46,0,0,1,2.28-.76A3,3,0,0,1,55,156a2,2,0,0,1,.66,1.73.76.76,0,0,1-.15.47.53.53,0,0,1-.38.12q-.45,0-.45-.36a2.92,2.92,0,0,0,0-.42,1.78,1.78,0,0,0-.14-.46,1.36,1.36,0,0,0-.3-.45,1.47,1.47,0,0,0-.56-.31,2.72,2.72,0,0,0-.87-.12,2.11,2.11,0,0,0-2.3,2.22l-.39,4.53q-.19,2.23,2,2.23a2.82,2.82,0,0,0,1-.17,1.35,1.35,0,0,0,.64-.49A2.76,2.76,0,0,0,54,164a4.09,4.09,0,0,0,.16-.59.46.46,0,0,1,.51-.38.44.44,0,0,1,.36.12.71.71,0,0,1,.07.47,2.47,2.47,0,0,1-1,1.75,3.54,3.54,0,0,1-2.29.72,2.89,2.89,0,0,1-2.12-.76A2.82,2.82,0,0,1,49.12,162.94Z"/><path class="cls-1" d="M64.87,165.68l.87-9.94q0-.32.4-.35h2.58a3.39,3.39,0,0,1,2.23.67,2.42,2.42,0,0,1,.68,2.2,2.82,2.82,0,0,1-2.52,2.82L71,165.4a.28.28,0,0,1,0,.19.5.5,0,0,1-.21.34.62.62,0,0,1-.39.15q-.26,0-.47-.51l-1.87-4.38H66.23l-.39,4.48a.36.36,0,0,1-.17.28.61.61,0,0,1-.35.1A.52.52,0,0,1,65,166,.3.3,0,0,1,64.87,165.68Zm1.43-5.32h2a2.07,2.07,0,0,0,2.37-2.06q.18-2-2-2h-2Z"/><path class="cls-1" d="M44.84,211.08a1.15,1.15,0,0,1,.25-.72.9.9,0,0,1,.65-.2q.9,0,.83.74a2.62,2.62,0,0,0,.71,2,3.49,3.49,0,0,0,2.75.92q3.79,0,4.14-4l0-.5a3.08,3.08,0,0,0-.76-2.63,3.74,3.74,0,0,0-2.68-.87q-.69,0-.62-.74t.73-.76a3.82,3.82,0,0,0,2.54-.75,3.72,3.72,0,0,0,1-2.61,3.45,3.45,0,0,0-.54-2.56,2.92,2.92,0,0,0-2.35-.83,3.64,3.64,0,0,0-2.68.85,3.12,3.12,0,0,0-.93,2,.82.82,0,0,1-.92.84.87.87,0,0,1-.68-.21,1.1,1.1,0,0,1-.13-.79,4,4,0,0,1,.35-1.3,5.87,5.87,0,0,1,.88-1.36,4.23,4.23,0,0,1,1.71-1.15,6.92,6.92,0,0,1,2.59-.45q4.82,0,4.42,4.65a6.45,6.45,0,0,1-.84,2.84,4,4,0,0,1-1.71,1.6q2.59,1.08,2.32,4.27l0,.5A5.85,5.85,0,0,1,54,214.07a6.25,6.25,0,0,1-4.11,1.35A5.22,5.22,0,0,1,46,214.08,3.71,3.71,0,0,1,44.84,211.08Z"/><path class="cls-1" d="M58.57,209.78l.71-8.17A5.49,5.49,0,0,1,65.16,196,5.17,5.17,0,0,1,69,197.35q1.38,1.36,1.12,4.25l-.71,8.17a5.51,5.51,0,0,1-5.9,5.64,5.15,5.15,0,0,1-3.79-1.35Q58.31,212.7,58.57,209.78Zm1.74,0q-.35,4,3.31,4t4-4l.71-8.17q.35-4-3.31-4t-4,4Z"/><path class="cls-1" d="M72.58,209.77l.71-8.17A5.49,5.49,0,0,1,79.18,196,5.17,5.17,0,0,1,83,197.35q1.38,1.36,1.12,4.25l-.71,8.17a5.51,5.51,0,0,1-5.9,5.64,5.15,5.15,0,0,1-3.79-1.35Q72.33,212.7,72.58,209.77Zm1.74,0q-.35,4,3.31,4t4-4l.71-8.17q.35-4-3.31-4t-4,4Z"/><path class="cls-1" d="M86.6,209.76l.71-8.17A5.49,5.49,0,0,1,93.19,196,5.17,5.17,0,0,1,97,197.34q1.38,1.36,1.12,4.25l-.71,8.17a5.51,5.51,0,0,1-5.9,5.64A5.15,5.15,0,0,1,87.72,214Q86.35,212.69,86.6,209.76Zm1.74,0q-.35,4,3.31,4t4-4l.71-8.17q.35-4-3.31-4t-4,4Z"/><path class="cls-1" d="M121.46,196.64a.37.37,0,0,1,.19-.28.69.69,0,0,1,.37-.11q.31,0,.34.24L124.2,205l3.31-8.56a.37.37,0,0,1,.37-.24.64.64,0,0,1,.37.12.3.3,0,0,1,.16.28l0,0,0,0-3.71,9.45a.55.55,0,0,1-.59.34q-.44,0-.51-.33l-2.08-9.45A.23.23,0,0,1,121.46,196.64Z"/><path class="cls-1" d="M128.19,206.12a.77.77,0,0,1,.11-.32l5.4-8.7h-4.21a.28.28,0,0,1-.24-.13.45.45,0,0,1-.07-.31.52.52,0,0,1,.12-.29.33.33,0,0,1,.27-.13h5.06q.35,0,.32.29a.8.8,0,0,1-.14.36l-5.38,8.68H134a.27.27,0,0,1,.25.13.46.46,0,0,1,.07.29.56.56,0,0,1-.12.3.32.32,0,0,1-.27.13h-5.41Q128.16,206.44,128.19,206.12Z"/><path class="cls-1" d="M135.73,196.62a.36.36,0,0,1,.17-.26.57.57,0,0,1,.33-.11.27.27,0,0,1,.3.27l1.67,8.56,1.86-5.25q.09-.3.5-.3a.39.39,0,0,1,.43.35l.94,5.2,3.18-8.62a.37.37,0,0,1,.38-.21.63.63,0,0,1,.36.11.27.27,0,0,1,.15.25.34.34,0,0,1,0,.11l-3.56,9.45a.56.56,0,0,1-.58.36q-.45,0-.51-.31l-.91-5-1.76,4.92a.48.48,0,0,1-.52.36q-.41,0-.47-.34l-1.93-9.45A.34.34,0,0,1,135.73,196.62Z"/><path class="cls-1" d="M63.42,190,65,171.79q.06-.67.94-.67t1.29,1.23l6,14.27,1.29-14.87q.06-.64.94-.64t.83.64L74.71,190a.66.66,0,0,1-.31.51,1.13,1.13,0,0,1-.63.19q-.67,0-1.09-1l-6.2-14.52L65.19,190a.66.66,0,0,1-.31.51,1.13,1.13,0,0,1-.63.19,1,1,0,0,1-.61-.19A.55.55,0,0,1,63.42,190Z"/><path class="cls-1" d="M78.73,171.93a1,1,0,0,1,.22-.57.63.63,0,0,1,.52-.25H90.24a.53.53,0,0,1,.48.24.85.85,0,0,1,.13.55,1.09,1.09,0,0,1-.23.59.63.63,0,0,1-.52.25H85.61L84.11,190a.66.66,0,0,1-.31.51,1.13,1.13,0,0,1-.63.19,1,1,0,0,1-.61-.19.55.55,0,0,1-.21-.51l1.5-17.28H79.33a.53.53,0,0,1-.46-.24A.85.85,0,0,1,78.73,171.93Z"/><path class="cls-1" d="M91.7,190l1.59-18.25a.64.64,0,0,1,.28-.5,1,1,0,0,1,.58-.17h9.55q.67,0,.6.78a1.13,1.13,0,0,1-.23.6.62.62,0,0,1-.52.26H95l-.64,7.38h4.21a.54.54,0,0,1,.48.23.87.87,0,0,1,.12.58q-.06.72-.73.72H94.2l-.65,7.43h8.59a.53.53,0,0,1,.46.24.88.88,0,0,1,.14.59q-.07.81-.74.81H92.45a.83.83,0,0,1-.55-.19A.56.56,0,0,1,91.7,190Z"/><path class="cls-1" d="M105.33,190l1.59-18.25q.06-.67.94-.67t1.29,1.23l6,14.27,1.29-14.87q.06-.64.94-.64t.83.64L116.63,190a.66.66,0,0,1-.31.51,1.13,1.13,0,0,1-.63.19q-.67,0-1.09-1l-6.2-14.52L107.11,190a.66.66,0,0,1-.31.51,1.13,1.13,0,0,1-.63.19,1,1,0,0,1-.61-.19A.55.55,0,0,1,105.33,190Z"/><path class="cls-1" d="M120.71,190l1.59-18.25q.06-.67.94-.67t1.29,1.23l6,14.27,1.29-14.87q.06-.64.94-.64t.83.64L132,190a.66.66,0,0,1-.31.51,1.13,1.13,0,0,1-.63.19q-.67,0-1.09-1l-6.2-14.52L122.48,190a.66.66,0,0,1-.31.51,1.13,1.13,0,0,1-.63.19,1,1,0,0,1-.61-.19A.55.55,0,0,1,120.71,190Z"/><path class="cls-1" d="M136.09,190l1.59-18.25a.64.64,0,0,1,.28-.5,1,1,0,0,1,.58-.17h9.55q.67,0,.6.78a1.13,1.13,0,0,1-.23.6.62.62,0,0,1-.52.26h-8.59l-.64,7.38h4.21a.54.54,0,0,1,.48.23.87.87,0,0,1,.12.58q-.06.72-.73.72h-4.21l-.65,7.43h8.59a.53.53,0,0,1,.46.24.88.88,0,0,1,.14.59q-.07.81-.74.81h-9.55a.83.83,0,0,1-.55-.19A.56.56,0,0,1,136.09,190Z"/><path class="cls-1" d="M54.18,173l-5.71,17.4a.68.68,0,0,1-.74.45,1.16,1.16,0,0,1-.68-.21.57.57,0,0,1-.28-.54.49.49,0,0,1,0-.19l.48-1.42,5.42-16.8a1,1,0,0,1,1.1-.62m2.31.62"/><path class="cls-1" d="M53.8,171h3.82q.86,0,1,.62l2.49,16.79.23,1.42a.45.45,0,0,1,0,.19.7.7,0,0,1-.37.54,1.34,1.34,0,0,1-.72.22c-.4,0-.62-.15-.66-.45L57,173H54.18m1-1.31"/><path class="cls-1" d="M49.71,184.58H58.5a1.85,1.85,0,0,1,1,.23.6.6,0,0,1,.31.58q-.06.72-1.46.73H49.58"/><path class="cls-1" d="M59.64,156.33l-3.12,9.52a.37.37,0,0,1-.41.25.63.63,0,0,1-.37-.12.31.31,0,0,1-.15-.29.27.27,0,0,1,0-.1l.26-.78,3-9.19a.57.57,0,0,1,.6-.34m1.26.34"/><path class="cls-1" d="M59.44,155.27h2.09q.47,0,.54.34l1.36,9.19.13.78a.25.25,0,0,1,0,.1.38.38,0,0,1-.2.29.73.73,0,0,1-.39.12c-.22,0-.34-.08-.36-.25l-1.44-9.52H59.64m.56-.72"/><path class="cls-1" d="M57.2,162.68H62a1,1,0,0,1,.56.12.33.33,0,0,1,.17.32q0,.4-.8.4H57.13"/><path class="cls-1" d="M136.2,56.55a.81.81,0,0,1-.8-.6c-1.19-4.43-4.83-4.45-5-4.45a.84.84,0,0,1-.83-.89,1,1,0,0,1,1-.91c.2,0,5,0,6.57,5.65a1,1,0,0,1-.65,1.15A1,1,0,0,1,136.2,56.55Z"/><path class="cls-1" d="M57.33,144.89a.83.83,0,0,1-.52-.18.88.88,0,0,1-.07-1.26L127.43,59a.93.93,0,0,1,1.28-.18.88.88,0,0,1,.07,1.26L58.08,144.53A1,1,0,0,1,57.33,144.89Z"/><line class="cls-2" x1="77.2" y1="84.17" x2="100.46" y2="64.49"/><line class="cls-3" x1="107.85" y1="84.72" x2="86.74" y2="65.06"/><circle class="cls-4" cx="171.98" cy="24.56" r="17.83"/><line class="cls-5" x1="163.04" y1="15.62" x2="180.92" y2="33.5"/><line class="cls-5" x1="180.92" y1="15.62" x2="163.04" y2="33.5"/></svg>