<svg id="Layer_1" data-name="Layer 1" xmlns="http://www.w3.org/2000/svg" viewBox="0 0 201.08 242.23"><defs><style>.cls-1{fill:#1a4955;}.cls-2,.cls-3,.cls-5{fill:none;stroke-miterlimit:10;}.cls-2,.cls-3{stroke:#1a4955;}.cls-2{stroke-width:1.8px;}.cls-3{stroke-width:1.85px;}.cls-4{fill:#f4dd6f;}.cls-5{stroke:#fff;stroke-linecap:round;stroke-width:5.26px;}</style></defs><title>Artboard 1 copy</title><circle class="cls-1" cx="45.45" cy="63.57" r="1.35" transform="translate(-8.67 7.2) rotate(-8.27)"/><path class="cls-1" d="M133.06,158.81a.9.9,0,0,1-1-.58c-15-41.38-42.9-100.6-52.42-99.22-9.51,2.06-14.95,53.6-16.26,87.74a.9.9,0,0,1-1.8-.07c.34-8.83,3.73-86.4,17.74-89.44,12.11-1.76,41.42,64.51,54.43,100.37a.9.9,0,0,1-.54,1.15Z"/><path class="cls-1" d="M140.28,42.38a.9.9,0,0,1-.92-.47c-4.51-8.55-10.8-14.11-18.69-16.54a25.88,25.88,0,0,0-10.58-1.09h0a.9.9,0,0,1-.28-1.78c.23,0,19.79-3,31.16,18.57a.9.9,0,0,1-.67,1.31Z"/><path class="cls-1" d="M127.59,43.82a.9.9,0,0,1-.92-.47c-4.57-8.64-12.07-7.55-12.39-7.52h0a.9.9,0,0,1-.28-1.78c.1,0,9.08-1.37,14.27,8.45a.9.9,0,0,1-.67,1.31Z"/><path class="cls-1" d="M78.08,46.9A12,12,0,1,1,88.2,33.33,12,12,0,0,1,78.08,46.9ZM74.9,25a10.17,10.17,0,1,0,11.53,8.6A10.18,10.18,0,0,0,74.9,25Z"/><path class="cls-1" d="M133.06,158.81a.89.89,0,0,1-.79-.29L52.57,69.87a.94.94,0,0,1,0-1.3.88.88,0,0,1,1.27.06l79.7,88.65a.94.94,0,0,1,0,1.3A.88.88,0,0,1,133.06,158.81Z"/><path class="cls-1" d="M58.66,166.42,58,161.94a3,3,0,0,1,.51-2.45,3.68,3.68,0,0,1,4.36-.68,2.21,2.21,0,0,1,1.05,1.6.71.71,0,0,1,0,.48.49.49,0,0,1-.35.17q-.45.07-.53-.29a3,3,0,0,0-.12-.41,1.92,1.92,0,0,0-.24-.43,1.54,1.54,0,0,0-.4-.39,1.64,1.64,0,0,0-.63-.23,2.83,2.83,0,0,0-.89,0A1.91,1.91,0,0,0,59,161.8l.65,4.48a1.94,1.94,0,0,0,2.46,1.9,2.71,2.71,0,0,0,1-.31,1.19,1.19,0,0,0,.52-.57,2.48,2.48,0,0,0,.17-.58,3.86,3.86,0,0,0,0-.6c0-.25.13-.4.42-.44a.48.48,0,0,1,.39.07.75.75,0,0,1,.18.45A2.23,2.23,0,0,1,64.2,168a3.28,3.28,0,0,1-2.1,1,3.13,3.13,0,0,1-2.27-.44A3,3,0,0,1,58.66,166.42Z"/><path class="cls-1" d="M74.88,166.83,73.45,157q0-.32.31-.4l2.56-.37a3.64,3.64,0,0,1,2.36.34,2.62,2.62,0,0,1,1.18,2.06A2.54,2.54,0,0,1,78,161.73l2.85,4a.3.3,0,0,1,.08.18.45.45,0,0,1-.12.36.56.56,0,0,1-.35.21q-.26,0-.58-.43L77,162l-1.84.27.64,4.44a.32.32,0,0,1-.1.3.57.57,0,0,1-.32.15.56.56,0,0,1-.35-.05A.33.33,0,0,1,74.88,166.83Zm.19-5.4,2-.29q2.17-.31,1.87-2.35t-2.46-1.69l-2,.29Z"/><path class="cls-1" d="M65.48,214.06a1.07,1.07,0,0,1,.08-.74.84.84,0,0,1,.6-.29q.89-.13,1,.6a2.85,2.85,0,0,0,1.16,1.85,3.77,3.77,0,0,0,2.94.51q3.75-.55,3.19-4.46l-.07-.5A3.33,3.33,0,0,0,73,208.58a4,4,0,0,0-2.85-.46q-.68.1-.78-.63t.54-.85a3.56,3.56,0,0,0,2.34-1.1,3.43,3.43,0,0,0,.43-2.7,3.67,3.67,0,0,0-1.12-2.42,3.16,3.16,0,0,0-2.52-.47,3.37,3.37,0,0,0-2.46,1.22,2.85,2.85,0,0,0-.47,2,.74.74,0,0,1-.71,1,.94.94,0,0,1-.72-.11,1.17,1.17,0,0,1-.31-.75,3.82,3.82,0,0,1,0-1.32,5.23,5.23,0,0,1,.56-1.46,3.75,3.75,0,0,1,1.43-1.37,6.62,6.62,0,0,1,2.46-.81q4.77-.69,5.44,3.91a6.06,6.06,0,0,1-.18,2.89A3.51,3.51,0,0,1,72.81,207a4.16,4.16,0,0,1,3.27,3.84l.07.5a5.36,5.36,0,0,1-.89,4.39,5.79,5.79,0,0,1-3.76,1.9,5.64,5.64,0,0,1-4.18-.75A4.06,4.06,0,0,1,65.48,214.06Z"/><path class="cls-1" d="M78.78,210.83l-1.17-8.08a5.49,5.49,0,0,1,.86-4.42,6.31,6.31,0,0,1,7.74-1.12,5.48,5.48,0,0,1,2.09,4l1.17,8.08a5.52,5.52,0,0,1-.86,4.45,6.31,6.31,0,0,1-7.74,1.12A5.53,5.53,0,0,1,78.78,210.83Zm1.72-.25q.58,4,4.2,3.46t3-4.52l-1.17-8.08q-.58-4-4.2-3.44t-3,4.49Z"/><path class="cls-1" d="M92.65,208.81l-1.17-8.08a5.49,5.49,0,0,1,.86-4.42,6.31,6.31,0,0,1,7.74-1.12,5.48,5.48,0,0,1,2.09,4l1.17,8.08a5.52,5.52,0,0,1-.86,4.45,6.31,6.31,0,0,1-7.74,1.12A5.53,5.53,0,0,1,92.65,208.81Zm1.72-.25q.58,4,4.2,3.46t3-4.52l-1.17-8.08q-.58-4-4.2-3.44t-3,4.49Z"/><path class="cls-1" d="M106.52,206.8l-1.17-8.08a5.49,5.49,0,0,1,.86-4.42,6.31,6.31,0,0,1,7.74-1.12,5.48,5.48,0,0,1,2.09,4l1.17,8.08a5.52,5.52,0,0,1-.86,4.45,6.31,6.31,0,0,1-7.74,1.12A5.53,5.53,0,0,1,106.52,206.8Zm1.72-.25q.58,4,4.2,3.46t3-4.52l-1.17-8.08q-.58-4-4.2-3.44t-3,4.49Z"/><path class="cls-1" d="M138,189a.33.33,0,0,1,.13-.3.64.64,0,0,1,.34-.16q.3,0,.39.18l3.78,8.1,1.31-8.84a.34.34,0,0,1,.31-.28.69.69,0,0,1,.39.06.34.34,0,0,1,.22.25.09.09,0,0,1,0,0,.09.09,0,0,0,0,0l-1.5,9.77q0,.35-.5.41a.49.49,0,0,1-.58-.25L138,189.08A.24.24,0,0,1,138,189Z"/><path class="cls-1" d="M146.84,197.27a.72.72,0,0,1,0-.33l3.34-9.27-4.17.61a.3.3,0,0,1-.27-.09.52.52,0,0,1-.09-.59.3.3,0,0,1,.24-.16l5-.73q.34-.05.39.24a.74.74,0,0,1-.06.37l-3.33,9.26,4.51-.66a.3.3,0,0,1,.27.09.49.49,0,0,1,.13.28.52.52,0,0,1,0,.31.29.29,0,0,1-.24.17l-5.35.78A.29.29,0,0,1,146.84,197.27Z"/><path class="cls-1" d="M152.12,186.92a.32.32,0,0,1,.11-.28.53.53,0,0,1,.3-.16.3.3,0,0,1,.36.22l3.62,8.12.64-5.4q0-.3.42-.36a.43.43,0,0,1,.5.28l2.13,4.94,1.16-8.88q0-.22.33-.26a.68.68,0,0,1,.38.05.3.3,0,0,1,.2.22.32.32,0,0,1,0,.11l-1.35,9.74a.51.51,0,0,1-.49.44q-.45.07-.57-.23l-2-4.72-.61,5.06a.44.44,0,0,1-.43.43.45.45,0,0,1-.54-.26l-4.08-9A.35.35,0,0,1,152.12,186.92Z"/><path class="cls-1" d="M79,190.84l-2.62-18.06q-.1-.66.78-.79t1.56,1L88,186.1l-2.14-14.71q-.09-.64.78-.76t1,.51l2.63,18.09a.59.59,0,0,1-.19.54,1,1,0,0,1-.58.27q-.66.1-1.32-.84l-9.47-13.3,2.13,14.69a.59.59,0,0,1-.19.54,1.05,1.05,0,0,1-.58.27,1,1,0,0,1-.65-.1A.6.6,0,0,1,79,190.84Z"/><path class="cls-1" d="M90,171a1,1,0,0,1,.09-.59.57.57,0,0,1,.46-.32l10.65-1.55a.58.58,0,0,1,.53.16.91.91,0,0,1,.25.52,1,1,0,0,1-.09.61.57.57,0,0,1-.46.32l-4.43.64,2.48,17.1a.59.59,0,0,1-.19.54,1,1,0,0,1-.58.27,1,1,0,0,1-.65-.09.6.6,0,0,1-.33-.47L95.27,171l-4.46.65a.59.59,0,0,1-.51-.17A.91.91,0,0,1,90,171Z"/><path class="cls-1" d="M107,186.78l-2.62-18.06a.58.58,0,0,1,.17-.53.94.94,0,0,1,.53-.25l9.45-1.37q.66-.1.78.67a1,1,0,0,1-.09.62.56.56,0,0,1-.45.32l-8.5,1.23,1.06,7.3,4.17-.61a.59.59,0,0,1,.52.15.92.92,0,0,1,.26.55q.1.72-.56.81l-4.17.61,1.07,7.36,8.5-1.23a.59.59,0,0,1,.51.17.93.93,0,0,1,.27.56q.12.8-.55.89l-9.45,1.37a.89.89,0,0,1-.58-.1A.61.61,0,0,1,107,186.78Z"/><path class="cls-1" d="M120.52,184.82l-2.62-18.06q-.1-.66.78-.79t1.56,1l9.22,13.09-2.14-14.71q-.09-.64.78-.76t1,.51l2.63,18.09a.59.59,0,0,1-.19.54,1,1,0,0,1-.58.27q-.66.1-1.32-.84l-9.47-13.3,2.13,14.69a.59.59,0,0,1-.19.54,1.05,1.05,0,0,1-.58.27,1,1,0,0,1-.65-.1A.6.6,0,0,1,120.52,184.82Z"/><path class="cls-1" d="M135.74,182.61l-2.62-18.06q-.1-.66.78-.79t1.56,1l9.22,13.09-2.14-14.71q-.09-.64.78-.76t1,.51L146.92,181a.59.59,0,0,1-.19.54,1,1,0,0,1-.58.27q-.66.1-1.32-.84l-9.47-13.3,2.13,14.69a.59.59,0,0,1-.19.54,1.05,1.05,0,0,1-.58.27,1,1,0,0,1-.65-.1A.6.6,0,0,1,135.74,182.61Z"/><path class="cls-1" d="M151,180.39l-2.62-18.06a.58.58,0,0,1,.17-.53.94.94,0,0,1,.53-.25l9.45-1.37q.66-.1.78.67a1,1,0,0,1-.09.62.56.56,0,0,1-.45.32l-8.5,1.23,1.06,7.3,4.17-.61a.59.59,0,0,1,.52.15.92.92,0,0,1,.26.55q.1.72-.56.81l-4.17.61,1.07,7.36,8.5-1.23a.59.59,0,0,1,.51.17.93.93,0,0,1,.27.56q.12.8-.55.89L151.85,181a.89.89,0,0,1-.58-.1A.61.61,0,0,1,151,180.39Z"/><path class="cls-1" d="M66,175.49l-1.65,17.82c0,.31-.24.49-.63.55a1.24,1.24,0,0,1-.73-.11.63.63,0,0,1-.4-.48.46.46,0,0,1,0-.19l.14-1.46,1.5-17.19q.1-.64.95-.77m2.43.28"/><path class="cls-1" d="M65.15,173.66l3.78-.55q.85-.12,1.12.46l6.33,16.05.55,1.36a.46.46,0,0,1,.05.18.63.63,0,0,1-.24.58,1.24,1.24,0,0,1-.66.31c-.39.06-.65-.06-.76-.35l-6.6-16.63-2.75.41m.71-1.42"/><path class="cls-1" d="M64.22,187.47l8.7-1.26a2,2,0,0,1,1.06.08.67.67,0,0,1,.44.52q.1.72-1.28.92L64.44,189"/><path class="cls-1" d="M67.55,158.44l-.9,9.75c0,.17-.13.27-.35.3a.68.68,0,0,1-.4-.06.34.34,0,0,1-.22-.27.25.25,0,0,1,0-.1l.08-.8.82-9.4q.05-.35.52-.42m1.33.15"/><path class="cls-1" d="M67.1,157.44l2.07-.3q.46-.07.62.25l3.46,8.78.3.74a.25.25,0,0,1,0,.1.34.34,0,0,1-.13.32.68.68,0,0,1-.36.17c-.21,0-.35,0-.42-.19l-3.61-9.1-1.5.22m.39-.78"/><path class="cls-1" d="M66.59,165l4.76-.69a1.07,1.07,0,0,1,.58,0,.37.37,0,0,1,.24.28q.06.39-.7.5l-4.76.69"/><path class="cls-1" d="M120.38,50a.9.9,0,0,1-.92-.47c-2.2-4.16-5.8-3.66-5.92-3.64a.93.93,0,0,1-1-.75.9.9,0,0,1,.74-1c.2,0,5-.75,7.8,4.58a.9.9,0,0,1-.67,1.31Z"/><path class="cls-1" d="M62.63,147.6a.9.9,0,0,1-.92-1.32l50.54-92.67a.9.9,0,1,1,1.58.86L63.29,147.14A.9.9,0,0,1,62.63,147.6Z"/><line class="cls-2" x1="68.34" y1="85.42" x2="86.84" y2="62.86"/><line class="cls-3" x1="98.8" y1="81.57" x2="73.39" y2="65.38"/><circle class="cls-4" cx="171.98" cy="24.56" r="17.83"/><line class="cls-5" x1="163.04" y1="15.62" x2="180.92" y2="33.5"/><line class="cls-5" x1="180.92" y1="15.62" x2="163.04" y2="33.5"/></svg>