<?xml version="1.0" encoding="utf-8"?>
<!-- Generator: Adobe Illustrator 22.1.0, SVG Export Plug-In . SVG Version: 6.00 Build 0)  -->
<svg version="1.1" id="Layer_1" xmlns="http://www.w3.org/2000/svg" xmlns:xlink="http://www.w3.org/1999/xlink" x="0px" y="0px"
	 viewBox="0 0 201.1 242.2" style="enable-background:new 0 0 201.1 242.2;" xml:space="preserve">
<style type="text/css">
	.st0{fill:#1A4955;}
	.st1{fill:none;stroke:#1A4955;stroke-miterlimit:10;}
	.st2{fill:none;stroke:#000000;stroke-width:3;stroke-linecap:round;stroke-miterlimit:10;}
	.st3{fill:#E0D35B;stroke:#000000;stroke-width:3;stroke-linecap:round;stroke-miterlimit:10;}
	.st4{fill:none;stroke:#FFFFFF;stroke-width:12.9989;stroke-miterlimit:10;}
	.st5{fill:none;stroke:#1A4955;stroke-width:1.8;stroke-miterlimit:10;}
	.st6{fill:none;stroke:#1A4955;stroke-width:1.8524;stroke-miterlimit:10;}
	.st7{fill:#828281;}
	.st8{fill:#F4DD6F;}
	.st9{fill:none;stroke:#828281;stroke-width:2;stroke-miterlimit:10;}
	.st10{fill:none;stroke:#FFFFFF;stroke-width:5.2551;stroke-linecap:round;stroke-miterlimit:10;}
	.st11{fill:none;stroke:#1A4955;stroke-width:1.7;stroke-miterlimit:10;}
</style>
<rect x="312.6" y="110.5" transform="matrix(-1.836970e-16 1 -1 -1.836970e-16 554.8311 -288.2167)" class="st0" width="217.8" height="45.6"/>
<circle class="st1" cx="56.4" cy="-220.7" r="1.3"/>
<path class="st0" d="M73.2-156.7"/>
<path class="st0" d="M72.3-156.7"/>
<path class="st1" d="M129.4-113.8c-0.4,0-0.8-0.3-0.9-0.7c-8.9-43.1-28-105.7-37.6-105.7c-9.7,0.7-22.5,50.9-28.7,84.5
	c-0.1,0.5-0.6,0.8-1,0.7c-0.5-0.1-0.8-0.6-0.7-1c1.6-8.7,16.1-85,30.4-86c12.2,0,31.7,69.8,39.4,107.2c0.1,0.5-0.2,1-0.7,1.1
	C129.5-113.9,129.4-113.8,129.4-113.8z"/>
<path class="st1" d="M153.3-228c-0.4,0-0.7-0.2-0.8-0.6c-3.2-9.1-8.7-15.5-16.1-19.1c-5.6-2.6-10.3-2.6-10.3-2.6c0,0,0,0,0,0
	c-0.5,0-0.9-0.4-0.9-0.9c0-0.5,0.4-0.9,0.9-0.9c0.2,0,20-0.1,28.2,22.9c0.2,0.5-0.1,1-0.5,1.1C153.5-228,153.4-228,153.3-228z"/>
<path class="st1" d="M140.5-228.4c-0.4,0-0.7-0.2-0.8-0.6c-3.3-9.2-10.9-9.2-11.2-9.2c0,0,0,0,0,0c-0.5,0-0.9-0.4-0.9-0.9
	c0-0.5,0.4-0.9,0.9-0.9c0.1,0,9.2-0.1,12.9,10.4c0.2,0.5-0.1,1-0.5,1.1C140.7-228.4,140.6-228.4,140.5-228.4z"/>
<path class="st1" d="M91-232.5c-6.6,0-12-5.4-12-12c0-6.6,5.4-12,12-12c6.6,0,12,5.4,12,12C103-237.9,97.6-232.5,91-232.5z
	 M91-254.6c-5.6,0-10.2,4.6-10.2,10.2s4.6,10.2,10.2,10.2s10.2-4.6,10.2-10.2S96.7-254.6,91-254.6z"/>
<path class="st1" d="M129.4-113.8c-0.3,0-0.6-0.1-0.7-0.4l-66.1-99.2c-0.3-0.4-0.2-1,0.2-1.3c0.4-0.3,1-0.2,1.3,0.2l66.1,99.2
	c0.3,0.4,0.2,1-0.2,1.3C129.7-113.9,129.5-113.8,129.4-113.8z"/>
<path class="st0" d="M124.6-220.4"/>
<path class="st2" d="M61.3-136"/>
<path class="st0" d="M54.6-117v-4.5c0-1.1,0.3-1.8,0.9-2.4c0.6-0.5,1.3-0.8,2.2-0.8c0.9,0,1.7,0.2,2.2,0.7c0.5,0.5,0.8,1,0.8,1.7
	c0,0.2,0,0.4-0.1,0.5c-0.1,0.1-0.2,0.1-0.4,0.1c-0.3,0-0.5-0.1-0.5-0.4c0-0.1,0-0.3-0.1-0.4c0-0.1-0.1-0.3-0.2-0.5s-0.2-0.3-0.3-0.4
	c-0.1-0.1-0.3-0.2-0.6-0.3c-0.3-0.1-0.5-0.1-0.9-0.1c-1.4,0-2.1,0.7-2.1,2.2v4.5c0,1.5,0.7,2.2,2.2,2.2c0.4,0,0.7-0.1,1-0.2
	c0.3-0.1,0.5-0.3,0.6-0.5c0.1-0.2,0.2-0.4,0.3-0.5s0.1-0.3,0.1-0.6c0-0.3,0.2-0.4,0.5-0.4c0.2,0,0.3,0,0.4,0.1
	c0.1,0.1,0.1,0.2,0.1,0.5c0,0.7-0.3,1.3-0.8,1.8c-0.6,0.5-1.3,0.7-2.2,0.7c-0.9,0-1.6-0.3-2.2-0.8C54.9-115.2,54.6-115.9,54.6-117z"
	/>
<path class="st0" d="M70.6-114.3v-9.9c0-0.2,0.1-0.3,0.4-0.4h2.6c0.9,0,1.7,0.2,2.3,0.7c0.6,0.4,0.9,1.2,0.9,2.2
	c0,1.6-0.8,2.6-2.3,2.8l2.2,4.3c0,0,0.1,0.1,0.1,0.2c0,0.1-0.1,0.2-0.2,0.3c-0.1,0.1-0.2,0.2-0.4,0.2c-0.2,0-0.3-0.2-0.5-0.5
	l-2.2-4.4h-1.9v4.5c0,0.1,0,0.2-0.1,0.3c-0.1,0.1-0.2,0.1-0.3,0.1c-0.1,0-0.2,0-0.3-0.1C70.7-114.1,70.6-114.2,70.6-114.3z
	 M71.6-119.6h2c1.5,0,2.2-0.7,2.2-2.1c0-1.4-0.7-2-2.2-2h-2V-119.6z"/>
<g>
	<g>
		<path class="st1" d="M54.5-68.9c0-0.4,0.1-0.6,0.2-0.7c0.1-0.1,0.3-0.2,0.6-0.2c0.6,0,0.9,0.2,0.9,0.7c0,0.7,0.3,1.4,0.9,2
			c0.6,0.6,1.5,0.9,2.8,0.9c2.5,0,3.8-1.3,3.8-4v-0.5c0-1.2-0.3-2.1-1-2.6c-0.7-0.6-1.6-0.9-2.8-0.9c-0.5,0-0.7-0.2-0.7-0.7
			c0-0.5,0.2-0.8,0.7-0.8c1.1,0,1.9-0.2,2.5-0.7c0.5-0.5,0.8-1.4,0.8-2.6c0-1.2-0.3-2-0.8-2.6c-0.5-0.6-1.3-0.8-2.4-0.8
			c-1.2,0-2.1,0.3-2.6,0.9c-0.5,0.6-0.8,1.2-0.8,2c0,0.6-0.3,0.8-0.8,0.8c-0.3,0-0.6-0.1-0.7-0.2C55.1-79,55-79.3,55-79.7
			c0-0.4,0.1-0.9,0.2-1.3c0.2-0.4,0.4-0.9,0.8-1.4c0.4-0.5,0.9-0.9,1.6-1.2c0.7-0.3,1.6-0.4,2.6-0.4c3.2,0,4.8,1.6,4.8,4.7
			c0,1.1-0.2,2.1-0.6,2.8c-0.4,0.8-0.9,1.3-1.6,1.6c1.8,0.7,2.7,2.1,2.7,4.3v0.5c0,1.9-0.5,3.3-1.5,4.2c-1,0.9-2.3,1.3-4,1.3
			c-1.7,0-3.1-0.4-4-1.3C55-66.8,54.5-67.8,54.5-68.9z"/>
		<path class="st1" d="M68.2-70.2v-8.2c0-1.9,0.5-3.4,1.5-4.3c1-0.9,2.3-1.4,3.9-1.4c1.6,0,2.9,0.5,3.9,1.4c1,0.9,1.5,2.3,1.5,4.3
			v8.2c0,1.9-0.5,3.4-1.5,4.3c-1,0.9-2.3,1.4-3.9,1.4c-1.6,0-2.9-0.5-3.9-1.4C68.7-66.8,68.2-68.2,68.2-70.2z M69.9-70.2
			c0,2.7,1.2,4,3.7,4c2.4,0,3.7-1.3,3.7-4v-8.2c0-2.7-1.2-4-3.7-4c-2.4,0-3.7,1.3-3.7,4V-70.2z"/>
		<path class="st1" d="M82.2-70.2v-8.2c0-1.9,0.5-3.4,1.5-4.3c1-0.9,2.3-1.4,3.9-1.4c1.6,0,2.9,0.5,3.9,1.4c1,0.9,1.5,2.3,1.5,4.3
			v8.2c0,1.9-0.5,3.4-1.5,4.3c-1,0.9-2.3,1.4-3.9,1.4c-1.6,0-2.9-0.5-3.9-1.4C82.7-66.8,82.2-68.2,82.2-70.2z M83.9-70.2
			c0,2.7,1.2,4,3.7,4c2.4,0,3.7-1.3,3.7-4v-8.2c0-2.7-1.2-4-3.7-4c-2.4,0-3.7,1.3-3.7,4V-70.2z"/>
		<path class="st1" d="M96.2-70.2v-8.2c0-1.9,0.5-3.4,1.5-4.3c1-0.9,2.3-1.4,3.9-1.4c1.6,0,2.9,0.5,3.9,1.4c1,0.9,1.5,2.3,1.5,4.3
			v8.2c0,1.9-0.5,3.4-1.5,4.3c-1,0.9-2.3,1.4-3.9,1.4c-1.6,0-2.9-0.5-3.9-1.4C96.7-66.8,96.2-68.2,96.2-70.2z M97.9-70.2
			c0,2.7,1.2,4,3.7,4c2.4,0,3.7-1.3,3.7-4v-8.2c0-2.7-1.2-4-3.7-4c-2.4,0-3.7,1.3-3.7,4V-70.2z"/>
	</g>
</g>
<g>
	<g>
		<path class="st0" d="M129.9-83.3c0-0.1,0.1-0.2,0.2-0.3c0.1-0.1,0.2-0.1,0.4-0.1c0.2,0,0.3,0.1,0.4,0.2l2.6,8.6l2.6-8.6
			c0.1-0.2,0.2-0.2,0.3-0.2c0.1,0,0.3,0,0.4,0.1c0.1,0.1,0.2,0.2,0.2,0.3c0,0,0,0,0,0c0,0,0,0,0,0l-2.9,9.5
			c-0.1,0.2-0.3,0.3-0.6,0.3c-0.3,0-0.5-0.1-0.5-0.3L129.9-83.3C129.9-83.2,129.9-83.2,129.9-83.3z"/>
		<path class="st0" d="M137.5-73.8c0-0.1,0-0.2,0.1-0.3l4.6-8.7H138c-0.1,0-0.2,0-0.3-0.1c-0.1-0.1-0.1-0.2-0.1-0.3
			c0-0.1,0-0.2,0.1-0.3c0.1-0.1,0.1-0.1,0.3-0.1h5.1c0.2,0,0.3,0.1,0.3,0.3c0,0.1,0,0.2-0.1,0.4l-4.6,8.7h4.6c0.1,0,0.2,0,0.3,0.1
			c0.1,0.1,0.1,0.2,0.1,0.3c0,0.1,0,0.2-0.1,0.3c-0.1,0.1-0.1,0.1-0.3,0.1h-5.4C137.6-73.5,137.5-73.6,137.5-73.8z"/>
		<path class="st0" d="M144.2-83.3c0-0.1,0-0.2,0.1-0.3c0.1-0.1,0.2-0.1,0.3-0.1c0.2,0,0.3,0.1,0.3,0.3l2.4,8.6l1.4-5.3
			c0-0.2,0.2-0.3,0.5-0.3c0.2,0,0.4,0.1,0.5,0.4l1.4,5.2l2.4-8.6c0-0.1,0.2-0.2,0.4-0.2c0.1,0,0.3,0,0.4,0.1
			c0.1,0.1,0.2,0.2,0.2,0.2c0,0,0,0.1,0,0.1l-2.7,9.4c-0.1,0.2-0.3,0.4-0.5,0.4c-0.3,0-0.5-0.1-0.5-0.3l-1.3-5l-1.3,4.9
			c-0.1,0.2-0.2,0.4-0.5,0.4c-0.3,0-0.4-0.1-0.5-0.3l-2.7-9.4C144.2-83.2,144.2-83.2,144.2-83.3z"/>
	</g>
</g>
<g>
	<g>
		<path class="st1" d="M71.3-89.9v-18.2c0-0.4,0.3-0.7,0.9-0.7c0.5,0,1,0.4,1.4,1.2l7.2,14.3v-14.9c0-0.4,0.3-0.6,0.9-0.6
			c0.6,0,0.9,0.2,0.9,0.6v18.3c0,0.2-0.1,0.4-0.3,0.5c-0.2,0.1-0.4,0.2-0.6,0.2c-0.4,0-0.8-0.3-1.2-1l-7.5-14.5v14.8
			c0,0.2-0.1,0.4-0.3,0.5c-0.2,0.1-0.4,0.2-0.6,0.2c-0.3,0-0.5-0.1-0.6-0.2C71.4-89.5,71.3-89.7,71.3-89.9z"/>
		<path class="st1" d="M85-108c0-0.2,0.1-0.4,0.2-0.6c0.1-0.2,0.3-0.3,0.5-0.3h10.8c0.2,0,0.4,0.1,0.5,0.2c0.1,0.2,0.2,0.3,0.2,0.6
			c0,0.2-0.1,0.4-0.2,0.6c-0.1,0.2-0.3,0.3-0.5,0.3H92v17.3c0,0.2-0.1,0.4-0.3,0.5c-0.2,0.1-0.4,0.2-0.6,0.2c-0.3,0-0.5-0.1-0.6-0.2
			c-0.2-0.1-0.3-0.3-0.3-0.5v-17.3h-4.5c-0.2,0-0.4-0.1-0.5-0.2C85.1-107.6,85-107.8,85-108z"/>
		<path class="st1" d="M99.6-89.9v-18.2c0-0.2,0.1-0.4,0.2-0.5c0.2-0.1,0.3-0.2,0.6-0.2h9.6c0.4,0,0.7,0.3,0.7,0.8
			c0,0.2-0.1,0.4-0.2,0.6c-0.1,0.2-0.3,0.3-0.5,0.3h-8.6v7.4h4.2c0.2,0,0.4,0.1,0.5,0.2c0.1,0.2,0.2,0.3,0.2,0.6
			c0,0.5-0.2,0.7-0.7,0.7h-4.2v7.4h8.6c0.2,0,0.4,0.1,0.5,0.2c0.1,0.2,0.2,0.4,0.2,0.6c0,0.5-0.2,0.8-0.7,0.8h-9.6
			c-0.2,0-0.4-0.1-0.6-0.2C99.7-89.5,99.6-89.7,99.6-89.9z"/>
		<path class="st1" d="M113.2-89.9v-18.2c0-0.4,0.3-0.7,0.9-0.7c0.5,0,1,0.4,1.4,1.2l7.2,14.3v-14.9c0-0.4,0.3-0.6,0.9-0.6
			c0.6,0,0.9,0.2,0.9,0.6v18.3c0,0.2-0.1,0.4-0.3,0.5c-0.2,0.1-0.4,0.2-0.6,0.2c-0.4,0-0.8-0.3-1.2-1l-7.5-14.5v14.8
			c0,0.2-0.1,0.4-0.3,0.5c-0.2,0.1-0.4,0.2-0.6,0.2c-0.3,0-0.5-0.1-0.6-0.2C113.3-89.5,113.2-89.7,113.2-89.9z"/>
		<path class="st1" d="M128.6-89.9v-18.2c0-0.4,0.3-0.7,0.9-0.7c0.5,0,1,0.4,1.4,1.2l7.2,14.3v-14.9c0-0.4,0.3-0.6,0.9-0.6
			c0.6,0,0.9,0.2,0.9,0.6v18.3c0,0.2-0.1,0.4-0.3,0.5c-0.2,0.1-0.4,0.2-0.6,0.2c-0.4,0-0.8-0.3-1.2-1l-7.5-14.5v14.8
			c0,0.2-0.1,0.4-0.3,0.5c-0.2,0.1-0.4,0.2-0.6,0.2c-0.3,0-0.5-0.1-0.6-0.2C128.7-89.5,128.6-89.7,128.6-89.9z"/>
		<path class="st1" d="M144-89.9v-18.2c0-0.2,0.1-0.4,0.2-0.5c0.2-0.1,0.3-0.2,0.6-0.2h9.6c0.4,0,0.7,0.3,0.7,0.8
			c0,0.2-0.1,0.4-0.2,0.6c-0.1,0.2-0.3,0.3-0.5,0.3h-8.6v7.4h4.2c0.2,0,0.4,0.1,0.5,0.2c0.1,0.2,0.2,0.3,0.2,0.6
			c0,0.5-0.2,0.7-0.7,0.7h-4.2v7.4h8.6c0.2,0,0.4,0.1,0.5,0.2c0.1,0.2,0.2,0.4,0.2,0.6c0,0.5-0.2,0.8-0.7,0.8h-9.6
			c-0.2,0-0.4-0.1-0.6-0.2C144-89.5,144-89.7,144-89.9z"/>
		<g>
			<path class="st1" d="M60.6-107l-4.2,17.4c-0.1,0.3-0.3,0.5-0.7,0.5c-0.3,0-0.5-0.1-0.7-0.2c-0.2-0.1-0.3-0.3-0.3-0.5
				c0-0.1,0-0.2,0-0.2l0.4-1.4l4-16.8c0.1-0.4,0.5-0.6,1-0.6 M62.4-108.3"/>
			<path class="st1" d="M60-108.9h3.8c0.6,0,0.9,0.2,1,0.6l4,16.8l0.4,1.4c0,0,0,0.1,0,0.2c0,0.2-0.1,0.4-0.3,0.5
				c-0.2,0.1-0.5,0.2-0.7,0.2c-0.4,0-0.6-0.2-0.7-0.5L63.4-107l-2.8,0 M61.5-108.3"/>
			<line class="st1" x1="66.5" y1="-93.9" x2="57.1" y2="-93.9"/>
			<line class="st1" x1="57.8" y1="-95.4" x2="65.9" y2="-95.4"/>
		</g>
	</g>
</g>
<g>
	<g>
		<path class="st0" d="M64.6-123.6l-2.3,9.5c0,0.2-0.2,0.2-0.4,0.2c-0.1,0-0.3,0-0.4-0.1c-0.1-0.1-0.2-0.2-0.2-0.3c0,0,0-0.1,0-0.1
			l0.2-0.8l2.2-9.2c0.1-0.2,0.3-0.3,0.6-0.3 M65.6-124.3"/>
		<path class="st0" d="M64.3-124.7h2.1c0.3,0,0.5,0.1,0.6,0.3l2.2,9.2l0.2,0.8c0,0,0,0.1,0,0.1c0,0.1-0.1,0.2-0.2,0.3
			c-0.1,0.1-0.2,0.1-0.4,0.1c-0.2,0-0.3-0.1-0.4-0.2l-2.3-9.5l-1.5,0 M65.1-124.3"/>
		<path class="st0" d="M62.7-117.3h4.8c0.2,0,0.4,0,0.6,0.1c0.1,0.1,0.2,0.2,0.2,0.3c0,0.3-0.3,0.4-0.8,0.4h-4.8"/>
	</g>
</g>
<path class="st1" d="M132.5-223.4c-0.4,0-0.7-0.2-0.8-0.6c-1.6-4.4-5.2-4.5-5.3-4.5c-0.5,0-0.9-0.4-0.9-0.9c0-0.5,0.4-0.9,0.9-0.9
	c0.2,0,5,0,7.1,5.6c0.2,0.5-0.1,1-0.5,1.1C132.7-223.4,132.6-223.4,132.5-223.4z"/>
<path class="st3" d="M61.3-136"/>
<path class="st0" d="M124.6-220.4"/>
<path class="st1" d="M61.3-135.1c-0.2,0-0.4-0.1-0.5-0.2c-0.4-0.3-0.5-0.9-0.2-1.3l63.3-84.4c0.3-0.4,0.9-0.5,1.3-0.2
	c0.4,0.3,0.5,0.9,0.2,1.3L62-135.4C61.8-135.2,61.6-135.1,61.3-135.1z"/>
<rect x="72" y="-206.5" transform="matrix(0.7384 -0.6744 0.6744 0.7384 161.3245 4.6369)" class="st1" width="29.2" height="1.8"/>
<rect x="94.2" y="-220.1" transform="matrix(0.6528 -0.7575 0.7575 0.6528 188.3569 0.8934)" class="st1" width="1.9" height="30.1"/>
<g>
	<line class="st4" x1="-127.5" y1="-249.3" x2="-75.9" y2="-300.9"/>
	<line class="st4" x1="-75.9" y1="-249.3" x2="-127.5" y2="-300.9"/>
</g>
<g>
	<circle class="st0" cx="288.7" cy="-211.5" r="1.3"/>
	<g>
		<path class="st0" d="M314.6-150.6"/>
		<path class="st0" d="M313.7-150.5"/>
		<path class="st0" d="M376.3-116.3c-0.4,0.1-0.8-0.2-1-0.6c-15-41.4-42.9-100.6-52.4-99.2c-9.5,2.1-14.9,53.6-16.3,87.7
			c0,0.5-0.4,0.9-0.9,0.9c-0.5,0-0.9-0.4-0.9-0.9c0.3-8.8,3.7-86.4,17.7-89.4c12.1-1.8,41.4,64.5,54.4,100.4c0.2,0.5-0.1,1-0.5,1.2
			C376.4-116.3,376.4-116.3,376.3-116.3z"/>
		<path class="st0" d="M383.5-232.7c-0.4,0.1-0.7-0.1-0.9-0.5c-4.5-8.5-10.8-14.1-18.7-16.5c-5.9-1.8-10.5-1.1-10.6-1.1c0,0,0,0,0,0
			c-0.5,0.1-0.9-0.3-1-0.7c-0.1-0.5,0.3-1,0.7-1c0.2,0,19.8-3,31.2,18.6c0.2,0.4,0.1,1-0.4,1.2C383.7-232.8,383.6-232.7,383.5-232.7
			z"/>
		<path class="st0" d="M370.8-231.3c-0.4,0.1-0.7-0.1-0.9-0.5c-4.6-8.6-12.1-7.6-12.4-7.5c0,0,0,0,0,0c-0.5,0.1-0.9-0.3-1-0.7
			c-0.1-0.5,0.3-1,0.7-1c0.1,0,9.1-1.4,14.3,8.5c0.2,0.4,0.1,1-0.4,1.2C371-231.3,370.9-231.3,370.8-231.3z"/>
		<path class="st0" d="M321.3-228.2c-6.5,0.9-12.6-3.6-13.6-10.1c-0.9-6.5,3.6-12.6,10.1-13.6c6.5-0.9,12.6,3.6,13.6,10.1
			C332.4-235.2,327.9-229.1,321.3-228.2z M318.2-250.1c-5.6,0.8-9.4,6-8.6,11.5s6,9.4,11.5,8.6c5.6-0.8,9.4-6,8.6-11.5
			C328.9-247.1,323.7-250.9,318.2-250.1z"/>
		<path class="st0" d="M376.3-116.3c-0.3,0-0.6-0.1-0.8-0.3l-79.7-88.6c-0.3-0.4-0.3-1,0-1.3c0.4-0.3,0.9-0.3,1.3,0.1l79.7,88.6
			c0.3,0.4,0.3,1,0,1.3C376.7-116.4,376.5-116.3,376.3-116.3z"/>
		<path class="st0" d="M356.3-221.1"/>
		<path class="st2" d="M305.8-128.4"/>
		<path class="st0" d="M301.9-108.7l-0.7-4.5c-0.2-1,0-1.9,0.5-2.4c0.5-0.6,1.2-0.9,2.1-1.1c0.9-0.1,1.7,0,2.3,0.4
			c0.6,0.4,1,0.9,1.1,1.6c0,0.2,0,0.4,0,0.5c-0.1,0.1-0.2,0.1-0.4,0.2c-0.3,0-0.5-0.1-0.5-0.3c0-0.1-0.1-0.3-0.1-0.4
			c0-0.1-0.1-0.3-0.2-0.4s-0.2-0.3-0.4-0.4c-0.2-0.1-0.4-0.2-0.6-0.2c-0.3,0-0.6,0-0.9,0c-1.4,0.2-2,1-1.8,2.5l0.7,4.5
			c0.2,1.5,1,2.1,2.5,1.9c0.4-0.1,0.7-0.2,1-0.3c0.3-0.1,0.4-0.3,0.5-0.6c0.1-0.2,0.2-0.4,0.2-0.6s0-0.4,0-0.6
			c0-0.3,0.1-0.4,0.4-0.4c0.2,0,0.3,0,0.4,0.1c0.1,0.1,0.1,0.2,0.2,0.5c0.1,0.7-0.1,1.3-0.6,1.9c-0.5,0.6-1.2,0.9-2.1,1
			c-0.9,0.1-1.6,0-2.3-0.4C302.5-106.9,302.1-107.6,301.9-108.7z"/>
		<path class="st0" d="M318.1-108.3l-1.4-9.8c0-0.2,0.1-0.3,0.3-0.4l2.6-0.4c0.9-0.1,1.7,0,2.4,0.3c0.6,0.4,1,1,1.2,2.1
			c0.2,1.6-0.4,2.6-1.8,3.1l2.8,4c0,0,0.1,0.1,0.1,0.2c0,0.1,0,0.2-0.1,0.4c-0.1,0.1-0.2,0.2-0.4,0.2c-0.2,0-0.4-0.1-0.6-0.4l-2.9-4
			l-1.8,0.3l0.6,4.4c0,0.1,0,0.2-0.1,0.3c-0.1,0.1-0.2,0.1-0.3,0.1c-0.1,0-0.3,0-0.4-0.1C318.2-108.1,318.2-108.1,318.1-108.3z
			 M318.3-113.7l2-0.3c1.4-0.2,2.1-1,1.9-2.4c-0.2-1.3-1-1.9-2.5-1.7l-2,0.3L318.3-113.7z"/>
		<g>
			<g>
				<path class="st0" d="M308.7-61c-0.1-0.3,0-0.6,0.1-0.7c0.1-0.1,0.3-0.2,0.6-0.3c0.6-0.1,0.9,0.1,1,0.6c0.1,0.7,0.5,1.3,1.2,1.9
					c0.7,0.5,1.6,0.7,2.9,0.5c2.5-0.4,3.6-1.8,3.2-4.5l-0.1-0.5c-0.2-1.2-0.6-2-1.4-2.5c-0.7-0.5-1.7-0.6-2.8-0.5
					c-0.5,0.1-0.7-0.1-0.8-0.6c-0.1-0.5,0.1-0.8,0.5-0.9c1.1-0.2,1.9-0.5,2.3-1.1c0.5-0.6,0.6-1.5,0.4-2.7c-0.2-1.1-0.5-1.9-1.1-2.4
					c-0.6-0.5-1.4-0.6-2.5-0.5c-1.2,0.2-2,0.6-2.5,1.2c-0.4,0.6-0.6,1.3-0.5,2c0.1,0.6-0.2,0.9-0.7,1c-0.3,0-0.6,0-0.7-0.1
					c-0.2-0.1-0.3-0.4-0.3-0.8c-0.1-0.4,0-0.9,0-1.3c0.1-0.5,0.3-0.9,0.6-1.5c0.3-0.5,0.8-1,1.4-1.4c0.7-0.4,1.5-0.7,2.5-0.8
					c3.2-0.5,5,0.8,5.4,3.9c0.2,1.1,0.1,2.1-0.2,2.9c-0.3,0.8-0.7,1.4-1.3,1.8c1.9,0.5,3,1.7,3.3,3.8l0.1,0.5c0.3,1.9,0,3.4-0.9,4.4
					c-0.9,1-2.1,1.7-3.8,1.9c-1.7,0.2-3.1,0-4.2-0.8C309.5-59,308.9-59.9,308.7-61z"/>
				<path class="st0" d="M322-64.3l-1.2-8.1c-0.3-1.9,0-3.4,0.9-4.4c0.9-1,2.1-1.7,3.7-1.9c1.6-0.2,3,0,4.1,0.8
					c1.1,0.8,1.8,2.1,2.1,4l1.2,8.1c0.3,1.9,0,3.4-0.9,4.5c-0.9,1-2.1,1.7-3.7,1.9c-1.6,0.2-2.9,0-4.1-0.8
					C323-61,322.3-62.3,322-64.3z M323.8-64.5c0.4,2.7,1.8,3.8,4.2,3.5c2.4-0.4,3.4-1.9,3-4.5l-1.2-8.1c-0.4-2.6-1.8-3.8-4.2-3.4
					c-2.4,0.4-3.4,1.8-3,4.5L323.8-64.5z"/>
				<path class="st0" d="M335.9-66.3l-1.2-8.1c-0.3-1.9,0-3.4,0.9-4.4c0.9-1,2.1-1.7,3.7-1.9c1.6-0.2,3,0,4.1,0.8
					c1.1,0.8,1.8,2.1,2.1,4l1.2,8.1c0.3,1.9,0,3.4-0.9,4.5c-0.9,1-2.1,1.7-3.7,1.9c-1.6,0.2-2.9,0-4.1-0.8
					C336.9-63,336.2-64.4,335.9-66.3z M337.6-66.5c0.4,2.7,1.8,3.8,4.2,3.5c2.4-0.4,3.4-1.9,3-4.5l-1.2-8.1
					c-0.4-2.6-1.8-3.8-4.2-3.4c-2.4,0.4-3.4,1.8-3,4.5L337.6-66.5z"/>
				<path class="st0" d="M349.8-68.3l-1.2-8.1c-0.3-1.9,0-3.4,0.9-4.4c0.9-1,2.1-1.7,3.7-1.9c1.6-0.2,3,0,4.1,0.8
					c1.1,0.8,1.8,2.1,2.1,4l1.2,8.1c0.3,1.9,0,3.4-0.9,4.5c-0.9,1-2.1,1.7-3.7,1.9c-1.6,0.2-2.9,0-4.1-0.8
					C350.7-65,350.1-66.4,349.8-68.3z M351.5-68.5c0.4,2.7,1.8,3.8,4.2,3.5c2.4-0.4,3.4-1.9,3-4.5l-1.2-8.1
					c-0.4-2.6-1.8-3.8-4.2-3.4c-2.4,0.4-3.4,1.8-3,4.5L351.5-68.5z"/>
			</g>
		</g>
		<g>
			<g>
				<path class="st0" d="M381.3-86.1c0-0.1,0-0.2,0.1-0.3c0.1-0.1,0.2-0.1,0.3-0.2c0.2,0,0.3,0,0.4,0.2l3.8,8.1l1.3-8.8
					c0-0.2,0.1-0.3,0.3-0.3c0.1,0,0.3,0,0.4,0.1c0.1,0.1,0.2,0.1,0.2,0.3c0,0,0,0,0,0c0,0,0,0,0,0l-1.5,9.8c0,0.2-0.2,0.4-0.5,0.4
					c-0.3,0-0.5,0-0.6-0.3L381.3-86.1C381.3-86,381.3-86.1,381.3-86.1z"/>
				<path class="st0" d="M390.1-77.8c0-0.1,0-0.2,0-0.3l3.3-9.3l-4.2,0.6c-0.1,0-0.2,0-0.3-0.1c-0.1-0.1-0.1-0.2-0.1-0.3
					c0-0.1,0-0.2,0-0.3c0-0.1,0.1-0.1,0.2-0.2l5-0.7c0.2,0,0.4,0,0.4,0.2c0,0.1,0,0.2-0.1,0.4l-3.3,9.3l4.5-0.7c0.1,0,0.2,0,0.3,0.1
					c0.1,0.1,0.1,0.2,0.1,0.3c0,0.1,0,0.2,0,0.3c0,0.1-0.1,0.2-0.2,0.2l-5.4,0.8C390.2-77.5,390.1-77.6,390.1-77.8z"/>
				<path class="st0" d="M395.4-88.2c0-0.1,0-0.2,0.1-0.3c0.1-0.1,0.2-0.1,0.3-0.2c0.2,0,0.3,0,0.4,0.2l3.6,8.1l0.6-5.4
					c0-0.2,0.2-0.3,0.4-0.4c0.2,0,0.4,0.1,0.5,0.3l2.1,4.9l1.2-8.9c0-0.1,0.1-0.2,0.3-0.3c0.1,0,0.3,0,0.4,0.1
					c0.1,0.1,0.2,0.1,0.2,0.2c0,0,0,0.1,0,0.1l-1.3,9.7c0,0.2-0.2,0.4-0.5,0.4c-0.3,0-0.5,0-0.6-0.2l-2-4.7l-0.6,5.1
					c0,0.2-0.2,0.4-0.4,0.4c-0.3,0-0.5,0-0.5-0.3l-4.1-9C395.4-88.1,395.4-88.1,395.4-88.2z"/>
			</g>
		</g>
		<g>
			<g>
				<path class="st0" d="M322.3-84.3l-2.6-18.1c-0.1-0.4,0.2-0.7,0.8-0.8c0.5-0.1,1,0.3,1.6,1l9.2,13.1l-2.1-14.7
					c-0.1-0.4,0.2-0.7,0.8-0.8c0.6-0.1,0.9,0.1,1,0.5l2.6,18.1c0,0.2,0,0.4-0.2,0.5s-0.4,0.2-0.6,0.3c-0.4,0.1-0.9-0.2-1.3-0.8
					l-9.5-13.3l2.1,14.7c0,0.2,0,0.4-0.2,0.5c-0.2,0.1-0.4,0.2-0.6,0.3c-0.2,0-0.5,0-0.7-0.1C322.4-83.9,322.3-84,322.3-84.3z"/>
				<path class="st0" d="M333.3-104.1c0-0.2,0-0.4,0.1-0.6c0.1-0.2,0.2-0.3,0.5-0.3l10.6-1.5c0.2,0,0.4,0,0.5,0.2
					c0.1,0.1,0.2,0.3,0.3,0.5c0,0.2,0,0.4-0.1,0.6c-0.1,0.2-0.2,0.3-0.5,0.3l-4.4,0.6l2.5,17.1c0,0.2,0,0.4-0.2,0.5
					c-0.2,0.1-0.4,0.2-0.6,0.3c-0.2,0-0.5,0-0.7-0.1c-0.2-0.1-0.3-0.3-0.3-0.5l-2.5-17.1l-4.5,0.6c-0.2,0-0.4,0-0.5-0.2
					C333.4-103.7,333.3-103.9,333.3-104.1z"/>
				<path class="st0" d="M350.3-88.3l-2.6-18.1c0-0.2,0-0.4,0.2-0.5c0.1-0.1,0.3-0.2,0.5-0.3l9.5-1.4c0.4-0.1,0.7,0.2,0.8,0.7
					c0,0.2,0,0.4-0.1,0.6c-0.1,0.2-0.2,0.3-0.5,0.3l-8.5,1.2l1.1,7.3l4.2-0.6c0.2,0,0.4,0,0.5,0.2c0.1,0.1,0.2,0.3,0.3,0.5
					c0.1,0.5-0.1,0.7-0.6,0.8l-4.2,0.6l1.1,7.4l8.5-1.2c0.2,0,0.4,0,0.5,0.2c0.1,0.1,0.2,0.3,0.3,0.6c0.1,0.5-0.1,0.8-0.5,0.9
					l-9.5,1.4c-0.2,0-0.4,0-0.6-0.1C350.4-88,350.3-88.1,350.3-88.3z"/>
				<path class="st0" d="M363.8-90.3l-2.6-18.1c-0.1-0.4,0.2-0.7,0.8-0.8c0.5-0.1,1,0.3,1.6,1l9.2,13.1l-2.1-14.7
					c-0.1-0.4,0.2-0.7,0.8-0.8c0.6-0.1,0.9,0.1,1,0.5l2.6,18.1c0,0.2,0,0.4-0.2,0.5c-0.2,0.1-0.4,0.2-0.6,0.3
					c-0.4,0.1-0.9-0.2-1.3-0.8l-9.5-13.3l2.1,14.7c0,0.2,0,0.4-0.2,0.5c-0.2,0.1-0.4,0.2-0.6,0.3c-0.2,0-0.5,0-0.7-0.1
					C363.9-89.9,363.8-90.1,363.8-90.3z"/>
				<path class="st0" d="M379-92.5l-2.6-18.1c-0.1-0.4,0.2-0.7,0.8-0.8c0.5-0.1,1,0.3,1.6,1l9.2,13.1l-2.1-14.7
					c-0.1-0.4,0.2-0.7,0.8-0.8c0.6-0.1,0.9,0.1,1,0.5l2.6,18.1c0,0.2,0,0.4-0.2,0.5s-0.4,0.2-0.6,0.3c-0.4,0.1-0.9-0.2-1.3-0.8
					l-9.5-13.3l2.1,14.7c0,0.2,0,0.4-0.2,0.5c-0.2,0.1-0.4,0.2-0.6,0.3c-0.2,0-0.5,0-0.7-0.1C379.1-92.1,379-92.3,379-92.5z"/>
				<path class="st0" d="M394.2-94.7l-2.6-18.1c0-0.2,0-0.4,0.2-0.5c0.1-0.1,0.3-0.2,0.5-0.3l9.5-1.4c0.4-0.1,0.7,0.2,0.8,0.7
					c0,0.2,0,0.4-0.1,0.6c-0.1,0.2-0.2,0.3-0.5,0.3l-8.5,1.2l1.1,7.3l4.2-0.6c0.2,0,0.4,0,0.5,0.2c0.1,0.1,0.2,0.3,0.3,0.5
					c0.1,0.5-0.1,0.7-0.6,0.8l-4.2,0.6l1.1,7.4l8.5-1.2c0.2,0,0.4,0,0.5,0.2c0.1,0.1,0.2,0.3,0.3,0.6c0.1,0.5-0.1,0.8-0.5,0.9
					l-9.5,1.4c-0.2,0-0.4,0-0.6-0.1C394.3-94.3,394.2-94.5,394.2-94.7z"/>
				<g>
					<path class="st0" d="M309.2-99.6l-1.6,17.8c0,0.3-0.2,0.5-0.6,0.5c-0.2,0-0.5,0-0.7-0.1c-0.2-0.1-0.4-0.3-0.4-0.5
						c0-0.1,0-0.2,0-0.2l0.1-1.5l1.5-17.2c0.1-0.4,0.4-0.7,0.9-0.8 M310.8-101.2"/>
					<path class="st0" d="M308.4-101.4l3.8-0.5c0.6-0.1,0.9,0.1,1.1,0.5l6.3,16.1l0.6,1.4c0,0,0,0.1,0.1,0.2c0,0.2-0.1,0.4-0.2,0.6
						c-0.2,0.2-0.4,0.3-0.7,0.3c-0.4,0.1-0.6-0.1-0.8-0.3L312-100l-2.7,0.4 M309.9-101"/>
					<path class="st0" d="M307.5-87.6l8.7-1.3c0.4-0.1,0.8,0,1.1,0.1c0.3,0.1,0.4,0.3,0.4,0.5c0.1,0.5-0.4,0.8-1.3,0.9l-8.7,1.3"/>
				</g>
			</g>
		</g>
		<g>
			<g>
				<path class="st0" d="M310.8-116.7l-0.9,9.8c0,0.2-0.1,0.3-0.3,0.3c-0.1,0-0.3,0-0.4-0.1c-0.1-0.1-0.2-0.1-0.2-0.3
					c0,0,0-0.1,0-0.1l0.1-0.8l0.8-9.4c0-0.2,0.2-0.4,0.5-0.4 M311.7-117.5"/>
				<path class="st0" d="M310.4-117.7l2.1-0.3c0.3,0,0.5,0,0.6,0.3l3.5,8.8l0.3,0.7c0,0,0,0.1,0,0.1c0,0.1,0,0.2-0.1,0.3
					c-0.1,0.1-0.2,0.2-0.4,0.2c-0.2,0-0.4,0-0.4-0.2l-3.6-9.1l-1.5,0.2 M311.2-117.4"/>
				<path class="st0" d="M309.8-110.1l4.8-0.7c0.2,0,0.4,0,0.6,0c0.1,0.1,0.2,0.2,0.2,0.3c0,0.3-0.2,0.4-0.7,0.5l-4.8,0.7"/>
			</g>
		</g>
		<path class="st0" d="M363.6-225.1c-0.4,0.1-0.7-0.1-0.9-0.5c-2.2-4.2-5.8-3.7-5.9-3.6c-0.5,0-0.9-0.3-1-0.7
			c-0.1-0.5,0.3-0.9,0.7-1c0.2,0,5-0.8,7.8,4.6c0.2,0.4,0.1,1-0.4,1.2C363.8-225.2,363.7-225.1,363.6-225.1z"/>
		<path class="st3" d="M305.8-128.4"/>
		<path class="st0" d="M356.3-221.1"/>
		<path class="st0" d="M305.9-127.5c-0.2,0-0.4,0-0.6-0.1c-0.4-0.2-0.6-0.8-0.4-1.2l50.5-92.7c0.2-0.4,0.8-0.6,1.2-0.4
			c0.4,0.2,0.6,0.8,0.4,1.2L306.5-128C306.4-127.7,306.2-127.5,305.9-127.5z"/>
		<line class="st5" x1="311.6" y1="-189.7" x2="330.1" y2="-212.2"/>
		<line class="st6" x1="342.1" y1="-193.5" x2="316.6" y2="-209.7"/>
	</g>
</g>
<g>
	
		<ellipse transform="matrix(0.7224 -0.6915 0.6915 0.7224 298.0429 310.7243)" class="st0" cx="536" cy="-215.8" rx="1.4" ry="1.3"/>
	<g>
		<path class="st0" d="M547.3-151.8"/>
		<path class="st0" d="M546.4-151.8"/>
		<path class="st0" d="M599.7-109c-0.4,0-0.8-0.3-0.8-0.7c-5.2-43.1-18.8-105.7-28.4-105.7c-9.8,0.7-26.9,50.9-36.1,84.5
			c-0.1,0.5-0.6,0.8-1.1,0.7c-0.5-0.1-0.8-0.6-0.6-1c2.4-8.7,23.5-85,37.9-86c12.2,0,25.6,69.8,30.1,107.1c0.1,0.5-0.3,1-0.8,1.1
			C599.8-109,599.8-109,599.7-109z"/>
		<path class="st0" d="M633.5-223.2c-0.4,0-0.7-0.2-0.8-0.6c-2.4-9.1-7.3-15.5-14.5-19c-5.3-2.6-10-2.6-10.1-2.6c0,0,0,0,0,0
			c-0.5,0-0.9-0.4-0.8-0.9c0-0.5,0.5-0.9,1-0.9c0.2,0,20-0.1,26.2,22.8c0.1,0.5-0.2,1-0.6,1.2C633.7-223.2,633.6-223.2,633.5-223.2z
			"/>
		<path class="st0" d="M620.8-223.6c-0.4,0-0.7-0.2-0.8-0.6c-2.5-9.2-10.1-9.2-10.4-9.2c0,0,0,0,0,0c-0.5,0-0.9-0.4-0.8-0.9
			c0-0.5,0.5-0.9,1-0.9c0.1,0,9.2-0.1,12,10.4c0.1,0.5-0.2,1-0.6,1.2C621-223.6,620.9-223.6,620.8-223.6z"/>
		<path class="st0" d="M571.7-227.7c-6.6,0-11.5-5.4-10.9-12c0.6-6.6,6.4-12,13-12c6.6,0,11.5,5.4,10.9,12
			C584.2-233,578.3-227.7,571.7-227.7z M573.6-249.8c-5.6,0-10.6,4.6-11.1,10.2s3.7,10.2,9.3,10.2c5.6,0,10.6-4.6,11.1-10.2
			S579.3-249.8,573.6-249.8z"/>
		<path class="st0" d="M599.7-109c-0.3,0-0.6-0.1-0.7-0.4l-57.5-99.2c-0.2-0.4-0.1-1,0.3-1.3c0.4-0.3,1-0.2,1.2,0.2l57.5,99.2
			c0.2,0.4,0.1,1-0.3,1.3C600.1-109.1,599.9-109,599.7-109z"/>
		<path class="st0" d="M604.3-215.6"/>
		<path class="st2" d="M533.6-131.1"/>
		<path class="st0" d="M525.3-112.2l0.4-4.5c0.1-1.1,0.4-1.8,1.1-2.4c0.6-0.5,1.4-0.8,2.3-0.8c0.9,0,1.6,0.2,2.1,0.7
			c0.5,0.5,0.7,1,0.7,1.7c0,0.2-0.1,0.4-0.1,0.5s-0.2,0.1-0.4,0.1c-0.3,0-0.5-0.1-0.4-0.4c0-0.1,0-0.3,0-0.4c0-0.1-0.1-0.3-0.1-0.5
			c-0.1-0.2-0.2-0.3-0.3-0.4c-0.1-0.1-0.3-0.2-0.6-0.3c-0.2-0.1-0.5-0.1-0.9-0.1c-1.4,0-2.2,0.7-2.3,2.2l-0.4,4.5
			c-0.1,1.5,0.5,2.2,2,2.2c0.4,0,0.8-0.1,1-0.2c0.3-0.1,0.5-0.3,0.6-0.5c0.1-0.2,0.2-0.4,0.3-0.5c0.1-0.2,0.1-0.3,0.2-0.6
			c0.1-0.3,0.2-0.4,0.5-0.4c0.2,0,0.3,0,0.4,0.1c0.1,0.1,0.1,0.2,0.1,0.5c-0.1,0.7-0.4,1.3-1,1.8c-0.6,0.5-1.4,0.7-2.3,0.7
			c-0.9,0-1.6-0.3-2.1-0.8C525.4-110.3,525.2-111.1,525.3-112.2z"/>
		<path class="st0" d="M541-109.4l0.9-9.9c0-0.2,0.2-0.3,0.4-0.4l2.6,0c0.9,0,1.7,0.2,2.2,0.7c0.5,0.4,0.8,1.2,0.7,2.2
			c-0.1,1.6-1,2.6-2.5,2.8l1.9,4.3c0,0,0,0.1,0,0.2c0,0.1-0.1,0.2-0.2,0.3c-0.1,0.1-0.3,0.2-0.4,0.2c-0.2,0-0.3-0.2-0.5-0.5
			l-1.9-4.4l-1.9,0l-0.4,4.5c0,0.1-0.1,0.2-0.2,0.3c-0.1,0.1-0.2,0.1-0.3,0.1c-0.1,0-0.2,0-0.3-0.1C541.1-109.2,541-109.3,541-109.4
			z M542.4-114.7l2,0c1.5,0,2.3-0.7,2.4-2.1c0.1-1.4-0.6-2-2-2l-2,0L542.4-114.7z"/>
		<g>
			<g>
				<path class="st0" d="M521-64c0-0.4,0.1-0.6,0.2-0.7c0.1-0.1,0.4-0.2,0.6-0.2c0.6,0,0.9,0.2,0.8,0.7c-0.1,0.7,0.2,1.4,0.7,2
					c0.5,0.6,1.5,0.9,2.8,0.9c2.5,0,3.9-1.3,4.1-4l0-0.5c0.1-1.2-0.2-2.1-0.8-2.6c-0.6-0.6-1.5-0.9-2.7-0.9c-0.5,0-0.7-0.2-0.6-0.7
					c0-0.5,0.3-0.8,0.7-0.8c1.1,0,2-0.2,2.5-0.7c0.6-0.5,0.9-1.4,1-2.6c0.1-1.2-0.1-2-0.5-2.6c-0.5-0.6-1.2-0.8-2.4-0.8
					c-1.2,0-2.1,0.3-2.7,0.9c-0.6,0.6-0.9,1.2-0.9,2c0,0.6-0.4,0.8-0.9,0.8c-0.3,0-0.6-0.1-0.7-0.2c-0.1-0.1-0.2-0.4-0.1-0.8
					c0-0.4,0.2-0.9,0.3-1.3c0.2-0.4,0.5-0.9,0.9-1.4c0.4-0.5,1-0.9,1.7-1.2c0.7-0.3,1.6-0.5,2.6-0.5c3.2,0,4.7,1.5,4.4,4.6
					c-0.1,1.1-0.4,2.1-0.8,2.8c-0.5,0.8-1,1.3-1.7,1.6c1.7,0.7,2.5,2.1,2.3,4.3l0,0.5c-0.2,1.9-0.8,3.3-1.9,4.2
					c-1.1,0.9-2.5,1.3-4.1,1.3c-1.7,0-3-0.4-3.9-1.3C521.3-61.9,520.9-62.9,521-64z"/>
				<path class="st0" d="M534.7-65.3l0.7-8.2c0.2-1.9,0.8-3.4,1.9-4.3c1.1-0.9,2.4-1.4,4-1.4c1.6,0,2.9,0.5,3.8,1.4
					c0.9,0.9,1.3,2.3,1.1,4.3l-0.7,8.2c-0.2,1.9-0.8,3.4-1.9,4.3c-1.1,0.9-2.4,1.4-4,1.4c-1.6,0-2.9-0.5-3.8-1.4
					S534.5-63.4,534.7-65.3z M536.5-65.3c-0.2,2.7,0.9,4,3.3,4c2.4,0,3.8-1.3,4-4l0.7-8.2c0.2-2.7-0.9-4-3.3-4c-2.4,0-3.8,1.3-4,4
					L536.5-65.3z"/>
				<path class="st0" d="M548.7-65.3l0.7-8.2c0.2-1.9,0.8-3.4,1.9-4.3c1.1-0.9,2.4-1.4,4-1.4c1.6,0,2.9,0.5,3.8,1.4
					c0.9,0.9,1.3,2.3,1.1,4.3l-0.7,8.2c-0.2,1.9-0.8,3.4-1.9,4.3c-1.1,0.9-2.4,1.4-4,1.4c-1.6,0-2.9-0.5-3.8-1.4
					C548.9-61.9,548.6-63.4,548.7-65.3z M550.5-65.3c-0.2,2.7,0.9,4,3.3,4c2.4,0,3.8-1.3,4-4l0.7-8.2c0.2-2.7-0.9-4-3.3-4
					c-2.4,0-3.8,1.3-4,4L550.5-65.3z"/>
				<path class="st0" d="M562.7-65.3l0.7-8.2c0.2-1.9,0.8-3.4,1.9-4.3c1.1-0.9,2.4-1.4,4-1.4c1.6,0,2.9,0.5,3.8,1.4
					c0.9,0.9,1.3,2.3,1.1,4.3l-0.7,8.2c-0.2,1.9-0.8,3.4-1.9,4.3c-1.1,0.9-2.4,1.4-4,1.4c-1.6,0-2.9-0.5-3.8-1.4
					C563-62,562.6-63.4,562.7-65.3z M564.5-65.3c-0.2,2.7,0.9,4,3.3,4c2.4,0,3.8-1.3,4-4l0.7-8.2c0.2-2.7-0.9-4-3.3-4
					c-2.4,0-3.8,1.3-4,4L564.5-65.3z"/>
			</g>
		</g>
		<g>
			<g>
				<path class="st0" d="M597.6-78.5c0-0.1,0.1-0.2,0.2-0.3c0.1-0.1,0.2-0.1,0.4-0.1c0.2,0,0.3,0.1,0.3,0.2l1.8,8.6l3.3-8.6
					c0.1-0.2,0.2-0.2,0.4-0.2c0.1,0,0.3,0,0.4,0.1c0.1,0.1,0.2,0.2,0.2,0.3c0,0,0,0,0,0c0,0,0,0,0,0l-3.7,9.5
					c-0.1,0.2-0.3,0.3-0.6,0.3c-0.3,0-0.5-0.1-0.5-0.3L597.6-78.5C597.6-78.4,597.6-78.4,597.6-78.5z"/>
				<path class="st0" d="M604.3-69c0-0.1,0-0.2,0.1-0.3l5.4-8.7l-4.2,0c-0.1,0-0.2,0-0.2-0.1c-0.1-0.1-0.1-0.2-0.1-0.3
					c0-0.1,0-0.2,0.1-0.3c0.1-0.1,0.2-0.1,0.3-0.1l5.1,0c0.2,0,0.3,0.1,0.3,0.3c0,0.1-0.1,0.2-0.1,0.4l-5.4,8.7l4.6,0
					c0.1,0,0.2,0,0.2,0.1c0.1,0.1,0.1,0.2,0.1,0.3c0,0.1,0,0.2-0.1,0.3c-0.1,0.1-0.2,0.1-0.3,0.1l-5.4,0
					C604.4-68.7,604.3-68.8,604.3-69z"/>
				<path class="st0" d="M611.9-78.5c0-0.1,0.1-0.2,0.2-0.3c0.1-0.1,0.2-0.1,0.3-0.1c0.2,0,0.3,0.1,0.3,0.3l1.7,8.6l1.9-5.3
					c0.1-0.2,0.2-0.3,0.5-0.3c0.2,0,0.4,0.1,0.4,0.4l0.9,5.2l3.2-8.6c0.1-0.1,0.2-0.2,0.4-0.2c0.1,0,0.2,0,0.4,0.1
					c0.1,0.1,0.2,0.2,0.1,0.2c0,0,0,0.1,0,0.1l-3.6,9.4c-0.1,0.2-0.3,0.4-0.6,0.4c-0.3,0-0.5-0.1-0.5-0.3l-0.9-5l-1.8,4.9
					c-0.1,0.2-0.2,0.4-0.5,0.4c-0.3,0-0.4-0.1-0.5-0.3l-1.9-9.4C611.9-78.4,611.9-78.4,611.9-78.5z"/>
			</g>
		</g>
		<g>
			<g>
				<path class="st0" d="M539.6-85.1l1.6-18.2c0-0.4,0.4-0.7,0.9-0.7c0.5,0,0.9,0.4,1.3,1.2l6,14.3l1.3-14.9c0-0.4,0.4-0.6,0.9-0.6
					c0.6,0,0.9,0.2,0.8,0.6l-1.6,18.3c0,0.2-0.1,0.4-0.3,0.5c-0.2,0.1-0.4,0.2-0.6,0.2c-0.4,0-0.8-0.3-1.1-1l-6.2-14.5l-1.3,14.8
					c0,0.2-0.1,0.4-0.3,0.5c-0.2,0.1-0.4,0.2-0.6,0.2c-0.3,0-0.5-0.1-0.6-0.2C539.6-84.7,539.5-84.8,539.6-85.1z"/>
				<path class="st0" d="M554.9-103.2c0-0.2,0.1-0.4,0.2-0.6c0.1-0.2,0.3-0.3,0.5-0.3l10.8,0c0.2,0,0.4,0.1,0.5,0.2
					c0.1,0.2,0.1,0.3,0.1,0.6c0,0.2-0.1,0.4-0.2,0.6c-0.1,0.2-0.3,0.3-0.5,0.3l-4.5,0l-1.5,17.3c0,0.2-0.1,0.4-0.3,0.5
					c-0.2,0.1-0.4,0.2-0.6,0.2c-0.3,0-0.5-0.1-0.6-0.2c-0.2-0.1-0.2-0.3-0.2-0.5l1.5-17.3l-4.5,0c-0.2,0-0.4-0.1-0.5-0.2
					C554.9-102.7,554.9-102.9,554.9-103.2z"/>
				<path class="st0" d="M567.9-85.1l1.6-18.2c0-0.2,0.1-0.4,0.3-0.5c0.2-0.1,0.4-0.2,0.6-0.2l9.6,0c0.4,0,0.6,0.3,0.6,0.8
					c0,0.2-0.1,0.4-0.2,0.6c-0.1,0.2-0.3,0.3-0.5,0.3l-8.6,0l-0.6,7.4l4.2,0c0.2,0,0.4,0.1,0.5,0.2c0.1,0.2,0.1,0.3,0.1,0.6
					c0,0.5-0.3,0.7-0.7,0.7l-4.2,0l-0.6,7.4l8.6,0c0.2,0,0.4,0.1,0.5,0.2c0.1,0.2,0.2,0.4,0.1,0.6c0,0.5-0.3,0.8-0.7,0.8l-9.6,0
					c-0.2,0-0.4-0.1-0.5-0.2C567.9-84.7,567.8-84.9,567.9-85.1z"/>
				<path class="st0" d="M581.5-85.1l1.6-18.2c0-0.4,0.4-0.7,0.9-0.7c0.5,0,0.9,0.4,1.3,1.2l6,14.3l1.3-14.9c0-0.4,0.4-0.6,0.9-0.6
					c0.6,0,0.9,0.2,0.8,0.6l-1.6,18.3c0,0.2-0.1,0.4-0.3,0.5c-0.2,0.1-0.4,0.2-0.6,0.2c-0.4,0-0.8-0.3-1.1-1l-6.2-14.5l-1.3,14.8
					c0,0.2-0.1,0.4-0.3,0.5c-0.2,0.1-0.4,0.2-0.6,0.2c-0.3,0-0.5-0.1-0.6-0.2C581.5-84.7,581.5-84.9,581.5-85.1z"/>
				<path class="st0" d="M596.9-85.1l1.6-18.2c0-0.4,0.4-0.7,0.9-0.7c0.5,0,0.9,0.4,1.3,1.2l6,14.3l1.3-14.9c0-0.4,0.4-0.6,0.9-0.6
					s0.9,0.2,0.8,0.6l-1.6,18.3c0,0.2-0.1,0.4-0.3,0.5c-0.2,0.1-0.4,0.2-0.6,0.2c-0.4,0-0.8-0.3-1.1-1l-6.2-14.5l-1.3,14.8
					c0,0.2-0.1,0.4-0.3,0.5c-0.2,0.1-0.4,0.2-0.6,0.2c-0.3,0-0.5-0.1-0.6-0.2C596.9-84.7,596.8-84.9,596.9-85.1z"/>
				<path class="st0" d="M612.2-85.1l1.6-18.2c0-0.2,0.1-0.4,0.3-0.5c0.2-0.1,0.4-0.2,0.6-0.2l9.6,0c0.4,0,0.6,0.3,0.6,0.8
					c0,0.2-0.1,0.4-0.2,0.6c-0.1,0.2-0.3,0.3-0.5,0.3l-8.6,0l-0.6,7.4l4.2,0c0.2,0,0.4,0.1,0.5,0.2c0.1,0.2,0.1,0.3,0.1,0.6
					c0,0.5-0.3,0.7-0.7,0.7l-4.2,0l-0.6,7.4l8.6,0c0.2,0,0.4,0.1,0.5,0.2c0.1,0.2,0.2,0.4,0.1,0.6c0,0.5-0.3,0.8-0.7,0.8l-9.6,0
					c-0.2,0-0.4-0.1-0.5-0.2C612.3-84.7,612.2-84.9,612.2-85.1z"/>
				<g>
					<path class="st0" d="M530.3-102.1l-5.7,17.4c-0.1,0.3-0.3,0.5-0.7,0.5c-0.3,0-0.5-0.1-0.7-0.2c-0.2-0.1-0.3-0.3-0.3-0.5
						c0-0.1,0-0.2,0-0.2l0.5-1.4l5.4-16.8c0.2-0.4,0.5-0.6,1.1-0.6 M532.3-103.4"/>
					<path class="st0" d="M529.9-104.1l3.8,0c0.6,0,0.9,0.2,1,0.6l2.5,16.8l0.2,1.4c0,0,0,0.1,0,0.2c0,0.2-0.1,0.4-0.4,0.5
						c-0.2,0.1-0.5,0.2-0.7,0.2c-0.4,0-0.6-0.2-0.7-0.5l-2.6-17.4l-2.8,0 M531.3-103.4"/>
					<path class="st0" d="M525.9-90.5l8.8,0c0.4,0,0.8,0.1,1,0.2c0.2,0.2,0.3,0.3,0.3,0.6c0,0.5-0.5,0.7-1.5,0.7l-8.8,0"/>
				</g>
			</g>
		</g>
		<g>
			<g>
				<path class="st0" d="M535.8-118.8l-3.1,9.5c-0.1,0.2-0.2,0.2-0.4,0.2c-0.1,0-0.3,0-0.4-0.1c-0.1-0.1-0.2-0.2-0.2-0.3
					c0,0,0-0.1,0-0.1l0.3-0.8l3-9.2c0.1-0.2,0.3-0.3,0.6-0.3 M536.8-119.5"/>
				<path class="st0" d="M535.6-119.8l2.1,0c0.3,0,0.5,0.1,0.5,0.3l1.4,9.2l0.1,0.8c0,0,0,0.1,0,0.1c0,0.1-0.1,0.2-0.2,0.3
					c-0.1,0.1-0.3,0.1-0.4,0.1c-0.2,0-0.3-0.1-0.4-0.2l-1.4-9.5l-1.5,0 M536.4-119.5"/>
				<path class="st0" d="M533.3-112.4l4.8,0c0.2,0,0.4,0,0.6,0.1c0.1,0.1,0.2,0.2,0.2,0.3c0,0.3-0.3,0.4-0.8,0.4l-4.8,0"/>
			</g>
		</g>
		<path class="st0" d="M612.3-218.5c-0.4,0-0.7-0.2-0.8-0.6c-1.2-4.4-4.8-4.5-5-4.5c-0.5,0-0.9-0.4-0.8-0.9c0-0.5,0.5-0.9,1-0.9
			c0.2,0,5,0,6.6,5.6c0.1,0.5-0.2,1-0.6,1.2C612.6-218.6,612.4-218.5,612.3-218.5z"/>
		<path class="st3" d="M533.6-131.1"/>
		<path class="st0" d="M604.3-215.6"/>
		<path class="st0" d="M533.5-130.2c-0.2,0-0.4-0.1-0.5-0.2c-0.4-0.3-0.4-0.9-0.1-1.3l70.7-84.5c0.3-0.4,0.9-0.5,1.3-0.2
			c0.4,0.3,0.4,0.9,0.1,1.3l-70.7,84.5C534-130.3,533.8-130.2,533.5-130.2z"/>
		<line class="st5" x1="553.3" y1="-190.9" x2="576.6" y2="-210.6"/>
		<line class="st6" x1="584" y1="-190.4" x2="562.9" y2="-210"/>
	</g>
</g>
<circle class="st0" cx="523.1" cy="41.6" r="1.3"/>
<path class="st0" d="M547.3,119.9"/>
<path class="st0" d="M546.4,119.9"/>
<path class="st0" d="M603.5,162.7c-0.4,0-0.8-0.3-0.9-0.7c-8.9-43.1-28-105.7-37.7-105.7c-9.7,0.7-22.5,50.9-28.7,84.5
	c-0.1,0.5-0.6,0.8-1,0.7c-0.5-0.1-0.8-0.6-0.7-1c1.6-8.7,16.1-85,30.4-86c12.2,0,31.7,69.8,39.5,107.1c0.1,0.5-0.2,1-0.7,1.1
	C603.6,162.7,603.5,162.7,603.5,162.7z"/>
<path class="st0" d="M624.9,52.6c-0.4,0-0.7-0.2-0.8-0.6c-3.2-9.1-8.7-15.5-16.1-19c-5.6-2.6-10.3-2.6-10.3-2.6c0,0,0,0,0,0
	c-0.5,0-0.9-0.4-0.9-0.9c0-0.5,0.4-0.9,0.9-0.9c0.2,0,20-0.1,28.2,22.8c0.2,0.5-0.1,1-0.5,1.2C625.1,52.6,625,52.6,624.9,52.6z"/>
<path class="st0" d="M612.2,52.2c-0.4,0-0.7-0.2-0.8-0.6c-3.3-9.2-10.9-9.2-11.2-9.2c0,0,0,0,0,0c-0.5,0-0.9-0.4-0.9-0.9
	c0-0.5,0.4-0.9,0.9-0.9c0.1,0,9.2-0.1,12.9,10.4c0.2,0.5-0.1,1-0.5,1.2C612.4,52.2,612.3,52.2,612.2,52.2z"/>
<path class="st0" d="M567.2,32.1c-6.6,0-12-5.4-12-12c0-6.6,5.4-12,12-12c6.6,0,12,5.4,12,12C579.2,26.7,573.8,32.1,567.2,32.1z
	 M567.2,9.9c-5.6,0-10.2,4.6-10.2,10.2s4.6,10.2,10.2,10.2s10.2-4.6,10.2-10.2C577.4,14.5,572.8,9.9,567.2,9.9z"/>
<path class="st0" d="M603.5,162.7c-0.3,0-0.6-0.1-0.7-0.4l-66.2-99.2c-0.3-0.4-0.2-1,0.2-1.3c0.4-0.3,1-0.2,1.3,0.2l66.2,99.2
	c0.3,0.4,0.2,1-0.2,1.3C603.8,162.6,603.6,162.7,603.5,162.7z"/>
<path class="st0" d="M598.7,56.1"/>
<path class="st2" d="M535.4,140.6"/>
<path class="st0" d="M529.1,179.5l0-4.5c0-1.1,0.3-1.8,0.9-2.4c0.6-0.5,1.3-0.8,2.2-0.8c0.9,0,1.7,0.2,2.2,0.7
	c0.5,0.5,0.8,1,0.8,1.7c0,0.2,0,0.4-0.1,0.5s-0.2,0.1-0.4,0.1c-0.3,0-0.5-0.1-0.5-0.4c0-0.1,0-0.3-0.1-0.4c0-0.1-0.1-0.3-0.2-0.5
	c-0.1-0.2-0.2-0.3-0.3-0.4s-0.3-0.2-0.6-0.3c-0.3-0.1-0.5-0.1-0.9-0.1c-1.4,0-2.1,0.7-2.1,2.2l0,4.5c0,1.5,0.7,2.2,2.2,2.2
	c0.4,0,0.7-0.1,1-0.2c0.3-0.1,0.5-0.3,0.6-0.5c0.1-0.2,0.2-0.4,0.3-0.5c0-0.2,0.1-0.3,0.1-0.6c0-0.3,0.2-0.4,0.5-0.4
	c0.2,0,0.3,0,0.4,0.1c0.1,0.1,0.1,0.2,0.1,0.5c0,0.7-0.3,1.3-0.8,1.8c-0.6,0.5-1.3,0.7-2.2,0.7c-0.9,0-1.6-0.3-2.2-0.8
	C529.3,181.3,529.1,180.5,529.1,179.5z"/>
<path class="st0" d="M545.1,182.2l0-9.9c0-0.2,0.1-0.3,0.4-0.4l2.6,0c0.9,0,1.7,0.2,2.3,0.7c0.6,0.4,0.9,1.2,0.9,2.2
	c0,1.6-0.8,2.6-2.3,2.8l2.3,4.3c0,0,0.1,0.1,0.1,0.2c0,0.1-0.1,0.2-0.2,0.3c-0.1,0.1-0.2,0.2-0.4,0.2c-0.2,0-0.3-0.2-0.5-0.5
	l-2.3-4.4l-1.9,0l0,4.5c0,0.1,0,0.2-0.1,0.3c-0.1,0.1-0.2,0.1-0.3,0.1c-0.1,0-0.2,0-0.3-0.1C545.1,182.4,545.1,182.3,545.1,182.2z
	 M546,176.9l2,0c1.5,0,2.2-0.7,2.2-2.1c0-1.4-0.7-2-2.2-2l-2,0L546,176.9z"/>
<g>
	<g>
		<path class="st0" d="M529,227.6c0-0.4,0.1-0.6,0.2-0.7c0.1-0.1,0.3-0.2,0.6-0.2c0.6,0,0.9,0.2,0.9,0.7c0,0.7,0.3,1.4,0.9,2
			c0.6,0.6,1.5,0.9,2.8,0.9c2.5,0,3.8-1.3,3.8-4l0-0.5c0-1.2-0.3-2.1-1-2.6c-0.7-0.6-1.6-0.9-2.8-0.9c-0.5,0-0.7-0.2-0.7-0.7
			c0-0.5,0.2-0.8,0.7-0.8c1.1,0,1.9-0.2,2.5-0.7c0.5-0.5,0.8-1.4,0.8-2.6c0-1.2-0.3-2-0.8-2.6c-0.5-0.6-1.3-0.8-2.4-0.8
			c-1.2,0-2.1,0.3-2.6,0.9c-0.5,0.6-0.8,1.2-0.8,2c0,0.6-0.3,0.8-0.8,0.8c-0.3,0-0.6-0.1-0.7-0.2c-0.1-0.1-0.2-0.4-0.2-0.8
			c0-0.4,0.1-0.9,0.2-1.3c0.2-0.4,0.4-0.9,0.8-1.4c0.4-0.5,0.9-0.9,1.6-1.2c0.7-0.3,1.6-0.5,2.6-0.5c3.2,0,4.8,1.5,4.8,4.6
			c0,1.1-0.2,2.1-0.6,2.8c-0.4,0.8-0.9,1.3-1.6,1.6c1.8,0.7,2.7,2.1,2.7,4.3l0,0.5c0,1.9-0.5,3.3-1.5,4.2c-1,0.9-2.3,1.3-4,1.3
			c-1.7,0-3.1-0.4-4-1.3C529.5,229.7,529,228.7,529,227.6z"/>
		<path class="st0" d="M542.6,226.3l0-8.2c0-1.9,0.5-3.4,1.5-4.3c1-0.9,2.3-1.4,3.9-1.4c1.6,0,2.9,0.5,3.9,1.4
			c1,0.9,1.5,2.3,1.5,4.3l0,8.2c0,1.9-0.5,3.4-1.5,4.3c-1,0.9-2.3,1.4-3.9,1.4c-1.6,0-2.9-0.5-3.9-1.4S542.6,228.3,542.6,226.3z
			 M544.3,226.3c0,2.7,1.2,4,3.7,4c2.4,0,3.7-1.3,3.7-4l0-8.2c0-2.7-1.2-4-3.7-4c-2.4,0-3.7,1.3-3.7,4L544.3,226.3z"/>
		<path class="st0" d="M556.6,226.3l0-8.2c0-1.9,0.5-3.4,1.5-4.3c1-0.9,2.3-1.4,3.9-1.4c1.6,0,2.9,0.5,3.9,1.4
			c1,0.9,1.5,2.3,1.5,4.3l0,8.2c0,1.9-0.5,3.4-1.5,4.3c-1,0.9-2.3,1.4-3.9,1.4c-1.6,0-2.9-0.5-3.9-1.4
			C557.1,229.7,556.6,228.3,556.6,226.3z M558.4,226.3c0,2.7,1.2,4,3.7,4c2.4,0,3.7-1.3,3.7-4l0-8.2c0-2.7-1.2-4-3.7-4
			c-2.4,0-3.7,1.3-3.7,4L558.4,226.3z"/>
		<path class="st0" d="M570.6,226.3l0-8.2c0-1.9,0.5-3.4,1.5-4.3c1-0.9,2.3-1.4,3.9-1.4c1.6,0,2.9,0.5,3.9,1.4
			c1,0.9,1.5,2.3,1.5,4.3l0,8.2c0,1.9-0.5,3.4-1.5,4.3c-1,0.9-2.3,1.4-3.9,1.4c-1.6,0-2.9-0.5-3.9-1.4
			C571.1,229.7,570.6,228.3,570.6,226.3z M572.4,226.3c0,2.7,1.2,4,3.7,4c2.4,0,3.7-1.3,3.7-4l0-8.2c0-2.7-1.2-4-3.7-4
			c-2.4,0-3.7,1.3-3.7,4L572.4,226.3z"/>
	</g>
</g>
<g>
	<g>
		<path class="st0" d="M604.3,213.2c0-0.1,0.1-0.2,0.2-0.3c0.1-0.1,0.2-0.1,0.4-0.1c0.2,0,0.3,0.1,0.4,0.2l2.6,8.6l2.6-8.6
			c0.1-0.2,0.2-0.2,0.3-0.2c0.1,0,0.3,0,0.4,0.1c0.1,0.1,0.2,0.2,0.2,0.3c0,0,0,0,0,0c0,0,0,0,0,0l-2.9,9.5
			c-0.1,0.2-0.3,0.3-0.6,0.3c-0.3,0-0.5-0.1-0.5-0.3L604.3,213.2C604.4,213.3,604.3,213.2,604.3,213.2z"/>
		<path class="st0" d="M611.9,222.7c0-0.1,0-0.2,0.1-0.3l4.6-8.7l-4.2,0c-0.1,0-0.2,0-0.3-0.1c-0.1-0.1-0.1-0.2-0.1-0.3
			c0-0.1,0-0.2,0.1-0.3c0.1-0.1,0.1-0.1,0.3-0.1l5.1,0c0.2,0,0.3,0.1,0.3,0.3c0,0.1,0,0.2-0.1,0.4l-4.6,8.7l4.6,0
			c0.1,0,0.2,0,0.3,0.1s0.1,0.2,0.1,0.3c0,0.1,0,0.2-0.1,0.3c-0.1,0.1-0.1,0.1-0.3,0.1l-5.4,0C612,223,611.9,222.9,611.9,222.7z"/>
		<path class="st0" d="M618.6,213.2c0-0.1,0-0.2,0.1-0.3c0.1-0.1,0.2-0.1,0.3-0.1c0.2,0,0.3,0.1,0.3,0.3l2.4,8.6l1.4-5.3
			c0-0.2,0.2-0.3,0.5-0.3c0.2,0,0.4,0.1,0.5,0.4l1.4,5.2l2.4-8.6c0-0.1,0.2-0.2,0.4-0.2c0.1,0,0.3,0,0.4,0.1
			c0.1,0.1,0.2,0.2,0.2,0.2c0,0,0,0.1,0,0.1l-2.7,9.4c-0.1,0.2-0.3,0.4-0.5,0.4c-0.3,0-0.5-0.1-0.5-0.3l-1.3-5l-1.3,4.9
			c0,0.2-0.2,0.4-0.5,0.4c-0.3,0-0.4-0.1-0.5-0.3l-2.8-9.4C618.6,213.2,618.6,213.2,618.6,213.2z"/>
	</g>
</g>
<g>
	<g>
		<path class="st0" d="M545.7,206.6l0-18.2c0-0.4,0.3-0.7,0.9-0.7c0.5,0,1,0.4,1.4,1.2l7.3,14.3l0-14.9c0-0.4,0.3-0.6,0.9-0.6
			c0.6,0,0.9,0.2,0.9,0.6l0,18.3c0,0.2-0.1,0.4-0.3,0.5s-0.4,0.2-0.6,0.2c-0.4,0-0.8-0.3-1.2-1l-7.5-14.5l0,14.8
			c0,0.2-0.1,0.4-0.3,0.5c-0.2,0.1-0.4,0.2-0.6,0.2c-0.3,0-0.5-0.1-0.6-0.2C545.8,207,545.7,206.8,545.7,206.6z"/>
		<path class="st0" d="M559.5,188.5c0-0.2,0.1-0.4,0.2-0.6c0.1-0.2,0.3-0.3,0.5-0.3l10.8,0c0.2,0,0.4,0.1,0.5,0.2
			c0.1,0.2,0.2,0.3,0.2,0.6c0,0.2-0.1,0.4-0.2,0.6c-0.1,0.2-0.3,0.3-0.5,0.3l-4.5,0l0,17.3c0,0.2-0.1,0.4-0.3,0.5
			c-0.2,0.1-0.4,0.2-0.6,0.2c-0.3,0-0.5-0.1-0.6-0.2c-0.2-0.1-0.3-0.3-0.3-0.5l0-17.3l-4.5,0c-0.2,0-0.4-0.1-0.5-0.2
			C559.5,188.9,559.5,188.7,559.5,188.5z"/>
		<path class="st0" d="M574,206.6l0-18.2c0-0.2,0.1-0.4,0.2-0.5c0.2-0.1,0.3-0.2,0.6-0.2l9.6,0c0.4,0,0.7,0.3,0.7,0.8
			c0,0.2-0.1,0.4-0.2,0.6c-0.1,0.2-0.3,0.3-0.5,0.3l-8.6,0l0,7.4l4.2,0c0.2,0,0.4,0.1,0.5,0.2c0.1,0.2,0.2,0.3,0.2,0.6
			c0,0.5-0.2,0.7-0.7,0.7l-4.2,0l0,7.4l8.6,0c0.2,0,0.4,0.1,0.5,0.2c0.1,0.2,0.2,0.4,0.2,0.6c0,0.5-0.2,0.8-0.7,0.8l-9.6,0
			c-0.2,0-0.4-0.1-0.6-0.2C574.1,206.9,574,206.8,574,206.6z"/>
		<path class="st0" d="M587.6,206.6l0-18.2c0-0.4,0.3-0.7,0.9-0.7c0.5,0,1,0.4,1.4,1.2l7.3,14.3l0-14.9c0-0.4,0.3-0.6,0.9-0.6
			c0.6,0,0.9,0.2,0.9,0.6l0,18.3c0,0.2-0.1,0.4-0.3,0.5c-0.2,0.1-0.4,0.2-0.6,0.2c-0.4,0-0.8-0.3-1.2-1l-7.5-14.5l0,14.8
			c0,0.2-0.1,0.4-0.3,0.5c-0.2,0.1-0.4,0.2-0.6,0.2c-0.3,0-0.5-0.1-0.6-0.2C587.7,206.9,587.6,206.8,587.6,206.6z"/>
		<path class="st0" d="M603,206.5l0-18.2c0-0.4,0.3-0.7,0.9-0.7c0.5,0,1,0.4,1.4,1.2l7.3,14.3l0-14.9c0-0.4,0.3-0.6,0.9-0.6
			c0.6,0,0.9,0.2,0.9,0.6l0,18.3c0,0.2-0.1,0.4-0.3,0.5c-0.2,0.1-0.4,0.2-0.6,0.2c-0.4,0-0.8-0.3-1.2-1l-7.5-14.5l0,14.8
			c0,0.2-0.1,0.4-0.3,0.5c-0.2,0.1-0.4,0.2-0.6,0.2c-0.3,0-0.5-0.1-0.6-0.2C603.1,206.9,603,206.8,603,206.5z"/>
		<path class="st0" d="M618.4,206.5l0-18.2c0-0.2,0.1-0.4,0.2-0.5c0.2-0.1,0.3-0.2,0.6-0.2l9.6,0c0.4,0,0.7,0.3,0.7,0.8
			c0,0.2-0.1,0.4-0.2,0.6c-0.1,0.2-0.3,0.3-0.5,0.3l-8.6,0l0,7.4l4.2,0c0.2,0,0.4,0.1,0.5,0.2c0.1,0.2,0.2,0.3,0.2,0.6
			c0,0.5-0.2,0.7-0.7,0.7l-4.2,0l0,7.4l8.6,0c0.2,0,0.4,0.1,0.5,0.2c0.1,0.2,0.2,0.4,0.2,0.6c0,0.5-0.2,0.8-0.7,0.8l-9.6,0
			c-0.2,0-0.4-0.1-0.6-0.2C618.5,206.9,618.4,206.8,618.4,206.5z"/>
		<g>
			<path class="st0" d="M535,189.5l-4.2,17.4c-0.1,0.3-0.3,0.5-0.7,0.5c-0.3,0-0.5-0.1-0.7-0.2c-0.2-0.1-0.3-0.3-0.3-0.5
				c0-0.1,0-0.2,0-0.2l0.4-1.4l3.9-16.8c0.1-0.4,0.5-0.6,1-0.6 M536.8,188.2"/>
			<path class="st0" d="M534.4,187.6l3.8,0c0.6,0,0.9,0.2,1,0.6l4,16.8l0.4,1.4c0,0,0,0.1,0,0.2c0,0.2-0.1,0.4-0.3,0.5
				c-0.2,0.1-0.5,0.2-0.7,0.2c-0.4,0-0.6-0.2-0.7-0.5l-4.2-17.4l-2.8,0 M535.9,188.2"/>
			<path class="st0" d="M531.5,201.1l8.8,0c0.4,0,0.8,0.1,1,0.2c0.2,0.2,0.4,0.3,0.4,0.6c0,0.5-0.5,0.7-1.4,0.7l-8.8,0"/>
		</g>
	</g>
</g>
<g>
	<g>
		<path class="st0" d="M539,172.9l-2.3,9.5c0,0.2-0.2,0.2-0.4,0.2c-0.1,0-0.3,0-0.4-0.1c-0.1-0.1-0.2-0.2-0.2-0.3c0,0,0-0.1,0-0.1
			l0.2-0.8l2.2-9.2c0.1-0.2,0.3-0.3,0.6-0.3 M540,172.1"/>
		<path class="st0" d="M538.7,171.8l2.1,0c0.3,0,0.5,0.1,0.6,0.3l2.2,9.2l0.2,0.8c0,0,0,0.1,0,0.1c0,0.1-0.1,0.2-0.2,0.3
			c-0.1,0.1-0.2,0.1-0.4,0.1c-0.2,0-0.3-0.1-0.4-0.2l-2.3-9.5l-1.5,0 M539.5,172.1"/>
		<path class="st0" d="M537.1,179.2l4.8,0c0.2,0,0.4,0,0.6,0.1c0.1,0.1,0.2,0.2,0.2,0.3c0,0.3-0.3,0.4-0.8,0.4l-4.8,0"/>
	</g>
</g>
<path class="st0" d="M604.2,57.3c-0.4,0-0.7-0.2-0.8-0.6c-1.6-4.4-5.2-4.5-5.3-4.5c-0.5,0-0.9-0.4-0.9-0.9c0-0.5,0.4-0.9,0.9-0.9
	c0.2,0,5,0,7.1,5.6c0.2,0.5-0.1,1-0.5,1.2C604.4,57.2,604.3,57.3,604.2,57.3z"/>
<path class="st3" d="M535.4,140.6"/>
<path class="st0" d="M598.7,56.1"/>
<path class="st0" d="M535.6,143c-0.2,0-0.4-0.1-0.5-0.2c-0.4-0.3-0.5-0.9-0.2-1.3l63.3-84.5c0.3-0.4,0.9-0.5,1.3-0.2
	c0.4,0.3,0.5,0.9,0.2,1.3l-63.3,84.5C536.1,142.9,535.9,143,535.6,143z"/>
<line class="st5" x1="549.9" y1="80.8" x2="571.5" y2="61.1"/>
<line class="st6" x1="580.6" y1="81.3" x2="557.8" y2="61.7"/>
<circle class="st7" cx="54.3" cy="55.9" r="1.3"/>
<path class="st7" d="M71.1,119.9"/>
<path class="st7" d="M70.2,119.9"/>
<path class="st7" d="M127.3,162.7c-0.4,0-0.8-0.3-0.9-0.7c-8.9-43.1-28-105.7-37.7-105.7c-9.7,0.7-22.5,50.9-28.7,84.5
	c-0.1,0.5-0.6,0.8-1,0.7c-0.5-0.1-0.8-0.6-0.7-1c1.6-8.7,16.1-85,30.4-86c12.2,0,31.7,69.8,39.5,107.1c0.1,0.5-0.2,1-0.7,1.1
	C127.4,162.7,127.4,162.7,127.3,162.7z"/>
<path class="st7" d="M151.1,48.5c-0.4,0-0.7-0.2-0.8-0.6c-3.2-9.1-8.7-15.5-16.1-19c-5.6-2.6-10.3-2.6-10.3-2.6c0,0,0,0,0,0
	c-0.5,0-0.9-0.4-0.9-0.9c0-0.5,0.4-0.9,0.9-0.9c0.2,0,20-0.1,28.2,22.8c0.2,0.5-0.1,1-0.5,1.2C151.3,48.4,151.2,48.5,151.1,48.5z"/>
<path class="st7" d="M138.4,48.1c-0.4,0-0.7-0.2-0.8-0.6c-3.3-9.2-10.9-9.2-11.2-9.2c0,0,0,0,0,0c-0.5,0-0.9-0.4-0.9-0.9
	c0-0.5,0.4-0.9,0.9-0.9c0.1,0,9.2-0.1,12.9,10.4c0.2,0.5-0.1,1-0.5,1.2C138.6,48.1,138.5,48.1,138.4,48.1z"/>
<path class="st7" d="M88.9,44c-6.6,0-12-5.4-12-12c0-6.6,5.4-12,12-12c6.6,0,12,5.4,12,12C100.9,38.7,95.5,44,88.9,44z M88.9,21.9
	c-5.6,0-10.2,4.6-10.2,10.2c0,5.6,4.6,10.2,10.2,10.2c5.6,0,10.2-4.6,10.2-10.2C99.1,26.4,94.5,21.9,88.9,21.9z"/>
<path class="st7" d="M127.3,162.7c-0.3,0-0.6-0.1-0.7-0.4L60.4,63.1c-0.3-0.4-0.2-1,0.2-1.3c0.4-0.3,1-0.2,1.3,0.2l66.2,99.2
	c0.3,0.4,0.2,1-0.2,1.3C127.7,162.6,127.5,162.7,127.3,162.7z"/>
<path class="st8" d="M122.5,56.1"/>
<path class="st7" d="M59.2,140.6"/>
<path class="st7" d="M52.6,159.5l0-4.5c0-1.1,0.3-1.8,0.9-2.4c0.6-0.5,1.3-0.8,2.2-0.8c0.9,0,1.7,0.2,2.2,0.7c0.5,0.5,0.8,1,0.8,1.7
	c0,0.2,0,0.4-0.1,0.5c-0.1,0.1-0.2,0.1-0.4,0.1c-0.3,0-0.5-0.1-0.5-0.4c0-0.1,0-0.3-0.1-0.4c0-0.1-0.1-0.3-0.2-0.5
	c-0.1-0.2-0.2-0.3-0.3-0.4c-0.1-0.1-0.3-0.2-0.6-0.3c-0.3-0.1-0.5-0.1-0.9-0.1c-1.4,0-2.1,0.7-2.1,2.2l0,4.5c0,1.5,0.7,2.2,2.2,2.2
	c0.4,0,0.7-0.1,1-0.2c0.3-0.1,0.5-0.3,0.6-0.5c0.1-0.2,0.2-0.4,0.3-0.5c0-0.2,0.1-0.3,0.1-0.6c0-0.3,0.2-0.4,0.5-0.4
	c0.2,0,0.3,0,0.4,0.1c0.1,0.1,0.1,0.2,0.1,0.5c0,0.7-0.3,1.3-0.8,1.8c-0.6,0.5-1.3,0.7-2.2,0.7c-0.9,0-1.6-0.3-2.2-0.8
	C52.9,161.4,52.6,160.6,52.6,159.5z"/>
<path class="st7" d="M68.6,162.3l0-9.9c0-0.2,0.1-0.3,0.4-0.4l2.6,0c0.9,0,1.7,0.2,2.3,0.7c0.6,0.4,0.9,1.2,0.9,2.2
	c0,1.6-0.8,2.6-2.3,2.8l2.3,4.3c0,0,0.1,0.1,0.1,0.2c0,0.1-0.1,0.2-0.2,0.3c-0.1,0.1-0.2,0.2-0.4,0.2c-0.2,0-0.3-0.2-0.5-0.5
	l-2.3-4.4l-1.9,0l0,4.5c0,0.1,0,0.2-0.1,0.3c-0.1,0.1-0.2,0.1-0.3,0.1c-0.1,0-0.2,0-0.3-0.1C68.6,162.5,68.6,162.4,68.6,162.3z
	 M69.5,157l2,0c1.5,0,2.2-0.7,2.2-2.1c0-1.4-0.7-2-2.2-2l-2,0L69.5,157z"/>
<g>
	<g>
		<path class="st7" d="M52.5,207.7c0-0.4,0.1-0.6,0.2-0.7c0.1-0.1,0.3-0.2,0.6-0.2c0.6,0,0.9,0.2,0.9,0.7c0,0.7,0.3,1.4,0.9,2
			c0.6,0.6,1.5,0.9,2.8,0.9c2.5,0,3.8-1.3,3.8-4l0-0.5c0-1.2-0.3-2.1-1-2.6c-0.7-0.6-1.6-0.9-2.8-0.9c-0.5,0-0.7-0.2-0.7-0.7
			c0-0.5,0.2-0.8,0.7-0.8c1.1,0,1.9-0.2,2.5-0.7c0.5-0.5,0.8-1.4,0.8-2.6c0-1.2-0.3-2-0.8-2.6c-0.5-0.6-1.3-0.8-2.4-0.8
			c-1.2,0-2.1,0.3-2.6,0.9c-0.5,0.6-0.8,1.2-0.8,2c0,0.6-0.3,0.8-0.8,0.8c-0.3,0-0.6-0.1-0.7-0.2c-0.1-0.1-0.2-0.4-0.2-0.8
			c0-0.4,0.1-0.9,0.2-1.3c0.2-0.4,0.4-0.9,0.8-1.4c0.4-0.5,0.9-0.9,1.6-1.2c0.7-0.3,1.6-0.5,2.6-0.5c3.2,0,4.8,1.5,4.8,4.6
			c0,1.1-0.2,2.1-0.6,2.8c-0.4,0.8-0.9,1.3-1.6,1.6c1.8,0.7,2.7,2.1,2.7,4.3l0,0.5c0,1.9-0.5,3.3-1.5,4.2c-1,0.9-2.3,1.3-4,1.3
			c-1.7,0-3.1-0.4-4-1.3C53,209.8,52.5,208.8,52.5,207.7z"/>
		<path class="st7" d="M66.1,206.4l0-8.2c0-1.9,0.5-3.4,1.5-4.3c1-0.9,2.3-1.4,3.9-1.4c1.6,0,2.9,0.5,3.9,1.4c1,0.9,1.5,2.3,1.5,4.3
			l0,8.2c0,1.9-0.5,3.4-1.5,4.3c-1,0.9-2.3,1.4-3.9,1.4c-1.6,0-2.9-0.5-3.9-1.4S66.1,208.3,66.1,206.4z M67.9,206.4
			c0,2.7,1.2,4,3.7,4c2.4,0,3.7-1.3,3.7-4l0-8.2c0-2.7-1.2-4-3.7-4c-2.4,0-3.7,1.3-3.7,4L67.9,206.4z"/>
		<path class="st7" d="M80.1,206.4l0-8.2c0-1.9,0.5-3.4,1.5-4.3c1-0.9,2.3-1.4,3.9-1.4c1.6,0,2.9,0.5,3.9,1.4c1,0.9,1.5,2.3,1.5,4.3
			l0,8.2c0,1.9-0.5,3.4-1.5,4.3c-1,0.9-2.3,1.4-3.9,1.4c-1.6,0-2.9-0.5-3.9-1.4S80.1,208.3,80.1,206.4z M81.9,206.4
			c0,2.7,1.2,4,3.7,4c2.4,0,3.7-1.3,3.7-4l0-8.2c0-2.7-1.2-4-3.7-4c-2.4,0-3.7,1.3-3.7,4L81.9,206.4z"/>
		<path class="st7" d="M94.2,206.4l0-8.2c0-1.9,0.5-3.4,1.5-4.3c1-0.9,2.3-1.4,3.9-1.4c1.6,0,2.9,0.5,3.9,1.4c1,0.9,1.5,2.3,1.5,4.3
			l0,8.2c0,1.9-0.5,3.4-1.5,4.3c-1,0.9-2.3,1.4-3.9,1.4c-1.6,0-2.9-0.5-3.9-1.4C94.7,209.7,94.2,208.3,94.2,206.4z M95.9,206.4
			c0,2.7,1.2,4,3.7,4c2.4,0,3.7-1.3,3.7-4l0-8.2c0-2.7-1.2-4-3.7-4c-2.4,0-3.7,1.3-3.7,4L95.9,206.4z"/>
	</g>
</g>
<g>
	<g>
		<path class="st7" d="M127.9,193.2c0-0.1,0.1-0.2,0.2-0.3c0.1-0.1,0.2-0.1,0.4-0.1c0.2,0,0.3,0.1,0.4,0.2l2.6,8.6l2.6-8.6
			c0.1-0.2,0.2-0.2,0.3-0.2c0.1,0,0.3,0,0.4,0.1c0.1,0.1,0.2,0.2,0.2,0.3c0,0,0,0,0,0c0,0,0,0,0,0l-2.9,9.5
			c-0.1,0.2-0.3,0.3-0.6,0.3c-0.3,0-0.5-0.1-0.5-0.3L127.9,193.2C127.9,193.3,127.9,193.3,127.9,193.2z"/>
		<path class="st7" d="M135.4,202.7c0-0.1,0-0.2,0.1-0.3l4.6-8.7l-4.2,0c-0.1,0-0.2,0-0.3-0.1c-0.1-0.1-0.1-0.2-0.1-0.3
			c0-0.1,0-0.2,0.1-0.3c0.1-0.1,0.1-0.1,0.3-0.1l5.1,0c0.2,0,0.3,0.1,0.3,0.3c0,0.1,0,0.2-0.1,0.4l-4.6,8.7l4.6,0
			c0.1,0,0.2,0,0.3,0.1s0.1,0.2,0.1,0.3c0,0.1,0,0.2-0.1,0.3c-0.1,0.1-0.1,0.1-0.3,0.1l-5.4,0C135.5,203,135.4,202.9,135.4,202.7z"
			/>
		<path class="st7" d="M142.1,193.2c0-0.1,0-0.2,0.1-0.3c0.1-0.1,0.2-0.1,0.3-0.1c0.2,0,0.3,0.1,0.3,0.3l2.4,8.6l1.4-5.3
			c0-0.2,0.2-0.3,0.5-0.3c0.2,0,0.4,0.1,0.5,0.4l1.4,5.2l2.4-8.6c0-0.1,0.2-0.2,0.4-0.2c0.1,0,0.3,0,0.4,0.1
			c0.1,0.1,0.2,0.2,0.2,0.2c0,0,0,0.1,0,0.1l-2.7,9.4c-0.1,0.2-0.3,0.4-0.5,0.4c-0.3,0-0.5-0.1-0.5-0.3l-1.3-5l-1.3,4.9
			c0,0.2-0.2,0.4-0.5,0.4c-0.3,0-0.4-0.1-0.5-0.3l-2.8-9.4C142.1,193.3,142.1,193.3,142.1,193.2z"/>
	</g>
</g>
<g>
	<g>
		<path class="st7" d="M69.2,186.6l0-18.2c0-0.4,0.3-0.7,0.9-0.7c0.5,0,1,0.4,1.4,1.2l7.3,14.3l0-14.9c0-0.4,0.3-0.6,0.9-0.6
			c0.6,0,0.9,0.2,0.9,0.6l0,18.3c0,0.2-0.1,0.4-0.3,0.5c-0.2,0.1-0.4,0.2-0.6,0.2c-0.4,0-0.8-0.3-1.2-1L71,171.8l0,14.8
			c0,0.2-0.1,0.4-0.3,0.5c-0.2,0.1-0.4,0.2-0.6,0.2c-0.3,0-0.5-0.1-0.6-0.2C69.3,187,69.2,186.8,69.2,186.6z"/>
		<path class="st7" d="M83,168.5c0-0.2,0.1-0.4,0.2-0.6c0.1-0.2,0.3-0.3,0.5-0.3l10.8,0c0.2,0,0.4,0.1,0.5,0.2
			c0.1,0.2,0.2,0.3,0.2,0.6c0,0.2-0.1,0.4-0.2,0.6c-0.1,0.2-0.3,0.3-0.5,0.3l-4.5,0l0,17.3c0,0.2-0.1,0.4-0.3,0.5
			c-0.2,0.1-0.4,0.2-0.6,0.2c-0.3,0-0.5-0.1-0.6-0.2c-0.2-0.1-0.3-0.3-0.3-0.5l0-17.3l-4.5,0c-0.2,0-0.4-0.1-0.5-0.2
			C83,168.9,83,168.7,83,168.5z"/>
		<path class="st7" d="M97.5,186.6l0-18.2c0-0.2,0.1-0.4,0.2-0.5c0.2-0.1,0.3-0.2,0.6-0.2l9.6,0c0.4,0,0.7,0.3,0.7,0.8
			c0,0.2-0.1,0.4-0.2,0.6c-0.1,0.2-0.3,0.3-0.5,0.3l-8.6,0l0,7.4l4.2,0c0.2,0,0.4,0.1,0.5,0.2c0.1,0.2,0.2,0.3,0.2,0.6
			c0,0.5-0.2,0.7-0.7,0.7l-4.2,0l0,7.4l8.6,0c0.2,0,0.4,0.1,0.5,0.2c0.1,0.2,0.2,0.4,0.2,0.6c0,0.5-0.2,0.8-0.7,0.8l-9.6,0
			c-0.2,0-0.4-0.1-0.6-0.2S97.5,186.8,97.5,186.6z"/>
		<path class="st7" d="M111.2,186.6l0-18.2c0-0.4,0.3-0.7,0.9-0.7c0.5,0,1,0.4,1.4,1.2l7.3,14.3l0-14.9c0-0.4,0.3-0.6,0.9-0.6
			c0.6,0,0.9,0.2,0.9,0.6l0,18.3c0,0.2-0.1,0.4-0.3,0.5s-0.4,0.2-0.6,0.2c-0.4,0-0.8-0.3-1.2-1l-7.5-14.5l0,14.8
			c0,0.2-0.1,0.4-0.3,0.5c-0.2,0.1-0.4,0.2-0.6,0.2c-0.3,0-0.5-0.1-0.6-0.2C111.2,187,111.2,186.8,111.2,186.6z"/>
		<path class="st7" d="M126.5,186.6l0-18.2c0-0.4,0.3-0.7,0.9-0.7c0.5,0,1,0.4,1.4,1.2l7.3,14.3l0-14.9c0-0.4,0.3-0.6,0.9-0.6
			c0.6,0,0.9,0.2,0.9,0.6l0,18.3c0,0.2-0.1,0.4-0.3,0.5c-0.2,0.1-0.4,0.2-0.6,0.2c-0.4,0-0.8-0.3-1.2-1l-7.5-14.5l0,14.8
			c0,0.2-0.1,0.4-0.3,0.5c-0.2,0.1-0.4,0.2-0.6,0.2c-0.3,0-0.5-0.1-0.6-0.2C126.6,187,126.5,186.8,126.5,186.6z"/>
		<path class="st7" d="M141.9,186.6l0-18.2c0-0.2,0.1-0.4,0.2-0.5c0.2-0.1,0.3-0.2,0.6-0.2l9.6,0c0.4,0,0.7,0.3,0.7,0.8
			c0,0.2-0.1,0.4-0.2,0.6c-0.1,0.2-0.3,0.3-0.5,0.3l-8.6,0l0,7.4l4.2,0c0.2,0,0.4,0.1,0.5,0.2c0.1,0.2,0.2,0.3,0.2,0.6
			c0,0.5-0.2,0.7-0.7,0.7l-4.2,0l0,7.4l8.6,0c0.2,0,0.4,0.1,0.5,0.2c0.1,0.2,0.2,0.4,0.2,0.6c0,0.5-0.2,0.8-0.7,0.8l-9.6,0
			c-0.2,0-0.4-0.1-0.6-0.2S141.9,186.8,141.9,186.6z"/>
		<g>
			<path class="st7" d="M58.5,169.6L54.3,187c-0.1,0.3-0.3,0.5-0.7,0.5c-0.3,0-0.5-0.1-0.7-0.2c-0.2-0.1-0.3-0.3-0.3-0.5
				c0-0.1,0-0.2,0-0.2L53,185l3.9-16.8c0.1-0.4,0.5-0.6,1-0.6 M60.3,168.2"/>
			<path class="st7" d="M58,167.6l3.8,0c0.6,0,0.9,0.2,1,0.6l4,16.8l0.4,1.4c0,0,0,0.1,0,0.2c0,0.2-0.1,0.4-0.3,0.5
				c-0.2,0.1-0.5,0.2-0.7,0.2c-0.4,0-0.6-0.2-0.7-0.5l-4.2-17.4l-2.8,0 M59.4,168.2"/>
			<path class="st7" d="M55.1,181.2l8.8,0c0.4,0,0.8,0.1,1,0.2c0.2,0.2,0.4,0.3,0.4,0.6c0,0.5-0.5,0.7-1.4,0.7l-8.8,0"/>
		</g>
	</g>
</g>
<g>
	<path class="st7" d="M62.5,152.9l-2.3,9.5c0,0.2-0.2,0.2-0.4,0.2c-0.1,0-0.3,0-0.4-0.1c-0.1-0.1-0.2-0.2-0.2-0.3c0,0,0-0.1,0-0.1
		l0.2-0.8l2.2-9.2c0.1-0.2,0.3-0.3,0.6-0.3 M63.5,152.2"/>
	<path class="st7" d="M62.2,151.9l2.1,0c0.3,0,0.5,0.1,0.6,0.3l2.2,9.2l0.2,0.8c0,0,0,0.1,0,0.1c0,0.1-0.1,0.2-0.2,0.3
		c-0.1,0.1-0.2,0.1-0.4,0.1c-0.2,0-0.3-0.1-0.4-0.2l-2.3-9.5l-1.5,0 M63,152.2"/>
	<path class="st7" d="M60.6,159.3l4.8,0c0.2,0,0.4,0,0.6,0.1c0.1,0.1,0.2,0.2,0.2,0.3c0,0.3-0.3,0.4-0.8,0.4l-4.8,0"/>
</g>
<path class="st7" d="M130.4,53.1c-0.4,0-0.7-0.2-0.8-0.6c-1.6-4.4-5.2-4.5-5.3-4.5c-0.5,0-0.9-0.4-0.9-0.9c0-0.5,0.4-0.9,0.9-0.9
	c0.2,0,5,0,7.1,5.6c0.2,0.5-0.1,1-0.5,1.2C130.6,53.1,130.5,53.1,130.4,53.1z"/>
<path class="st7" d="M59.2,140.6"/>
<path class="st8" d="M122.5,56.1"/>
<path class="st7" d="M59.2,141.5c-0.2,0-0.4-0.1-0.5-0.2c-0.4-0.3-0.5-0.9-0.2-1.3l63.3-84.5c0.3-0.4,0.9-0.5,1.3-0.2
	c0.4,0.3,0.5,0.9,0.2,1.3l-63.3,84.5C59.8,141.3,59.5,141.5,59.2,141.5z"/>
<line class="st9" x1="73.8" y1="80.8" x2="95.3" y2="61.1"/>
<line class="st9" x1="104.5" y1="81.3" x2="81.6" y2="61.7"/>
<g>
	<circle class="st8" cx="172" cy="-250.4" r="17.8"/>
	<g>
		<line class="st10" x1="163" y1="-259.3" x2="180.9" y2="-241.5"/>
		<line class="st10" x1="180.9" y1="-259.3" x2="163" y2="-241.5"/>
	</g>
</g>
<g>
	<circle class="st8" cx="415.2" cy="-250.5" r="17.8"/>
	<g>
		<line class="st10" x1="406.3" y1="-259.5" x2="424.2" y2="-241.6"/>
		<line class="st10" x1="424.2" y1="-259.5" x2="406.3" y2="-241.6"/>
	</g>
</g>
<g>
	<circle class="st8" cx="648.1" cy="-250.5" r="17.8"/>
	<g>
		<line class="st10" x1="639.2" y1="-259.5" x2="657.1" y2="-241.6"/>
		<line class="st10" x1="657.1" y1="-259.5" x2="639.2" y2="-241.6"/>
	</g>
</g>
<g>
	<circle class="st8" cx="172" cy="24.4" r="17.8"/>
	<g>
		<line class="st10" x1="163" y1="15.5" x2="180.9" y2="33.4"/>
		<line class="st10" x1="180.9" y1="15.5" x2="163" y2="33.4"/>
	</g>
</g>
<g>
	<circle class="st8" cx="648.2" cy="24.8" r="17.8"/>
	<g>
		<line class="st10" x1="639.2" y1="15.9" x2="657.1" y2="33.7"/>
		<line class="st10" x1="657.1" y1="15.9" x2="639.2" y2="33.7"/>
	</g>
</g>
<g>
	<g>
		<g>
			<circle class="st0" cx="300" cy="60.9" r="1.3"/>
		</g>
		<g>
			<g>
				<path class="st0" d="M316.9,124.9"/>
			</g>
			<g>
				<path class="st0" d="M316,124.9"/>
			</g>
			<g>
				<path class="st0" d="M373.1,167.7c-0.4,0-0.8-0.3-0.9-0.7c-8.9-43.1-28-105.7-37.7-105.7c-9.7,0.7-22.5,50.9-28.7,84.5
					c-0.1,0.5-0.6,0.8-1,0.7c-0.5-0.1-0.8-0.6-0.7-1c1.6-8.7,16.1-85,30.4-86c12.2,0,31.7,69.8,39.5,107.1c0.1,0.5-0.2,1-0.7,1.1
					C373.2,167.7,373.1,167.7,373.1,167.7z"/>
			</g>
			<g>
				<path class="st0" d="M396.9,53.5c-0.4,0-0.7-0.2-0.8-0.6c-3.2-9.1-8.7-15.5-16.1-19c-5.6-2.6-10.3-2.6-10.3-2.6c0,0,0,0,0,0
					c-0.5,0-0.9-0.4-0.9-0.9c0-0.5,0.4-0.9,0.9-0.9c0.2,0,20-0.1,28.2,22.8c0.2,0.5-0.1,1-0.5,1.2C397.1,53.5,397,53.5,396.9,53.5z"
					/>
			</g>
			<g>
				<path class="st0" d="M384.1,53.1c-0.4,0-0.7-0.2-0.8-0.6c-3.3-9.2-10.9-9.2-11.2-9.2c0,0,0,0,0,0c-0.5,0-0.9-0.4-0.9-0.9
					c0-0.5,0.4-0.9,0.9-0.9c0.1,0,9.2-0.1,12.9,10.4c0.2,0.5-0.1,1-0.5,1.2C384.3,53.1,384.2,53.1,384.1,53.1z"/>
			</g>
			<g>
				<g>
					<path class="st0" d="M334.7,49.1c-6.6,0-12-5.4-12-12c0-6.6,5.4-12,12-12c6.6,0,12,5.4,12,12C346.7,43.7,341.3,49.1,334.7,49.1
						z M334.7,27c-5.6,0-10.2,4.6-10.2,10.2c0,5.6,4.6,10.2,10.2,10.2s10.2-4.6,10.2-10.2S340.3,27,334.7,27z"/>
				</g>
			</g>
			<g>
				<path class="st0" d="M373.1,167.7c-0.3,0-0.6-0.1-0.7-0.4l-66.2-99.2c-0.3-0.4-0.2-1,0.2-1.3c0.4-0.3,1-0.2,1.3,0.2l66.2,99.2
					c0.3,0.4,0.2,1-0.2,1.3C373.4,167.7,373.2,167.7,373.1,167.7z"/>
			</g>
			<g>
				<path class="st0" d="M368.3,61.2"/>
			</g>
			<path class="st0" d="M305,145.6"/>
			<g>
				<g>
					<path class="st0" d="M298.4,164.6l0-4.5c0-1.1,0.3-1.8,0.9-2.4s1.3-0.8,2.2-0.8c0.9,0,1.7,0.2,2.2,0.7c0.5,0.5,0.8,1,0.8,1.7
						c0,0.2,0,0.4-0.1,0.5s-0.2,0.1-0.4,0.1c-0.3,0-0.5-0.1-0.5-0.4c0-0.1,0-0.3-0.1-0.4c0-0.1-0.1-0.3-0.2-0.5
						c-0.1-0.2-0.2-0.3-0.3-0.4c-0.1-0.1-0.3-0.2-0.6-0.3c-0.3-0.1-0.5-0.1-0.9-0.1c-1.4,0-2.1,0.7-2.1,2.2l0,4.5
						c0,1.5,0.7,2.2,2.2,2.2c0.4,0,0.7-0.1,1-0.2c0.3-0.1,0.5-0.3,0.6-0.5c0.1-0.2,0.2-0.4,0.3-0.5s0.1-0.3,0.1-0.6
						c0-0.3,0.2-0.4,0.5-0.4c0.2,0,0.3,0,0.4,0.1c0.1,0.1,0.1,0.2,0.1,0.5c0,0.7-0.3,1.3-0.8,1.8c-0.6,0.5-1.3,0.7-2.2,0.7
						c-0.9,0-1.6-0.3-2.2-0.8C298.6,166.5,298.4,165.7,298.4,164.6z"/>
				</g>
			</g>
			<g>
				<g>
					<path class="st0" d="M314.3,167.3l0-9.9c0-0.2,0.1-0.3,0.4-0.4l2.6,0c0.9,0,1.7,0.2,2.3,0.7c0.6,0.4,0.9,1.2,0.9,2.2
						c0,1.6-0.8,2.6-2.3,2.8l2.3,4.3c0,0,0.1,0.1,0.1,0.2c0,0.1-0.1,0.2-0.2,0.3c-0.1,0.1-0.2,0.2-0.4,0.2c-0.2,0-0.3-0.2-0.5-0.5
						l-2.3-4.4l-1.9,0l0,4.5c0,0.1,0,0.2-0.1,0.3c-0.1,0.1-0.2,0.1-0.3,0.1c-0.1,0-0.2,0-0.3-0.1
						C314.4,167.5,314.3,167.5,314.3,167.3z M315.3,162l2,0c1.5,0,2.2-0.7,2.2-2.1c0-1.4-0.7-2-2.2-2l-2,0L315.3,162z"/>
				</g>
			</g>
			<g>
				<g>
					<path class="st0" d="M298.3,212.7c0-0.4,0.1-0.6,0.2-0.7c0.1-0.1,0.3-0.2,0.6-0.2c0.6,0,0.9,0.2,0.9,0.7c0,0.7,0.3,1.4,0.9,2
						c0.6,0.6,1.5,0.9,2.8,0.9c2.5,0,3.8-1.3,3.8-4l0-0.5c0-1.2-0.3-2.1-1-2.6c-0.7-0.6-1.6-0.9-2.8-0.9c-0.5,0-0.7-0.2-0.7-0.7
						c0-0.5,0.2-0.8,0.7-0.8c1.1,0,1.9-0.2,2.5-0.7c0.5-0.5,0.8-1.4,0.8-2.6c0-1.2-0.3-2-0.8-2.6c-0.5-0.6-1.3-0.8-2.4-0.8
						c-1.2,0-2.1,0.3-2.6,0.9c-0.5,0.6-0.8,1.2-0.8,2c0,0.6-0.3,0.8-0.8,0.8c-0.3,0-0.6-0.1-0.7-0.2c-0.1-0.1-0.2-0.4-0.2-0.8
						c0-0.4,0.1-0.9,0.2-1.3c0.2-0.4,0.4-0.9,0.8-1.4c0.4-0.5,0.9-0.9,1.6-1.2c0.7-0.3,1.6-0.5,2.6-0.5c3.2,0,4.8,1.5,4.8,4.6
						c0,1.1-0.2,2.1-0.6,2.8c-0.4,0.8-0.9,1.3-1.6,1.6c1.8,0.7,2.7,2.1,2.7,4.3l0,0.5c0,1.9-0.5,3.3-1.5,4.2c-1,0.9-2.3,1.3-4,1.3
						c-1.7,0-3.1-0.4-4-1.3C298.7,214.8,298.3,213.8,298.3,212.7z"/>
					<path class="st0" d="M311.9,211.4l0-8.2c0-1.9,0.5-3.4,1.5-4.3c1-0.9,2.3-1.4,3.9-1.4c1.6,0,2.9,0.5,3.9,1.4
						c1,0.9,1.5,2.3,1.5,4.3l0,8.2c0,1.9-0.5,3.4-1.5,4.3c-1,0.9-2.3,1.4-3.9,1.4c-1.6,0-2.9-0.5-3.9-1.4S311.9,213.4,311.9,211.4z
						 M313.6,211.4c0,2.7,1.2,4,3.7,4c2.4,0,3.7-1.3,3.7-4l0-8.2c0-2.7-1.2-4-3.7-4c-2.4,0-3.7,1.3-3.7,4L313.6,211.4z"/>
					<path class="st0" d="M325.9,211.4l0-8.2c0-1.9,0.5-3.4,1.5-4.3c1-0.9,2.3-1.4,3.9-1.4c1.6,0,2.9,0.5,3.9,1.4
						c1,0.9,1.5,2.3,1.5,4.3l0,8.2c0,1.9-0.5,3.4-1.5,4.3c-1,0.9-2.3,1.4-3.9,1.4c-1.6,0-2.9-0.5-3.9-1.4
						C326.4,214.8,325.9,213.4,325.9,211.4z M327.6,211.4c0,2.7,1.2,4,3.7,4c2.4,0,3.7-1.3,3.7-4l0-8.2c0-2.7-1.2-4-3.7-4
						c-2.4,0-3.7,1.3-3.7,4L327.6,211.4z"/>
					<path class="st0" d="M339.9,211.4l0-8.2c0-1.9,0.5-3.4,1.5-4.3c1-0.9,2.3-1.4,3.9-1.4c1.6,0,2.9,0.5,3.9,1.4
						c1,0.9,1.5,2.3,1.5,4.3l0,8.2c0,1.9-0.5,3.4-1.5,4.3c-1,0.9-2.3,1.4-3.9,1.4c-1.6,0-2.9-0.5-3.9-1.4
						C340.4,214.8,339.9,213.4,339.9,211.4z M341.7,211.4c0,2.7,1.2,4,3.7,4c2.4,0,3.7-1.3,3.7-4l0-8.2c0-2.7-1.2-4-3.7-4
						c-2.4,0-3.7,1.3-3.7,4L341.7,211.4z"/>
				</g>
			</g>
			<g>
				<g>
					<path class="st0" d="M373.6,198.3c0-0.1,0.1-0.2,0.2-0.3c0.1-0.1,0.2-0.1,0.4-0.1c0.2,0,0.3,0.1,0.4,0.2l2.6,8.6l2.6-8.6
						c0.1-0.2,0.2-0.2,0.3-0.2c0.1,0,0.3,0,0.4,0.1c0.1,0.1,0.2,0.2,0.2,0.3c0,0,0,0,0,0c0,0,0,0,0,0l-2.9,9.5
						c-0.1,0.2-0.3,0.3-0.6,0.3c-0.3,0-0.5-0.1-0.5-0.3L373.6,198.3C373.6,198.4,373.6,198.3,373.6,198.3z"/>
					<path class="st0" d="M381.2,207.8c0-0.1,0-0.2,0.1-0.3l4.6-8.7l-4.2,0c-0.1,0-0.2,0-0.3-0.1c-0.1-0.1-0.1-0.2-0.1-0.3
						c0-0.1,0-0.2,0.1-0.3c0.1-0.1,0.1-0.1,0.3-0.1l5.1,0c0.2,0,0.3,0.1,0.3,0.3c0,0.1,0,0.2-0.1,0.4l-4.6,8.7l4.6,0
						c0.1,0,0.2,0,0.3,0.1s0.1,0.2,0.1,0.3c0,0.1,0,0.2-0.1,0.3c-0.1,0.1-0.1,0.1-0.3,0.1l-5.4,0C381.3,208.1,381.2,208,381.2,207.8
						z"/>
					<path class="st0" d="M387.9,198.3c0-0.1,0-0.2,0.1-0.3c0.1-0.1,0.2-0.1,0.3-0.1c0.2,0,0.3,0.1,0.3,0.3l2.4,8.6l1.4-5.3
						c0-0.2,0.2-0.3,0.5-0.3c0.2,0,0.4,0.1,0.5,0.4l1.4,5.2l2.4-8.6c0-0.1,0.2-0.2,0.4-0.2c0.1,0,0.3,0,0.4,0.1
						c0.1,0.1,0.2,0.2,0.2,0.2c0,0,0,0.1,0,0.1l-2.7,9.4c-0.1,0.2-0.3,0.4-0.5,0.4c-0.3,0-0.5-0.1-0.5-0.3l-1.3-5l-1.3,4.9
						c0,0.2-0.2,0.4-0.5,0.4c-0.3,0-0.4-0.1-0.5-0.3l-2.8-9.4C387.9,198.4,387.9,198.3,387.9,198.3z"/>
				</g>
			</g>
			<g>
				<g>
					<path class="st0" d="M315,191.7l0-18.2c0-0.4,0.3-0.7,0.9-0.7c0.5,0,1,0.4,1.4,1.2l7.3,14.3l0-14.9c0-0.4,0.3-0.6,0.9-0.6
						s0.9,0.2,0.9,0.6l0,18.3c0,0.2-0.1,0.4-0.3,0.5s-0.4,0.2-0.6,0.2c-0.4,0-0.8-0.3-1.2-1l-7.5-14.5l0,14.8c0,0.2-0.1,0.4-0.3,0.5
						c-0.2,0.1-0.4,0.2-0.6,0.2c-0.3,0-0.5-0.1-0.6-0.2C315.1,192.1,315,191.9,315,191.7z"/>
					<path class="st0" d="M328.7,173.6c0-0.2,0.1-0.4,0.2-0.6c0.1-0.2,0.3-0.3,0.5-0.3l10.8,0c0.2,0,0.4,0.1,0.5,0.2
						c0.1,0.2,0.2,0.3,0.2,0.6c0,0.2-0.1,0.4-0.2,0.6c-0.1,0.2-0.3,0.3-0.5,0.3l-4.5,0l0,17.3c0,0.2-0.1,0.4-0.3,0.5
						c-0.2,0.1-0.4,0.2-0.6,0.2c-0.3,0-0.5-0.1-0.6-0.2c-0.2-0.1-0.3-0.3-0.3-0.5l0-17.3l-4.5,0c-0.2,0-0.4-0.1-0.5-0.2
						C328.8,174,328.7,173.8,328.7,173.6z"/>
					<path class="st0" d="M343.3,191.7l0-18.2c0-0.2,0.1-0.4,0.2-0.5s0.3-0.2,0.6-0.2l9.6,0c0.4,0,0.7,0.3,0.7,0.8
						c0,0.2-0.1,0.4-0.2,0.6c-0.1,0.2-0.3,0.3-0.5,0.3l-8.6,0l0,7.4l4.2,0c0.2,0,0.4,0.1,0.5,0.2c0.1,0.2,0.2,0.3,0.2,0.6
						c0,0.5-0.2,0.7-0.7,0.7l-4.2,0l0,7.4l8.6,0c0.2,0,0.4,0.1,0.5,0.2c0.1,0.2,0.2,0.4,0.2,0.6c0,0.5-0.2,0.8-0.7,0.8l-9.6,0
						c-0.2,0-0.4-0.1-0.6-0.2C343.4,192.1,343.3,191.9,343.3,191.7z"/>
					<path class="st0" d="M356.9,191.7l0-18.2c0-0.4,0.3-0.7,0.9-0.7c0.5,0,1,0.4,1.4,1.2l7.3,14.3l0-14.9c0-0.4,0.3-0.6,0.9-0.6
						c0.6,0,0.9,0.2,0.9,0.6l0,18.3c0,0.2-0.1,0.4-0.3,0.5c-0.2,0.1-0.4,0.2-0.6,0.2c-0.4,0-0.8-0.3-1.2-1l-7.5-14.5l0,14.8
						c0,0.2-0.1,0.4-0.3,0.5c-0.2,0.1-0.4,0.2-0.6,0.2c-0.3,0-0.5-0.1-0.6-0.2C357,192.1,356.9,191.9,356.9,191.7z"/>
					<path class="st0" d="M372.3,191.7l0-18.2c0-0.4,0.3-0.7,0.9-0.7c0.5,0,1,0.4,1.4,1.2l7.3,14.3l0-14.9c0-0.4,0.3-0.6,0.9-0.6
						c0.6,0,0.9,0.2,0.9,0.6l0,18.3c0,0.2-0.1,0.4-0.3,0.5c-0.2,0.1-0.4,0.2-0.6,0.2c-0.4,0-0.8-0.3-1.2-1l-7.5-14.5l0,14.8
						c0,0.2-0.1,0.4-0.3,0.5c-0.2,0.1-0.4,0.2-0.6,0.2c-0.3,0-0.5-0.1-0.6-0.2C372.4,192.1,372.3,191.9,372.3,191.7z"/>
					<path class="st0" d="M387.7,191.7l0-18.2c0-0.2,0.1-0.4,0.2-0.5c0.2-0.1,0.3-0.2,0.6-0.2l9.6,0c0.4,0,0.7,0.3,0.7,0.8
						c0,0.2-0.1,0.4-0.2,0.6c-0.1,0.2-0.3,0.3-0.5,0.3l-8.6,0l0,7.4l4.2,0c0.2,0,0.4,0.1,0.5,0.2c0.1,0.2,0.2,0.3,0.2,0.6
						c0,0.5-0.2,0.7-0.7,0.7l-4.2,0l0,7.4l8.6,0c0.2,0,0.4,0.1,0.5,0.2c0.1,0.2,0.2,0.4,0.2,0.6c0,0.5-0.2,0.8-0.7,0.8l-9.6,0
						c-0.2,0-0.4-0.1-0.6-0.2S387.7,191.9,387.7,191.7z"/>
					<g>
						<path class="st0" d="M304.3,174.6l-4.2,17.4c-0.1,0.3-0.3,0.5-0.7,0.5c-0.3,0-0.5-0.1-0.7-0.2c-0.2-0.1-0.3-0.3-0.3-0.5
							c0-0.1,0-0.2,0-0.2l0.4-1.4l3.9-16.8c0.1-0.4,0.5-0.6,1-0.6 M306.1,173.3"/>
						<path class="st0" d="M303.7,172.7l3.8,0c0.6,0,0.9,0.2,1,0.6l4,16.8l0.4,1.4c0,0,0,0.1,0,0.2c0,0.2-0.1,0.4-0.3,0.5
							c-0.2,0.1-0.5,0.2-0.7,0.2c-0.4,0-0.6-0.2-0.7-0.5l-4.2-17.4l-2.8,0 M305.2,173.3"/>
						<path class="st0" d="M300.8,186.2l8.8,0c0.4,0,0.8,0.1,1,0.2c0.2,0.2,0.4,0.3,0.4,0.6c0,0.5-0.5,0.7-1.4,0.7l-8.8,0"/>
					</g>
				</g>
			</g>
			<g>
				<g>
					<g>
						<g>
							<path class="st0" d="M308.3,158l-2.3,9.5c0,0.2-0.2,0.2-0.4,0.2c-0.1,0-0.3,0-0.4-0.1c-0.1-0.1-0.2-0.2-0.2-0.3
								c0,0,0-0.1,0-0.1l0.2-0.8l2.2-9.2c0.1-0.2,0.3-0.3,0.6-0.3 M309.3,157.3"/>
						</g>
					</g>
					<g>
						<g>
							<path class="st0" d="M308,156.9l2.1,0c0.3,0,0.5,0.1,0.6,0.3l2.2,9.2l0.2,0.8c0,0,0,0.1,0,0.1c0,0.1-0.1,0.2-0.2,0.3
								c-0.1,0.1-0.2,0.1-0.4,0.1c-0.2,0-0.3-0.1-0.4-0.2l-2.3-9.5l-1.5,0 M308.8,157.3"/>
						</g>
					</g>
					<g>
						<path class="st0" d="M306.4,164.3l4.8,0c0.2,0,0.4,0,0.6,0.1c0.1,0.1,0.2,0.2,0.2,0.3c0,0.3-0.3,0.4-0.8,0.4l-4.8,0"/>
					</g>
				</g>
			</g>
			<g>
				<path class="st0" d="M376.1,58.2c-0.4,0-0.7-0.2-0.8-0.6c-1.6-4.4-5.2-4.5-5.3-4.5c-0.5,0-0.9-0.4-0.9-0.9
					c0-0.5,0.4-0.9,0.9-0.9c0.2,0,5,0,7.1,5.6c0.2,0.5-0.1,1-0.5,1.2C376.3,58.2,376.2,58.2,376.1,58.2z"/>
			</g>
			<path class="st0" d="M305,145.6"/>
			<g>
				<path class="st0" d="M368.3,61.2"/>
			</g>
			<g>
				<path class="st0" d="M305,146.5c-0.2,0-0.4-0.1-0.5-0.2c-0.4-0.3-0.5-0.9-0.2-1.3l63.3-84.5c0.3-0.4,0.9-0.5,1.3-0.2
					c0.4,0.3,0.5,0.9,0.2,1.3l-63.3,84.5C305.5,146.4,305.3,146.5,305,146.5z"/>
			</g>
			<g>
				<line class="st8" x1="319.5" y1="85.8" x2="341.1" y2="66.1"/>
				<line class="st11" x1="319.5" y1="85.8" x2="341.1" y2="66.1"/>
			</g>
			<g>
				<line class="st8" x1="350.2" y1="86.4" x2="327.4" y2="66.7"/>
				<line class="st11" x1="350.2" y1="86.4" x2="327.4" y2="66.7"/>
			</g>
		</g>
	</g>
</g>
<rect x="243.3" class="st0" width="201.1" height="25.2"/>
<g>
	<circle class="st8" cx="415.2" cy="24.9" r="17.8"/>
	<g>
		<line class="st10" x1="406.3" y1="15.9" x2="424.2" y2="33.8"/>
		<line class="st10" x1="424.2" y1="15.9" x2="406.3" y2="33.8"/>
	</g>
</g>
<rect x="161.8" y="105.8" transform="matrix(-1.836970e-16 1 -1 -1.836970e-16 404.0716 -137.4572)" class="st0" width="217.8" height="55"/>
<rect x="269" y="217.1" transform="matrix(-1 -1.224647e-16 1.224647e-16 -1 713.362 459.2883)" class="st0" width="175.3" height="25.2"/>
</svg>
