<svg id="Layer_1" data-name="Layer 1" xmlns="http://www.w3.org/2000/svg" viewBox="0 0 201.08 242.23"><defs><style>.cls-1,.cls-3{fill:none;stroke-miterlimit:10;}.cls-1{stroke:#1a4955;}.cls-2{fill:#1a4955;}.cls-3{stroke:#f4dd6f;stroke-width:13px;}</style></defs><title>watnietkan</title><circle class="cls-1" cx="56.36" cy="54.4" r="1.35"/><path class="cls-1" d="M129.37,161.25a.9.9,0,0,1-.88-.72c-8.91-43.11-28-105.72-37.61-105.72-9.71.67-22.5,50.89-28.71,84.49A.9.9,0,0,1,60.4,139C62,130.27,76.51,54,90.81,53c12.24,0,31.71,69.79,39.44,107.16a.9.9,0,0,1-.7,1.06Z"/><path class="cls-1" d="M153.25,47.06a.9.9,0,0,1-.85-.6c-3.24-9.11-8.66-15.52-16.12-19.05A25.88,25.88,0,0,0,126,24.81h0a.9.9,0,0,1,0-1.8c.24,0,20-.08,28.16,22.85a.9.9,0,0,1-.85,1.2Z"/><path class="cls-1" d="M140.48,46.67a.9.9,0,0,1-.85-.6c-3.28-9.21-10.86-9.21-11.18-9.22h0a.9.9,0,0,1,0-1.8c.1,0,9.18-.05,12.91,10.42a.9.9,0,0,1-.85,1.2Z"/><path class="cls-1" d="M91,42.59a12,12,0,1,1,12-12A12,12,0,0,1,91,42.59Zm0-22.14a10.17,10.17,0,1,0,10.17,10.17A10.18,10.18,0,0,0,91,20.45Z"/><path class="cls-1" d="M129.37,161.25a.89.89,0,0,1-.74-.4L62.5,61.66a.94.94,0,0,1,.23-1.28.88.88,0,0,1,1.25.24l66.13,99.19a.94.94,0,0,1-.24,1.28A.88.88,0,0,1,129.37,161.25Z"/><path class="cls-2" d="M54.65,158.08v-4.53a3,3,0,0,1,.85-2.35,3.68,3.68,0,0,1,4.41-.05,2.21,2.21,0,0,1,.81,1.73.71.71,0,0,1-.11.47.49.49,0,0,1-.37.12q-.45,0-.48-.36a3,3,0,0,0-.06-.42,1.92,1.92,0,0,0-.18-.46,1.54,1.54,0,0,0-.34-.45,1.64,1.64,0,0,0-.59-.31,2.83,2.83,0,0,0-.88-.12q-2.1,0-2.1,2.22v4.53a1.94,1.94,0,0,0,2.16,2.23,2.71,2.71,0,0,0,1-.17,1.19,1.19,0,0,0,.6-.49,2.48,2.48,0,0,0,.26-.55,3.86,3.86,0,0,0,.11-.59c0-.25.19-.38.48-.38a.48.48,0,0,1,.37.12.75.75,0,0,1,.11.47,2.23,2.23,0,0,1-.82,1.75,3.28,3.28,0,0,1-2.23.72,3.13,3.13,0,0,1-2.18-.76A3,3,0,0,1,54.65,158.08Z"/><path class="cls-2" d="M70.63,160.83v-9.94q0-.32.36-.35h2.58a3.64,3.64,0,0,1,2.29.67,2.62,2.62,0,0,1,.87,2.2,2.54,2.54,0,0,1-2.28,2.82l2.25,4.32a.3.3,0,0,1,.06.19.45.45,0,0,1-.18.34.56.56,0,0,1-.38.15q-.26,0-.51-.51l-2.25-4.38H71.6v4.48a.32.32,0,0,1-.15.28.57.57,0,0,1-.34.1.56.56,0,0,1-.34-.1A.33.33,0,0,1,70.63,160.83Zm1-5.32h2q2.19,0,2.19-2.06t-2.19-2h-2Z"/><path class="cls-1" d="M54.55,206.21a1.07,1.07,0,0,1,.18-.72.84.84,0,0,1,.63-.2q.9,0,.9.74a2.85,2.85,0,0,0,.88,2A3.77,3.77,0,0,0,60,209q3.79,0,3.79-4v-.5a3.33,3.33,0,0,0-1-2.63A4,4,0,0,0,60,201q-.69,0-.69-.74t.66-.76a3.56,3.56,0,0,0,2.48-.75,3.43,3.43,0,0,0,.82-2.61,3.67,3.67,0,0,0-.76-2.56,3.16,3.16,0,0,0-2.42-.83,3.37,3.37,0,0,0-2.61.85,2.85,2.85,0,0,0-.76,2,.74.74,0,0,1-.84.84.94.94,0,0,1-.7-.21,1.17,1.17,0,0,1-.2-.79,3.82,3.82,0,0,1,.24-1.3,5.23,5.23,0,0,1,.76-1.36,3.75,3.75,0,0,1,1.61-1.15,6.62,6.62,0,0,1,2.56-.45q4.82,0,4.82,4.65a6.06,6.06,0,0,1-.59,2.84,3.51,3.51,0,0,1-1.57,1.6,4.16,4.16,0,0,1,2.69,4.27v.5A5.36,5.36,0,0,1,64,209.22a5.79,5.79,0,0,1-4,1.34,5.64,5.64,0,0,1-4-1.34A4.06,4.06,0,0,1,54.55,206.21Z"/><path class="cls-1" d="M68.17,204.92v-8.17a5.49,5.49,0,0,1,1.49-4.25,6.31,6.31,0,0,1,7.82,0A5.48,5.48,0,0,1,79,196.76v8.17a5.52,5.52,0,0,1-1.49,4.28,6.31,6.31,0,0,1-7.82,0A5.53,5.53,0,0,1,68.17,204.92Zm1.74,0q0,4,3.66,4t3.66-4v-8.17q0-4-3.66-4t-3.66,4Z"/><path class="cls-1" d="M82.18,204.92v-8.17a5.49,5.49,0,0,1,1.49-4.25,6.31,6.31,0,0,1,7.82,0A5.48,5.48,0,0,1,93,196.76v8.17a5.52,5.52,0,0,1-1.49,4.28,6.31,6.31,0,0,1-7.82,0A5.53,5.53,0,0,1,82.18,204.92Zm1.74,0q0,4,3.66,4t3.66-4v-8.17q0-4-3.66-4t-3.66,4Z"/><path class="cls-1" d="M96.2,204.92v-8.17a5.49,5.49,0,0,1,1.49-4.25,6.31,6.31,0,0,1,7.82,0,5.48,5.48,0,0,1,1.49,4.25v8.17a5.52,5.52,0,0,1-1.49,4.28,6.31,6.31,0,0,1-7.82,0A5.53,5.53,0,0,1,96.2,204.92Zm1.74,0q0,4,3.66,4t3.66-4v-8.17q0-4-3.66-4t-3.66,4Z"/><path class="cls-2" d="M129.91,191.82a.33.33,0,0,1,.17-.28.64.64,0,0,1,.36-.11q.31,0,.36.24l2.58,8.56,2.56-8.56a.34.34,0,0,1,.35-.24.69.69,0,0,1,.38.12.34.34,0,0,1,.18.28l0,0,0,0-2.89,9.45q-.1.34-.56.34t-.54-.33l-2.9-9.45A.24.24,0,0,1,129.91,191.82Z"/><path class="cls-2" d="M137.47,201.29a.72.72,0,0,1,.08-.32l4.64-8.7H138a.3.3,0,0,1-.25-.13.52.52,0,0,1,0-.6.3.3,0,0,1,.26-.13H143q.35,0,.35.29a.74.74,0,0,1-.11.36l-4.63,8.68h4.56a.3.3,0,0,1,.26.13.49.49,0,0,1,.09.29.52.52,0,0,1-.09.3.29.29,0,0,1-.26.13H137.8Q137.47,201.62,137.47,201.29Z"/><path class="cls-2" d="M144.18,191.8a.32.32,0,0,1,.15-.26.53.53,0,0,1,.32-.11.3.3,0,0,1,.32.27l2.41,8.56,1.41-5.25q.07-.3.47-.3a.43.43,0,0,1,.46.35l1.39,5.2,2.43-8.62q.07-.21.37-.21a.68.68,0,0,1,.37.11.3.3,0,0,1,.17.25.32.32,0,0,1,0,.11l-2.73,9.45a.51.51,0,0,1-.55.36q-.45,0-.53-.31l-1.35-5-1.33,4.92a.44.44,0,0,1-.49.36.45.45,0,0,1-.5-.34l-2.75-9.45A.35.35,0,0,1,144.18,191.8Z"/><path class="cls-1" d="M71.3,185.18V166.93q0-.67.89-.67t1.4,1.23l7.25,14.28V166.91q0-.64.89-.64t.89.64v18.28a.59.59,0,0,1-.27.51,1,1,0,0,1-.62.19q-.67,0-1.18-1l-7.46-14.52v14.84a.59.59,0,0,1-.27.51,1.05,1.05,0,0,1-.62.19,1,1,0,0,1-.63-.19A.6.6,0,0,1,71.3,185.18Z"/><path class="cls-1" d="M85,167.08a1,1,0,0,1,.17-.57.57.57,0,0,1,.5-.25H96.47a.58.58,0,0,1,.5.24.91.91,0,0,1,.17.55,1,1,0,0,1-.17.59.57.57,0,0,1-.5.25H92v17.28a.59.59,0,0,1-.27.51,1,1,0,0,1-.62.19,1,1,0,0,1-.63-.19.6.6,0,0,1-.25-.51V167.9H85.71a.59.59,0,0,1-.48-.24A.91.91,0,0,1,85,167.08Z"/><path class="cls-1" d="M99.58,185.18V166.93a.58.58,0,0,1,.24-.5.94.94,0,0,1,.56-.17h9.55q.67,0,.67.78a1,1,0,0,1-.17.6.56.56,0,0,1-.5.26h-8.59v7.38h4.21a.59.59,0,0,1,.5.23.92.92,0,0,1,.17.58q0,.72-.67.72h-4.21v7.43h8.59a.59.59,0,0,1,.48.24.93.93,0,0,1,.19.59q0,.81-.67.81h-9.55a.89.89,0,0,1-.56-.19A.61.61,0,0,1,99.58,185.18Z"/><path class="cls-1" d="M113.21,185.18V166.93q0-.67.89-.67t1.4,1.23l7.25,14.28V166.91q0-.64.89-.64t.89.64v18.28a.59.59,0,0,1-.27.51,1,1,0,0,1-.62.19q-.67,0-1.18-1L115,170.34v14.84a.59.59,0,0,1-.27.51,1.05,1.05,0,0,1-.62.19,1,1,0,0,1-.63-.19A.6.6,0,0,1,113.21,185.18Z"/><path class="cls-1" d="M128.59,185.18V166.93q0-.67.89-.67t1.4,1.23l7.25,14.28V166.91q0-.64.89-.64t.89.64v18.28a.59.59,0,0,1-.27.51,1,1,0,0,1-.62.19q-.67,0-1.18-1l-7.46-14.52v14.84a.59.59,0,0,1-.27.51,1.05,1.05,0,0,1-.62.19,1,1,0,0,1-.63-.19A.6.6,0,0,1,128.59,185.18Z"/><path class="cls-1" d="M144,185.18V166.93a.58.58,0,0,1,.24-.5.94.94,0,0,1,.56-.17h9.55q.67,0,.67.78a1,1,0,0,1-.17.6.56.56,0,0,1-.5.26h-8.59v7.38H150a.59.59,0,0,1,.5.23.92.92,0,0,1,.17.58q0,.72-.67.72h-4.21v7.43h8.59a.59.59,0,0,1,.48.24.93.93,0,0,1,.19.59q0,.81-.67.81h-9.55a.89.89,0,0,1-.56-.19A.61.61,0,0,1,144,185.18Z"/><path class="cls-1" d="M60.57,168.11l-4.19,17.4c-.07.3-.31.45-.7.45a1.24,1.24,0,0,1-.7-.21.63.63,0,0,1-.32-.54.46.46,0,0,1,0-.19L55,183.6l4-16.79q.19-.62,1-.62m2.36.62"/><path class="cls-1" d="M60,166.18h3.82q.86,0,1,.62l4,16.79L69.2,185a.46.46,0,0,1,0,.19.63.63,0,0,1-.32.54,1.24,1.24,0,0,1-.7.21c-.4,0-.63-.15-.7-.45L63.35,168.1H60.57m.91-1.31"/><path class="cls-1" d="M66.48,181.24H57.12"/><path class="cls-1" d="M57.77,179.71h8.14"/><path class="cls-2" d="M64.59,151.47,62.29,161c0,.17-.17.25-.38.25a.68.68,0,0,1-.38-.12.34.34,0,0,1-.18-.29.25.25,0,0,1,0-.1l.19-.78,2.16-9.19q.1-.34.57-.34m1.29.34"/><path class="cls-2" d="M64.29,150.41h2.09q.47,0,.57.34l2.16,9.19.19.78a.25.25,0,0,1,0,.1.34.34,0,0,1-.18.29.68.68,0,0,1-.38.12c-.22,0-.35-.08-.38-.25l-2.27-9.52H64.59m.5-.72"/><path class="cls-2" d="M62.7,157.82h4.81a1.07,1.07,0,0,1,.57.12.37.37,0,0,1,.2.32q0,.4-.77.4H62.7"/><path class="cls-1" d="M132.47,51.72a.9.9,0,0,1-.85-.6c-1.58-4.43-5.22-4.45-5.34-4.45a.93.93,0,0,1-.91-.89.9.9,0,0,1,.88-.91c.21,0,5,0,7.06,5.65a.9.9,0,0,1-.85,1.2Z"/><path class="cls-1" d="M61.28,140a.9.9,0,0,1-.72-1.44L123.9,54.15a.9.9,0,1,1,1.44,1.08L62,139.67A.9.9,0,0,1,61.28,140Z"/><rect class="cls-1" x="72.05" y="68.58" width="29.18" height="1.8" transform="translate(-24.19 76.6) rotate(-42.41)"/><rect class="cls-1" x="94.23" y="54.98" width="1.85" height="30.13" transform="translate(-20.03 96.4) rotate(-49.24)"/><line class="cls-3" x1="67.19" y1="146.9" x2="118.77" y2="95.33"/><line class="cls-3" x1="118.77" y1="146.9" x2="67.19" y2="95.33"/></svg>