<?xml version="1.0" encoding="utf-8"?>
<!-- Generator: Adobe Illustrator 22.1.0, SVG Export Plug-In . SVG Version: 6.00 Build 0)  -->
<svg version="1.1" id="Laag_1" xmlns="http://www.w3.org/2000/svg" xmlns:xlink="http://www.w3.org/1999/xlink" x="0px" y="0px"
	 viewBox="0 0 722.6 608.6" style="enable-background:new 0 0 722.6 608.6;" xml:space="preserve">
<style type="text/css">
	.st0{fill:#F4DD70;}
	.st1{fill:none;stroke:#232322;stroke-width:3.5004;stroke-linecap:round;stroke-miterlimit:10;}
	.st2{fill:#DFD35A;stroke:#232322;stroke-width:3.5004;stroke-linecap:round;stroke-miterlimit:10;}
	.st3{fill:#D8842D;}
	.st4{fill:#1A4955;}
	.st5{fill:none;stroke:#232322;stroke-width:2.9233;stroke-linecap:round;stroke-miterlimit:10;}
	.st6{fill:#DFD35A;stroke:#232322;stroke-width:2.9233;stroke-linecap:round;stroke-miterlimit:10;}
	.st7{fill:none;stroke:#1A4955;stroke-width:1.754;stroke-miterlimit:10;}
	.st8{fill:none;stroke:#1A4955;stroke-width:1.805;stroke-miterlimit:10;}
	.st9{fill:none;}
	.st10{fill:#1A4955;stroke:#1A4955;stroke-width:0.25;stroke-miterlimit:10;}
	.st11{font-family:'Dosis-Regular';}
	.st12{font-size:10.9718px;}
	.st13{font-size:21px;}
	.st14{fill:none;stroke:#1A4955;stroke-width:0.75;stroke-miterlimit:10;}
	.st15{fill:none;stroke:#1A4955;stroke-miterlimit:10;}
	.st16{letter-spacing:3;}
	.st17{fill:none;stroke:#1A4955;stroke-width:0.5;stroke-miterlimit:10;}
	.st18{fill:#FFFFFF;}
	.st19{font-size:18px;}
</style>
<g>
	
		<image style="overflow:visible;" width="1880" height="1253" id="kids-girl-pencil-drawing-159823_2_" xlink:href="876581AEAFC9373.jpg"  transform="matrix(0.168 0 0 0.1805 28.5845 355.0066)">
	</image>
</g>
<rect x="26.9" y="53.9" class="st0" width="651.6" height="174.1"/>
<g>
	<path class="st1" d="M128.8,159.9"/>
	<path class="st2" d="M128.8,159.9"/>
	<circle class="st3" cx="106.9" cy="96.5" r="0.3"/>
	<g>
		<circle class="st4" cx="84.2" cy="95.4" r="0.7"/>
		<g>
			<path class="st4" d="M92.4,126.6"/>
			<path class="st4" d="M91.9,126.6"/>
			<path class="st4" d="M119.7,147.4c-0.2,0-0.4-0.1-0.4-0.3c-4.3-20.9-13.6-51.4-18.3-51.4C96.2,96,90,120.4,87,136.7
				c0,0.2-0.3,0.4-0.5,0.4c-0.2,0-0.4-0.3-0.4-0.5c0.8-4.2,7.8-41.3,14.8-41.8c5.9,0,15.4,33.9,19.2,52.1
				C120.1,147.1,120,147.3,119.7,147.4C119.7,147.4,119.7,147.4,119.7,147.4z"/>
			<path class="st4" d="M131.3,91.9c-0.2,0-0.3-0.1-0.4-0.3c-1.6-4.4-4.2-7.5-7.8-9.3c-2.7-1.3-5-1.3-5-1.3c0,0,0,0,0,0
				c-0.2,0-0.4-0.2-0.4-0.4c0-0.2,0.2-0.4,0.4-0.4c0.1,0,9.7,0,13.7,11.1c0.1,0.2,0,0.5-0.3,0.6C131.4,91.9,131.3,91.9,131.3,91.9z"
				/>
			<path class="st4" d="M125.1,91.7c-0.2,0-0.3-0.1-0.4-0.3c-1.6-4.5-5.3-4.5-5.4-4.5c0,0,0,0,0,0c-0.2,0-0.4-0.2-0.4-0.4
				c0-0.2,0.2-0.4,0.4-0.4c0,0,4.5,0,6.3,5.1c0.1,0.2,0,0.5-0.3,0.6C125.2,91.7,125.1,91.7,125.1,91.7z"/>
			<path class="st4" d="M101,89.7c-3.2,0-5.8-2.6-5.8-5.8c0-3.2,2.6-5.8,5.8-5.8c3.2,0,5.8,2.6,5.8,5.8
				C106.9,87.1,104.2,89.7,101,89.7z M101,79c-2.7,0-4.9,2.2-4.9,4.9s2.2,4.9,4.9,4.9s4.9-2.2,4.9-4.9S103.8,79,101,79z"/>
			<path class="st4" d="M119.7,147.4c-0.1,0-0.3-0.1-0.4-0.2L87.2,99c-0.1-0.2-0.1-0.5,0.1-0.6c0.2-0.1,0.5-0.1,0.6,0.1l32.1,48.2
				c0.1,0.2,0.1,0.5-0.1,0.6C119.8,147.3,119.7,147.4,119.7,147.4z"/>
			<path class="st4" d="M117.4,95.6"/>
			<path class="st5" d="M86.6,136.6"/>
			<path class="st4" d="M83.4,145.8v-2.2c0-0.5,0.1-0.9,0.4-1.1c0.3-0.2,0.6-0.4,1.1-0.4c0.4,0,0.8,0.1,1.1,0.3
				c0.3,0.2,0.4,0.5,0.4,0.8c0,0.1,0,0.2-0.1,0.2c0,0-0.1,0.1-0.2,0.1c-0.1,0-0.2-0.1-0.2-0.2c0-0.1,0-0.1,0-0.2
				c0-0.1,0-0.1-0.1-0.2c0-0.1-0.1-0.2-0.2-0.2s-0.2-0.1-0.3-0.2c-0.1,0-0.3-0.1-0.4-0.1c-0.7,0-1,0.4-1,1.1v2.2
				c0,0.7,0.3,1.1,1.1,1.1c0.2,0,0.4,0,0.5-0.1c0.1-0.1,0.2-0.1,0.3-0.2c0.1-0.1,0.1-0.2,0.1-0.3c0-0.1,0-0.2,0.1-0.3
				c0-0.1,0.1-0.2,0.2-0.2c0.1,0,0.1,0,0.2,0.1c0,0,0.1,0.1,0.1,0.2c0,0.3-0.1,0.6-0.4,0.9c-0.3,0.2-0.6,0.3-1.1,0.3
				c-0.4,0-0.8-0.1-1.1-0.4C83.5,146.7,83.4,146.4,83.4,145.8z"/>
			<path class="st4" d="M91.1,147.2v-4.8c0-0.1,0.1-0.2,0.2-0.2h1.3c0.5,0,0.8,0.1,1.1,0.3c0.3,0.2,0.4,0.6,0.4,1.1
				c0,0.8-0.4,1.2-1.1,1.4l1.1,2.1c0,0,0,0.1,0,0.1c0,0.1,0,0.1-0.1,0.2c-0.1,0-0.1,0.1-0.2,0.1c-0.1,0-0.2-0.1-0.2-0.2l-1.1-2.1
				h-0.9v2.2c0,0.1,0,0.1-0.1,0.1c0,0-0.1,0-0.2,0c-0.1,0-0.1,0-0.2,0C91.1,147.3,91.1,147.2,91.1,147.2z M91.6,144.6h1
				c0.7,0,1.1-0.3,1.1-1c0-0.7-0.4-1-1.1-1h-1V144.6z"/>
			<g>
				<g>
					<path class="st4" d="M83.3,169.2c0-0.2,0-0.3,0.1-0.4c0.1-0.1,0.2-0.1,0.3-0.1c0.3,0,0.4,0.1,0.4,0.4c0,0.4,0.1,0.7,0.4,1
						c0.3,0.3,0.7,0.4,1.4,0.4c1.2,0,1.8-0.6,1.8-1.9v-0.2c0-0.6-0.2-1-0.5-1.3c-0.3-0.3-0.8-0.4-1.3-0.4c-0.2,0-0.3-0.1-0.3-0.4
						c0-0.2,0.1-0.4,0.3-0.4c0.5,0,0.9-0.1,1.2-0.4c0.3-0.2,0.4-0.7,0.4-1.3c0-0.6-0.1-1-0.4-1.2c-0.2-0.3-0.6-0.4-1.2-0.4
						c-0.6,0-1,0.1-1.3,0.4c-0.2,0.3-0.4,0.6-0.4,1c0,0.3-0.1,0.4-0.4,0.4c-0.2,0-0.3,0-0.3-0.1c-0.1-0.1-0.1-0.2-0.1-0.4
						c0-0.2,0-0.4,0.1-0.6c0.1-0.2,0.2-0.4,0.4-0.7c0.2-0.2,0.4-0.4,0.8-0.6c0.3-0.1,0.8-0.2,1.2-0.2c1.6,0,2.3,0.8,2.3,2.3
						c0,0.6-0.1,1-0.3,1.4c-0.2,0.4-0.4,0.6-0.8,0.8c0.9,0.4,1.3,1,1.3,2.1v0.2c0,0.9-0.2,1.6-0.7,2c-0.5,0.4-1.1,0.7-1.9,0.7
						c-0.8,0-1.5-0.2-2-0.7C83.5,170.2,83.3,169.8,83.3,169.2z"/>
					<path class="st4" d="M89.9,168.6v-4c0-0.9,0.2-1.6,0.7-2.1c0.5-0.4,1.1-0.7,1.9-0.7c0.8,0,1.4,0.2,1.9,0.7
						c0.5,0.4,0.7,1.1,0.7,2.1v4c0,0.9-0.2,1.6-0.7,2.1c-0.5,0.4-1.1,0.7-1.9,0.7c-0.8,0-1.4-0.2-1.9-0.7
						C90.2,170.2,89.9,169.5,89.9,168.6z M90.8,168.6c0,1.3,0.6,2,1.8,2c1.2,0,1.8-0.7,1.8-2v-4c0-1.3-0.6-1.9-1.8-1.9
						c-1.2,0-1.8,0.6-1.8,1.9V168.6z"/>
					<path class="st4" d="M96.7,168.6v-4c0-0.9,0.2-1.6,0.7-2.1c0.5-0.4,1.1-0.7,1.9-0.7c0.8,0,1.4,0.2,1.9,0.7
						c0.5,0.4,0.7,1.1,0.7,2.1v4c0,0.9-0.2,1.6-0.7,2.1c-0.5,0.4-1.1,0.7-1.9,0.7c-0.8,0-1.4-0.2-1.9-0.7
						C97,170.2,96.7,169.5,96.7,168.6z M97.6,168.6c0,1.3,0.6,2,1.8,2c1.2,0,1.8-0.7,1.8-2v-4c0-1.3-0.6-1.9-1.8-1.9
						c-1.2,0-1.8,0.6-1.8,1.9V168.6z"/>
					<path class="st4" d="M103.5,168.6v-4c0-0.9,0.2-1.6,0.7-2.1c0.5-0.4,1.1-0.7,1.9-0.7c0.8,0,1.4,0.2,1.9,0.7
						c0.5,0.4,0.7,1.1,0.7,2.1v4c0,0.9-0.2,1.6-0.7,2.1c-0.5,0.4-1.1,0.7-1.9,0.7c-0.8,0-1.4-0.2-1.9-0.7
						C103.8,170.2,103.5,169.5,103.5,168.6z M104.4,168.6c0,1.3,0.6,2,1.8,2c1.2,0,1.8-0.7,1.8-2v-4c0-1.3-0.6-1.9-1.8-1.9
						c-1.2,0-1.8,0.6-1.8,1.9V168.6z"/>
				</g>
			</g>
			<g>
				<g>
					<path class="st4" d="M119.9,162.2c0-0.1,0-0.1,0.1-0.1c0.1,0,0.1-0.1,0.2-0.1c0.1,0,0.2,0,0.2,0.1l1.3,4.2l1.2-4.2
						c0-0.1,0.1-0.1,0.2-0.1c0.1,0,0.1,0,0.2,0.1c0.1,0,0.1,0.1,0.1,0.1c0,0,0,0,0,0c0,0,0,0,0,0l-1.4,4.6c0,0.1-0.1,0.2-0.3,0.2
						c-0.1,0-0.2-0.1-0.3-0.2L119.9,162.2C119.9,162.3,119.9,162.3,119.9,162.2z"/>
					<path class="st4" d="M123.6,166.8c0,0,0-0.1,0-0.2l2.3-4.2h-2c0,0-0.1,0-0.1-0.1c0,0,0-0.1,0-0.1c0-0.1,0-0.1,0-0.1
						c0,0,0.1-0.1,0.1-0.1h2.5c0.1,0,0.2,0,0.2,0.1c0,0.1,0,0.1-0.1,0.2l-2.2,4.2h2.2c0.1,0,0.1,0,0.1,0.1c0,0,0,0.1,0,0.1
						c0,0.1,0,0.1,0,0.1c0,0-0.1,0.1-0.1,0.1h-2.6C123.7,167,123.6,166.9,123.6,166.8z"/>
					<path class="st4" d="M126.9,162.2c0,0,0-0.1,0.1-0.1c0,0,0.1-0.1,0.2-0.1c0.1,0,0.1,0,0.2,0.1l1.2,4.2l0.7-2.6
						c0-0.1,0.1-0.1,0.2-0.1c0.1,0,0.2,0.1,0.2,0.2l0.7,2.5l1.2-4.2c0-0.1,0.1-0.1,0.2-0.1c0.1,0,0.1,0,0.2,0.1
						c0.1,0,0.1,0.1,0.1,0.1c0,0,0,0,0,0.1l-1.3,4.6c0,0.1-0.1,0.2-0.3,0.2c-0.1,0-0.2-0.1-0.3-0.2l-0.7-2.4l-0.6,2.4
						c0,0.1-0.1,0.2-0.2,0.2c-0.1,0-0.2-0.1-0.2-0.2L126.9,162.2C126.9,162.3,126.9,162.2,126.9,162.2z"/>
				</g>
			</g>
			<g>
				<g>
					<path class="st4" d="M91.4,159v-8.9c0-0.2,0.1-0.3,0.4-0.3c0.2,0,0.5,0.2,0.7,0.6l3.5,6.9v-7.2c0-0.2,0.1-0.3,0.4-0.3
						c0.3,0,0.4,0.1,0.4,0.3v8.9c0,0.1,0,0.2-0.1,0.2s-0.2,0.1-0.3,0.1c-0.2,0-0.4-0.2-0.6-0.5l-3.6-7.1v7.2c0,0.1,0,0.2-0.1,0.2
						c-0.1,0.1-0.2,0.1-0.3,0.1c-0.1,0-0.2,0-0.3-0.1C91.5,159.2,91.4,159.1,91.4,159z"/>
					<path class="st4" d="M98.1,150.2c0-0.1,0-0.2,0.1-0.3c0.1-0.1,0.1-0.1,0.2-0.1h5.2c0.1,0,0.2,0,0.2,0.1s0.1,0.2,0.1,0.3
						c0,0.1,0,0.2-0.1,0.3c-0.1,0.1-0.1,0.1-0.2,0.1h-2.2v8.4c0,0.1,0,0.2-0.1,0.2c-0.1,0.1-0.2,0.1-0.3,0.1c-0.1,0-0.2,0-0.3-0.1
						c-0.1-0.1-0.1-0.1-0.1-0.2v-8.4h-2.2c-0.1,0-0.2,0-0.2-0.1C98.1,150.4,98.1,150.3,98.1,150.2z"/>
					<path class="st4" d="M105.2,159v-8.9c0-0.1,0-0.2,0.1-0.2s0.2-0.1,0.3-0.1h4.6c0.2,0,0.3,0.1,0.3,0.4c0,0.1,0,0.2-0.1,0.3
						c-0.1,0.1-0.1,0.1-0.2,0.1H106v3.6h2c0.1,0,0.2,0,0.2,0.1c0.1,0.1,0.1,0.2,0.1,0.3c0,0.2-0.1,0.4-0.3,0.4h-2v3.6h4.2
						c0.1,0,0.2,0,0.2,0.1c0.1,0.1,0.1,0.2,0.1,0.3c0,0.3-0.1,0.4-0.3,0.4h-4.6c-0.1,0-0.2,0-0.3-0.1S105.2,159.1,105.2,159z"/>
					<path class="st4" d="M111.8,159v-8.9c0-0.2,0.1-0.3,0.4-0.3c0.2,0,0.5,0.2,0.7,0.6l3.5,6.9v-7.2c0-0.2,0.1-0.3,0.4-0.3
						c0.3,0,0.4,0.1,0.4,0.3v8.9c0,0.1,0,0.2-0.1,0.2c-0.1,0.1-0.2,0.1-0.3,0.1c-0.2,0-0.4-0.2-0.6-0.5l-3.6-7.1v7.2
						c0,0.1,0,0.2-0.1,0.2c-0.1,0.1-0.2,0.1-0.3,0.1c-0.1,0-0.2,0-0.3-0.1C111.9,159.2,111.8,159.1,111.8,159z"/>
					<path class="st4" d="M119.3,159v-8.9c0-0.2,0.1-0.3,0.4-0.3c0.2,0,0.5,0.2,0.7,0.6l3.5,6.9v-7.2c0-0.2,0.1-0.3,0.4-0.3
						s0.4,0.1,0.4,0.3v8.9c0,0.1,0,0.2-0.1,0.2s-0.2,0.1-0.3,0.1c-0.2,0-0.4-0.2-0.6-0.5l-3.6-7.1v7.2c0,0.1,0,0.2-0.1,0.2
						c-0.1,0.1-0.2,0.1-0.3,0.1c-0.1,0-0.2,0-0.3-0.1C119.3,159.2,119.3,159.1,119.3,159z"/>
					<path class="st4" d="M126.8,159v-8.9c0-0.1,0-0.2,0.1-0.2c0.1-0.1,0.2-0.1,0.3-0.1h4.6c0.2,0,0.3,0.1,0.3,0.4
						c0,0.1,0,0.2-0.1,0.3c-0.1,0.1-0.1,0.1-0.2,0.1h-4.2v3.6h2c0.1,0,0.2,0,0.2,0.1c0.1,0.1,0.1,0.2,0.1,0.3c0,0.2-0.1,0.4-0.3,0.4
						h-2v3.6h4.2c0.1,0,0.2,0,0.2,0.1c0.1,0.1,0.1,0.2,0.1,0.3c0,0.3-0.1,0.4-0.3,0.4h-4.6c-0.1,0-0.2,0-0.3-0.1
						C126.8,159.2,126.8,159.1,126.8,159z"/>
					<g>
						<path class="st4" d="M86.2,150.7l-2,8.5c0,0.1-0.1,0.2-0.3,0.2c-0.1,0-0.2,0-0.3-0.1c-0.1-0.1-0.2-0.2-0.2-0.3
							c0,0,0-0.1,0-0.1l0.2-0.7l1.9-8.2c0.1-0.2,0.2-0.3,0.5-0.3 M87.1,150.1"/>
						<path class="st4" d="M86,149.8h1.9c0.3,0,0.4,0.1,0.5,0.3l1.9,8.2l0.2,0.7c0,0,0,0,0,0.1c0,0.1-0.1,0.2-0.2,0.3
							c-0.1,0.1-0.2,0.1-0.3,0.1c-0.2,0-0.3-0.1-0.3-0.2l-2-8.5l-1.4,0 M86.7,150.1"/>
						<path class="st4" d="M84.6,156.3h4.3c0.2,0,0.4,0,0.5,0.1c0.1,0.1,0.2,0.2,0.2,0.3c0,0.2-0.2,0.4-0.7,0.4h-4.3"/>
					</g>
				</g>
			</g>
			<g>
				<g>
					<path class="st4" d="M88.2,142.6l-1.1,4.6c0,0.1-0.1,0.1-0.2,0.1c-0.1,0-0.1,0-0.2-0.1c-0.1,0-0.1-0.1-0.1-0.1c0,0,0,0,0,0
						l0.1-0.4l1.1-4.5c0-0.1,0.1-0.2,0.3-0.2 M88.7,142.3"/>
					<path class="st4" d="M88,142.1h1c0.2,0,0.2,0.1,0.3,0.2l1.1,4.5l0.1,0.4c0,0,0,0,0,0c0,0.1,0,0.1-0.1,0.1
						c-0.1,0-0.1,0.1-0.2,0.1c-0.1,0-0.2,0-0.2-0.1l-1.1-4.6l-0.7,0 M88.4,142.3"/>
					<path class="st4" d="M87.3,145.7h2.3c0.1,0,0.2,0,0.3,0.1c0.1,0,0.1,0.1,0.1,0.2c0,0.1-0.1,0.2-0.4,0.2h-2.3"/>
				</g>
			</g>
			<path class="st4" d="M121.2,94.1c-0.2,0-0.3-0.1-0.4-0.3c-0.8-2.2-2.5-2.2-2.6-2.2c-0.2,0-0.4-0.2-0.4-0.4c0-0.2,0.2-0.4,0.4-0.4
				c0.1,0,2.4,0,3.4,2.7c0.1,0.2,0,0.5-0.3,0.6C121.3,94.1,121.2,94.1,121.2,94.1z"/>
			<path class="st6" d="M86.6,136.6"/>
			<path class="st4" d="M117.4,95.6"/>
			<path class="st4" d="M86.6,137.1c-0.1,0-0.2,0-0.3-0.1c-0.2-0.1-0.2-0.4-0.1-0.6l30.8-41c0.1-0.2,0.4-0.2,0.6-0.1
				c0.2,0.1,0.2,0.4,0.1,0.6l-30.8,41C86.8,137,86.7,137.1,86.6,137.1z"/>
			<line class="st7" x1="93.7" y1="107.6" x2="104.1" y2="98"/>
			<line class="st8" x1="108.6" y1="107.8" x2="97.5" y2="98.3"/>
		</g>
	</g>
</g>
<g>
	<rect x="180.4" y="149.7" class="st9" width="75.3" height="20.1"/>
	<text transform="matrix(1 0 0 1 185.1528 158.0802)" class="st10 st11 st12">ONZE WERKING</text>
	<rect x="255.8" y="149.7" class="st9" width="75.3" height="20.1"/>
	<text transform="matrix(1 0 0 1 275.3739 158.0802)" class="st4 st11 st12">AANBOD</text>
	<rect x="331.3" y="149.7" class="st9" width="75.3" height="20.1"/>
	<text transform="matrix(1 0 0 1 356.8944 158.0802)" class="st4 st11 st12">TEAM</text>
	<rect x="406.8" y="149.7" class="st9" width="75.3" height="20.1"/>
	<text transform="matrix(1 0 0 1 417.3383 158.0802)" class="st4 st11 st12">AANMELDEN</text>
	<rect x="481.9" y="149.7" class="st9" width="75.3" height="20.1"/>
	<text transform="matrix(1 0 0 1 498.1532 158.0802)" class="st4 st11 st12">TARIEVEN</text>
	<rect x="557.3" y="149.7" class="st9" width="75.3" height="20.1"/>
	<text transform="matrix(1 0 0 1 574.8237 158.0802)" class="st4 st11 st12">CONTACT</text>
</g>
<rect x="25.8" y="14.5" class="st9" width="652.3" height="29"/>
<text transform="matrix(1 0 0 1 327.6899 30.5444)" class="st4 st11 st13">MENU</text>
<line class="st14" x1="221.1" y1="164.5" x2="221.1" y2="250"/>
<line class="st14" x1="255.8" y1="250" x2="221.1" y2="250"/>
<rect x="267.8" y="244.4" class="st9" width="426" height="25.6"/>
<text transform="matrix(1 0 0 1 269.7007 252.7153)" class="st4 st11 st12">De button wordt bold in hovermodus, bij het klikken op de button blijft deze automatisch in bold staan.</text>
<g>
	<circle class="st15" cx="635" cy="152.4" r="2.4"/>
	<line class="st15" x1="636.7" y1="154" x2="638.9" y2="156.7"/>
</g>
<g>
	<g>
		<path class="st4" d="M659.5,158.3c-0.2,0-0.5,0-0.7,0c0,0,0,0,0,0c-0.2,0-0.4-0.1-0.6-0.1c-2-0.4-3.6-2.1-3.9-4.2
			c0-0.1,0-0.2-0.1-0.3c0-0.3,0-0.5,0-0.8c0,0,0,0,0,0c0-0.1,0-0.3,0.1-0.4c0.2-1.3,0.9-2.4,2-3.2c1.1-0.8,2.4-1.1,3.8-0.9
			c1.2,0.2,2.2,0.8,3,1.8c0.8,1,1.2,2.2,1.1,3.5c-0.1,0.7-0.3,1.4-0.6,2.1c-0.8,1.4-2,2.3-3.7,2.5
			C659.7,158.3,659.6,158.3,659.5,158.3z M658.4,154.9c0,0.5,0,0.9,0,1.4c0,0.1,0,0.1,0.1,0.1c0.3,0,0.7,0,1,0c0.1,0,0.1,0,0.1-0.1
			c0-0.9,0-1.8,0-2.7c0-0.1,0-0.1,0.1-0.1c0.2,0,0.4,0,0.7,0c0.1,0,0.1,0,0.1-0.1c0-0.3,0.1-0.6,0.1-0.9c0-0.1,0-0.1-0.1-0.1
			c-0.3,0-0.5,0-0.8,0c-0.1,0-0.1,0-0.1-0.1c0-0.2,0-0.3,0-0.5c0-0.2,0.1-0.3,0.3-0.3c0.2,0,0.3,0,0.5,0c0.1,0,0.1,0,0.1-0.1
			c0-0.3,0-0.6,0-0.9c0,0,0-0.1-0.1-0.1c-0.3,0-0.7,0-1,0c-0.6,0-1,0.5-1.1,1.1c0,0.2,0,0.5,0,0.7c0,0.1,0,0.1-0.1,0.1
			c-0.1,0-0.3,0-0.4,0c0,0-0.1,0-0.1,0.1c0,0.3,0,0.6,0,0.9c0,0.1,0,0.1,0.1,0.1c0.1,0,0.3,0,0.4,0c0.1,0,0.1,0,0.1,0.1
			C658.4,154,658.4,154.5,658.4,154.9z"/>
		<g>
			<path class="st0" d="M658.4,154.9c0-0.5,0-0.9,0-1.4c0-0.1,0-0.1-0.1-0.1c-0.1,0-0.3,0-0.4,0c-0.1,0-0.1,0-0.1-0.1
				c0-0.3,0-0.6,0-0.9c0-0.1,0-0.1,0.1-0.1c0.1,0,0.3,0,0.4,0c0.1,0,0.1,0,0.1-0.1c0-0.2,0-0.5,0-0.7c0.1-0.6,0.4-1,1.1-1.1
				c0.3,0,0.7,0,1,0c0.1,0,0.1,0,0.1,0.1c0,0.3,0,0.6,0,0.9c0,0.1,0,0.1-0.1,0.1c-0.2,0-0.3,0-0.5,0c-0.2,0-0.3,0.1-0.3,0.3
				c0,0.2,0,0.3,0,0.5c0,0.1,0,0.1,0.1,0.1c0.3,0,0.5,0,0.8,0c0.1,0,0.1,0,0.1,0.1c0,0.3-0.1,0.6-0.1,0.9c0,0.1,0,0.1-0.1,0.1
				c-0.2,0-0.4,0-0.7,0c-0.1,0-0.1,0-0.1,0.1c0,0.9,0,1.8,0,2.7c0,0.1,0,0.1-0.1,0.1c-0.3,0-0.7,0-1,0c-0.1,0-0.1,0-0.1-0.1
				C658.4,155.8,658.4,155.4,658.4,154.9z"/>
		</g>
	</g>
</g>
<line class="st14" x1="637.5" y1="167.1" x2="637.5" y2="179.7"/>
<line class="st14" x1="637.5" y1="179.7" x2="629.8" y2="179.7"/>
<rect x="246.7" y="173.4" class="st9" width="380.3" height="30.8"/>
<text transform="matrix(1 0 0 1 246.6659 181.7731)"><tspan x="0" y="0" class="st4 st11 st12">De</tspan><tspan x="11.2" y="0" class="st4 st11 st12 st16"> </tspan><tspan x="17" y="0" class="st4 st11 st12">zoek</tspan><tspan x="36.5" y="0" class="st4 st11 st12 st16"> </tspan><tspan x="42.4" y="0" class="st4 st11 st12">button</tspan><tspan x="70.2" y="0" class="st4 st11 st12 st16"> </tspan><tspan x="76" y="0" class="st4 st11 st12">opent</tspan><tspan x="100.2" y="0" class="st4 st11 st12 st16"> </tspan><tspan x="106" y="0" class="st4 st11 st12">onderaan</tspan><tspan x="145.6" y="0" class="st4 st11 st12 st16"> </tspan><tspan x="151.4" y="0" class="st4 st11 st12">een</tspan><tspan x="166.9" y="0" class="st4 st11 st12 st16"> </tspan><tspan x="172.7" y="0" class="st4 st11 st12">zoekvenster</tspan><tspan x="223.5" y="0" class="st4 st11 st12 st16"> </tspan><tspan x="229.3" y="0" class="st4 st11 st12">zodat</tspan><tspan x="252.2" y="0" class="st4 st11 st12 st16"> </tspan><tspan x="258.1" y="0" class="st4 st11 st12">er</tspan><tspan x="266.7" y="0" class="st4 st11 st12 st16"> </tspan><tspan x="272.5" y="0" class="st4 st11 st12">kan</tspan><tspan x="287.8" y="0" class="st4 st11 st12 st16"> </tspan><tspan x="293.6" y="0" class="st4 st11 st12">gezocht</tspan><tspan x="326.3" y="0" class="st4 st11 st12 st16"> </tspan><tspan x="332.1" y="0" class="st4 st11 st12">worden</tspan><tspan x="364" y="0" class="st4 st11 st12 st16"> </tspan><tspan x="369.8" y="0" class="st4 st11 st12">op  </tspan><tspan x="248.4" y="13.2" class="st4 st11 st12">trefwoorden op de hele website</tspan></text>
<rect x="246.7" y="204.2" class="st9" width="380.3" height="30.8"/>
<text transform="matrix(1 0 0 1 440.6991 212.5375)" class="st4 st11 st12">Link naar facebookpagina van Antenne 3000</text>
<line class="st14" x1="659.2" y1="167.1" x2="659.2" y2="209"/>
<line class="st14" x1="659.2" y1="209" x2="629.8" y2="209"/>
<rect x="30.6" y="287" class="st9" width="338.3" height="29"/>
<text transform="matrix(1 0 0 1 142.4218 302.9525)" class="st4 st11 st13">mobiel menu</text>
<rect x="28.6" y="355" class="st0" width="227.4" height="212.9"/>
<path class="st1" d="M242.8,418.1"/>
<path class="st2" d="M242.8,418.1"/>
<circle class="st4" cx="214.3" cy="376.9" r="0.4"/>
<path class="st4" d="M219.5,396.8"/>
<path class="st4" d="M219.2,396.8"/>
<path class="st4" d="M237,410.1c-0.1,0-0.2-0.1-0.3-0.2C233.9,396.5,228,377,225,377c-3,0.2-7,15.8-8.9,26.3c0,0.2-0.2,0.3-0.3,0.2
	c-0.2,0-0.3-0.2-0.2-0.3c0.5-2.7,5-26.4,9.5-26.7c3.8,0,9.9,21.7,12.3,33.3C237.3,409.9,237.2,410,237,410.1
	C237,410.1,237,410.1,237,410.1z"/>
<path class="st4" d="M244.4,374.6c-0.1,0-0.2-0.1-0.3-0.2c-1-2.8-2.7-4.8-5-5.9c-1.7-0.8-3.2-0.8-3.2-0.8c0,0,0,0,0,0
	c-0.2,0-0.3-0.1-0.3-0.3c0-0.2,0.1-0.3,0.3-0.3c0.1,0,6.2,0,8.8,7.1C244.7,374.4,244.6,374.5,244.4,374.6
	C244.5,374.6,244.4,374.6,244.4,374.6z"/>
<path class="st4" d="M240.4,374.5c-0.1,0-0.2-0.1-0.3-0.2c-1-2.9-3.4-2.9-3.5-2.9c0,0,0,0,0,0c-0.2,0-0.3-0.1-0.3-0.3
	c0-0.2,0.1-0.3,0.3-0.3c0,0,2.9,0,4,3.2C240.7,374.3,240.7,374.4,240.4,374.5C240.5,374.5,240.5,374.5,240.4,374.5z"/>
<path class="st4" d="M225.1,373.2c-2.1,0-3.7-1.7-3.7-3.7c0-2.1,1.7-3.7,3.7-3.7c2.1,0,3.7,1.7,3.7,3.7
	C228.8,371.5,227.1,373.2,225.1,373.2z M225.1,366.3c-1.7,0-3.2,1.4-3.2,3.2c0,1.7,1.4,3.2,3.2,3.2c1.7,0,3.2-1.4,3.2-3.2
	C228.2,367.8,226.8,366.3,225.1,366.3z"/>
<path class="st4" d="M237,410.1c-0.1,0-0.2,0-0.2-0.1l-20.5-30.8c-0.1-0.1-0.1-0.3,0.1-0.4c0.1-0.1,0.3-0.1,0.4,0.1l20.5,30.8
	c0.1,0.1,0.1,0.3-0.1,0.4C237.1,410.1,237,410.1,237,410.1z"/>
<path class="st4" d="M235.5,377"/>
<path class="st5" d="M215.8,403.2"/>
<path class="st4" d="M213.8,409.1v-1.4c0-0.3,0.1-0.6,0.3-0.7c0.2-0.2,0.4-0.2,0.7-0.2c0.3,0,0.5,0.1,0.7,0.2
	c0.2,0.1,0.3,0.3,0.3,0.5c0,0.1,0,0.1,0,0.1c0,0-0.1,0-0.1,0c-0.1,0-0.1,0-0.1-0.1c0,0,0-0.1,0-0.1c0,0,0-0.1-0.1-0.1
	c0-0.1-0.1-0.1-0.1-0.1c0,0-0.1-0.1-0.2-0.1c-0.1,0-0.2,0-0.3,0c-0.4,0-0.7,0.2-0.7,0.7v1.4c0,0.5,0.2,0.7,0.7,0.7
	c0.1,0,0.2,0,0.3-0.1c0.1,0,0.1-0.1,0.2-0.2c0-0.1,0.1-0.1,0.1-0.2c0,0,0-0.1,0-0.2c0-0.1,0.1-0.1,0.1-0.1c0.1,0,0.1,0,0.1,0
	c0,0,0,0.1,0,0.1c0,0.2-0.1,0.4-0.3,0.5c-0.2,0.1-0.4,0.2-0.7,0.2c-0.3,0-0.5-0.1-0.7-0.2C213.8,409.7,213.8,409.4,213.8,409.1z"/>
<path class="st4" d="M218.7,410v-3.1c0-0.1,0-0.1,0.1-0.1h0.8c0.3,0,0.5,0.1,0.7,0.2c0.2,0.1,0.3,0.4,0.3,0.7c0,0.5-0.2,0.8-0.7,0.9
	l0.7,1.3c0,0,0,0,0,0.1c0,0,0,0.1-0.1,0.1c0,0-0.1,0-0.1,0c-0.1,0-0.1-0.1-0.2-0.2l-0.7-1.4H219v1.4c0,0,0,0.1,0,0.1
	c0,0-0.1,0-0.1,0C218.8,410.1,218.8,410.1,218.7,410C218.7,410,218.7,410,218.7,410z M219,408.3h0.6c0.5,0,0.7-0.2,0.7-0.6
	c0-0.4-0.2-0.6-0.7-0.6H219V408.3z"/>
<g>
	<g>
		<path class="st4" d="M213.7,424.1c0-0.1,0-0.2,0.1-0.2c0,0,0.1-0.1,0.2-0.1c0.2,0,0.3,0.1,0.3,0.2c0,0.2,0.1,0.4,0.3,0.6
			c0.2,0.2,0.5,0.3,0.9,0.3c0.8,0,1.2-0.4,1.2-1.2v-0.2c0-0.4-0.1-0.6-0.3-0.8c-0.2-0.2-0.5-0.3-0.9-0.3c-0.1,0-0.2-0.1-0.2-0.2
			c0-0.2,0.1-0.2,0.2-0.2c0.3,0,0.6-0.1,0.8-0.2c0.2-0.2,0.3-0.4,0.3-0.8c0-0.4-0.1-0.6-0.2-0.8c-0.2-0.2-0.4-0.3-0.8-0.3
			c-0.4,0-0.7,0.1-0.8,0.3c-0.2,0.2-0.2,0.4-0.2,0.6c0,0.2-0.1,0.3-0.3,0.3c-0.1,0-0.2,0-0.2-0.1c0,0-0.1-0.1-0.1-0.2
			c0-0.1,0-0.3,0.1-0.4c0-0.1,0.1-0.3,0.2-0.4c0.1-0.1,0.3-0.3,0.5-0.4c0.2-0.1,0.5-0.1,0.8-0.1c1,0,1.5,0.5,1.5,1.4
			c0,0.4-0.1,0.6-0.2,0.9c-0.1,0.2-0.3,0.4-0.5,0.5c0.6,0.2,0.8,0.7,0.8,1.3v0.2c0,0.6-0.2,1-0.5,1.3c-0.3,0.3-0.7,0.4-1.2,0.4
			c-0.5,0-1-0.1-1.3-0.4C213.9,424.7,213.7,424.4,213.7,424.1z"/>
		<path class="st4" d="M218,423.7v-2.5c0-0.6,0.2-1,0.5-1.3c0.3-0.3,0.7-0.4,1.2-0.4c0.5,0,0.9,0.1,1.2,0.4c0.3,0.3,0.5,0.7,0.5,1.3
			v2.5c0,0.6-0.2,1-0.5,1.3c-0.3,0.3-0.7,0.4-1.2,0.4c-0.5,0-0.9-0.1-1.2-0.4C218.1,424.7,218,424.3,218,423.7z M218.5,423.7
			c0,0.8,0.4,1.3,1.1,1.3c0.8,0,1.1-0.4,1.1-1.3v-2.5c0-0.8-0.4-1.2-1.1-1.2c-0.8,0-1.1,0.4-1.1,1.2V423.7z"/>
		<path class="st4" d="M222.3,423.7v-2.5c0-0.6,0.2-1,0.5-1.3c0.3-0.3,0.7-0.4,1.2-0.4c0.5,0,0.9,0.1,1.2,0.4
			c0.3,0.3,0.5,0.7,0.5,1.3v2.5c0,0.6-0.2,1-0.5,1.3c-0.3,0.3-0.7,0.4-1.2,0.4c-0.5,0-0.9-0.1-1.2-0.4
			C222.5,424.7,222.3,424.3,222.3,423.7z M222.9,423.7c0,0.8,0.4,1.3,1.1,1.3c0.8,0,1.1-0.4,1.1-1.3v-2.5c0-0.8-0.4-1.2-1.1-1.2
			c-0.8,0-1.1,0.4-1.1,1.2V423.7z"/>
		<path class="st4" d="M226.7,423.7v-2.5c0-0.6,0.2-1,0.5-1.3c0.3-0.3,0.7-0.4,1.2-0.4c0.5,0,0.9,0.1,1.2,0.4
			c0.3,0.3,0.5,0.7,0.5,1.3v2.5c0,0.6-0.2,1-0.5,1.3c-0.3,0.3-0.7,0.4-1.2,0.4c-0.5,0-0.9-0.1-1.2-0.4
			C226.8,424.7,226.7,424.3,226.7,423.7z M227.2,423.7c0,0.8,0.4,1.3,1.1,1.3c0.8,0,1.1-0.4,1.1-1.3v-2.5c0-0.8-0.4-1.2-1.1-1.2
			c-0.8,0-1.1,0.4-1.1,1.2V423.7z"/>
	</g>
</g>
<g>
	<g>
		<path class="st4" d="M237.1,419.6C237.1,419.5,237.2,419.5,237.1,419.6c0.1-0.1,0.1-0.1,0.2-0.1c0.1,0,0.1,0,0.1,0.1l0.8,2.7
			l0.8-2.7c0,0,0.1-0.1,0.1-0.1c0,0,0.1,0,0.1,0c0,0,0.1,0.1,0.1,0.1c0,0,0,0,0,0c0,0,0,0,0,0l-0.9,2.9c0,0.1-0.1,0.1-0.2,0.1
			c-0.1,0-0.1,0-0.2-0.1L237.1,419.6C237.1,419.6,237.1,419.6,237.1,419.6z"/>
		<path class="st4" d="M239.5,422.5C239.5,422.5,239.5,422.5,239.5,422.5l1.5-2.8h-1.3c0,0-0.1,0-0.1,0c0,0,0-0.1,0-0.1
			c0,0,0-0.1,0-0.1c0,0,0,0,0.1,0h1.6c0.1,0,0.1,0,0.1,0.1c0,0,0,0.1,0,0.1l-1.4,2.7h1.4c0,0,0.1,0,0.1,0c0,0,0,0.1,0,0.1
			s0,0.1,0,0.1c0,0,0,0-0.1,0h-1.7C239.5,422.6,239.5,422.6,239.5,422.5z"/>
		<path class="st4" d="M241.6,419.6C241.6,419.5,241.6,419.5,241.6,419.6c0.1-0.1,0.1-0.1,0.1-0.1c0.1,0,0.1,0,0.1,0.1l0.7,2.7
			l0.4-1.6c0-0.1,0.1-0.1,0.1-0.1c0.1,0,0.1,0,0.1,0.1l0.4,1.6l0.8-2.7c0,0,0.1-0.1,0.1-0.1c0,0,0.1,0,0.1,0c0,0,0.1,0,0.1,0.1
			c0,0,0,0,0,0l-0.8,2.9c0,0.1-0.1,0.1-0.2,0.1c-0.1,0-0.1,0-0.2-0.1l-0.4-1.5l-0.4,1.5c0,0.1-0.1,0.1-0.2,0.1c-0.1,0-0.1,0-0.2-0.1
			L241.6,419.6C241.6,419.6,241.6,419.6,241.6,419.6z"/>
	</g>
</g>
<g>
	<g>
		<path class="st4" d="M218.9,417.5v-5.7c0-0.1,0.1-0.2,0.3-0.2c0.2,0,0.3,0.1,0.4,0.4l2.3,4.4v-4.6c0-0.1,0.1-0.2,0.3-0.2
			s0.3,0.1,0.3,0.2v5.7c0,0.1,0,0.1-0.1,0.2c-0.1,0-0.1,0.1-0.2,0.1c-0.1,0-0.3-0.1-0.4-0.3l-2.3-4.5v4.6c0,0.1,0,0.1-0.1,0.2
			c-0.1,0-0.1,0.1-0.2,0.1c-0.1,0-0.1,0-0.2-0.1C219,417.6,218.9,417.6,218.9,417.5z"/>
		<path class="st4" d="M223.2,411.9c0-0.1,0-0.1,0.1-0.2c0-0.1,0.1-0.1,0.2-0.1h3.3c0.1,0,0.1,0,0.2,0.1c0,0,0.1,0.1,0.1,0.2
			c0,0.1,0,0.1-0.1,0.2c0,0.1-0.1,0.1-0.2,0.1h-1.4v5.4c0,0.1,0,0.1-0.1,0.2c-0.1,0-0.1,0.1-0.2,0.1c-0.1,0-0.1,0-0.2-0.1
			c-0.1,0-0.1-0.1-0.1-0.2v-5.4h-1.4c-0.1,0-0.1,0-0.2-0.1C223.2,412,223.2,412,223.2,411.9z"/>
		<path class="st4" d="M227.7,417.5v-5.7c0-0.1,0-0.1,0.1-0.2s0.1-0.1,0.2-0.1h3c0.1,0,0.2,0.1,0.2,0.2c0,0.1,0,0.1-0.1,0.2
			c0,0.1-0.1,0.1-0.2,0.1h-2.7v2.3h1.3c0.1,0,0.1,0,0.2,0.1c0,0,0.1,0.1,0.1,0.2c0,0.2-0.1,0.2-0.2,0.2h-1.3v2.3h2.7
			c0.1,0,0.1,0,0.2,0.1c0,0.1,0.1,0.1,0.1,0.2c0,0.2-0.1,0.3-0.2,0.3h-3c-0.1,0-0.1,0-0.2-0.1C227.7,417.6,227.7,417.6,227.7,417.5z
			"/>
		<path class="st4" d="M232,417.5v-5.7c0-0.1,0.1-0.2,0.3-0.2c0.2,0,0.3,0.1,0.4,0.4l2.3,4.4v-4.6c0-0.1,0.1-0.2,0.3-0.2
			s0.3,0.1,0.3,0.2v5.7c0,0.1,0,0.1-0.1,0.2c-0.1,0-0.1,0.1-0.2,0.1c-0.1,0-0.3-0.1-0.4-0.3l-2.3-4.5v4.6c0,0.1,0,0.1-0.1,0.2
			c-0.1,0-0.1,0.1-0.2,0.1c-0.1,0-0.1,0-0.2-0.1C232,417.6,232,417.6,232,417.5z"/>
		<path class="st4" d="M236.7,417.5v-5.7c0-0.1,0.1-0.2,0.3-0.2c0.2,0,0.3,0.1,0.4,0.4l2.3,4.4v-4.6c0-0.1,0.1-0.2,0.3-0.2
			s0.3,0.1,0.3,0.2v5.7c0,0.1,0,0.1-0.1,0.2c-0.1,0-0.1,0.1-0.2,0.1c-0.1,0-0.3-0.1-0.4-0.3l-2.3-4.5v4.6c0,0.1,0,0.1-0.1,0.2
			c-0.1,0-0.1,0.1-0.2,0.1c-0.1,0-0.1,0-0.2-0.1C236.8,417.6,236.7,417.6,236.7,417.5z"/>
		<path class="st4" d="M241.5,417.5v-5.7c0-0.1,0-0.1,0.1-0.2c0.1,0,0.1-0.1,0.2-0.1h3c0.1,0,0.2,0.1,0.2,0.2c0,0.1,0,0.1-0.1,0.2
			c0,0.1-0.1,0.1-0.2,0.1h-2.7v2.3h1.3c0.1,0,0.1,0,0.2,0.1c0,0,0.1,0.1,0.1,0.2c0,0.2-0.1,0.2-0.2,0.2h-1.3v2.3h2.7
			c0.1,0,0.1,0,0.2,0.1c0,0.1,0.1,0.1,0.1,0.2c0,0.2-0.1,0.3-0.2,0.3h-3c-0.1,0-0.1,0-0.2-0.1C241.5,417.6,241.5,417.6,241.5,417.5z
			"/>
		<g>
			<path class="st4" d="M215.6,412.2l-1.3,5.4c0,0.1-0.1,0.1-0.2,0.1c-0.1,0-0.2,0-0.2-0.1c-0.1,0-0.1-0.1-0.1-0.2c0,0,0,0,0-0.1
				l0.1-0.4l1.2-5.2c0-0.1,0.1-0.2,0.3-0.2 M216.2,411.8"/>
			<path class="st4" d="M215.4,411.6h1.2c0.2,0,0.3,0.1,0.3,0.2l1.2,5.2l0.1,0.4c0,0,0,0,0,0.1c0,0.1,0,0.1-0.1,0.2
				c-0.1,0-0.1,0.1-0.2,0.1c-0.1,0-0.2,0-0.2-0.1l-1.3-5.4l-0.9,0 M215.9,411.8"/>
			<path class="st4" d="M214.5,415.8h2.7c0.1,0,0.2,0,0.3,0.1c0.1,0,0.1,0.1,0.1,0.2c0,0.2-0.1,0.2-0.4,0.2h-2.7"/>
		</g>
	</g>
</g>
<g>
	<g>
		<path class="st4" d="M216.9,407l-0.7,3c0,0.1-0.1,0.1-0.1,0.1c0,0-0.1,0-0.1,0c0,0-0.1-0.1-0.1-0.1c0,0,0,0,0,0l0.1-0.2l0.7-2.9
			c0-0.1,0.1-0.1,0.2-0.1 M217.2,406.8"/>
		<path class="st4" d="M216.8,406.7h0.6c0.1,0,0.2,0,0.2,0.1l0.7,2.9l0.1,0.2c0,0,0,0,0,0c0,0,0,0.1-0.1,0.1c0,0-0.1,0-0.1,0
			c-0.1,0-0.1,0-0.1-0.1l-0.7-3l-0.5,0 M217,406.8"/>
		<path class="st4" d="M216.3,409h1.5c0.1,0,0.1,0,0.2,0c0,0,0.1,0.1,0.1,0.1c0,0.1-0.1,0.1-0.2,0.1h-1.5"/>
	</g>
</g>
<path class="st4" d="M237.9,376.1c-0.1,0-0.2-0.1-0.3-0.2c-0.5-1.4-1.6-1.4-1.7-1.4c-0.2,0-0.3-0.1-0.3-0.3c0-0.2,0.1-0.3,0.3-0.3
	c0.1,0,1.6,0,2.2,1.8C238.3,375.8,238.2,376,237.9,376.1C238,376,238,376.1,237.9,376.1z"/>
<path class="st6" d="M215.8,403.2"/>
<path class="st4" d="M235.5,377"/>
<path class="st4" d="M215.8,403.5c-0.1,0-0.1,0-0.2-0.1c-0.1-0.1-0.1-0.3-0.1-0.4l19.7-26.2c0.1-0.1,0.3-0.1,0.4-0.1
	c0.1,0.1,0.1,0.3,0.1,0.4L216,403.4C216,403.5,215.9,403.5,215.8,403.5z"/>
<line class="st17" x1="220.4" y1="384.6" x2="227" y2="378.5"/>
<line class="st17" x1="229.9" y1="384.8" x2="222.8" y2="378.7"/>
<line class="st15" x1="49.7" y1="371.9" x2="71.7" y2="371.9"/>
<line class="st15" x1="49.7" y1="381.2" x2="71.7" y2="381.2"/>
<line class="st15" x1="49.7" y1="390.4" x2="71.7" y2="390.4"/>
<rect x="49.7" y="439.5" class="st9" width="75.3" height="20.1"/>
<text transform="matrix(1 0 0 1 54.5037 447.8237)" class="st10 st11 st12">ONZE WERKING</text>
<rect x="54.9" y="461.5" class="st9" width="75.3" height="20.1"/>
<text transform="matrix(1 0 0 1 54.9374 469.8109)" class="st4 st11 st12">AANBOD</text>
<rect x="54.9" y="481.6" class="st9" width="75.3" height="20.1"/>
<text transform="matrix(1 0 0 1 54.9374 489.931)" class="st4 st11 st12">TEAM</text>
<rect x="54.9" y="503" class="st9" width="75.3" height="20.1"/>
<text transform="matrix(1 0 0 1 54.9373 511.3344)" class="st4 st11 st12">AANMELDEN</text>
<rect x="54.9" y="524.4" class="st9" width="75.3" height="20.1"/>
<text transform="matrix(1 0 0 1 54.9376 532.7382)" class="st4 st11 st12">TARIEVEN</text>
<rect x="57.3" y="544.5" class="st9" width="75.3" height="20.1"/>
<text transform="matrix(1 0 0 1 57.2523 552.8585)" class="st4 st11 st12">CONTACT</text>
<rect x="84.3" y="327.8" class="st9" width="267.9" height="25.2"/>
<text transform="matrix(1 0 0 1 84.3497 336.175)" class="st4 st11 st12">Dit menu is openklapbaar bij de mobiele versie van de website.</text>
<line class="st14" x1="80.4" y1="332.7" x2="53.6" y2="332.7"/>
<line class="st14" x1="53.6" y1="362.5" x2="53.6" y2="332.7"/>
<rect x="361.3" y="287" class="st9" width="338.3" height="29"/>
<text transform="matrix(1 0 0 1 496.956 302.9525)" class="st4 st11 st13">BUTTON </text>
<rect x="416.7" y="353.4" class="st4" width="241" height="37"/>
<text transform="matrix(1 0 0 1 499.963 376.4532)" class="st18 st11 st19">AANMELDEN</text>
<rect x="408.6" y="402.1" class="st9" width="267.9" height="25.2"/>
<text transform="matrix(1 0 0 1 511.9314 410.4543)" class="st4 st11 st12">Button inactief</text>
<rect x="414.7" y="470.5" class="st0" width="241" height="37"/>
<text transform="matrix(1 0 0 1 497.963 493.6139)" class="st4 st11 st19">AANMELDEN</text>
<rect x="406.6" y="520.5" class="st9" width="267.9" height="25.2"/>
<text transform="matrix(1 0 0 1 499.1789 528.8331)" class="st4 st11 st12">Button actief/hover</text>
</svg>
