<svg id="Layer_1" data-name="Layer 1" xmlns="http://www.w3.org/2000/svg" viewBox="0 0 349.78 451.45"><defs><style>.cls-1,.cls-5{fill:#1a4955;}.cls-2,.cls-3{fill:none;stroke:#1a4955;stroke-miterlimit:10;}.cls-2{stroke-width:2.7px;}.cls-3{stroke-width:2.78px;}.cls-4,.cls-5{opacity:0.54;}</style></defs><title>Tekengebied 3</title><circle class="cls-1" cx="98.44" cy="136.04" r="2.02"/><path class="cls-1" d="M208.52,300a1.35,1.35,0,0,1-1.32-1.08c-13.36-64.67-42-158.6-56.42-158.6-14.57,1-33.75,76.35-43.07,126.74a1.35,1.35,0,0,1-2.65-.49c2.41-13,24.17-127.47,45.63-128.95,18.35,0,47.57,104.7,59.16,160.75a1.36,1.36,0,0,1-1,1.6A1.33,1.33,0,0,1,208.52,300Z"/><path class="cls-1" d="M245.77,128.15a1.36,1.36,0,0,1-1.27-.9c-4.85-13.66-13-23.28-24.18-28.59a38.82,38.82,0,0,0-15.47-3.9h0a1.35,1.35,0,0,1,0-2.7c.35,0,30-.12,42.25,34.28a1.36,1.36,0,0,1-.82,1.73A1.48,1.48,0,0,1,245.77,128.15Z"/><path class="cls-1" d="M226.62,127.56a1.36,1.36,0,0,1-1.27-.9c-4.91-13.82-16.29-13.82-16.77-13.83h0a1.35,1.35,0,0,1,0-2.7c.15,0,13.78-.08,19.36,15.62a1.35,1.35,0,0,1-.82,1.73A1.42,1.42,0,0,1,226.62,127.56Z"/><path class="cls-1" d="M151,122a18,18,0,1,1,18-18A18,18,0,0,1,151,122Zm0-33.22a15.26,15.26,0,1,0,15.26,15.26A15.27,15.27,0,0,0,151,88.79Z"/><path class="cls-1" d="M208.53,300a1.36,1.36,0,0,1-1.12-.61l-99.2-148.79a1.4,1.4,0,0,1,.35-1.92,1.31,1.31,0,0,1,1.87.36l99.21,148.79a1.41,1.41,0,0,1-.35,1.92A1.3,1.3,0,0,1,208.53,300Z"/><path class="cls-1" d="M96.43,295.25v-6.79a4.49,4.49,0,0,1,1.28-3.52,5.53,5.53,0,0,1,6.62-.08,3.32,3.32,0,0,1,1.21,2.6,1.07,1.07,0,0,1-.16.7.76.76,0,0,1-.56.17q-.67,0-.72-.54a4.48,4.48,0,0,0-.09-.64,2.86,2.86,0,0,0-.26-.69,2.12,2.12,0,0,0-.52-.67,2.5,2.5,0,0,0-.88-.47,4.37,4.37,0,0,0-1.32-.19q-3.15,0-3.15,3.33v6.79q0,3.36,3.24,3.36a4,4,0,0,0,1.53-.26,1.75,1.75,0,0,0,.9-.73,3.91,3.91,0,0,0,.39-.82,6.06,6.06,0,0,0,.16-.89q.06-.57.72-.57a.72.72,0,0,1,.56.19,1.1,1.1,0,0,1,.16.71,3.36,3.36,0,0,1-1.23,2.63,5,5,0,0,1-3.34,1.07,4.7,4.7,0,0,1-3.28-1.14A4.56,4.56,0,0,1,96.43,295.25Z"/><path class="cls-1" d="M120.42,299.37V284.46c0-.32.18-.5.54-.53h3.88a5.46,5.46,0,0,1,3.43,1,3.91,3.91,0,0,1,1.3,3.31q0,3.63-3.41,4.22l3.37,6.49a.43.43,0,0,1,.09.28.69.69,0,0,1-.27.52.84.84,0,0,1-.56.23c-.27,0-.52-.26-.77-.77l-3.37-6.57h-2.79v6.72a.47.47,0,0,1-.22.42.84.84,0,0,1-.5.15.89.89,0,0,1-.52-.15A.5.5,0,0,1,120.42,299.37Zm1.44-8h3q3.28,0,3.29-3.09t-3.29-3h-3Z"/><path class="cls-1" d="M96.28,367.46a1.56,1.56,0,0,1,.28-1.08,1.24,1.24,0,0,1,1-.3c.89,0,1.34.37,1.34,1.11a4.27,4.27,0,0,0,1.32,3,5.69,5.69,0,0,0,4.25,1.38c3.8,0,5.69-2,5.69-5.92v-.76a5,5,0,0,0-1.48-3.95,6,6,0,0,0-4.13-1.3c-.68,0-1-.37-1-1.11s.33-1.14,1-1.14a5.36,5.36,0,0,0,3.72-1.13c.81-.74,1.22-2.05,1.22-3.91a5.51,5.51,0,0,0-1.14-3.84,4.74,4.74,0,0,0-3.64-1.24c-1.84,0-3.15.42-3.91,1.28a4.24,4.24,0,0,0-1.15,2.93,1.11,1.11,0,0,1-1.26,1.26,1.42,1.42,0,0,1-1-.32,1.71,1.71,0,0,1-.3-1.18,5.67,5.67,0,0,1,.36-1.94,7.86,7.86,0,0,1,1.15-2,5.61,5.61,0,0,1,2.41-1.73,9.9,9.9,0,0,1,3.83-.67q7.23,0,7.23,7a9,9,0,0,1-.89,4.26,5.21,5.21,0,0,1-2.35,2.4c2.69,1.08,4,3.22,4,6.4v.76q0,4.31-2.27,6.32a8.71,8.71,0,0,1-6,2,8.46,8.46,0,0,1-6-2A6.07,6.07,0,0,1,96.28,367.46Z"/><path class="cls-1" d="M116.71,365.53V353.28q0-4.35,2.24-6.39a9.49,9.49,0,0,1,11.73,0q2.23,2,2.24,6.39v12.25q0,4.38-2.24,6.42A9.49,9.49,0,0,1,119,372Q116.71,369.91,116.71,365.53Zm2.61,0q0,6,5.5,6t5.49-6V353.28q0-6-5.49-6t-5.5,6Z"/><path class="cls-1" d="M137.74,365.53V353.28q0-4.35,2.23-6.39a9.49,9.49,0,0,1,11.73,0c1.5,1.36,2.24,3.49,2.24,6.39v12.25c0,2.92-.74,5.06-2.24,6.42A9.49,9.49,0,0,1,140,372Q137.73,369.91,137.74,365.53Zm2.61,0q0,6,5.49,6t5.49-6V353.28q0-6-5.49-6t-5.49,6Z"/><path class="cls-1" d="M158.76,365.53V353.28q0-4.35,2.24-6.39a9.49,9.49,0,0,1,11.73,0q2.24,2,2.24,6.39v12.25q0,4.38-2.24,6.42A9.49,9.49,0,0,1,161,372Q158.76,369.91,158.76,365.53Zm2.61,0q0,6,5.5,6t5.49-6V353.28q0-6-5.49-6t-5.5,6Z"/><path class="cls-1" d="M209.91,345.87a.5.5,0,0,1,.25-.42,1,1,0,0,1,.55-.17.48.48,0,0,1,.54.36l3.87,12.83L219,345.64a.49.49,0,0,1,.52-.36,1,1,0,0,1,.56.18.5.5,0,0,1,.27.42.07.07,0,0,1,0,.06.13.13,0,0,0,0,.07l-4.33,14.17q-.15.51-.84.51a.74.74,0,0,1-.81-.5L209.93,346A.37.37,0,0,1,209.91,345.87Z"/><path class="cls-1" d="M221.24,360.08a1.15,1.15,0,0,1,.13-.48l7-13H222a.47.47,0,0,1-.38-.19.73.73,0,0,1-.15-.46.74.74,0,0,1,.14-.44.44.44,0,0,1,.39-.19h7.59c.35,0,.52.15.52.44a1.09,1.09,0,0,1-.17.54l-6.94,13h6.84a.42.42,0,0,1,.38.19.66.66,0,0,1,.14.44.75.75,0,0,1-.14.45.43.43,0,0,1-.38.2h-8.11C221.41,360.57,221.24,360.41,221.24,360.08Z"/><path class="cls-1" d="M231.32,345.85a.49.49,0,0,1,.23-.4.76.76,0,0,1,.48-.17.45.45,0,0,1,.48.4l3.62,12.84,2.11-7.88c.06-.3.3-.44.7-.44a.64.64,0,0,1,.69.52l2.09,7.8,3.64-12.93a.52.52,0,0,1,.55-.31,1.07,1.07,0,0,1,.55.16.45.45,0,0,1,.25.38.61.61,0,0,1,0,.15l-4.1,14.18a.76.76,0,0,1-.82.54c-.46,0-.72-.16-.81-.47l-2-7.45-2,7.37a.64.64,0,0,1-.73.55.66.66,0,0,1-.74-.5L231.34,346A.63.63,0,0,1,231.32,345.85Z"/><path class="cls-1" d="M121.41,335.91V308.54c0-.67.44-1,1.33-1s1.45.62,2.09,1.85L135.7,330.8V308.5c0-.65.44-1,1.33-1s1.33.32,1.33,1v27.41a.9.9,0,0,1-.41.77,1.52,1.52,0,0,1-.92.28q-1,0-1.77-1.53l-11.19-21.78v22.26a.9.9,0,0,1-.41.77,1.7,1.7,0,0,1-1.87,0A.93.93,0,0,1,121.41,335.91Z"/><path class="cls-1" d="M142,308.76a1.47,1.47,0,0,1,.26-.85.86.86,0,0,1,.75-.38h16.14a.88.88,0,0,1,.75.36,1.37,1.37,0,0,1,.26.83,1.55,1.55,0,0,1-.26.89.88.88,0,0,1-.75.38h-6.72v25.92a.9.9,0,0,1-.41.77,1.52,1.52,0,0,1-.92.28,1.55,1.55,0,0,1-1-.28.93.93,0,0,1-.38-.77V310H143a.89.89,0,0,1-.73-.36A1.35,1.35,0,0,1,142,308.76Z"/><path class="cls-1" d="M163.84,335.91V308.54a.87.87,0,0,1,.36-.75,1.45,1.45,0,0,1,.85-.26h14.33c.67,0,1,.39,1,1.17a1.56,1.56,0,0,1-.26.9.86.86,0,0,1-.75.39H166.5v11.07h6.32a.86.86,0,0,1,.74.34,1.35,1.35,0,0,1,.26.86c0,.73-.33,1.09-1,1.09H166.5V334.5h12.88a.87.87,0,0,1,.73.37,1.42,1.42,0,0,1,.28.88c0,.81-.34,1.21-1,1.21H165.05a1.34,1.34,0,0,1-.85-.28A.93.93,0,0,1,163.84,335.91Z"/><path class="cls-1" d="M184.29,335.91V308.54c0-.67.44-1,1.33-1s1.45.62,2.09,1.85l10.87,21.42V308.5c0-.65.45-1,1.33-1s1.33.32,1.33,1v27.41a.89.89,0,0,1-.4.77,1.57,1.57,0,0,1-.93.28q-1,0-1.77-1.53L187,313.65v22.26a.92.92,0,0,1-.4.77,1.57,1.57,0,0,1-.93.28,1.55,1.55,0,0,1-1-.28A.93.93,0,0,1,184.29,335.91Z"/><path class="cls-1" d="M207.36,335.91V308.54c0-.67.44-1,1.33-1s1.45.62,2.09,1.85l10.87,21.42V308.5c0-.65.45-1,1.33-1s1.33.32,1.33,1v27.41a.89.89,0,0,1-.4.77,1.57,1.57,0,0,1-.93.28q-1,0-1.77-1.53L210,313.65v22.26a.92.92,0,0,1-.4.77,1.57,1.57,0,0,1-.93.28,1.55,1.55,0,0,1-.95-.28A.93.93,0,0,1,207.36,335.91Z"/><path class="cls-1" d="M230.43,335.91V308.54a.87.87,0,0,1,.36-.75,1.45,1.45,0,0,1,.85-.26H246c.67,0,1,.39,1,1.17a1.5,1.5,0,0,1-.27.9.83.83,0,0,1-.74.39H233.09v11.07h6.32a.86.86,0,0,1,.74.34,1.35,1.35,0,0,1,.26.86c0,.73-.33,1.09-1,1.09h-6.32V334.5H246a.88.88,0,0,1,.73.37,1.42,1.42,0,0,1,.28.88c0,.81-.34,1.21-1,1.21H231.64a1.34,1.34,0,0,1-.85-.28A.93.93,0,0,1,230.43,335.91Z"/><path class="cls-1" d="M105.32,310.3,99,336.4c-.11.45-.46.68-1.06.68a1.9,1.9,0,0,1-1-.32,1,1,0,0,1-.49-.81.83.83,0,0,1,0-.28l.53-2.14,5.93-25.19c.19-.62.71-.93,1.57-.93m3.55.93"/><path class="cls-1" d="M104.5,307.41h5.73c.86,0,1.38.31,1.57.93l5.93,25.19.53,2.14a.63.63,0,0,1,0,.28,1,1,0,0,1-.48.81,1.94,1.94,0,0,1-1.06.32c-.59,0-.94-.23-1.05-.68l-6.22-26.11h-4.17m1.37-2"/><path class="cls-1" d="M100.14,327.71h13.19a3,3,0,0,1,1.55.34,1,1,0,0,1,.55.87c0,.72-.7,1.09-2.1,1.09H100.14"/><path class="cls-1" d="M111.35,285.34l-3.45,14.28c-.06.24-.25.37-.57.37a1,1,0,0,1-.58-.18.51.51,0,0,1-.27-.44.28.28,0,0,1,0-.15l.28-1.17L110,284.26c.1-.34.39-.51.86-.51m1.94.51"/><path class="cls-1" d="M110.9,283.75H114c.47,0,.76.17.86.51l3.25,13.79.29,1.17a.49.49,0,0,1,0,.15.51.51,0,0,1-.27.44,1,1,0,0,1-.57.18c-.33,0-.52-.13-.58-.37l-3.4-14.29h-2.28m.74-1.08"/><path class="cls-1" d="M108.51,294.86h7.22a1.55,1.55,0,0,1,.85.19.54.54,0,0,1,.3.47c0,.4-.39.6-1.15.6h-7.22"/><path class="cls-1" d="M214.59,135.13a1.35,1.35,0,0,1-1.27-.89c-2.36-6.65-7.83-6.69-8-6.68a1.41,1.41,0,0,1-1.36-1.34,1.34,1.34,0,0,1,1.32-1.36c.31,0,7.56,0,10.59,8.47a1.35,1.35,0,0,1-.82,1.73A1.41,1.41,0,0,1,214.59,135.13Z"/><path class="cls-1" d="M106.39,268.18a1.29,1.29,0,0,1-.81-.28,1.34,1.34,0,0,1-.27-1.89l95-126.67a1.35,1.35,0,0,1,2.16,1.62l-95,126.67A1.35,1.35,0,0,1,106.39,268.18Z"/><line class="cls-2" x1="128.26" y1="177.1" x2="160.59" y2="147.59"/><line class="cls-3" x1="174.32" y1="177.95" x2="140.08" y2="148.44"/><g class="cls-4"><path class="cls-1" d="M247.26,86.09V374h-151V86.09h151m1-1h-153V375h153V85.09Z"/></g><path class="cls-5" d="M266.25,236.78a18,18,0,1,1,18-18A18,18,0,0,1,266.25,236.78Zm0-33.22a15.26,15.26,0,1,0,15.26,15.26A15.28,15.28,0,0,0,266.25,203.56Z"/><g class="cls-4"><path class="cls-1" d="M284.22,49.17V411H59.38V49.17H284.22m1-1H58.38V412H285.22V48.17Z"/></g><path class="cls-5" d="M77.33,236.78a18,18,0,1,1,18-18A18,18,0,0,1,77.33,236.78Zm0-33.22a15.26,15.26,0,1,0,15.26,15.26A15.27,15.27,0,0,0,77.33,203.56Z"/><path class="cls-5" d="M169,85.09a18,18,0,1,1,18-18A18,18,0,0,1,169,85.09Zm0-33.22a15.26,15.26,0,1,0,15.26,15.26A15.28,15.28,0,0,0,169,51.87Z"/><path class="cls-5" d="M169,411A18,18,0,1,1,187,393,18,18,0,0,1,169,411Zm0-33.21A15.26,15.26,0,1,0,184.25,393,15.28,15.28,0,0,0,169,377.78Z"/></svg>